G04 #@! TF.GenerationSoftware,KiCad,Pcbnew,5.1.7-a382d34a8~87~ubuntu18.04.1*
G04 #@! TF.CreationDate,2020-11-02T17:13:51+01:00*
G04 #@! TF.ProjectId,synermycha-electronics,73796e65-726d-4796-9368-612d656c6563,rev?*
G04 #@! TF.SameCoordinates,Original*
G04 #@! TF.FileFunction,Paste,Top*
G04 #@! TF.FilePolarity,Positive*
%FSLAX46Y46*%
G04 Gerber Fmt 4.6, Leading zero omitted, Abs format (unit mm)*
G04 Created by KiCad (PCBNEW 5.1.7-a382d34a8~87~ubuntu18.04.1) date 2020-11-02 17:13:51*
%MOMM*%
%LPD*%
G01*
G04 APERTURE LIST*
%ADD10R,1.450000X0.450000*%
%ADD11R,0.250000X0.700000*%
%ADD12R,0.560000X0.500000*%
%ADD13R,0.500000X1.500000*%
%ADD14R,1.150000X0.950000*%
%ADD15R,0.750000X0.300000*%
%ADD16R,0.425000X0.400000*%
%ADD17R,1.100000X1.100000*%
%ADD18R,0.900000X1.700000*%
%ADD19R,0.550000X0.800000*%
%ADD20R,0.800000X0.550000*%
%ADD21R,0.450000X0.700000*%
%ADD22C,0.100000*%
%ADD23R,0.250000X0.500000*%
%ADD24R,1.170000X0.950000*%
%ADD25R,1.700000X0.900000*%
%ADD26R,0.300000X0.600000*%
%ADD27R,3.000000X2.600000*%
%ADD28R,1.500000X0.500000*%
%ADD29R,2.500000X1.250000*%
%ADD30R,2.400000X0.740000*%
%ADD31R,0.900000X0.800000*%
%ADD32R,0.650000X0.300000*%
%ADD33R,0.600000X1.050000*%
%ADD34R,1.500000X0.700000*%
%ADD35R,0.700000X1.500000*%
G04 APERTURE END LIST*
D10*
X26050000Y-151175000D03*
X26050000Y-150525000D03*
X26050000Y-149875000D03*
X26050000Y-149225000D03*
X26050000Y-148575000D03*
X26050000Y-147925000D03*
X26050000Y-147275000D03*
X26050000Y-146625000D03*
X26050000Y-145975000D03*
X26050000Y-145325000D03*
X20150000Y-145325000D03*
X20150000Y-145975000D03*
X20150000Y-146625000D03*
X20150000Y-147275000D03*
X20150000Y-147925000D03*
X20150000Y-148575000D03*
X20150000Y-149225000D03*
X20150000Y-149875000D03*
X20150000Y-150525000D03*
X20150000Y-151175000D03*
G36*
G01*
X70610000Y-151927500D02*
X70610000Y-152272500D01*
G75*
G02*
X70462500Y-152420000I-147500J0D01*
G01*
X70167500Y-152420000D01*
G75*
G02*
X70020000Y-152272500I0J147500D01*
G01*
X70020000Y-151927500D01*
G75*
G02*
X70167500Y-151780000I147500J0D01*
G01*
X70462500Y-151780000D01*
G75*
G02*
X70610000Y-151927500I0J-147500D01*
G01*
G37*
G36*
G01*
X71580000Y-151927500D02*
X71580000Y-152272500D01*
G75*
G02*
X71432500Y-152420000I-147500J0D01*
G01*
X71137500Y-152420000D01*
G75*
G02*
X70990000Y-152272500I0J147500D01*
G01*
X70990000Y-151927500D01*
G75*
G02*
X71137500Y-151780000I147500J0D01*
G01*
X71432500Y-151780000D01*
G75*
G02*
X71580000Y-151927500I0J-147500D01*
G01*
G37*
G36*
G01*
X27172500Y-153810000D02*
X26827500Y-153810000D01*
G75*
G02*
X26680000Y-153662500I0J147500D01*
G01*
X26680000Y-153367500D01*
G75*
G02*
X26827500Y-153220000I147500J0D01*
G01*
X27172500Y-153220000D01*
G75*
G02*
X27320000Y-153367500I0J-147500D01*
G01*
X27320000Y-153662500D01*
G75*
G02*
X27172500Y-153810000I-147500J0D01*
G01*
G37*
G36*
G01*
X27172500Y-154780000D02*
X26827500Y-154780000D01*
G75*
G02*
X26680000Y-154632500I0J147500D01*
G01*
X26680000Y-154337500D01*
G75*
G02*
X26827500Y-154190000I147500J0D01*
G01*
X27172500Y-154190000D01*
G75*
G02*
X27320000Y-154337500I0J-147500D01*
G01*
X27320000Y-154632500D01*
G75*
G02*
X27172500Y-154780000I-147500J0D01*
G01*
G37*
D11*
X69500000Y-153175000D03*
X69000000Y-153175000D03*
X68500000Y-153175000D03*
X68500000Y-155025000D03*
X69000000Y-155025000D03*
X69500000Y-155025000D03*
D12*
X69355000Y-154100000D03*
X68645000Y-154100000D03*
G36*
G01*
X64827500Y-154190000D02*
X65172500Y-154190000D01*
G75*
G02*
X65320000Y-154337500I0J-147500D01*
G01*
X65320000Y-154632500D01*
G75*
G02*
X65172500Y-154780000I-147500J0D01*
G01*
X64827500Y-154780000D01*
G75*
G02*
X64680000Y-154632500I0J147500D01*
G01*
X64680000Y-154337500D01*
G75*
G02*
X64827500Y-154190000I147500J0D01*
G01*
G37*
G36*
G01*
X64827500Y-153220000D02*
X65172500Y-153220000D01*
G75*
G02*
X65320000Y-153367500I0J-147500D01*
G01*
X65320000Y-153662500D01*
G75*
G02*
X65172500Y-153810000I-147500J0D01*
G01*
X64827500Y-153810000D01*
G75*
G02*
X64680000Y-153662500I0J147500D01*
G01*
X64680000Y-153367500D01*
G75*
G02*
X64827500Y-153220000I147500J0D01*
G01*
G37*
G36*
G01*
X63172500Y-153810000D02*
X62827500Y-153810000D01*
G75*
G02*
X62680000Y-153662500I0J147500D01*
G01*
X62680000Y-153367500D01*
G75*
G02*
X62827500Y-153220000I147500J0D01*
G01*
X63172500Y-153220000D01*
G75*
G02*
X63320000Y-153367500I0J-147500D01*
G01*
X63320000Y-153662500D01*
G75*
G02*
X63172500Y-153810000I-147500J0D01*
G01*
G37*
G36*
G01*
X63172500Y-154780000D02*
X62827500Y-154780000D01*
G75*
G02*
X62680000Y-154632500I0J147500D01*
G01*
X62680000Y-154337500D01*
G75*
G02*
X62827500Y-154190000I147500J0D01*
G01*
X63172500Y-154190000D01*
G75*
G02*
X63320000Y-154337500I0J-147500D01*
G01*
X63320000Y-154632500D01*
G75*
G02*
X63172500Y-154780000I-147500J0D01*
G01*
G37*
G36*
G01*
X21860000Y-151930000D02*
X21860000Y-152270000D01*
G75*
G02*
X21720000Y-152410000I-140000J0D01*
G01*
X21440000Y-152410000D01*
G75*
G02*
X21300000Y-152270000I0J140000D01*
G01*
X21300000Y-151930000D01*
G75*
G02*
X21440000Y-151790000I140000J0D01*
G01*
X21720000Y-151790000D01*
G75*
G02*
X21860000Y-151930000I0J-140000D01*
G01*
G37*
G36*
G01*
X20900000Y-151930000D02*
X20900000Y-152270000D01*
G75*
G02*
X20760000Y-152410000I-140000J0D01*
G01*
X20480000Y-152410000D01*
G75*
G02*
X20340000Y-152270000I0J140000D01*
G01*
X20340000Y-151930000D01*
G75*
G02*
X20480000Y-151790000I140000J0D01*
G01*
X20760000Y-151790000D01*
G75*
G02*
X20900000Y-151930000I0J-140000D01*
G01*
G37*
G36*
G01*
X66943750Y-152475000D02*
X67456250Y-152475000D01*
G75*
G02*
X67675000Y-152693750I0J-218750D01*
G01*
X67675000Y-153131250D01*
G75*
G02*
X67456250Y-153350000I-218750J0D01*
G01*
X66943750Y-153350000D01*
G75*
G02*
X66725000Y-153131250I0J218750D01*
G01*
X66725000Y-152693750D01*
G75*
G02*
X66943750Y-152475000I218750J0D01*
G01*
G37*
G36*
G01*
X66943750Y-154050000D02*
X67456250Y-154050000D01*
G75*
G02*
X67675000Y-154268750I0J-218750D01*
G01*
X67675000Y-154706250D01*
G75*
G02*
X67456250Y-154925000I-218750J0D01*
G01*
X66943750Y-154925000D01*
G75*
G02*
X66725000Y-154706250I0J218750D01*
G01*
X66725000Y-154268750D01*
G75*
G02*
X66943750Y-154050000I218750J0D01*
G01*
G37*
G36*
G01*
X69680000Y-151927500D02*
X69680000Y-152272500D01*
G75*
G02*
X69532500Y-152420000I-147500J0D01*
G01*
X69237500Y-152420000D01*
G75*
G02*
X69090000Y-152272500I0J147500D01*
G01*
X69090000Y-151927500D01*
G75*
G02*
X69237500Y-151780000I147500J0D01*
G01*
X69532500Y-151780000D01*
G75*
G02*
X69680000Y-151927500I0J-147500D01*
G01*
G37*
G36*
G01*
X68710000Y-151927500D02*
X68710000Y-152272500D01*
G75*
G02*
X68562500Y-152420000I-147500J0D01*
G01*
X68267500Y-152420000D01*
G75*
G02*
X68120000Y-152272500I0J147500D01*
G01*
X68120000Y-151927500D01*
G75*
G02*
X68267500Y-151780000I147500J0D01*
G01*
X68562500Y-151780000D01*
G75*
G02*
X68710000Y-151927500I0J-147500D01*
G01*
G37*
D10*
X69850000Y-145325000D03*
X69850000Y-145975000D03*
X69850000Y-146625000D03*
X69850000Y-147275000D03*
X69850000Y-147925000D03*
X69850000Y-148575000D03*
X69850000Y-149225000D03*
X69850000Y-149875000D03*
X69850000Y-150525000D03*
X69850000Y-151175000D03*
X63950000Y-151175000D03*
X63950000Y-150525000D03*
X63950000Y-149875000D03*
X63950000Y-149225000D03*
X63950000Y-148575000D03*
X63950000Y-147925000D03*
X63950000Y-147275000D03*
X63950000Y-146625000D03*
X63950000Y-145975000D03*
X63950000Y-145325000D03*
D11*
X21500000Y-153175000D03*
X21000000Y-153175000D03*
X20500000Y-153175000D03*
X20500000Y-155025000D03*
X21000000Y-155025000D03*
X21500000Y-155025000D03*
D12*
X21355000Y-154100000D03*
X20645000Y-154100000D03*
G36*
G01*
X67475000Y-156556250D02*
X67475000Y-156043750D01*
G75*
G02*
X67693750Y-155825000I218750J0D01*
G01*
X68131250Y-155825000D01*
G75*
G02*
X68350000Y-156043750I0J-218750D01*
G01*
X68350000Y-156556250D01*
G75*
G02*
X68131250Y-156775000I-218750J0D01*
G01*
X67693750Y-156775000D01*
G75*
G02*
X67475000Y-156556250I0J218750D01*
G01*
G37*
G36*
G01*
X69050000Y-156556250D02*
X69050000Y-156043750D01*
G75*
G02*
X69268750Y-155825000I218750J0D01*
G01*
X69706250Y-155825000D01*
G75*
G02*
X69925000Y-156043750I0J-218750D01*
G01*
X69925000Y-156556250D01*
G75*
G02*
X69706250Y-156775000I-218750J0D01*
G01*
X69268750Y-156775000D01*
G75*
G02*
X69050000Y-156556250I0J218750D01*
G01*
G37*
G36*
G01*
X22543750Y-154150000D02*
X23056250Y-154150000D01*
G75*
G02*
X23275000Y-154368750I0J-218750D01*
G01*
X23275000Y-154806250D01*
G75*
G02*
X23056250Y-155025000I-218750J0D01*
G01*
X22543750Y-155025000D01*
G75*
G02*
X22325000Y-154806250I0J218750D01*
G01*
X22325000Y-154368750D01*
G75*
G02*
X22543750Y-154150000I218750J0D01*
G01*
G37*
G36*
G01*
X22543750Y-152575000D02*
X23056250Y-152575000D01*
G75*
G02*
X23275000Y-152793750I0J-218750D01*
G01*
X23275000Y-153231250D01*
G75*
G02*
X23056250Y-153450000I-218750J0D01*
G01*
X22543750Y-153450000D01*
G75*
G02*
X22325000Y-153231250I0J218750D01*
G01*
X22325000Y-152793750D01*
G75*
G02*
X22543750Y-152575000I218750J0D01*
G01*
G37*
G36*
G01*
X24827500Y-154190000D02*
X25172500Y-154190000D01*
G75*
G02*
X25320000Y-154337500I0J-147500D01*
G01*
X25320000Y-154632500D01*
G75*
G02*
X25172500Y-154780000I-147500J0D01*
G01*
X24827500Y-154780000D01*
G75*
G02*
X24680000Y-154632500I0J147500D01*
G01*
X24680000Y-154337500D01*
G75*
G02*
X24827500Y-154190000I147500J0D01*
G01*
G37*
G36*
G01*
X24827500Y-153220000D02*
X25172500Y-153220000D01*
G75*
G02*
X25320000Y-153367500I0J-147500D01*
G01*
X25320000Y-153662500D01*
G75*
G02*
X25172500Y-153810000I-147500J0D01*
G01*
X24827500Y-153810000D01*
G75*
G02*
X24680000Y-153662500I0J147500D01*
G01*
X24680000Y-153367500D01*
G75*
G02*
X24827500Y-153220000I147500J0D01*
G01*
G37*
G36*
G01*
X19390000Y-152272500D02*
X19390000Y-151927500D01*
G75*
G02*
X19537500Y-151780000I147500J0D01*
G01*
X19832500Y-151780000D01*
G75*
G02*
X19980000Y-151927500I0J-147500D01*
G01*
X19980000Y-152272500D01*
G75*
G02*
X19832500Y-152420000I-147500J0D01*
G01*
X19537500Y-152420000D01*
G75*
G02*
X19390000Y-152272500I0J147500D01*
G01*
G37*
G36*
G01*
X18420000Y-152272500D02*
X18420000Y-151927500D01*
G75*
G02*
X18567500Y-151780000I147500J0D01*
G01*
X18862500Y-151780000D01*
G75*
G02*
X19010000Y-151927500I0J-147500D01*
G01*
X19010000Y-152272500D01*
G75*
G02*
X18862500Y-152420000I-147500J0D01*
G01*
X18567500Y-152420000D01*
G75*
G02*
X18420000Y-152272500I0J147500D01*
G01*
G37*
G36*
G01*
X24172500Y-153810000D02*
X23827500Y-153810000D01*
G75*
G02*
X23680000Y-153662500I0J147500D01*
G01*
X23680000Y-153367500D01*
G75*
G02*
X23827500Y-153220000I147500J0D01*
G01*
X24172500Y-153220000D01*
G75*
G02*
X24320000Y-153367500I0J-147500D01*
G01*
X24320000Y-153662500D01*
G75*
G02*
X24172500Y-153810000I-147500J0D01*
G01*
G37*
G36*
G01*
X24172500Y-154780000D02*
X23827500Y-154780000D01*
G75*
G02*
X23680000Y-154632500I0J147500D01*
G01*
X23680000Y-154337500D01*
G75*
G02*
X23827500Y-154190000I147500J0D01*
G01*
X24172500Y-154190000D01*
G75*
G02*
X24320000Y-154337500I0J-147500D01*
G01*
X24320000Y-154632500D01*
G75*
G02*
X24172500Y-154780000I-147500J0D01*
G01*
G37*
G36*
G01*
X25827500Y-154190000D02*
X26172500Y-154190000D01*
G75*
G02*
X26320000Y-154337500I0J-147500D01*
G01*
X26320000Y-154632500D01*
G75*
G02*
X26172500Y-154780000I-147500J0D01*
G01*
X25827500Y-154780000D01*
G75*
G02*
X25680000Y-154632500I0J147500D01*
G01*
X25680000Y-154337500D01*
G75*
G02*
X25827500Y-154190000I147500J0D01*
G01*
G37*
G36*
G01*
X25827500Y-153220000D02*
X26172500Y-153220000D01*
G75*
G02*
X26320000Y-153367500I0J-147500D01*
G01*
X26320000Y-153662500D01*
G75*
G02*
X26172500Y-153810000I-147500J0D01*
G01*
X25827500Y-153810000D01*
G75*
G02*
X25680000Y-153662500I0J147500D01*
G01*
X25680000Y-153367500D01*
G75*
G02*
X25827500Y-153220000I147500J0D01*
G01*
G37*
G36*
G01*
X22525000Y-156050000D02*
X22525000Y-156550000D01*
G75*
G02*
X22300000Y-156775000I-225000J0D01*
G01*
X21850000Y-156775000D01*
G75*
G02*
X21625000Y-156550000I0J225000D01*
G01*
X21625000Y-156050000D01*
G75*
G02*
X21850000Y-155825000I225000J0D01*
G01*
X22300000Y-155825000D01*
G75*
G02*
X22525000Y-156050000I0J-225000D01*
G01*
G37*
G36*
G01*
X20975000Y-156050000D02*
X20975000Y-156550000D01*
G75*
G02*
X20750000Y-156775000I-225000J0D01*
G01*
X20300000Y-156775000D01*
G75*
G02*
X20075000Y-156550000I0J225000D01*
G01*
X20075000Y-156050000D01*
G75*
G02*
X20300000Y-155825000I225000J0D01*
G01*
X20750000Y-155825000D01*
G75*
G02*
X20975000Y-156050000I0J-225000D01*
G01*
G37*
G36*
G01*
X66172500Y-153810000D02*
X65827500Y-153810000D01*
G75*
G02*
X65680000Y-153662500I0J147500D01*
G01*
X65680000Y-153367500D01*
G75*
G02*
X65827500Y-153220000I147500J0D01*
G01*
X66172500Y-153220000D01*
G75*
G02*
X66320000Y-153367500I0J-147500D01*
G01*
X66320000Y-153662500D01*
G75*
G02*
X66172500Y-153810000I-147500J0D01*
G01*
G37*
G36*
G01*
X66172500Y-154780000D02*
X65827500Y-154780000D01*
G75*
G02*
X65680000Y-154632500I0J147500D01*
G01*
X65680000Y-154337500D01*
G75*
G02*
X65827500Y-154190000I147500J0D01*
G01*
X66172500Y-154190000D01*
G75*
G02*
X66320000Y-154337500I0J-147500D01*
G01*
X66320000Y-154632500D01*
G75*
G02*
X66172500Y-154780000I-147500J0D01*
G01*
G37*
D13*
X66905000Y-156250000D03*
X65635000Y-156250000D03*
X64365000Y-156250000D03*
X63095000Y-156250000D03*
G36*
G01*
X63827500Y-154190000D02*
X64172500Y-154190000D01*
G75*
G02*
X64320000Y-154337500I0J-147500D01*
G01*
X64320000Y-154632500D01*
G75*
G02*
X64172500Y-154780000I-147500J0D01*
G01*
X63827500Y-154780000D01*
G75*
G02*
X63680000Y-154632500I0J147500D01*
G01*
X63680000Y-154337500D01*
G75*
G02*
X63827500Y-154190000I147500J0D01*
G01*
G37*
G36*
G01*
X63827500Y-153220000D02*
X64172500Y-153220000D01*
G75*
G02*
X64320000Y-153367500I0J-147500D01*
G01*
X64320000Y-153662500D01*
G75*
G02*
X64172500Y-153810000I-147500J0D01*
G01*
X63827500Y-153810000D01*
G75*
G02*
X63680000Y-153662500I0J147500D01*
G01*
X63680000Y-153367500D01*
G75*
G02*
X63827500Y-153220000I147500J0D01*
G01*
G37*
X23110000Y-156250000D03*
X24380000Y-156250000D03*
X25650000Y-156250000D03*
X26920000Y-156250000D03*
G36*
G01*
X43315000Y-161140000D02*
X43685000Y-161140000D01*
G75*
G02*
X43820000Y-161275000I0J-135000D01*
G01*
X43820000Y-161545000D01*
G75*
G02*
X43685000Y-161680000I-135000J0D01*
G01*
X43315000Y-161680000D01*
G75*
G02*
X43180000Y-161545000I0J135000D01*
G01*
X43180000Y-161275000D01*
G75*
G02*
X43315000Y-161140000I135000J0D01*
G01*
G37*
G36*
G01*
X43315000Y-160120000D02*
X43685000Y-160120000D01*
G75*
G02*
X43820000Y-160255000I0J-135000D01*
G01*
X43820000Y-160525000D01*
G75*
G02*
X43685000Y-160660000I-135000J0D01*
G01*
X43315000Y-160660000D01*
G75*
G02*
X43180000Y-160525000I0J135000D01*
G01*
X43180000Y-160255000D01*
G75*
G02*
X43315000Y-160120000I135000J0D01*
G01*
G37*
G36*
G01*
X43590000Y-135572500D02*
X43590000Y-135227500D01*
G75*
G02*
X43737500Y-135080000I147500J0D01*
G01*
X44032500Y-135080000D01*
G75*
G02*
X44180000Y-135227500I0J-147500D01*
G01*
X44180000Y-135572500D01*
G75*
G02*
X44032500Y-135720000I-147500J0D01*
G01*
X43737500Y-135720000D01*
G75*
G02*
X43590000Y-135572500I0J147500D01*
G01*
G37*
G36*
G01*
X42620000Y-135572500D02*
X42620000Y-135227500D01*
G75*
G02*
X42767500Y-135080000I147500J0D01*
G01*
X43062500Y-135080000D01*
G75*
G02*
X43210000Y-135227500I0J-147500D01*
G01*
X43210000Y-135572500D01*
G75*
G02*
X43062500Y-135720000I-147500J0D01*
G01*
X42767500Y-135720000D01*
G75*
G02*
X42620000Y-135572500I0J147500D01*
G01*
G37*
G36*
G01*
X46340000Y-134722500D02*
X46340000Y-134377500D01*
G75*
G02*
X46487500Y-134230000I147500J0D01*
G01*
X46782500Y-134230000D01*
G75*
G02*
X46930000Y-134377500I0J-147500D01*
G01*
X46930000Y-134722500D01*
G75*
G02*
X46782500Y-134870000I-147500J0D01*
G01*
X46487500Y-134870000D01*
G75*
G02*
X46340000Y-134722500I0J147500D01*
G01*
G37*
G36*
G01*
X45370000Y-134722500D02*
X45370000Y-134377500D01*
G75*
G02*
X45517500Y-134230000I147500J0D01*
G01*
X45812500Y-134230000D01*
G75*
G02*
X45960000Y-134377500I0J-147500D01*
G01*
X45960000Y-134722500D01*
G75*
G02*
X45812500Y-134870000I-147500J0D01*
G01*
X45517500Y-134870000D01*
G75*
G02*
X45370000Y-134722500I0J147500D01*
G01*
G37*
G36*
G01*
X46315000Y-167720000D02*
X46685000Y-167720000D01*
G75*
G02*
X46820000Y-167855000I0J-135000D01*
G01*
X46820000Y-168125000D01*
G75*
G02*
X46685000Y-168260000I-135000J0D01*
G01*
X46315000Y-168260000D01*
G75*
G02*
X46180000Y-168125000I0J135000D01*
G01*
X46180000Y-167855000D01*
G75*
G02*
X46315000Y-167720000I135000J0D01*
G01*
G37*
G36*
G01*
X46315000Y-168740000D02*
X46685000Y-168740000D01*
G75*
G02*
X46820000Y-168875000I0J-135000D01*
G01*
X46820000Y-169145000D01*
G75*
G02*
X46685000Y-169280000I-135000J0D01*
G01*
X46315000Y-169280000D01*
G75*
G02*
X46180000Y-169145000I0J135000D01*
G01*
X46180000Y-168875000D01*
G75*
G02*
X46315000Y-168740000I135000J0D01*
G01*
G37*
G36*
G01*
X47685000Y-168260000D02*
X47315000Y-168260000D01*
G75*
G02*
X47180000Y-168125000I0J135000D01*
G01*
X47180000Y-167855000D01*
G75*
G02*
X47315000Y-167720000I135000J0D01*
G01*
X47685000Y-167720000D01*
G75*
G02*
X47820000Y-167855000I0J-135000D01*
G01*
X47820000Y-168125000D01*
G75*
G02*
X47685000Y-168260000I-135000J0D01*
G01*
G37*
G36*
G01*
X47685000Y-169280000D02*
X47315000Y-169280000D01*
G75*
G02*
X47180000Y-169145000I0J135000D01*
G01*
X47180000Y-168875000D01*
G75*
G02*
X47315000Y-168740000I135000J0D01*
G01*
X47685000Y-168740000D01*
G75*
G02*
X47820000Y-168875000I0J-135000D01*
G01*
X47820000Y-169145000D01*
G75*
G02*
X47685000Y-169280000I-135000J0D01*
G01*
G37*
G36*
G01*
X48450000Y-137275000D02*
X47950000Y-137275000D01*
G75*
G02*
X47725000Y-137050000I0J225000D01*
G01*
X47725000Y-136600000D01*
G75*
G02*
X47950000Y-136375000I225000J0D01*
G01*
X48450000Y-136375000D01*
G75*
G02*
X48675000Y-136600000I0J-225000D01*
G01*
X48675000Y-137050000D01*
G75*
G02*
X48450000Y-137275000I-225000J0D01*
G01*
G37*
G36*
G01*
X48450000Y-138825000D02*
X47950000Y-138825000D01*
G75*
G02*
X47725000Y-138600000I0J225000D01*
G01*
X47725000Y-138150000D01*
G75*
G02*
X47950000Y-137925000I225000J0D01*
G01*
X48450000Y-137925000D01*
G75*
G02*
X48675000Y-138150000I0J-225000D01*
G01*
X48675000Y-138600000D01*
G75*
G02*
X48450000Y-138825000I-225000J0D01*
G01*
G37*
G36*
G01*
X37530000Y-176875000D02*
X37530000Y-176225000D01*
G75*
G02*
X37690000Y-176065000I160000J0D01*
G01*
X38010000Y-176065000D01*
G75*
G02*
X38170000Y-176225000I0J-160000D01*
G01*
X38170000Y-176875000D01*
G75*
G02*
X38010000Y-177035000I-160000J0D01*
G01*
X37690000Y-177035000D01*
G75*
G02*
X37530000Y-176875000I0J160000D01*
G01*
G37*
G36*
G01*
X37530000Y-175675000D02*
X37530000Y-175025000D01*
G75*
G02*
X37690000Y-174865000I160000J0D01*
G01*
X38010000Y-174865000D01*
G75*
G02*
X38170000Y-175025000I0J-160000D01*
G01*
X38170000Y-175675000D01*
G75*
G02*
X38010000Y-175835000I-160000J0D01*
G01*
X37690000Y-175835000D01*
G75*
G02*
X37530000Y-175675000I0J160000D01*
G01*
G37*
G36*
G01*
X36730000Y-176875000D02*
X36730000Y-176225000D01*
G75*
G02*
X36890000Y-176065000I160000J0D01*
G01*
X37210000Y-176065000D01*
G75*
G02*
X37370000Y-176225000I0J-160000D01*
G01*
X37370000Y-176875000D01*
G75*
G02*
X37210000Y-177035000I-160000J0D01*
G01*
X36890000Y-177035000D01*
G75*
G02*
X36730000Y-176875000I0J160000D01*
G01*
G37*
G36*
G01*
X36730000Y-175675000D02*
X36730000Y-175025000D01*
G75*
G02*
X36890000Y-174865000I160000J0D01*
G01*
X37210000Y-174865000D01*
G75*
G02*
X37370000Y-175025000I0J-160000D01*
G01*
X37370000Y-175675000D01*
G75*
G02*
X37210000Y-175835000I-160000J0D01*
G01*
X36890000Y-175835000D01*
G75*
G02*
X36730000Y-175675000I0J160000D01*
G01*
G37*
G36*
G01*
X38475000Y-175050000D02*
X38475000Y-174900000D01*
G75*
G02*
X38550000Y-174825000I75000J0D01*
G01*
X39250000Y-174825000D01*
G75*
G02*
X39325000Y-174900000I0J-75000D01*
G01*
X39325000Y-175050000D01*
G75*
G02*
X39250000Y-175125000I-75000J0D01*
G01*
X38550000Y-175125000D01*
G75*
G02*
X38475000Y-175050000I0J75000D01*
G01*
G37*
G36*
G01*
X38475000Y-175700000D02*
X38475000Y-175550000D01*
G75*
G02*
X38550000Y-175475000I75000J0D01*
G01*
X39250000Y-175475000D01*
G75*
G02*
X39325000Y-175550000I0J-75000D01*
G01*
X39325000Y-175700000D01*
G75*
G02*
X39250000Y-175775000I-75000J0D01*
G01*
X38550000Y-175775000D01*
G75*
G02*
X38475000Y-175700000I0J75000D01*
G01*
G37*
G36*
G01*
X38475000Y-176350000D02*
X38475000Y-176200000D01*
G75*
G02*
X38550000Y-176125000I75000J0D01*
G01*
X39250000Y-176125000D01*
G75*
G02*
X39325000Y-176200000I0J-75000D01*
G01*
X39325000Y-176350000D01*
G75*
G02*
X39250000Y-176425000I-75000J0D01*
G01*
X38550000Y-176425000D01*
G75*
G02*
X38475000Y-176350000I0J75000D01*
G01*
G37*
G36*
G01*
X38475000Y-177000000D02*
X38475000Y-176850000D01*
G75*
G02*
X38550000Y-176775000I75000J0D01*
G01*
X39250000Y-176775000D01*
G75*
G02*
X39325000Y-176850000I0J-75000D01*
G01*
X39325000Y-177000000D01*
G75*
G02*
X39250000Y-177075000I-75000J0D01*
G01*
X38550000Y-177075000D01*
G75*
G02*
X38475000Y-177000000I0J75000D01*
G01*
G37*
G36*
G01*
X35575000Y-177000000D02*
X35575000Y-176850000D01*
G75*
G02*
X35650000Y-176775000I75000J0D01*
G01*
X36350000Y-176775000D01*
G75*
G02*
X36425000Y-176850000I0J-75000D01*
G01*
X36425000Y-177000000D01*
G75*
G02*
X36350000Y-177075000I-75000J0D01*
G01*
X35650000Y-177075000D01*
G75*
G02*
X35575000Y-177000000I0J75000D01*
G01*
G37*
G36*
G01*
X35575000Y-176350000D02*
X35575000Y-176200000D01*
G75*
G02*
X35650000Y-176125000I75000J0D01*
G01*
X36350000Y-176125000D01*
G75*
G02*
X36425000Y-176200000I0J-75000D01*
G01*
X36425000Y-176350000D01*
G75*
G02*
X36350000Y-176425000I-75000J0D01*
G01*
X35650000Y-176425000D01*
G75*
G02*
X35575000Y-176350000I0J75000D01*
G01*
G37*
G36*
G01*
X35575000Y-175700000D02*
X35575000Y-175550000D01*
G75*
G02*
X35650000Y-175475000I75000J0D01*
G01*
X36350000Y-175475000D01*
G75*
G02*
X36425000Y-175550000I0J-75000D01*
G01*
X36425000Y-175700000D01*
G75*
G02*
X36350000Y-175775000I-75000J0D01*
G01*
X35650000Y-175775000D01*
G75*
G02*
X35575000Y-175700000I0J75000D01*
G01*
G37*
G36*
G01*
X35575000Y-175050000D02*
X35575000Y-174900000D01*
G75*
G02*
X35650000Y-174825000I75000J0D01*
G01*
X36350000Y-174825000D01*
G75*
G02*
X36425000Y-174900000I0J-75000D01*
G01*
X36425000Y-175050000D01*
G75*
G02*
X36350000Y-175125000I-75000J0D01*
G01*
X35650000Y-175125000D01*
G75*
G02*
X35575000Y-175050000I0J75000D01*
G01*
G37*
G36*
G01*
X36410000Y-178015000D02*
X36410000Y-178385000D01*
G75*
G02*
X36275000Y-178520000I-135000J0D01*
G01*
X36005000Y-178520000D01*
G75*
G02*
X35870000Y-178385000I0J135000D01*
G01*
X35870000Y-178015000D01*
G75*
G02*
X36005000Y-177880000I135000J0D01*
G01*
X36275000Y-177880000D01*
G75*
G02*
X36410000Y-178015000I0J-135000D01*
G01*
G37*
G36*
G01*
X37430000Y-178015000D02*
X37430000Y-178385000D01*
G75*
G02*
X37295000Y-178520000I-135000J0D01*
G01*
X37025000Y-178520000D01*
G75*
G02*
X36890000Y-178385000I0J135000D01*
G01*
X36890000Y-178015000D01*
G75*
G02*
X37025000Y-177880000I135000J0D01*
G01*
X37295000Y-177880000D01*
G75*
G02*
X37430000Y-178015000I0J-135000D01*
G01*
G37*
G36*
G01*
X34440000Y-176035000D02*
X34440000Y-175665000D01*
G75*
G02*
X34575000Y-175530000I135000J0D01*
G01*
X34845000Y-175530000D01*
G75*
G02*
X34980000Y-175665000I0J-135000D01*
G01*
X34980000Y-176035000D01*
G75*
G02*
X34845000Y-176170000I-135000J0D01*
G01*
X34575000Y-176170000D01*
G75*
G02*
X34440000Y-176035000I0J135000D01*
G01*
G37*
G36*
G01*
X33420000Y-176035000D02*
X33420000Y-175665000D01*
G75*
G02*
X33555000Y-175530000I135000J0D01*
G01*
X33825000Y-175530000D01*
G75*
G02*
X33960000Y-175665000I0J-135000D01*
G01*
X33960000Y-176035000D01*
G75*
G02*
X33825000Y-176170000I-135000J0D01*
G01*
X33555000Y-176170000D01*
G75*
G02*
X33420000Y-176035000I0J135000D01*
G01*
G37*
G36*
G01*
X34440000Y-174035000D02*
X34440000Y-173665000D01*
G75*
G02*
X34575000Y-173530000I135000J0D01*
G01*
X34845000Y-173530000D01*
G75*
G02*
X34980000Y-173665000I0J-135000D01*
G01*
X34980000Y-174035000D01*
G75*
G02*
X34845000Y-174170000I-135000J0D01*
G01*
X34575000Y-174170000D01*
G75*
G02*
X34440000Y-174035000I0J135000D01*
G01*
G37*
G36*
G01*
X33420000Y-174035000D02*
X33420000Y-173665000D01*
G75*
G02*
X33555000Y-173530000I135000J0D01*
G01*
X33825000Y-173530000D01*
G75*
G02*
X33960000Y-173665000I0J-135000D01*
G01*
X33960000Y-174035000D01*
G75*
G02*
X33825000Y-174170000I-135000J0D01*
G01*
X33555000Y-174170000D01*
G75*
G02*
X33420000Y-174035000I0J135000D01*
G01*
G37*
G36*
G01*
X36890000Y-173985000D02*
X36890000Y-173615000D01*
G75*
G02*
X37025000Y-173480000I135000J0D01*
G01*
X37295000Y-173480000D01*
G75*
G02*
X37430000Y-173615000I0J-135000D01*
G01*
X37430000Y-173985000D01*
G75*
G02*
X37295000Y-174120000I-135000J0D01*
G01*
X37025000Y-174120000D01*
G75*
G02*
X36890000Y-173985000I0J135000D01*
G01*
G37*
G36*
G01*
X35870000Y-173985000D02*
X35870000Y-173615000D01*
G75*
G02*
X36005000Y-173480000I135000J0D01*
G01*
X36275000Y-173480000D01*
G75*
G02*
X36410000Y-173615000I0J-135000D01*
G01*
X36410000Y-173985000D01*
G75*
G02*
X36275000Y-174120000I-135000J0D01*
G01*
X36005000Y-174120000D01*
G75*
G02*
X35870000Y-173985000I0J135000D01*
G01*
G37*
G36*
G01*
X34400000Y-177020000D02*
X34400000Y-176680000D01*
G75*
G02*
X34540000Y-176540000I140000J0D01*
G01*
X34820000Y-176540000D01*
G75*
G02*
X34960000Y-176680000I0J-140000D01*
G01*
X34960000Y-177020000D01*
G75*
G02*
X34820000Y-177160000I-140000J0D01*
G01*
X34540000Y-177160000D01*
G75*
G02*
X34400000Y-177020000I0J140000D01*
G01*
G37*
G36*
G01*
X33440000Y-177020000D02*
X33440000Y-176680000D01*
G75*
G02*
X33580000Y-176540000I140000J0D01*
G01*
X33860000Y-176540000D01*
G75*
G02*
X34000000Y-176680000I0J-140000D01*
G01*
X34000000Y-177020000D01*
G75*
G02*
X33860000Y-177160000I-140000J0D01*
G01*
X33580000Y-177160000D01*
G75*
G02*
X33440000Y-177020000I0J140000D01*
G01*
G37*
G36*
G01*
X34000000Y-174680000D02*
X34000000Y-175020000D01*
G75*
G02*
X33860000Y-175160000I-140000J0D01*
G01*
X33580000Y-175160000D01*
G75*
G02*
X33440000Y-175020000I0J140000D01*
G01*
X33440000Y-174680000D01*
G75*
G02*
X33580000Y-174540000I140000J0D01*
G01*
X33860000Y-174540000D01*
G75*
G02*
X34000000Y-174680000I0J-140000D01*
G01*
G37*
G36*
G01*
X34960000Y-174680000D02*
X34960000Y-175020000D01*
G75*
G02*
X34820000Y-175160000I-140000J0D01*
G01*
X34540000Y-175160000D01*
G75*
G02*
X34400000Y-175020000I0J140000D01*
G01*
X34400000Y-174680000D01*
G75*
G02*
X34540000Y-174540000I140000J0D01*
G01*
X34820000Y-174540000D01*
G75*
G02*
X34960000Y-174680000I0J-140000D01*
G01*
G37*
G36*
G01*
X38750000Y-178370000D02*
X38750000Y-178030000D01*
G75*
G02*
X38890000Y-177890000I140000J0D01*
G01*
X39170000Y-177890000D01*
G75*
G02*
X39310000Y-178030000I0J-140000D01*
G01*
X39310000Y-178370000D01*
G75*
G02*
X39170000Y-178510000I-140000J0D01*
G01*
X38890000Y-178510000D01*
G75*
G02*
X38750000Y-178370000I0J140000D01*
G01*
G37*
G36*
G01*
X37790000Y-178370000D02*
X37790000Y-178030000D01*
G75*
G02*
X37930000Y-177890000I140000J0D01*
G01*
X38210000Y-177890000D01*
G75*
G02*
X38350000Y-178030000I0J-140000D01*
G01*
X38350000Y-178370000D01*
G75*
G02*
X38210000Y-178510000I-140000J0D01*
G01*
X37930000Y-178510000D01*
G75*
G02*
X37790000Y-178370000I0J140000D01*
G01*
G37*
G36*
G01*
X38750000Y-173970000D02*
X38750000Y-173630000D01*
G75*
G02*
X38890000Y-173490000I140000J0D01*
G01*
X39170000Y-173490000D01*
G75*
G02*
X39310000Y-173630000I0J-140000D01*
G01*
X39310000Y-173970000D01*
G75*
G02*
X39170000Y-174110000I-140000J0D01*
G01*
X38890000Y-174110000D01*
G75*
G02*
X38750000Y-173970000I0J140000D01*
G01*
G37*
G36*
G01*
X37790000Y-173970000D02*
X37790000Y-173630000D01*
G75*
G02*
X37930000Y-173490000I140000J0D01*
G01*
X38210000Y-173490000D01*
G75*
G02*
X38350000Y-173630000I0J-140000D01*
G01*
X38350000Y-173970000D01*
G75*
G02*
X38210000Y-174110000I-140000J0D01*
G01*
X37930000Y-174110000D01*
G75*
G02*
X37790000Y-173970000I0J140000D01*
G01*
G37*
G36*
G01*
X29815000Y-168240000D02*
X30185000Y-168240000D01*
G75*
G02*
X30320000Y-168375000I0J-135000D01*
G01*
X30320000Y-168645000D01*
G75*
G02*
X30185000Y-168780000I-135000J0D01*
G01*
X29815000Y-168780000D01*
G75*
G02*
X29680000Y-168645000I0J135000D01*
G01*
X29680000Y-168375000D01*
G75*
G02*
X29815000Y-168240000I135000J0D01*
G01*
G37*
G36*
G01*
X29815000Y-167220000D02*
X30185000Y-167220000D01*
G75*
G02*
X30320000Y-167355000I0J-135000D01*
G01*
X30320000Y-167625000D01*
G75*
G02*
X30185000Y-167760000I-135000J0D01*
G01*
X29815000Y-167760000D01*
G75*
G02*
X29680000Y-167625000I0J135000D01*
G01*
X29680000Y-167355000D01*
G75*
G02*
X29815000Y-167220000I135000J0D01*
G01*
G37*
D14*
X32000000Y-168425000D03*
D15*
X32000000Y-167450000D03*
D16*
X31062500Y-168750000D03*
X31062500Y-168100000D03*
X32937500Y-168750000D03*
X32937500Y-168100000D03*
X32937500Y-167450000D03*
X31062500Y-167450000D03*
D17*
X36800000Y-166800000D03*
X34000000Y-166800000D03*
G36*
G01*
X45685000Y-161680000D02*
X45315000Y-161680000D01*
G75*
G02*
X45180000Y-161545000I0J135000D01*
G01*
X45180000Y-161275000D01*
G75*
G02*
X45315000Y-161140000I135000J0D01*
G01*
X45685000Y-161140000D01*
G75*
G02*
X45820000Y-161275000I0J-135000D01*
G01*
X45820000Y-161545000D01*
G75*
G02*
X45685000Y-161680000I-135000J0D01*
G01*
G37*
G36*
G01*
X45685000Y-160660000D02*
X45315000Y-160660000D01*
G75*
G02*
X45180000Y-160525000I0J135000D01*
G01*
X45180000Y-160255000D01*
G75*
G02*
X45315000Y-160120000I135000J0D01*
G01*
X45685000Y-160120000D01*
G75*
G02*
X45820000Y-160255000I0J-135000D01*
G01*
X45820000Y-160525000D01*
G75*
G02*
X45685000Y-160660000I-135000J0D01*
G01*
G37*
D18*
X64200000Y-174000000D03*
X60800000Y-174000000D03*
G36*
G01*
X40670000Y-166800000D02*
X40330000Y-166800000D01*
G75*
G02*
X40190000Y-166660000I0J140000D01*
G01*
X40190000Y-166380000D01*
G75*
G02*
X40330000Y-166240000I140000J0D01*
G01*
X40670000Y-166240000D01*
G75*
G02*
X40810000Y-166380000I0J-140000D01*
G01*
X40810000Y-166660000D01*
G75*
G02*
X40670000Y-166800000I-140000J0D01*
G01*
G37*
G36*
G01*
X40670000Y-167760000D02*
X40330000Y-167760000D01*
G75*
G02*
X40190000Y-167620000I0J140000D01*
G01*
X40190000Y-167340000D01*
G75*
G02*
X40330000Y-167200000I140000J0D01*
G01*
X40670000Y-167200000D01*
G75*
G02*
X40810000Y-167340000I0J-140000D01*
G01*
X40810000Y-167620000D01*
G75*
G02*
X40670000Y-167760000I-140000J0D01*
G01*
G37*
G36*
G01*
X42950000Y-168075000D02*
X42450000Y-168075000D01*
G75*
G02*
X42225000Y-167850000I0J225000D01*
G01*
X42225000Y-167400000D01*
G75*
G02*
X42450000Y-167175000I225000J0D01*
G01*
X42950000Y-167175000D01*
G75*
G02*
X43175000Y-167400000I0J-225000D01*
G01*
X43175000Y-167850000D01*
G75*
G02*
X42950000Y-168075000I-225000J0D01*
G01*
G37*
G36*
G01*
X42950000Y-169625000D02*
X42450000Y-169625000D01*
G75*
G02*
X42225000Y-169400000I0J225000D01*
G01*
X42225000Y-168950000D01*
G75*
G02*
X42450000Y-168725000I225000J0D01*
G01*
X42950000Y-168725000D01*
G75*
G02*
X43175000Y-168950000I0J-225000D01*
G01*
X43175000Y-169400000D01*
G75*
G02*
X42950000Y-169625000I-225000J0D01*
G01*
G37*
G36*
G01*
X40330000Y-160140000D02*
X40670000Y-160140000D01*
G75*
G02*
X40810000Y-160280000I0J-140000D01*
G01*
X40810000Y-160560000D01*
G75*
G02*
X40670000Y-160700000I-140000J0D01*
G01*
X40330000Y-160700000D01*
G75*
G02*
X40190000Y-160560000I0J140000D01*
G01*
X40190000Y-160280000D01*
G75*
G02*
X40330000Y-160140000I140000J0D01*
G01*
G37*
G36*
G01*
X40330000Y-161100000D02*
X40670000Y-161100000D01*
G75*
G02*
X40810000Y-161240000I0J-140000D01*
G01*
X40810000Y-161520000D01*
G75*
G02*
X40670000Y-161660000I-140000J0D01*
G01*
X40330000Y-161660000D01*
G75*
G02*
X40190000Y-161520000I0J140000D01*
G01*
X40190000Y-161240000D01*
G75*
G02*
X40330000Y-161100000I140000J0D01*
G01*
G37*
D19*
X37697700Y-169374600D03*
X38947700Y-169374600D03*
D20*
X39425400Y-166197700D03*
X39425400Y-167447700D03*
D14*
X32000000Y-165375000D03*
D15*
X32000000Y-166350000D03*
D16*
X32937500Y-165050000D03*
X32937500Y-165700000D03*
X31062500Y-165050000D03*
X31062500Y-165700000D03*
X31062500Y-166350000D03*
X32937500Y-166350000D03*
D14*
X32000000Y-170825000D03*
D15*
X32000000Y-169850000D03*
D16*
X31062500Y-171150000D03*
X31062500Y-170500000D03*
X32937500Y-171150000D03*
X32937500Y-170500000D03*
X32937500Y-169850000D03*
X31062500Y-169850000D03*
D21*
X44550000Y-167750000D03*
X45200000Y-169750000D03*
X43900000Y-169750000D03*
D14*
X40700000Y-169325000D03*
D15*
X40700000Y-168350000D03*
D16*
X39762500Y-169650000D03*
X39762500Y-169000000D03*
X41637500Y-169650000D03*
X41637500Y-169000000D03*
X41637500Y-168350000D03*
X39762500Y-168350000D03*
G36*
G01*
X45770001Y-164270000D02*
X45179999Y-164270000D01*
G75*
G02*
X44930000Y-164020001I0J249999D01*
G01*
X44930000Y-163429999D01*
G75*
G02*
X45179999Y-163180000I249999J0D01*
G01*
X45770001Y-163180000D01*
G75*
G02*
X46020000Y-163429999I0J-249999D01*
G01*
X46020000Y-164020001D01*
G75*
G02*
X45770001Y-164270000I-249999J0D01*
G01*
G37*
G36*
G01*
X44420001Y-164270000D02*
X43829999Y-164270000D01*
G75*
G02*
X43580000Y-164020001I0J249999D01*
G01*
X43580000Y-163429999D01*
G75*
G02*
X43829999Y-163180000I249999J0D01*
G01*
X44420001Y-163180000D01*
G75*
G02*
X44670000Y-163429999I0J-249999D01*
G01*
X44670000Y-164020001D01*
G75*
G02*
X44420001Y-164270000I-249999J0D01*
G01*
G37*
G36*
G01*
X45770001Y-165620000D02*
X45179999Y-165620000D01*
G75*
G02*
X44930000Y-165370001I0J249999D01*
G01*
X44930000Y-164779999D01*
G75*
G02*
X45179999Y-164530000I249999J0D01*
G01*
X45770001Y-164530000D01*
G75*
G02*
X46020000Y-164779999I0J-249999D01*
G01*
X46020000Y-165370001D01*
G75*
G02*
X45770001Y-165620000I-249999J0D01*
G01*
G37*
G36*
G01*
X44420001Y-165620000D02*
X43829999Y-165620000D01*
G75*
G02*
X43580000Y-165370001I0J249999D01*
G01*
X43580000Y-164779999D01*
G75*
G02*
X43829999Y-164530000I249999J0D01*
G01*
X44420001Y-164530000D01*
G75*
G02*
X44670000Y-164779999I0J-249999D01*
G01*
X44670000Y-165370001D01*
G75*
G02*
X44420001Y-165620000I-249999J0D01*
G01*
G37*
G36*
G01*
X43187500Y-165775000D02*
X42487500Y-165775000D01*
G75*
G02*
X42425000Y-165712500I0J62500D01*
G01*
X42425000Y-165587500D01*
G75*
G02*
X42487500Y-165525000I62500J0D01*
G01*
X43187500Y-165525000D01*
G75*
G02*
X43250000Y-165587500I0J-62500D01*
G01*
X43250000Y-165712500D01*
G75*
G02*
X43187500Y-165775000I-62500J0D01*
G01*
G37*
G36*
G01*
X43187500Y-165275000D02*
X42487500Y-165275000D01*
G75*
G02*
X42425000Y-165212500I0J62500D01*
G01*
X42425000Y-165087500D01*
G75*
G02*
X42487500Y-165025000I62500J0D01*
G01*
X43187500Y-165025000D01*
G75*
G02*
X43250000Y-165087500I0J-62500D01*
G01*
X43250000Y-165212500D01*
G75*
G02*
X43187500Y-165275000I-62500J0D01*
G01*
G37*
G36*
G01*
X43187500Y-164775000D02*
X42487500Y-164775000D01*
G75*
G02*
X42425000Y-164712500I0J62500D01*
G01*
X42425000Y-164587500D01*
G75*
G02*
X42487500Y-164525000I62500J0D01*
G01*
X43187500Y-164525000D01*
G75*
G02*
X43250000Y-164587500I0J-62500D01*
G01*
X43250000Y-164712500D01*
G75*
G02*
X43187500Y-164775000I-62500J0D01*
G01*
G37*
G36*
G01*
X43187500Y-164275000D02*
X42487500Y-164275000D01*
G75*
G02*
X42425000Y-164212500I0J62500D01*
G01*
X42425000Y-164087500D01*
G75*
G02*
X42487500Y-164025000I62500J0D01*
G01*
X43187500Y-164025000D01*
G75*
G02*
X43250000Y-164087500I0J-62500D01*
G01*
X43250000Y-164212500D01*
G75*
G02*
X43187500Y-164275000I-62500J0D01*
G01*
G37*
G36*
G01*
X43187500Y-163775000D02*
X42487500Y-163775000D01*
G75*
G02*
X42425000Y-163712500I0J62500D01*
G01*
X42425000Y-163587500D01*
G75*
G02*
X42487500Y-163525000I62500J0D01*
G01*
X43187500Y-163525000D01*
G75*
G02*
X43250000Y-163587500I0J-62500D01*
G01*
X43250000Y-163712500D01*
G75*
G02*
X43187500Y-163775000I-62500J0D01*
G01*
G37*
G36*
G01*
X43187500Y-163275000D02*
X42487500Y-163275000D01*
G75*
G02*
X42425000Y-163212500I0J62500D01*
G01*
X42425000Y-163087500D01*
G75*
G02*
X42487500Y-163025000I62500J0D01*
G01*
X43187500Y-163025000D01*
G75*
G02*
X43250000Y-163087500I0J-62500D01*
G01*
X43250000Y-163212500D01*
G75*
G02*
X43187500Y-163275000I-62500J0D01*
G01*
G37*
G36*
G01*
X43612500Y-162850000D02*
X43487500Y-162850000D01*
G75*
G02*
X43425000Y-162787500I0J62500D01*
G01*
X43425000Y-162087500D01*
G75*
G02*
X43487500Y-162025000I62500J0D01*
G01*
X43612500Y-162025000D01*
G75*
G02*
X43675000Y-162087500I0J-62500D01*
G01*
X43675000Y-162787500D01*
G75*
G02*
X43612500Y-162850000I-62500J0D01*
G01*
G37*
G36*
G01*
X44112500Y-162850000D02*
X43987500Y-162850000D01*
G75*
G02*
X43925000Y-162787500I0J62500D01*
G01*
X43925000Y-162087500D01*
G75*
G02*
X43987500Y-162025000I62500J0D01*
G01*
X44112500Y-162025000D01*
G75*
G02*
X44175000Y-162087500I0J-62500D01*
G01*
X44175000Y-162787500D01*
G75*
G02*
X44112500Y-162850000I-62500J0D01*
G01*
G37*
G36*
G01*
X44612500Y-162850000D02*
X44487500Y-162850000D01*
G75*
G02*
X44425000Y-162787500I0J62500D01*
G01*
X44425000Y-162087500D01*
G75*
G02*
X44487500Y-162025000I62500J0D01*
G01*
X44612500Y-162025000D01*
G75*
G02*
X44675000Y-162087500I0J-62500D01*
G01*
X44675000Y-162787500D01*
G75*
G02*
X44612500Y-162850000I-62500J0D01*
G01*
G37*
G36*
G01*
X45112500Y-162850000D02*
X44987500Y-162850000D01*
G75*
G02*
X44925000Y-162787500I0J62500D01*
G01*
X44925000Y-162087500D01*
G75*
G02*
X44987500Y-162025000I62500J0D01*
G01*
X45112500Y-162025000D01*
G75*
G02*
X45175000Y-162087500I0J-62500D01*
G01*
X45175000Y-162787500D01*
G75*
G02*
X45112500Y-162850000I-62500J0D01*
G01*
G37*
G36*
G01*
X45612500Y-162850000D02*
X45487500Y-162850000D01*
G75*
G02*
X45425000Y-162787500I0J62500D01*
G01*
X45425000Y-162087500D01*
G75*
G02*
X45487500Y-162025000I62500J0D01*
G01*
X45612500Y-162025000D01*
G75*
G02*
X45675000Y-162087500I0J-62500D01*
G01*
X45675000Y-162787500D01*
G75*
G02*
X45612500Y-162850000I-62500J0D01*
G01*
G37*
G36*
G01*
X46112500Y-162850000D02*
X45987500Y-162850000D01*
G75*
G02*
X45925000Y-162787500I0J62500D01*
G01*
X45925000Y-162087500D01*
G75*
G02*
X45987500Y-162025000I62500J0D01*
G01*
X46112500Y-162025000D01*
G75*
G02*
X46175000Y-162087500I0J-62500D01*
G01*
X46175000Y-162787500D01*
G75*
G02*
X46112500Y-162850000I-62500J0D01*
G01*
G37*
G36*
G01*
X47112500Y-163275000D02*
X46412500Y-163275000D01*
G75*
G02*
X46350000Y-163212500I0J62500D01*
G01*
X46350000Y-163087500D01*
G75*
G02*
X46412500Y-163025000I62500J0D01*
G01*
X47112500Y-163025000D01*
G75*
G02*
X47175000Y-163087500I0J-62500D01*
G01*
X47175000Y-163212500D01*
G75*
G02*
X47112500Y-163275000I-62500J0D01*
G01*
G37*
G36*
G01*
X47112500Y-163775000D02*
X46412500Y-163775000D01*
G75*
G02*
X46350000Y-163712500I0J62500D01*
G01*
X46350000Y-163587500D01*
G75*
G02*
X46412500Y-163525000I62500J0D01*
G01*
X47112500Y-163525000D01*
G75*
G02*
X47175000Y-163587500I0J-62500D01*
G01*
X47175000Y-163712500D01*
G75*
G02*
X47112500Y-163775000I-62500J0D01*
G01*
G37*
G36*
G01*
X47112500Y-164275000D02*
X46412500Y-164275000D01*
G75*
G02*
X46350000Y-164212500I0J62500D01*
G01*
X46350000Y-164087500D01*
G75*
G02*
X46412500Y-164025000I62500J0D01*
G01*
X47112500Y-164025000D01*
G75*
G02*
X47175000Y-164087500I0J-62500D01*
G01*
X47175000Y-164212500D01*
G75*
G02*
X47112500Y-164275000I-62500J0D01*
G01*
G37*
G36*
G01*
X47112500Y-164775000D02*
X46412500Y-164775000D01*
G75*
G02*
X46350000Y-164712500I0J62500D01*
G01*
X46350000Y-164587500D01*
G75*
G02*
X46412500Y-164525000I62500J0D01*
G01*
X47112500Y-164525000D01*
G75*
G02*
X47175000Y-164587500I0J-62500D01*
G01*
X47175000Y-164712500D01*
G75*
G02*
X47112500Y-164775000I-62500J0D01*
G01*
G37*
G36*
G01*
X47112500Y-165275000D02*
X46412500Y-165275000D01*
G75*
G02*
X46350000Y-165212500I0J62500D01*
G01*
X46350000Y-165087500D01*
G75*
G02*
X46412500Y-165025000I62500J0D01*
G01*
X47112500Y-165025000D01*
G75*
G02*
X47175000Y-165087500I0J-62500D01*
G01*
X47175000Y-165212500D01*
G75*
G02*
X47112500Y-165275000I-62500J0D01*
G01*
G37*
G36*
G01*
X47112500Y-165775000D02*
X46412500Y-165775000D01*
G75*
G02*
X46350000Y-165712500I0J62500D01*
G01*
X46350000Y-165587500D01*
G75*
G02*
X46412500Y-165525000I62500J0D01*
G01*
X47112500Y-165525000D01*
G75*
G02*
X47175000Y-165587500I0J-62500D01*
G01*
X47175000Y-165712500D01*
G75*
G02*
X47112500Y-165775000I-62500J0D01*
G01*
G37*
G36*
G01*
X46112500Y-166775000D02*
X45987500Y-166775000D01*
G75*
G02*
X45925000Y-166712500I0J62500D01*
G01*
X45925000Y-166012500D01*
G75*
G02*
X45987500Y-165950000I62500J0D01*
G01*
X46112500Y-165950000D01*
G75*
G02*
X46175000Y-166012500I0J-62500D01*
G01*
X46175000Y-166712500D01*
G75*
G02*
X46112500Y-166775000I-62500J0D01*
G01*
G37*
G36*
G01*
X45612500Y-166775000D02*
X45487500Y-166775000D01*
G75*
G02*
X45425000Y-166712500I0J62500D01*
G01*
X45425000Y-166012500D01*
G75*
G02*
X45487500Y-165950000I62500J0D01*
G01*
X45612500Y-165950000D01*
G75*
G02*
X45675000Y-166012500I0J-62500D01*
G01*
X45675000Y-166712500D01*
G75*
G02*
X45612500Y-166775000I-62500J0D01*
G01*
G37*
G36*
G01*
X45112500Y-166775000D02*
X44987500Y-166775000D01*
G75*
G02*
X44925000Y-166712500I0J62500D01*
G01*
X44925000Y-166012500D01*
G75*
G02*
X44987500Y-165950000I62500J0D01*
G01*
X45112500Y-165950000D01*
G75*
G02*
X45175000Y-166012500I0J-62500D01*
G01*
X45175000Y-166712500D01*
G75*
G02*
X45112500Y-166775000I-62500J0D01*
G01*
G37*
G36*
G01*
X44612500Y-166775000D02*
X44487500Y-166775000D01*
G75*
G02*
X44425000Y-166712500I0J62500D01*
G01*
X44425000Y-166012500D01*
G75*
G02*
X44487500Y-165950000I62500J0D01*
G01*
X44612500Y-165950000D01*
G75*
G02*
X44675000Y-166012500I0J-62500D01*
G01*
X44675000Y-166712500D01*
G75*
G02*
X44612500Y-166775000I-62500J0D01*
G01*
G37*
G36*
G01*
X44112500Y-166775000D02*
X43987500Y-166775000D01*
G75*
G02*
X43925000Y-166712500I0J62500D01*
G01*
X43925000Y-166012500D01*
G75*
G02*
X43987500Y-165950000I62500J0D01*
G01*
X44112500Y-165950000D01*
G75*
G02*
X44175000Y-166012500I0J-62500D01*
G01*
X44175000Y-166712500D01*
G75*
G02*
X44112500Y-166775000I-62500J0D01*
G01*
G37*
G36*
G01*
X43612500Y-166775000D02*
X43487500Y-166775000D01*
G75*
G02*
X43425000Y-166712500I0J62500D01*
G01*
X43425000Y-166012500D01*
G75*
G02*
X43487500Y-165950000I62500J0D01*
G01*
X43612500Y-165950000D01*
G75*
G02*
X43675000Y-166012500I0J-62500D01*
G01*
X43675000Y-166712500D01*
G75*
G02*
X43612500Y-166775000I-62500J0D01*
G01*
G37*
G36*
G01*
X41315000Y-167240000D02*
X41685000Y-167240000D01*
G75*
G02*
X41820000Y-167375000I0J-135000D01*
G01*
X41820000Y-167645000D01*
G75*
G02*
X41685000Y-167780000I-135000J0D01*
G01*
X41315000Y-167780000D01*
G75*
G02*
X41180000Y-167645000I0J135000D01*
G01*
X41180000Y-167375000D01*
G75*
G02*
X41315000Y-167240000I135000J0D01*
G01*
G37*
G36*
G01*
X41315000Y-166220000D02*
X41685000Y-166220000D01*
G75*
G02*
X41820000Y-166355000I0J-135000D01*
G01*
X41820000Y-166625000D01*
G75*
G02*
X41685000Y-166760000I-135000J0D01*
G01*
X41315000Y-166760000D01*
G75*
G02*
X41180000Y-166625000I0J135000D01*
G01*
X41180000Y-166355000D01*
G75*
G02*
X41315000Y-166220000I135000J0D01*
G01*
G37*
G36*
G01*
X44315000Y-161140000D02*
X44685000Y-161140000D01*
G75*
G02*
X44820000Y-161275000I0J-135000D01*
G01*
X44820000Y-161545000D01*
G75*
G02*
X44685000Y-161680000I-135000J0D01*
G01*
X44315000Y-161680000D01*
G75*
G02*
X44180000Y-161545000I0J135000D01*
G01*
X44180000Y-161275000D01*
G75*
G02*
X44315000Y-161140000I135000J0D01*
G01*
G37*
G36*
G01*
X44315000Y-160120000D02*
X44685000Y-160120000D01*
G75*
G02*
X44820000Y-160255000I0J-135000D01*
G01*
X44820000Y-160525000D01*
G75*
G02*
X44685000Y-160660000I-135000J0D01*
G01*
X44315000Y-160660000D01*
G75*
G02*
X44180000Y-160525000I0J135000D01*
G01*
X44180000Y-160255000D01*
G75*
G02*
X44315000Y-160120000I135000J0D01*
G01*
G37*
G36*
G01*
X41685000Y-160660000D02*
X41315000Y-160660000D01*
G75*
G02*
X41180000Y-160525000I0J135000D01*
G01*
X41180000Y-160255000D01*
G75*
G02*
X41315000Y-160120000I135000J0D01*
G01*
X41685000Y-160120000D01*
G75*
G02*
X41820000Y-160255000I0J-135000D01*
G01*
X41820000Y-160525000D01*
G75*
G02*
X41685000Y-160660000I-135000J0D01*
G01*
G37*
G36*
G01*
X41685000Y-161680000D02*
X41315000Y-161680000D01*
G75*
G02*
X41180000Y-161545000I0J135000D01*
G01*
X41180000Y-161275000D01*
G75*
G02*
X41315000Y-161140000I135000J0D01*
G01*
X41685000Y-161140000D01*
G75*
G02*
X41820000Y-161275000I0J-135000D01*
G01*
X41820000Y-161545000D01*
G75*
G02*
X41685000Y-161680000I-135000J0D01*
G01*
G37*
G36*
G01*
X42327500Y-161090000D02*
X42672500Y-161090000D01*
G75*
G02*
X42820000Y-161237500I0J-147500D01*
G01*
X42820000Y-161532500D01*
G75*
G02*
X42672500Y-161680000I-147500J0D01*
G01*
X42327500Y-161680000D01*
G75*
G02*
X42180000Y-161532500I0J147500D01*
G01*
X42180000Y-161237500D01*
G75*
G02*
X42327500Y-161090000I147500J0D01*
G01*
G37*
G36*
G01*
X42327500Y-160120000D02*
X42672500Y-160120000D01*
G75*
G02*
X42820000Y-160267500I0J-147500D01*
G01*
X42820000Y-160562500D01*
G75*
G02*
X42672500Y-160710000I-147500J0D01*
G01*
X42327500Y-160710000D01*
G75*
G02*
X42180000Y-160562500I0J147500D01*
G01*
X42180000Y-160267500D01*
G75*
G02*
X42327500Y-160120000I147500J0D01*
G01*
G37*
G36*
G01*
X41000000Y-164430000D02*
X41000000Y-164770000D01*
G75*
G02*
X40860000Y-164910000I-140000J0D01*
G01*
X40580000Y-164910000D01*
G75*
G02*
X40440000Y-164770000I0J140000D01*
G01*
X40440000Y-164430000D01*
G75*
G02*
X40580000Y-164290000I140000J0D01*
G01*
X40860000Y-164290000D01*
G75*
G02*
X41000000Y-164430000I0J-140000D01*
G01*
G37*
G36*
G01*
X41960000Y-164430000D02*
X41960000Y-164770000D01*
G75*
G02*
X41820000Y-164910000I-140000J0D01*
G01*
X41540000Y-164910000D01*
G75*
G02*
X41400000Y-164770000I0J140000D01*
G01*
X41400000Y-164430000D01*
G75*
G02*
X41540000Y-164290000I140000J0D01*
G01*
X41820000Y-164290000D01*
G75*
G02*
X41960000Y-164430000I0J-140000D01*
G01*
G37*
G36*
G01*
X41000000Y-163430000D02*
X41000000Y-163770000D01*
G75*
G02*
X40860000Y-163910000I-140000J0D01*
G01*
X40580000Y-163910000D01*
G75*
G02*
X40440000Y-163770000I0J140000D01*
G01*
X40440000Y-163430000D01*
G75*
G02*
X40580000Y-163290000I140000J0D01*
G01*
X40860000Y-163290000D01*
G75*
G02*
X41000000Y-163430000I0J-140000D01*
G01*
G37*
G36*
G01*
X41960000Y-163430000D02*
X41960000Y-163770000D01*
G75*
G02*
X41820000Y-163910000I-140000J0D01*
G01*
X41540000Y-163910000D01*
G75*
G02*
X41400000Y-163770000I0J140000D01*
G01*
X41400000Y-163430000D01*
G75*
G02*
X41540000Y-163290000I140000J0D01*
G01*
X41820000Y-163290000D01*
G75*
G02*
X41960000Y-163430000I0J-140000D01*
G01*
G37*
G36*
G01*
X41000000Y-165430000D02*
X41000000Y-165770000D01*
G75*
G02*
X40860000Y-165910000I-140000J0D01*
G01*
X40580000Y-165910000D01*
G75*
G02*
X40440000Y-165770000I0J140000D01*
G01*
X40440000Y-165430000D01*
G75*
G02*
X40580000Y-165290000I140000J0D01*
G01*
X40860000Y-165290000D01*
G75*
G02*
X41000000Y-165430000I0J-140000D01*
G01*
G37*
G36*
G01*
X41960000Y-165430000D02*
X41960000Y-165770000D01*
G75*
G02*
X41820000Y-165910000I-140000J0D01*
G01*
X41540000Y-165910000D01*
G75*
G02*
X41400000Y-165770000I0J140000D01*
G01*
X41400000Y-165430000D01*
G75*
G02*
X41540000Y-165290000I140000J0D01*
G01*
X41820000Y-165290000D01*
G75*
G02*
X41960000Y-165430000I0J-140000D01*
G01*
G37*
G36*
G01*
X53190000Y-125922500D02*
X53190000Y-125577500D01*
G75*
G02*
X53337500Y-125430000I147500J0D01*
G01*
X53632500Y-125430000D01*
G75*
G02*
X53780000Y-125577500I0J-147500D01*
G01*
X53780000Y-125922500D01*
G75*
G02*
X53632500Y-126070000I-147500J0D01*
G01*
X53337500Y-126070000D01*
G75*
G02*
X53190000Y-125922500I0J147500D01*
G01*
G37*
G36*
G01*
X52220000Y-125922500D02*
X52220000Y-125577500D01*
G75*
G02*
X52367500Y-125430000I147500J0D01*
G01*
X52662500Y-125430000D01*
G75*
G02*
X52810000Y-125577500I0J-147500D01*
G01*
X52810000Y-125922500D01*
G75*
G02*
X52662500Y-126070000I-147500J0D01*
G01*
X52367500Y-126070000D01*
G75*
G02*
X52220000Y-125922500I0J147500D01*
G01*
G37*
D22*
G36*
X22737258Y-121419239D02*
G01*
X21535177Y-120217158D01*
X22242284Y-119510051D01*
X23444365Y-120712132D01*
X22737258Y-121419239D01*
G37*
G36*
X25282842Y-123964823D02*
G01*
X24080761Y-122762742D01*
X24787868Y-122055635D01*
X25989949Y-123257716D01*
X25282842Y-123964823D01*
G37*
G36*
X25212132Y-118944365D02*
G01*
X24010051Y-117742284D01*
X24717158Y-117035177D01*
X25919239Y-118237258D01*
X25212132Y-118944365D01*
G37*
G36*
G01*
X42827500Y-114240000D02*
X43172500Y-114240000D01*
G75*
G02*
X43320000Y-114387500I0J-147500D01*
G01*
X43320000Y-114682500D01*
G75*
G02*
X43172500Y-114830000I-147500J0D01*
G01*
X42827500Y-114830000D01*
G75*
G02*
X42680000Y-114682500I0J147500D01*
G01*
X42680000Y-114387500D01*
G75*
G02*
X42827500Y-114240000I147500J0D01*
G01*
G37*
G36*
G01*
X42827500Y-113270000D02*
X43172500Y-113270000D01*
G75*
G02*
X43320000Y-113417500I0J-147500D01*
G01*
X43320000Y-113712500D01*
G75*
G02*
X43172500Y-113860000I-147500J0D01*
G01*
X42827500Y-113860000D01*
G75*
G02*
X42680000Y-113712500I0J147500D01*
G01*
X42680000Y-113417500D01*
G75*
G02*
X42827500Y-113270000I147500J0D01*
G01*
G37*
G36*
G01*
X30855322Y-121599274D02*
X31099274Y-121355322D01*
G75*
G02*
X31307870Y-121355322I104298J-104298D01*
G01*
X31516466Y-121563918D01*
G75*
G02*
X31516466Y-121772514I-104298J-104298D01*
G01*
X31272514Y-122016466D01*
G75*
G02*
X31063918Y-122016466I-104298J104298D01*
G01*
X30855322Y-121807870D01*
G75*
G02*
X30855322Y-121599274I104298J104298D01*
G01*
G37*
G36*
G01*
X30169428Y-120913380D02*
X30413380Y-120669428D01*
G75*
G02*
X30621976Y-120669428I104298J-104298D01*
G01*
X30830572Y-120878024D01*
G75*
G02*
X30830572Y-121086620I-104298J-104298D01*
G01*
X30586620Y-121330572D01*
G75*
G02*
X30378024Y-121330572I-104298J104298D01*
G01*
X30169428Y-121121976D01*
G75*
G02*
X30169428Y-120913380I104298J104298D01*
G01*
G37*
G36*
G01*
X43172500Y-111860000D02*
X42827500Y-111860000D01*
G75*
G02*
X42680000Y-111712500I0J147500D01*
G01*
X42680000Y-111417500D01*
G75*
G02*
X42827500Y-111270000I147500J0D01*
G01*
X43172500Y-111270000D01*
G75*
G02*
X43320000Y-111417500I0J-147500D01*
G01*
X43320000Y-111712500D01*
G75*
G02*
X43172500Y-111860000I-147500J0D01*
G01*
G37*
G36*
G01*
X43172500Y-112830000D02*
X42827500Y-112830000D01*
G75*
G02*
X42680000Y-112682500I0J147500D01*
G01*
X42680000Y-112387500D01*
G75*
G02*
X42827500Y-112240000I147500J0D01*
G01*
X43172500Y-112240000D01*
G75*
G02*
X43320000Y-112387500I0J-147500D01*
G01*
X43320000Y-112682500D01*
G75*
G02*
X43172500Y-112830000I-147500J0D01*
G01*
G37*
G36*
G01*
X44172500Y-111860000D02*
X43827500Y-111860000D01*
G75*
G02*
X43680000Y-111712500I0J147500D01*
G01*
X43680000Y-111417500D01*
G75*
G02*
X43827500Y-111270000I147500J0D01*
G01*
X44172500Y-111270000D01*
G75*
G02*
X44320000Y-111417500I0J-147500D01*
G01*
X44320000Y-111712500D01*
G75*
G02*
X44172500Y-111860000I-147500J0D01*
G01*
G37*
G36*
G01*
X44172500Y-112830000D02*
X43827500Y-112830000D01*
G75*
G02*
X43680000Y-112682500I0J147500D01*
G01*
X43680000Y-112387500D01*
G75*
G02*
X43827500Y-112240000I147500J0D01*
G01*
X44172500Y-112240000D01*
G75*
G02*
X44320000Y-112387500I0J-147500D01*
G01*
X44320000Y-112682500D01*
G75*
G02*
X44172500Y-112830000I-147500J0D01*
G01*
G37*
G36*
G01*
X46172500Y-111860000D02*
X45827500Y-111860000D01*
G75*
G02*
X45680000Y-111712500I0J147500D01*
G01*
X45680000Y-111417500D01*
G75*
G02*
X45827500Y-111270000I147500J0D01*
G01*
X46172500Y-111270000D01*
G75*
G02*
X46320000Y-111417500I0J-147500D01*
G01*
X46320000Y-111712500D01*
G75*
G02*
X46172500Y-111860000I-147500J0D01*
G01*
G37*
G36*
G01*
X46172500Y-112830000D02*
X45827500Y-112830000D01*
G75*
G02*
X45680000Y-112682500I0J147500D01*
G01*
X45680000Y-112387500D01*
G75*
G02*
X45827500Y-112240000I147500J0D01*
G01*
X46172500Y-112240000D01*
G75*
G02*
X46320000Y-112387500I0J-147500D01*
G01*
X46320000Y-112682500D01*
G75*
G02*
X46172500Y-112830000I-147500J0D01*
G01*
G37*
G36*
G01*
X47172500Y-111860000D02*
X46827500Y-111860000D01*
G75*
G02*
X46680000Y-111712500I0J147500D01*
G01*
X46680000Y-111417500D01*
G75*
G02*
X46827500Y-111270000I147500J0D01*
G01*
X47172500Y-111270000D01*
G75*
G02*
X47320000Y-111417500I0J-147500D01*
G01*
X47320000Y-111712500D01*
G75*
G02*
X47172500Y-111860000I-147500J0D01*
G01*
G37*
G36*
G01*
X47172500Y-112830000D02*
X46827500Y-112830000D01*
G75*
G02*
X46680000Y-112682500I0J147500D01*
G01*
X46680000Y-112387500D01*
G75*
G02*
X46827500Y-112240000I147500J0D01*
G01*
X47172500Y-112240000D01*
G75*
G02*
X47320000Y-112387500I0J-147500D01*
G01*
X47320000Y-112682500D01*
G75*
G02*
X47172500Y-112830000I-147500J0D01*
G01*
G37*
D18*
X64200000Y-178250000D03*
X60800000Y-178250000D03*
G36*
G01*
X45827500Y-114240000D02*
X46172500Y-114240000D01*
G75*
G02*
X46320000Y-114387500I0J-147500D01*
G01*
X46320000Y-114682500D01*
G75*
G02*
X46172500Y-114830000I-147500J0D01*
G01*
X45827500Y-114830000D01*
G75*
G02*
X45680000Y-114682500I0J147500D01*
G01*
X45680000Y-114387500D01*
G75*
G02*
X45827500Y-114240000I147500J0D01*
G01*
G37*
G36*
G01*
X45827500Y-113270000D02*
X46172500Y-113270000D01*
G75*
G02*
X46320000Y-113417500I0J-147500D01*
G01*
X46320000Y-113712500D01*
G75*
G02*
X46172500Y-113860000I-147500J0D01*
G01*
X45827500Y-113860000D01*
G75*
G02*
X45680000Y-113712500I0J147500D01*
G01*
X45680000Y-113417500D01*
G75*
G02*
X45827500Y-113270000I147500J0D01*
G01*
G37*
G36*
G01*
X43827500Y-114240000D02*
X44172500Y-114240000D01*
G75*
G02*
X44320000Y-114387500I0J-147500D01*
G01*
X44320000Y-114682500D01*
G75*
G02*
X44172500Y-114830000I-147500J0D01*
G01*
X43827500Y-114830000D01*
G75*
G02*
X43680000Y-114682500I0J147500D01*
G01*
X43680000Y-114387500D01*
G75*
G02*
X43827500Y-114240000I147500J0D01*
G01*
G37*
G36*
G01*
X43827500Y-113270000D02*
X44172500Y-113270000D01*
G75*
G02*
X44320000Y-113417500I0J-147500D01*
G01*
X44320000Y-113712500D01*
G75*
G02*
X44172500Y-113860000I-147500J0D01*
G01*
X43827500Y-113860000D01*
G75*
G02*
X43680000Y-113712500I0J147500D01*
G01*
X43680000Y-113417500D01*
G75*
G02*
X43827500Y-113270000I147500J0D01*
G01*
G37*
G36*
G01*
X44827500Y-114240000D02*
X45172500Y-114240000D01*
G75*
G02*
X45320000Y-114387500I0J-147500D01*
G01*
X45320000Y-114682500D01*
G75*
G02*
X45172500Y-114830000I-147500J0D01*
G01*
X44827500Y-114830000D01*
G75*
G02*
X44680000Y-114682500I0J147500D01*
G01*
X44680000Y-114387500D01*
G75*
G02*
X44827500Y-114240000I147500J0D01*
G01*
G37*
G36*
G01*
X44827500Y-113270000D02*
X45172500Y-113270000D01*
G75*
G02*
X45320000Y-113417500I0J-147500D01*
G01*
X45320000Y-113712500D01*
G75*
G02*
X45172500Y-113860000I-147500J0D01*
G01*
X44827500Y-113860000D01*
G75*
G02*
X44680000Y-113712500I0J147500D01*
G01*
X44680000Y-113417500D01*
G75*
G02*
X44827500Y-113270000I147500J0D01*
G01*
G37*
G36*
G01*
X45172500Y-111860000D02*
X44827500Y-111860000D01*
G75*
G02*
X44680000Y-111712500I0J147500D01*
G01*
X44680000Y-111417500D01*
G75*
G02*
X44827500Y-111270000I147500J0D01*
G01*
X45172500Y-111270000D01*
G75*
G02*
X45320000Y-111417500I0J-147500D01*
G01*
X45320000Y-111712500D01*
G75*
G02*
X45172500Y-111860000I-147500J0D01*
G01*
G37*
G36*
G01*
X45172500Y-112830000D02*
X44827500Y-112830000D01*
G75*
G02*
X44680000Y-112682500I0J147500D01*
G01*
X44680000Y-112387500D01*
G75*
G02*
X44827500Y-112240000I147500J0D01*
G01*
X45172500Y-112240000D01*
G75*
G02*
X45320000Y-112387500I0J-147500D01*
G01*
X45320000Y-112682500D01*
G75*
G02*
X45172500Y-112830000I-147500J0D01*
G01*
G37*
D22*
G36*
X23371231Y-124189429D02*
G01*
X23689429Y-123871231D01*
X24113693Y-124295495D01*
X23795495Y-124613693D01*
X23371231Y-124189429D01*
G37*
G36*
X21886307Y-122704505D02*
G01*
X22204505Y-122386307D01*
X22628769Y-122810571D01*
X22310571Y-123128769D01*
X21886307Y-122704505D01*
G37*
G36*
G01*
X49461500Y-132319000D02*
X49116500Y-132319000D01*
G75*
G02*
X48969000Y-132171500I0J147500D01*
G01*
X48969000Y-131876500D01*
G75*
G02*
X49116500Y-131729000I147500J0D01*
G01*
X49461500Y-131729000D01*
G75*
G02*
X49609000Y-131876500I0J-147500D01*
G01*
X49609000Y-132171500D01*
G75*
G02*
X49461500Y-132319000I-147500J0D01*
G01*
G37*
G36*
G01*
X49461500Y-133289000D02*
X49116500Y-133289000D01*
G75*
G02*
X48969000Y-133141500I0J147500D01*
G01*
X48969000Y-132846500D01*
G75*
G02*
X49116500Y-132699000I147500J0D01*
G01*
X49461500Y-132699000D01*
G75*
G02*
X49609000Y-132846500I0J-147500D01*
G01*
X49609000Y-133141500D01*
G75*
G02*
X49461500Y-133289000I-147500J0D01*
G01*
G37*
G36*
G01*
X43922000Y-136218000D02*
X43922000Y-136118000D01*
G75*
G02*
X43972000Y-136068000I50000J0D01*
G01*
X44422000Y-136068000D01*
G75*
G02*
X44472000Y-136118000I0J-50000D01*
G01*
X44472000Y-136218000D01*
G75*
G02*
X44422000Y-136268000I-50000J0D01*
G01*
X43972000Y-136268000D01*
G75*
G02*
X43922000Y-136218000I0J50000D01*
G01*
G37*
G36*
G01*
X43922000Y-136618000D02*
X43922000Y-136518000D01*
G75*
G02*
X43972000Y-136468000I50000J0D01*
G01*
X44422000Y-136468000D01*
G75*
G02*
X44472000Y-136518000I0J-50000D01*
G01*
X44472000Y-136618000D01*
G75*
G02*
X44422000Y-136668000I-50000J0D01*
G01*
X43972000Y-136668000D01*
G75*
G02*
X43922000Y-136618000I0J50000D01*
G01*
G37*
G36*
G01*
X43922000Y-137018000D02*
X43922000Y-136918000D01*
G75*
G02*
X43972000Y-136868000I50000J0D01*
G01*
X44422000Y-136868000D01*
G75*
G02*
X44472000Y-136918000I0J-50000D01*
G01*
X44472000Y-137018000D01*
G75*
G02*
X44422000Y-137068000I-50000J0D01*
G01*
X43972000Y-137068000D01*
G75*
G02*
X43922000Y-137018000I0J50000D01*
G01*
G37*
G36*
G01*
X43922000Y-137418000D02*
X43922000Y-137318000D01*
G75*
G02*
X43972000Y-137268000I50000J0D01*
G01*
X44422000Y-137268000D01*
G75*
G02*
X44472000Y-137318000I0J-50000D01*
G01*
X44472000Y-137418000D01*
G75*
G02*
X44422000Y-137468000I-50000J0D01*
G01*
X43972000Y-137468000D01*
G75*
G02*
X43922000Y-137418000I0J50000D01*
G01*
G37*
G36*
G01*
X43922000Y-137818000D02*
X43922000Y-137718000D01*
G75*
G02*
X43972000Y-137668000I50000J0D01*
G01*
X44422000Y-137668000D01*
G75*
G02*
X44472000Y-137718000I0J-50000D01*
G01*
X44472000Y-137818000D01*
G75*
G02*
X44422000Y-137868000I-50000J0D01*
G01*
X43972000Y-137868000D01*
G75*
G02*
X43922000Y-137818000I0J50000D01*
G01*
G37*
G36*
G01*
X43922000Y-138218000D02*
X43922000Y-138118000D01*
G75*
G02*
X43972000Y-138068000I50000J0D01*
G01*
X44422000Y-138068000D01*
G75*
G02*
X44472000Y-138118000I0J-50000D01*
G01*
X44472000Y-138218000D01*
G75*
G02*
X44422000Y-138268000I-50000J0D01*
G01*
X43972000Y-138268000D01*
G75*
G02*
X43922000Y-138218000I0J50000D01*
G01*
G37*
G36*
G01*
X44747000Y-138943000D02*
X44647000Y-138943000D01*
G75*
G02*
X44597000Y-138893000I0J50000D01*
G01*
X44597000Y-138443000D01*
G75*
G02*
X44647000Y-138393000I50000J0D01*
G01*
X44747000Y-138393000D01*
G75*
G02*
X44797000Y-138443000I0J-50000D01*
G01*
X44797000Y-138893000D01*
G75*
G02*
X44747000Y-138943000I-50000J0D01*
G01*
G37*
G36*
G01*
X45147000Y-138943000D02*
X45047000Y-138943000D01*
G75*
G02*
X44997000Y-138893000I0J50000D01*
G01*
X44997000Y-138443000D01*
G75*
G02*
X45047000Y-138393000I50000J0D01*
G01*
X45147000Y-138393000D01*
G75*
G02*
X45197000Y-138443000I0J-50000D01*
G01*
X45197000Y-138893000D01*
G75*
G02*
X45147000Y-138943000I-50000J0D01*
G01*
G37*
G36*
G01*
X45547000Y-138943000D02*
X45447000Y-138943000D01*
G75*
G02*
X45397000Y-138893000I0J50000D01*
G01*
X45397000Y-138443000D01*
G75*
G02*
X45447000Y-138393000I50000J0D01*
G01*
X45547000Y-138393000D01*
G75*
G02*
X45597000Y-138443000I0J-50000D01*
G01*
X45597000Y-138893000D01*
G75*
G02*
X45547000Y-138943000I-50000J0D01*
G01*
G37*
G36*
G01*
X45947000Y-138943000D02*
X45847000Y-138943000D01*
G75*
G02*
X45797000Y-138893000I0J50000D01*
G01*
X45797000Y-138443000D01*
G75*
G02*
X45847000Y-138393000I50000J0D01*
G01*
X45947000Y-138393000D01*
G75*
G02*
X45997000Y-138443000I0J-50000D01*
G01*
X45997000Y-138893000D01*
G75*
G02*
X45947000Y-138943000I-50000J0D01*
G01*
G37*
G36*
G01*
X46347000Y-138943000D02*
X46247000Y-138943000D01*
G75*
G02*
X46197000Y-138893000I0J50000D01*
G01*
X46197000Y-138443000D01*
G75*
G02*
X46247000Y-138393000I50000J0D01*
G01*
X46347000Y-138393000D01*
G75*
G02*
X46397000Y-138443000I0J-50000D01*
G01*
X46397000Y-138893000D01*
G75*
G02*
X46347000Y-138943000I-50000J0D01*
G01*
G37*
G36*
G01*
X46747000Y-138943000D02*
X46647000Y-138943000D01*
G75*
G02*
X46597000Y-138893000I0J50000D01*
G01*
X46597000Y-138443000D01*
G75*
G02*
X46647000Y-138393000I50000J0D01*
G01*
X46747000Y-138393000D01*
G75*
G02*
X46797000Y-138443000I0J-50000D01*
G01*
X46797000Y-138893000D01*
G75*
G02*
X46747000Y-138943000I-50000J0D01*
G01*
G37*
G36*
G01*
X46922000Y-138218000D02*
X46922000Y-138118000D01*
G75*
G02*
X46972000Y-138068000I50000J0D01*
G01*
X47422000Y-138068000D01*
G75*
G02*
X47472000Y-138118000I0J-50000D01*
G01*
X47472000Y-138218000D01*
G75*
G02*
X47422000Y-138268000I-50000J0D01*
G01*
X46972000Y-138268000D01*
G75*
G02*
X46922000Y-138218000I0J50000D01*
G01*
G37*
G36*
G01*
X46922000Y-137818000D02*
X46922000Y-137718000D01*
G75*
G02*
X46972000Y-137668000I50000J0D01*
G01*
X47422000Y-137668000D01*
G75*
G02*
X47472000Y-137718000I0J-50000D01*
G01*
X47472000Y-137818000D01*
G75*
G02*
X47422000Y-137868000I-50000J0D01*
G01*
X46972000Y-137868000D01*
G75*
G02*
X46922000Y-137818000I0J50000D01*
G01*
G37*
G36*
G01*
X46922000Y-137418000D02*
X46922000Y-137318000D01*
G75*
G02*
X46972000Y-137268000I50000J0D01*
G01*
X47422000Y-137268000D01*
G75*
G02*
X47472000Y-137318000I0J-50000D01*
G01*
X47472000Y-137418000D01*
G75*
G02*
X47422000Y-137468000I-50000J0D01*
G01*
X46972000Y-137468000D01*
G75*
G02*
X46922000Y-137418000I0J50000D01*
G01*
G37*
G36*
G01*
X46922000Y-137018000D02*
X46922000Y-136918000D01*
G75*
G02*
X46972000Y-136868000I50000J0D01*
G01*
X47422000Y-136868000D01*
G75*
G02*
X47472000Y-136918000I0J-50000D01*
G01*
X47472000Y-137018000D01*
G75*
G02*
X47422000Y-137068000I-50000J0D01*
G01*
X46972000Y-137068000D01*
G75*
G02*
X46922000Y-137018000I0J50000D01*
G01*
G37*
G36*
G01*
X46922000Y-136618000D02*
X46922000Y-136518000D01*
G75*
G02*
X46972000Y-136468000I50000J0D01*
G01*
X47422000Y-136468000D01*
G75*
G02*
X47472000Y-136518000I0J-50000D01*
G01*
X47472000Y-136618000D01*
G75*
G02*
X47422000Y-136668000I-50000J0D01*
G01*
X46972000Y-136668000D01*
G75*
G02*
X46922000Y-136618000I0J50000D01*
G01*
G37*
G36*
G01*
X46922000Y-136218000D02*
X46922000Y-136118000D01*
G75*
G02*
X46972000Y-136068000I50000J0D01*
G01*
X47422000Y-136068000D01*
G75*
G02*
X47472000Y-136118000I0J-50000D01*
G01*
X47472000Y-136218000D01*
G75*
G02*
X47422000Y-136268000I-50000J0D01*
G01*
X46972000Y-136268000D01*
G75*
G02*
X46922000Y-136218000I0J50000D01*
G01*
G37*
G36*
G01*
X46747000Y-135943000D02*
X46647000Y-135943000D01*
G75*
G02*
X46597000Y-135893000I0J50000D01*
G01*
X46597000Y-135443000D01*
G75*
G02*
X46647000Y-135393000I50000J0D01*
G01*
X46747000Y-135393000D01*
G75*
G02*
X46797000Y-135443000I0J-50000D01*
G01*
X46797000Y-135893000D01*
G75*
G02*
X46747000Y-135943000I-50000J0D01*
G01*
G37*
G36*
G01*
X46347000Y-135943000D02*
X46247000Y-135943000D01*
G75*
G02*
X46197000Y-135893000I0J50000D01*
G01*
X46197000Y-135443000D01*
G75*
G02*
X46247000Y-135393000I50000J0D01*
G01*
X46347000Y-135393000D01*
G75*
G02*
X46397000Y-135443000I0J-50000D01*
G01*
X46397000Y-135893000D01*
G75*
G02*
X46347000Y-135943000I-50000J0D01*
G01*
G37*
G36*
G01*
X45947000Y-135943000D02*
X45847000Y-135943000D01*
G75*
G02*
X45797000Y-135893000I0J50000D01*
G01*
X45797000Y-135443000D01*
G75*
G02*
X45847000Y-135393000I50000J0D01*
G01*
X45947000Y-135393000D01*
G75*
G02*
X45997000Y-135443000I0J-50000D01*
G01*
X45997000Y-135893000D01*
G75*
G02*
X45947000Y-135943000I-50000J0D01*
G01*
G37*
G36*
G01*
X45547000Y-135943000D02*
X45447000Y-135943000D01*
G75*
G02*
X45397000Y-135893000I0J50000D01*
G01*
X45397000Y-135443000D01*
G75*
G02*
X45447000Y-135393000I50000J0D01*
G01*
X45547000Y-135393000D01*
G75*
G02*
X45597000Y-135443000I0J-50000D01*
G01*
X45597000Y-135893000D01*
G75*
G02*
X45547000Y-135943000I-50000J0D01*
G01*
G37*
G36*
G01*
X45147000Y-135943000D02*
X45047000Y-135943000D01*
G75*
G02*
X44997000Y-135893000I0J50000D01*
G01*
X44997000Y-135443000D01*
G75*
G02*
X45047000Y-135393000I50000J0D01*
G01*
X45147000Y-135393000D01*
G75*
G02*
X45197000Y-135443000I0J-50000D01*
G01*
X45197000Y-135893000D01*
G75*
G02*
X45147000Y-135943000I-50000J0D01*
G01*
G37*
G36*
G01*
X44747000Y-135943000D02*
X44647000Y-135943000D01*
G75*
G02*
X44597000Y-135893000I0J50000D01*
G01*
X44597000Y-135443000D01*
G75*
G02*
X44647000Y-135393000I50000J0D01*
G01*
X44747000Y-135393000D01*
G75*
G02*
X44797000Y-135443000I0J-50000D01*
G01*
X44797000Y-135893000D01*
G75*
G02*
X44747000Y-135943000I-50000J0D01*
G01*
G37*
D23*
X43795000Y-149020000D03*
X44295000Y-149020000D03*
X44795000Y-149020000D03*
X45295000Y-149020000D03*
X45795000Y-149020000D03*
X46295000Y-149020000D03*
X46295000Y-147120000D03*
X45795000Y-147120000D03*
X45295000Y-147120000D03*
X44795000Y-147120000D03*
X44295000Y-147120000D03*
X43795000Y-147120000D03*
D24*
X45730000Y-148070000D03*
X44360000Y-148070000D03*
G36*
G01*
X47060500Y-153086000D02*
X46715500Y-153086000D01*
G75*
G02*
X46568000Y-152938500I0J147500D01*
G01*
X46568000Y-152643500D01*
G75*
G02*
X46715500Y-152496000I147500J0D01*
G01*
X47060500Y-152496000D01*
G75*
G02*
X47208000Y-152643500I0J-147500D01*
G01*
X47208000Y-152938500D01*
G75*
G02*
X47060500Y-153086000I-147500J0D01*
G01*
G37*
G36*
G01*
X47060500Y-154056000D02*
X46715500Y-154056000D01*
G75*
G02*
X46568000Y-153908500I0J147500D01*
G01*
X46568000Y-153613500D01*
G75*
G02*
X46715500Y-153466000I147500J0D01*
G01*
X47060500Y-153466000D01*
G75*
G02*
X47208000Y-153613500I0J-147500D01*
G01*
X47208000Y-153908500D01*
G75*
G02*
X47060500Y-154056000I-147500J0D01*
G01*
G37*
G36*
G01*
X44477500Y-117690000D02*
X44822500Y-117690000D01*
G75*
G02*
X44970000Y-117837500I0J-147500D01*
G01*
X44970000Y-118132500D01*
G75*
G02*
X44822500Y-118280000I-147500J0D01*
G01*
X44477500Y-118280000D01*
G75*
G02*
X44330000Y-118132500I0J147500D01*
G01*
X44330000Y-117837500D01*
G75*
G02*
X44477500Y-117690000I147500J0D01*
G01*
G37*
G36*
G01*
X44477500Y-116720000D02*
X44822500Y-116720000D01*
G75*
G02*
X44970000Y-116867500I0J-147500D01*
G01*
X44970000Y-117162500D01*
G75*
G02*
X44822500Y-117310000I-147500J0D01*
G01*
X44477500Y-117310000D01*
G75*
G02*
X44330000Y-117162500I0J147500D01*
G01*
X44330000Y-116867500D01*
G75*
G02*
X44477500Y-116720000I147500J0D01*
G01*
G37*
G36*
G01*
X46910000Y-115527500D02*
X46910000Y-115872500D01*
G75*
G02*
X46762500Y-116020000I-147500J0D01*
G01*
X46467500Y-116020000D01*
G75*
G02*
X46320000Y-115872500I0J147500D01*
G01*
X46320000Y-115527500D01*
G75*
G02*
X46467500Y-115380000I147500J0D01*
G01*
X46762500Y-115380000D01*
G75*
G02*
X46910000Y-115527500I0J-147500D01*
G01*
G37*
G36*
G01*
X47880000Y-115527500D02*
X47880000Y-115872500D01*
G75*
G02*
X47732500Y-116020000I-147500J0D01*
G01*
X47437500Y-116020000D01*
G75*
G02*
X47290000Y-115872500I0J147500D01*
G01*
X47290000Y-115527500D01*
G75*
G02*
X47437500Y-115380000I147500J0D01*
G01*
X47732500Y-115380000D01*
G75*
G02*
X47880000Y-115527500I0J-147500D01*
G01*
G37*
G36*
G01*
X34456250Y-157175000D02*
X33543750Y-157175000D01*
G75*
G02*
X33300000Y-156931250I0J243750D01*
G01*
X33300000Y-156443750D01*
G75*
G02*
X33543750Y-156200000I243750J0D01*
G01*
X34456250Y-156200000D01*
G75*
G02*
X34700000Y-156443750I0J-243750D01*
G01*
X34700000Y-156931250D01*
G75*
G02*
X34456250Y-157175000I-243750J0D01*
G01*
G37*
G36*
G01*
X34456250Y-155300000D02*
X33543750Y-155300000D01*
G75*
G02*
X33300000Y-155056250I0J243750D01*
G01*
X33300000Y-154568750D01*
G75*
G02*
X33543750Y-154325000I243750J0D01*
G01*
X34456250Y-154325000D01*
G75*
G02*
X34700000Y-154568750I0J-243750D01*
G01*
X34700000Y-155056250D01*
G75*
G02*
X34456250Y-155300000I-243750J0D01*
G01*
G37*
G36*
G01*
X46881750Y-156126000D02*
X47394250Y-156126000D01*
G75*
G02*
X47613000Y-156344750I0J-218750D01*
G01*
X47613000Y-156782250D01*
G75*
G02*
X47394250Y-157001000I-218750J0D01*
G01*
X46881750Y-157001000D01*
G75*
G02*
X46663000Y-156782250I0J218750D01*
G01*
X46663000Y-156344750D01*
G75*
G02*
X46881750Y-156126000I218750J0D01*
G01*
G37*
G36*
G01*
X46881750Y-154551000D02*
X47394250Y-154551000D01*
G75*
G02*
X47613000Y-154769750I0J-218750D01*
G01*
X47613000Y-155207250D01*
G75*
G02*
X47394250Y-155426000I-218750J0D01*
G01*
X46881750Y-155426000D01*
G75*
G02*
X46663000Y-155207250I0J218750D01*
G01*
X46663000Y-154769750D01*
G75*
G02*
X46881750Y-154551000I218750J0D01*
G01*
G37*
G36*
G01*
X34443750Y-152250000D02*
X34956250Y-152250000D01*
G75*
G02*
X35175000Y-152468750I0J-218750D01*
G01*
X35175000Y-152906250D01*
G75*
G02*
X34956250Y-153125000I-218750J0D01*
G01*
X34443750Y-153125000D01*
G75*
G02*
X34225000Y-152906250I0J218750D01*
G01*
X34225000Y-152468750D01*
G75*
G02*
X34443750Y-152250000I218750J0D01*
G01*
G37*
G36*
G01*
X34443750Y-150675000D02*
X34956250Y-150675000D01*
G75*
G02*
X35175000Y-150893750I0J-218750D01*
G01*
X35175000Y-151331250D01*
G75*
G02*
X34956250Y-151550000I-218750J0D01*
G01*
X34443750Y-151550000D01*
G75*
G02*
X34225000Y-151331250I0J218750D01*
G01*
X34225000Y-150893750D01*
G75*
G02*
X34443750Y-150675000I218750J0D01*
G01*
G37*
G36*
G01*
X38327500Y-152390000D02*
X38672500Y-152390000D01*
G75*
G02*
X38820000Y-152537500I0J-147500D01*
G01*
X38820000Y-152832500D01*
G75*
G02*
X38672500Y-152980000I-147500J0D01*
G01*
X38327500Y-152980000D01*
G75*
G02*
X38180000Y-152832500I0J147500D01*
G01*
X38180000Y-152537500D01*
G75*
G02*
X38327500Y-152390000I147500J0D01*
G01*
G37*
G36*
G01*
X38327500Y-151420000D02*
X38672500Y-151420000D01*
G75*
G02*
X38820000Y-151567500I0J-147500D01*
G01*
X38820000Y-151862500D01*
G75*
G02*
X38672500Y-152010000I-147500J0D01*
G01*
X38327500Y-152010000D01*
G75*
G02*
X38180000Y-151862500I0J147500D01*
G01*
X38180000Y-151567500D01*
G75*
G02*
X38327500Y-151420000I147500J0D01*
G01*
G37*
G36*
G01*
X42567500Y-147760000D02*
X42912500Y-147760000D01*
G75*
G02*
X43060000Y-147907500I0J-147500D01*
G01*
X43060000Y-148202500D01*
G75*
G02*
X42912500Y-148350000I-147500J0D01*
G01*
X42567500Y-148350000D01*
G75*
G02*
X42420000Y-148202500I0J147500D01*
G01*
X42420000Y-147907500D01*
G75*
G02*
X42567500Y-147760000I147500J0D01*
G01*
G37*
G36*
G01*
X42567500Y-146790000D02*
X42912500Y-146790000D01*
G75*
G02*
X43060000Y-146937500I0J-147500D01*
G01*
X43060000Y-147232500D01*
G75*
G02*
X42912500Y-147380000I-147500J0D01*
G01*
X42567500Y-147380000D01*
G75*
G02*
X42420000Y-147232500I0J147500D01*
G01*
X42420000Y-146937500D01*
G75*
G02*
X42567500Y-146790000I147500J0D01*
G01*
G37*
G36*
G01*
X23590000Y-173972500D02*
X23590000Y-173627500D01*
G75*
G02*
X23737500Y-173480000I147500J0D01*
G01*
X24032500Y-173480000D01*
G75*
G02*
X24180000Y-173627500I0J-147500D01*
G01*
X24180000Y-173972500D01*
G75*
G02*
X24032500Y-174120000I-147500J0D01*
G01*
X23737500Y-174120000D01*
G75*
G02*
X23590000Y-173972500I0J147500D01*
G01*
G37*
G36*
G01*
X22620000Y-173972500D02*
X22620000Y-173627500D01*
G75*
G02*
X22767500Y-173480000I147500J0D01*
G01*
X23062500Y-173480000D01*
G75*
G02*
X23210000Y-173627500I0J-147500D01*
G01*
X23210000Y-173972500D01*
G75*
G02*
X23062500Y-174120000I-147500J0D01*
G01*
X22767500Y-174120000D01*
G75*
G02*
X22620000Y-173972500I0J147500D01*
G01*
G37*
G36*
G01*
X65572500Y-174080000D02*
X65227500Y-174080000D01*
G75*
G02*
X65080000Y-173932500I0J147500D01*
G01*
X65080000Y-173637500D01*
G75*
G02*
X65227500Y-173490000I147500J0D01*
G01*
X65572500Y-173490000D01*
G75*
G02*
X65720000Y-173637500I0J-147500D01*
G01*
X65720000Y-173932500D01*
G75*
G02*
X65572500Y-174080000I-147500J0D01*
G01*
G37*
G36*
G01*
X65572500Y-173110000D02*
X65227500Y-173110000D01*
G75*
G02*
X65080000Y-172962500I0J147500D01*
G01*
X65080000Y-172667500D01*
G75*
G02*
X65227500Y-172520000I147500J0D01*
G01*
X65572500Y-172520000D01*
G75*
G02*
X65720000Y-172667500I0J-147500D01*
G01*
X65720000Y-172962500D01*
G75*
G02*
X65572500Y-173110000I-147500J0D01*
G01*
G37*
G36*
G01*
X65227500Y-179190000D02*
X65572500Y-179190000D01*
G75*
G02*
X65720000Y-179337500I0J-147500D01*
G01*
X65720000Y-179632500D01*
G75*
G02*
X65572500Y-179780000I-147500J0D01*
G01*
X65227500Y-179780000D01*
G75*
G02*
X65080000Y-179632500I0J147500D01*
G01*
X65080000Y-179337500D01*
G75*
G02*
X65227500Y-179190000I147500J0D01*
G01*
G37*
G36*
G01*
X65227500Y-178220000D02*
X65572500Y-178220000D01*
G75*
G02*
X65720000Y-178367500I0J-147500D01*
G01*
X65720000Y-178662500D01*
G75*
G02*
X65572500Y-178810000I-147500J0D01*
G01*
X65227500Y-178810000D01*
G75*
G02*
X65080000Y-178662500I0J147500D01*
G01*
X65080000Y-178367500D01*
G75*
G02*
X65227500Y-178220000I147500J0D01*
G01*
G37*
G36*
G01*
X66610000Y-178727500D02*
X66610000Y-179072500D01*
G75*
G02*
X66462500Y-179220000I-147500J0D01*
G01*
X66167500Y-179220000D01*
G75*
G02*
X66020000Y-179072500I0J147500D01*
G01*
X66020000Y-178727500D01*
G75*
G02*
X66167500Y-178580000I147500J0D01*
G01*
X66462500Y-178580000D01*
G75*
G02*
X66610000Y-178727500I0J-147500D01*
G01*
G37*
G36*
G01*
X67580000Y-178727500D02*
X67580000Y-179072500D01*
G75*
G02*
X67432500Y-179220000I-147500J0D01*
G01*
X67137500Y-179220000D01*
G75*
G02*
X66990000Y-179072500I0J147500D01*
G01*
X66990000Y-178727500D01*
G75*
G02*
X67137500Y-178580000I147500J0D01*
G01*
X67432500Y-178580000D01*
G75*
G02*
X67580000Y-178727500I0J-147500D01*
G01*
G37*
G36*
G01*
X44004000Y-140017500D02*
X44004000Y-139672500D01*
G75*
G02*
X44151500Y-139525000I147500J0D01*
G01*
X44446500Y-139525000D01*
G75*
G02*
X44594000Y-139672500I0J-147500D01*
G01*
X44594000Y-140017500D01*
G75*
G02*
X44446500Y-140165000I-147500J0D01*
G01*
X44151500Y-140165000D01*
G75*
G02*
X44004000Y-140017500I0J147500D01*
G01*
G37*
G36*
G01*
X43034000Y-140017500D02*
X43034000Y-139672500D01*
G75*
G02*
X43181500Y-139525000I147500J0D01*
G01*
X43476500Y-139525000D01*
G75*
G02*
X43624000Y-139672500I0J-147500D01*
G01*
X43624000Y-140017500D01*
G75*
G02*
X43476500Y-140165000I-147500J0D01*
G01*
X43181500Y-140165000D01*
G75*
G02*
X43034000Y-140017500I0J147500D01*
G01*
G37*
G36*
G01*
X38672500Y-156880000D02*
X38327500Y-156880000D01*
G75*
G02*
X38180000Y-156732500I0J147500D01*
G01*
X38180000Y-156437500D01*
G75*
G02*
X38327500Y-156290000I147500J0D01*
G01*
X38672500Y-156290000D01*
G75*
G02*
X38820000Y-156437500I0J-147500D01*
G01*
X38820000Y-156732500D01*
G75*
G02*
X38672500Y-156880000I-147500J0D01*
G01*
G37*
G36*
G01*
X38672500Y-155910000D02*
X38327500Y-155910000D01*
G75*
G02*
X38180000Y-155762500I0J147500D01*
G01*
X38180000Y-155467500D01*
G75*
G02*
X38327500Y-155320000I147500J0D01*
G01*
X38672500Y-155320000D01*
G75*
G02*
X38820000Y-155467500I0J-147500D01*
G01*
X38820000Y-155762500D01*
G75*
G02*
X38672500Y-155910000I-147500J0D01*
G01*
G37*
G36*
G01*
X38672500Y-154980000D02*
X38327500Y-154980000D01*
G75*
G02*
X38180000Y-154832500I0J147500D01*
G01*
X38180000Y-154537500D01*
G75*
G02*
X38327500Y-154390000I147500J0D01*
G01*
X38672500Y-154390000D01*
G75*
G02*
X38820000Y-154537500I0J-147500D01*
G01*
X38820000Y-154832500D01*
G75*
G02*
X38672500Y-154980000I-147500J0D01*
G01*
G37*
G36*
G01*
X38672500Y-154010000D02*
X38327500Y-154010000D01*
G75*
G02*
X38180000Y-153862500I0J147500D01*
G01*
X38180000Y-153567500D01*
G75*
G02*
X38327500Y-153420000I147500J0D01*
G01*
X38672500Y-153420000D01*
G75*
G02*
X38820000Y-153567500I0J-147500D01*
G01*
X38820000Y-153862500D01*
G75*
G02*
X38672500Y-154010000I-147500J0D01*
G01*
G37*
G36*
G01*
X41465500Y-154481000D02*
X41810500Y-154481000D01*
G75*
G02*
X41958000Y-154628500I0J-147500D01*
G01*
X41958000Y-154923500D01*
G75*
G02*
X41810500Y-155071000I-147500J0D01*
G01*
X41465500Y-155071000D01*
G75*
G02*
X41318000Y-154923500I0J147500D01*
G01*
X41318000Y-154628500D01*
G75*
G02*
X41465500Y-154481000I147500J0D01*
G01*
G37*
G36*
G01*
X41465500Y-153511000D02*
X41810500Y-153511000D01*
G75*
G02*
X41958000Y-153658500I0J-147500D01*
G01*
X41958000Y-153953500D01*
G75*
G02*
X41810500Y-154101000I-147500J0D01*
G01*
X41465500Y-154101000D01*
G75*
G02*
X41318000Y-153953500I0J147500D01*
G01*
X41318000Y-153658500D01*
G75*
G02*
X41465500Y-153511000I147500J0D01*
G01*
G37*
G36*
G01*
X41465500Y-156466000D02*
X41810500Y-156466000D01*
G75*
G02*
X41958000Y-156613500I0J-147500D01*
G01*
X41958000Y-156908500D01*
G75*
G02*
X41810500Y-157056000I-147500J0D01*
G01*
X41465500Y-157056000D01*
G75*
G02*
X41318000Y-156908500I0J147500D01*
G01*
X41318000Y-156613500D01*
G75*
G02*
X41465500Y-156466000I147500J0D01*
G01*
G37*
G36*
G01*
X41465500Y-155496000D02*
X41810500Y-155496000D01*
G75*
G02*
X41958000Y-155643500I0J-147500D01*
G01*
X41958000Y-155938500D01*
G75*
G02*
X41810500Y-156086000I-147500J0D01*
G01*
X41465500Y-156086000D01*
G75*
G02*
X41318000Y-155938500I0J147500D01*
G01*
X41318000Y-155643500D01*
G75*
G02*
X41465500Y-155496000I147500J0D01*
G01*
G37*
G36*
G01*
X65572500Y-175010000D02*
X65227500Y-175010000D01*
G75*
G02*
X65080000Y-174862500I0J147500D01*
G01*
X65080000Y-174567500D01*
G75*
G02*
X65227500Y-174420000I147500J0D01*
G01*
X65572500Y-174420000D01*
G75*
G02*
X65720000Y-174567500I0J-147500D01*
G01*
X65720000Y-174862500D01*
G75*
G02*
X65572500Y-175010000I-147500J0D01*
G01*
G37*
G36*
G01*
X65572500Y-175980000D02*
X65227500Y-175980000D01*
G75*
G02*
X65080000Y-175832500I0J147500D01*
G01*
X65080000Y-175537500D01*
G75*
G02*
X65227500Y-175390000I147500J0D01*
G01*
X65572500Y-175390000D01*
G75*
G02*
X65720000Y-175537500I0J-147500D01*
G01*
X65720000Y-175832500D01*
G75*
G02*
X65572500Y-175980000I-147500J0D01*
G01*
G37*
G36*
G01*
X65227500Y-177290000D02*
X65572500Y-177290000D01*
G75*
G02*
X65720000Y-177437500I0J-147500D01*
G01*
X65720000Y-177732500D01*
G75*
G02*
X65572500Y-177880000I-147500J0D01*
G01*
X65227500Y-177880000D01*
G75*
G02*
X65080000Y-177732500I0J147500D01*
G01*
X65080000Y-177437500D01*
G75*
G02*
X65227500Y-177290000I147500J0D01*
G01*
G37*
G36*
G01*
X65227500Y-176320000D02*
X65572500Y-176320000D01*
G75*
G02*
X65720000Y-176467500I0J-147500D01*
G01*
X65720000Y-176762500D01*
G75*
G02*
X65572500Y-176910000I-147500J0D01*
G01*
X65227500Y-176910000D01*
G75*
G02*
X65080000Y-176762500I0J147500D01*
G01*
X65080000Y-176467500D01*
G75*
G02*
X65227500Y-176320000I147500J0D01*
G01*
G37*
G36*
G01*
X69480000Y-178727500D02*
X69480000Y-179072500D01*
G75*
G02*
X69332500Y-179220000I-147500J0D01*
G01*
X69037500Y-179220000D01*
G75*
G02*
X68890000Y-179072500I0J147500D01*
G01*
X68890000Y-178727500D01*
G75*
G02*
X69037500Y-178580000I147500J0D01*
G01*
X69332500Y-178580000D01*
G75*
G02*
X69480000Y-178727500I0J-147500D01*
G01*
G37*
G36*
G01*
X68510000Y-178727500D02*
X68510000Y-179072500D01*
G75*
G02*
X68362500Y-179220000I-147500J0D01*
G01*
X68067500Y-179220000D01*
G75*
G02*
X67920000Y-179072500I0J147500D01*
G01*
X67920000Y-178727500D01*
G75*
G02*
X68067500Y-178580000I147500J0D01*
G01*
X68362500Y-178580000D01*
G75*
G02*
X68510000Y-178727500I0J-147500D01*
G01*
G37*
D25*
X21500000Y-175300000D03*
X21500000Y-178700000D03*
X67500000Y-177700000D03*
X67500000Y-174300000D03*
D26*
X42938000Y-156676000D03*
X43738000Y-156676000D03*
X44538000Y-156676000D03*
X45338000Y-156676000D03*
X45338000Y-152876000D03*
X44538000Y-152876000D03*
X43738000Y-152876000D03*
X42938000Y-152876000D03*
D27*
X44138000Y-154776000D03*
G36*
G01*
X49560000Y-120077500D02*
X49560000Y-120422500D01*
G75*
G02*
X49412500Y-120570000I-147500J0D01*
G01*
X49117500Y-120570000D01*
G75*
G02*
X48970000Y-120422500I0J147500D01*
G01*
X48970000Y-120077500D01*
G75*
G02*
X49117500Y-119930000I147500J0D01*
G01*
X49412500Y-119930000D01*
G75*
G02*
X49560000Y-120077500I0J-147500D01*
G01*
G37*
G36*
G01*
X50530000Y-120077500D02*
X50530000Y-120422500D01*
G75*
G02*
X50382500Y-120570000I-147500J0D01*
G01*
X50087500Y-120570000D01*
G75*
G02*
X49940000Y-120422500I0J147500D01*
G01*
X49940000Y-120077500D01*
G75*
G02*
X50087500Y-119930000I147500J0D01*
G01*
X50382500Y-119930000D01*
G75*
G02*
X50530000Y-120077500I0J-147500D01*
G01*
G37*
G36*
G01*
X49654000Y-122379000D02*
X51054000Y-122379000D01*
G75*
G02*
X51129000Y-122454000I0J-75000D01*
G01*
X51129000Y-122604000D01*
G75*
G02*
X51054000Y-122679000I-75000J0D01*
G01*
X49654000Y-122679000D01*
G75*
G02*
X49579000Y-122604000I0J75000D01*
G01*
X49579000Y-122454000D01*
G75*
G02*
X49654000Y-122379000I75000J0D01*
G01*
G37*
G36*
G01*
X49654000Y-122879000D02*
X51054000Y-122879000D01*
G75*
G02*
X51129000Y-122954000I0J-75000D01*
G01*
X51129000Y-123104000D01*
G75*
G02*
X51054000Y-123179000I-75000J0D01*
G01*
X49654000Y-123179000D01*
G75*
G02*
X49579000Y-123104000I0J75000D01*
G01*
X49579000Y-122954000D01*
G75*
G02*
X49654000Y-122879000I75000J0D01*
G01*
G37*
G36*
G01*
X49654000Y-123379000D02*
X51054000Y-123379000D01*
G75*
G02*
X51129000Y-123454000I0J-75000D01*
G01*
X51129000Y-123604000D01*
G75*
G02*
X51054000Y-123679000I-75000J0D01*
G01*
X49654000Y-123679000D01*
G75*
G02*
X49579000Y-123604000I0J75000D01*
G01*
X49579000Y-123454000D01*
G75*
G02*
X49654000Y-123379000I75000J0D01*
G01*
G37*
G36*
G01*
X49654000Y-123879000D02*
X51054000Y-123879000D01*
G75*
G02*
X51129000Y-123954000I0J-75000D01*
G01*
X51129000Y-124104000D01*
G75*
G02*
X51054000Y-124179000I-75000J0D01*
G01*
X49654000Y-124179000D01*
G75*
G02*
X49579000Y-124104000I0J75000D01*
G01*
X49579000Y-123954000D01*
G75*
G02*
X49654000Y-123879000I75000J0D01*
G01*
G37*
G36*
G01*
X49654000Y-124379000D02*
X51054000Y-124379000D01*
G75*
G02*
X51129000Y-124454000I0J-75000D01*
G01*
X51129000Y-124604000D01*
G75*
G02*
X51054000Y-124679000I-75000J0D01*
G01*
X49654000Y-124679000D01*
G75*
G02*
X49579000Y-124604000I0J75000D01*
G01*
X49579000Y-124454000D01*
G75*
G02*
X49654000Y-124379000I75000J0D01*
G01*
G37*
G36*
G01*
X49654000Y-124879000D02*
X51054000Y-124879000D01*
G75*
G02*
X51129000Y-124954000I0J-75000D01*
G01*
X51129000Y-125104000D01*
G75*
G02*
X51054000Y-125179000I-75000J0D01*
G01*
X49654000Y-125179000D01*
G75*
G02*
X49579000Y-125104000I0J75000D01*
G01*
X49579000Y-124954000D01*
G75*
G02*
X49654000Y-124879000I75000J0D01*
G01*
G37*
G36*
G01*
X49654000Y-125379000D02*
X51054000Y-125379000D01*
G75*
G02*
X51129000Y-125454000I0J-75000D01*
G01*
X51129000Y-125604000D01*
G75*
G02*
X51054000Y-125679000I-75000J0D01*
G01*
X49654000Y-125679000D01*
G75*
G02*
X49579000Y-125604000I0J75000D01*
G01*
X49579000Y-125454000D01*
G75*
G02*
X49654000Y-125379000I75000J0D01*
G01*
G37*
G36*
G01*
X49654000Y-125879000D02*
X51054000Y-125879000D01*
G75*
G02*
X51129000Y-125954000I0J-75000D01*
G01*
X51129000Y-126104000D01*
G75*
G02*
X51054000Y-126179000I-75000J0D01*
G01*
X49654000Y-126179000D01*
G75*
G02*
X49579000Y-126104000I0J75000D01*
G01*
X49579000Y-125954000D01*
G75*
G02*
X49654000Y-125879000I75000J0D01*
G01*
G37*
G36*
G01*
X49654000Y-126379000D02*
X51054000Y-126379000D01*
G75*
G02*
X51129000Y-126454000I0J-75000D01*
G01*
X51129000Y-126604000D01*
G75*
G02*
X51054000Y-126679000I-75000J0D01*
G01*
X49654000Y-126679000D01*
G75*
G02*
X49579000Y-126604000I0J75000D01*
G01*
X49579000Y-126454000D01*
G75*
G02*
X49654000Y-126379000I75000J0D01*
G01*
G37*
G36*
G01*
X49654000Y-126879000D02*
X51054000Y-126879000D01*
G75*
G02*
X51129000Y-126954000I0J-75000D01*
G01*
X51129000Y-127104000D01*
G75*
G02*
X51054000Y-127179000I-75000J0D01*
G01*
X49654000Y-127179000D01*
G75*
G02*
X49579000Y-127104000I0J75000D01*
G01*
X49579000Y-126954000D01*
G75*
G02*
X49654000Y-126879000I75000J0D01*
G01*
G37*
G36*
G01*
X49654000Y-127379000D02*
X51054000Y-127379000D01*
G75*
G02*
X51129000Y-127454000I0J-75000D01*
G01*
X51129000Y-127604000D01*
G75*
G02*
X51054000Y-127679000I-75000J0D01*
G01*
X49654000Y-127679000D01*
G75*
G02*
X49579000Y-127604000I0J75000D01*
G01*
X49579000Y-127454000D01*
G75*
G02*
X49654000Y-127379000I75000J0D01*
G01*
G37*
G36*
G01*
X49654000Y-127879000D02*
X51054000Y-127879000D01*
G75*
G02*
X51129000Y-127954000I0J-75000D01*
G01*
X51129000Y-128104000D01*
G75*
G02*
X51054000Y-128179000I-75000J0D01*
G01*
X49654000Y-128179000D01*
G75*
G02*
X49579000Y-128104000I0J75000D01*
G01*
X49579000Y-127954000D01*
G75*
G02*
X49654000Y-127879000I75000J0D01*
G01*
G37*
G36*
G01*
X49654000Y-128379000D02*
X51054000Y-128379000D01*
G75*
G02*
X51129000Y-128454000I0J-75000D01*
G01*
X51129000Y-128604000D01*
G75*
G02*
X51054000Y-128679000I-75000J0D01*
G01*
X49654000Y-128679000D01*
G75*
G02*
X49579000Y-128604000I0J75000D01*
G01*
X49579000Y-128454000D01*
G75*
G02*
X49654000Y-128379000I75000J0D01*
G01*
G37*
G36*
G01*
X49654000Y-128879000D02*
X51054000Y-128879000D01*
G75*
G02*
X51129000Y-128954000I0J-75000D01*
G01*
X51129000Y-129104000D01*
G75*
G02*
X51054000Y-129179000I-75000J0D01*
G01*
X49654000Y-129179000D01*
G75*
G02*
X49579000Y-129104000I0J75000D01*
G01*
X49579000Y-128954000D01*
G75*
G02*
X49654000Y-128879000I75000J0D01*
G01*
G37*
G36*
G01*
X49654000Y-129379000D02*
X51054000Y-129379000D01*
G75*
G02*
X51129000Y-129454000I0J-75000D01*
G01*
X51129000Y-129604000D01*
G75*
G02*
X51054000Y-129679000I-75000J0D01*
G01*
X49654000Y-129679000D01*
G75*
G02*
X49579000Y-129604000I0J75000D01*
G01*
X49579000Y-129454000D01*
G75*
G02*
X49654000Y-129379000I75000J0D01*
G01*
G37*
G36*
G01*
X49654000Y-129879000D02*
X51054000Y-129879000D01*
G75*
G02*
X51129000Y-129954000I0J-75000D01*
G01*
X51129000Y-130104000D01*
G75*
G02*
X51054000Y-130179000I-75000J0D01*
G01*
X49654000Y-130179000D01*
G75*
G02*
X49579000Y-130104000I0J75000D01*
G01*
X49579000Y-129954000D01*
G75*
G02*
X49654000Y-129879000I75000J0D01*
G01*
G37*
G36*
G01*
X48354000Y-131179000D02*
X48504000Y-131179000D01*
G75*
G02*
X48579000Y-131254000I0J-75000D01*
G01*
X48579000Y-132654000D01*
G75*
G02*
X48504000Y-132729000I-75000J0D01*
G01*
X48354000Y-132729000D01*
G75*
G02*
X48279000Y-132654000I0J75000D01*
G01*
X48279000Y-131254000D01*
G75*
G02*
X48354000Y-131179000I75000J0D01*
G01*
G37*
G36*
G01*
X47854000Y-131179000D02*
X48004000Y-131179000D01*
G75*
G02*
X48079000Y-131254000I0J-75000D01*
G01*
X48079000Y-132654000D01*
G75*
G02*
X48004000Y-132729000I-75000J0D01*
G01*
X47854000Y-132729000D01*
G75*
G02*
X47779000Y-132654000I0J75000D01*
G01*
X47779000Y-131254000D01*
G75*
G02*
X47854000Y-131179000I75000J0D01*
G01*
G37*
G36*
G01*
X47354000Y-131179000D02*
X47504000Y-131179000D01*
G75*
G02*
X47579000Y-131254000I0J-75000D01*
G01*
X47579000Y-132654000D01*
G75*
G02*
X47504000Y-132729000I-75000J0D01*
G01*
X47354000Y-132729000D01*
G75*
G02*
X47279000Y-132654000I0J75000D01*
G01*
X47279000Y-131254000D01*
G75*
G02*
X47354000Y-131179000I75000J0D01*
G01*
G37*
G36*
G01*
X46854000Y-131179000D02*
X47004000Y-131179000D01*
G75*
G02*
X47079000Y-131254000I0J-75000D01*
G01*
X47079000Y-132654000D01*
G75*
G02*
X47004000Y-132729000I-75000J0D01*
G01*
X46854000Y-132729000D01*
G75*
G02*
X46779000Y-132654000I0J75000D01*
G01*
X46779000Y-131254000D01*
G75*
G02*
X46854000Y-131179000I75000J0D01*
G01*
G37*
G36*
G01*
X46354000Y-131179000D02*
X46504000Y-131179000D01*
G75*
G02*
X46579000Y-131254000I0J-75000D01*
G01*
X46579000Y-132654000D01*
G75*
G02*
X46504000Y-132729000I-75000J0D01*
G01*
X46354000Y-132729000D01*
G75*
G02*
X46279000Y-132654000I0J75000D01*
G01*
X46279000Y-131254000D01*
G75*
G02*
X46354000Y-131179000I75000J0D01*
G01*
G37*
G36*
G01*
X45854000Y-131179000D02*
X46004000Y-131179000D01*
G75*
G02*
X46079000Y-131254000I0J-75000D01*
G01*
X46079000Y-132654000D01*
G75*
G02*
X46004000Y-132729000I-75000J0D01*
G01*
X45854000Y-132729000D01*
G75*
G02*
X45779000Y-132654000I0J75000D01*
G01*
X45779000Y-131254000D01*
G75*
G02*
X45854000Y-131179000I75000J0D01*
G01*
G37*
G36*
G01*
X45354000Y-131179000D02*
X45504000Y-131179000D01*
G75*
G02*
X45579000Y-131254000I0J-75000D01*
G01*
X45579000Y-132654000D01*
G75*
G02*
X45504000Y-132729000I-75000J0D01*
G01*
X45354000Y-132729000D01*
G75*
G02*
X45279000Y-132654000I0J75000D01*
G01*
X45279000Y-131254000D01*
G75*
G02*
X45354000Y-131179000I75000J0D01*
G01*
G37*
G36*
G01*
X44854000Y-131179000D02*
X45004000Y-131179000D01*
G75*
G02*
X45079000Y-131254000I0J-75000D01*
G01*
X45079000Y-132654000D01*
G75*
G02*
X45004000Y-132729000I-75000J0D01*
G01*
X44854000Y-132729000D01*
G75*
G02*
X44779000Y-132654000I0J75000D01*
G01*
X44779000Y-131254000D01*
G75*
G02*
X44854000Y-131179000I75000J0D01*
G01*
G37*
G36*
G01*
X44354000Y-131179000D02*
X44504000Y-131179000D01*
G75*
G02*
X44579000Y-131254000I0J-75000D01*
G01*
X44579000Y-132654000D01*
G75*
G02*
X44504000Y-132729000I-75000J0D01*
G01*
X44354000Y-132729000D01*
G75*
G02*
X44279000Y-132654000I0J75000D01*
G01*
X44279000Y-131254000D01*
G75*
G02*
X44354000Y-131179000I75000J0D01*
G01*
G37*
G36*
G01*
X43854000Y-131179000D02*
X44004000Y-131179000D01*
G75*
G02*
X44079000Y-131254000I0J-75000D01*
G01*
X44079000Y-132654000D01*
G75*
G02*
X44004000Y-132729000I-75000J0D01*
G01*
X43854000Y-132729000D01*
G75*
G02*
X43779000Y-132654000I0J75000D01*
G01*
X43779000Y-131254000D01*
G75*
G02*
X43854000Y-131179000I75000J0D01*
G01*
G37*
G36*
G01*
X43354000Y-131179000D02*
X43504000Y-131179000D01*
G75*
G02*
X43579000Y-131254000I0J-75000D01*
G01*
X43579000Y-132654000D01*
G75*
G02*
X43504000Y-132729000I-75000J0D01*
G01*
X43354000Y-132729000D01*
G75*
G02*
X43279000Y-132654000I0J75000D01*
G01*
X43279000Y-131254000D01*
G75*
G02*
X43354000Y-131179000I75000J0D01*
G01*
G37*
G36*
G01*
X42854000Y-131179000D02*
X43004000Y-131179000D01*
G75*
G02*
X43079000Y-131254000I0J-75000D01*
G01*
X43079000Y-132654000D01*
G75*
G02*
X43004000Y-132729000I-75000J0D01*
G01*
X42854000Y-132729000D01*
G75*
G02*
X42779000Y-132654000I0J75000D01*
G01*
X42779000Y-131254000D01*
G75*
G02*
X42854000Y-131179000I75000J0D01*
G01*
G37*
G36*
G01*
X42354000Y-131179000D02*
X42504000Y-131179000D01*
G75*
G02*
X42579000Y-131254000I0J-75000D01*
G01*
X42579000Y-132654000D01*
G75*
G02*
X42504000Y-132729000I-75000J0D01*
G01*
X42354000Y-132729000D01*
G75*
G02*
X42279000Y-132654000I0J75000D01*
G01*
X42279000Y-131254000D01*
G75*
G02*
X42354000Y-131179000I75000J0D01*
G01*
G37*
G36*
G01*
X41854000Y-131179000D02*
X42004000Y-131179000D01*
G75*
G02*
X42079000Y-131254000I0J-75000D01*
G01*
X42079000Y-132654000D01*
G75*
G02*
X42004000Y-132729000I-75000J0D01*
G01*
X41854000Y-132729000D01*
G75*
G02*
X41779000Y-132654000I0J75000D01*
G01*
X41779000Y-131254000D01*
G75*
G02*
X41854000Y-131179000I75000J0D01*
G01*
G37*
G36*
G01*
X41354000Y-131179000D02*
X41504000Y-131179000D01*
G75*
G02*
X41579000Y-131254000I0J-75000D01*
G01*
X41579000Y-132654000D01*
G75*
G02*
X41504000Y-132729000I-75000J0D01*
G01*
X41354000Y-132729000D01*
G75*
G02*
X41279000Y-132654000I0J75000D01*
G01*
X41279000Y-131254000D01*
G75*
G02*
X41354000Y-131179000I75000J0D01*
G01*
G37*
G36*
G01*
X40854000Y-131179000D02*
X41004000Y-131179000D01*
G75*
G02*
X41079000Y-131254000I0J-75000D01*
G01*
X41079000Y-132654000D01*
G75*
G02*
X41004000Y-132729000I-75000J0D01*
G01*
X40854000Y-132729000D01*
G75*
G02*
X40779000Y-132654000I0J75000D01*
G01*
X40779000Y-131254000D01*
G75*
G02*
X40854000Y-131179000I75000J0D01*
G01*
G37*
G36*
G01*
X38304000Y-129879000D02*
X39704000Y-129879000D01*
G75*
G02*
X39779000Y-129954000I0J-75000D01*
G01*
X39779000Y-130104000D01*
G75*
G02*
X39704000Y-130179000I-75000J0D01*
G01*
X38304000Y-130179000D01*
G75*
G02*
X38229000Y-130104000I0J75000D01*
G01*
X38229000Y-129954000D01*
G75*
G02*
X38304000Y-129879000I75000J0D01*
G01*
G37*
G36*
G01*
X38304000Y-129379000D02*
X39704000Y-129379000D01*
G75*
G02*
X39779000Y-129454000I0J-75000D01*
G01*
X39779000Y-129604000D01*
G75*
G02*
X39704000Y-129679000I-75000J0D01*
G01*
X38304000Y-129679000D01*
G75*
G02*
X38229000Y-129604000I0J75000D01*
G01*
X38229000Y-129454000D01*
G75*
G02*
X38304000Y-129379000I75000J0D01*
G01*
G37*
G36*
G01*
X38304000Y-128879000D02*
X39704000Y-128879000D01*
G75*
G02*
X39779000Y-128954000I0J-75000D01*
G01*
X39779000Y-129104000D01*
G75*
G02*
X39704000Y-129179000I-75000J0D01*
G01*
X38304000Y-129179000D01*
G75*
G02*
X38229000Y-129104000I0J75000D01*
G01*
X38229000Y-128954000D01*
G75*
G02*
X38304000Y-128879000I75000J0D01*
G01*
G37*
G36*
G01*
X38304000Y-128379000D02*
X39704000Y-128379000D01*
G75*
G02*
X39779000Y-128454000I0J-75000D01*
G01*
X39779000Y-128604000D01*
G75*
G02*
X39704000Y-128679000I-75000J0D01*
G01*
X38304000Y-128679000D01*
G75*
G02*
X38229000Y-128604000I0J75000D01*
G01*
X38229000Y-128454000D01*
G75*
G02*
X38304000Y-128379000I75000J0D01*
G01*
G37*
G36*
G01*
X38304000Y-127879000D02*
X39704000Y-127879000D01*
G75*
G02*
X39779000Y-127954000I0J-75000D01*
G01*
X39779000Y-128104000D01*
G75*
G02*
X39704000Y-128179000I-75000J0D01*
G01*
X38304000Y-128179000D01*
G75*
G02*
X38229000Y-128104000I0J75000D01*
G01*
X38229000Y-127954000D01*
G75*
G02*
X38304000Y-127879000I75000J0D01*
G01*
G37*
G36*
G01*
X38304000Y-127379000D02*
X39704000Y-127379000D01*
G75*
G02*
X39779000Y-127454000I0J-75000D01*
G01*
X39779000Y-127604000D01*
G75*
G02*
X39704000Y-127679000I-75000J0D01*
G01*
X38304000Y-127679000D01*
G75*
G02*
X38229000Y-127604000I0J75000D01*
G01*
X38229000Y-127454000D01*
G75*
G02*
X38304000Y-127379000I75000J0D01*
G01*
G37*
G36*
G01*
X38304000Y-126879000D02*
X39704000Y-126879000D01*
G75*
G02*
X39779000Y-126954000I0J-75000D01*
G01*
X39779000Y-127104000D01*
G75*
G02*
X39704000Y-127179000I-75000J0D01*
G01*
X38304000Y-127179000D01*
G75*
G02*
X38229000Y-127104000I0J75000D01*
G01*
X38229000Y-126954000D01*
G75*
G02*
X38304000Y-126879000I75000J0D01*
G01*
G37*
G36*
G01*
X38304000Y-126379000D02*
X39704000Y-126379000D01*
G75*
G02*
X39779000Y-126454000I0J-75000D01*
G01*
X39779000Y-126604000D01*
G75*
G02*
X39704000Y-126679000I-75000J0D01*
G01*
X38304000Y-126679000D01*
G75*
G02*
X38229000Y-126604000I0J75000D01*
G01*
X38229000Y-126454000D01*
G75*
G02*
X38304000Y-126379000I75000J0D01*
G01*
G37*
G36*
G01*
X38304000Y-125879000D02*
X39704000Y-125879000D01*
G75*
G02*
X39779000Y-125954000I0J-75000D01*
G01*
X39779000Y-126104000D01*
G75*
G02*
X39704000Y-126179000I-75000J0D01*
G01*
X38304000Y-126179000D01*
G75*
G02*
X38229000Y-126104000I0J75000D01*
G01*
X38229000Y-125954000D01*
G75*
G02*
X38304000Y-125879000I75000J0D01*
G01*
G37*
G36*
G01*
X38304000Y-125379000D02*
X39704000Y-125379000D01*
G75*
G02*
X39779000Y-125454000I0J-75000D01*
G01*
X39779000Y-125604000D01*
G75*
G02*
X39704000Y-125679000I-75000J0D01*
G01*
X38304000Y-125679000D01*
G75*
G02*
X38229000Y-125604000I0J75000D01*
G01*
X38229000Y-125454000D01*
G75*
G02*
X38304000Y-125379000I75000J0D01*
G01*
G37*
G36*
G01*
X38304000Y-124879000D02*
X39704000Y-124879000D01*
G75*
G02*
X39779000Y-124954000I0J-75000D01*
G01*
X39779000Y-125104000D01*
G75*
G02*
X39704000Y-125179000I-75000J0D01*
G01*
X38304000Y-125179000D01*
G75*
G02*
X38229000Y-125104000I0J75000D01*
G01*
X38229000Y-124954000D01*
G75*
G02*
X38304000Y-124879000I75000J0D01*
G01*
G37*
G36*
G01*
X38304000Y-124379000D02*
X39704000Y-124379000D01*
G75*
G02*
X39779000Y-124454000I0J-75000D01*
G01*
X39779000Y-124604000D01*
G75*
G02*
X39704000Y-124679000I-75000J0D01*
G01*
X38304000Y-124679000D01*
G75*
G02*
X38229000Y-124604000I0J75000D01*
G01*
X38229000Y-124454000D01*
G75*
G02*
X38304000Y-124379000I75000J0D01*
G01*
G37*
G36*
G01*
X38304000Y-123879000D02*
X39704000Y-123879000D01*
G75*
G02*
X39779000Y-123954000I0J-75000D01*
G01*
X39779000Y-124104000D01*
G75*
G02*
X39704000Y-124179000I-75000J0D01*
G01*
X38304000Y-124179000D01*
G75*
G02*
X38229000Y-124104000I0J75000D01*
G01*
X38229000Y-123954000D01*
G75*
G02*
X38304000Y-123879000I75000J0D01*
G01*
G37*
G36*
G01*
X38304000Y-123379000D02*
X39704000Y-123379000D01*
G75*
G02*
X39779000Y-123454000I0J-75000D01*
G01*
X39779000Y-123604000D01*
G75*
G02*
X39704000Y-123679000I-75000J0D01*
G01*
X38304000Y-123679000D01*
G75*
G02*
X38229000Y-123604000I0J75000D01*
G01*
X38229000Y-123454000D01*
G75*
G02*
X38304000Y-123379000I75000J0D01*
G01*
G37*
G36*
G01*
X38304000Y-122879000D02*
X39704000Y-122879000D01*
G75*
G02*
X39779000Y-122954000I0J-75000D01*
G01*
X39779000Y-123104000D01*
G75*
G02*
X39704000Y-123179000I-75000J0D01*
G01*
X38304000Y-123179000D01*
G75*
G02*
X38229000Y-123104000I0J75000D01*
G01*
X38229000Y-122954000D01*
G75*
G02*
X38304000Y-122879000I75000J0D01*
G01*
G37*
G36*
G01*
X38304000Y-122379000D02*
X39704000Y-122379000D01*
G75*
G02*
X39779000Y-122454000I0J-75000D01*
G01*
X39779000Y-122604000D01*
G75*
G02*
X39704000Y-122679000I-75000J0D01*
G01*
X38304000Y-122679000D01*
G75*
G02*
X38229000Y-122604000I0J75000D01*
G01*
X38229000Y-122454000D01*
G75*
G02*
X38304000Y-122379000I75000J0D01*
G01*
G37*
G36*
G01*
X40854000Y-119829000D02*
X41004000Y-119829000D01*
G75*
G02*
X41079000Y-119904000I0J-75000D01*
G01*
X41079000Y-121304000D01*
G75*
G02*
X41004000Y-121379000I-75000J0D01*
G01*
X40854000Y-121379000D01*
G75*
G02*
X40779000Y-121304000I0J75000D01*
G01*
X40779000Y-119904000D01*
G75*
G02*
X40854000Y-119829000I75000J0D01*
G01*
G37*
G36*
G01*
X41354000Y-119829000D02*
X41504000Y-119829000D01*
G75*
G02*
X41579000Y-119904000I0J-75000D01*
G01*
X41579000Y-121304000D01*
G75*
G02*
X41504000Y-121379000I-75000J0D01*
G01*
X41354000Y-121379000D01*
G75*
G02*
X41279000Y-121304000I0J75000D01*
G01*
X41279000Y-119904000D01*
G75*
G02*
X41354000Y-119829000I75000J0D01*
G01*
G37*
G36*
G01*
X41854000Y-119829000D02*
X42004000Y-119829000D01*
G75*
G02*
X42079000Y-119904000I0J-75000D01*
G01*
X42079000Y-121304000D01*
G75*
G02*
X42004000Y-121379000I-75000J0D01*
G01*
X41854000Y-121379000D01*
G75*
G02*
X41779000Y-121304000I0J75000D01*
G01*
X41779000Y-119904000D01*
G75*
G02*
X41854000Y-119829000I75000J0D01*
G01*
G37*
G36*
G01*
X42354000Y-119829000D02*
X42504000Y-119829000D01*
G75*
G02*
X42579000Y-119904000I0J-75000D01*
G01*
X42579000Y-121304000D01*
G75*
G02*
X42504000Y-121379000I-75000J0D01*
G01*
X42354000Y-121379000D01*
G75*
G02*
X42279000Y-121304000I0J75000D01*
G01*
X42279000Y-119904000D01*
G75*
G02*
X42354000Y-119829000I75000J0D01*
G01*
G37*
G36*
G01*
X42854000Y-119829000D02*
X43004000Y-119829000D01*
G75*
G02*
X43079000Y-119904000I0J-75000D01*
G01*
X43079000Y-121304000D01*
G75*
G02*
X43004000Y-121379000I-75000J0D01*
G01*
X42854000Y-121379000D01*
G75*
G02*
X42779000Y-121304000I0J75000D01*
G01*
X42779000Y-119904000D01*
G75*
G02*
X42854000Y-119829000I75000J0D01*
G01*
G37*
G36*
G01*
X43354000Y-119829000D02*
X43504000Y-119829000D01*
G75*
G02*
X43579000Y-119904000I0J-75000D01*
G01*
X43579000Y-121304000D01*
G75*
G02*
X43504000Y-121379000I-75000J0D01*
G01*
X43354000Y-121379000D01*
G75*
G02*
X43279000Y-121304000I0J75000D01*
G01*
X43279000Y-119904000D01*
G75*
G02*
X43354000Y-119829000I75000J0D01*
G01*
G37*
G36*
G01*
X43854000Y-119829000D02*
X44004000Y-119829000D01*
G75*
G02*
X44079000Y-119904000I0J-75000D01*
G01*
X44079000Y-121304000D01*
G75*
G02*
X44004000Y-121379000I-75000J0D01*
G01*
X43854000Y-121379000D01*
G75*
G02*
X43779000Y-121304000I0J75000D01*
G01*
X43779000Y-119904000D01*
G75*
G02*
X43854000Y-119829000I75000J0D01*
G01*
G37*
G36*
G01*
X44354000Y-119829000D02*
X44504000Y-119829000D01*
G75*
G02*
X44579000Y-119904000I0J-75000D01*
G01*
X44579000Y-121304000D01*
G75*
G02*
X44504000Y-121379000I-75000J0D01*
G01*
X44354000Y-121379000D01*
G75*
G02*
X44279000Y-121304000I0J75000D01*
G01*
X44279000Y-119904000D01*
G75*
G02*
X44354000Y-119829000I75000J0D01*
G01*
G37*
G36*
G01*
X44854000Y-119829000D02*
X45004000Y-119829000D01*
G75*
G02*
X45079000Y-119904000I0J-75000D01*
G01*
X45079000Y-121304000D01*
G75*
G02*
X45004000Y-121379000I-75000J0D01*
G01*
X44854000Y-121379000D01*
G75*
G02*
X44779000Y-121304000I0J75000D01*
G01*
X44779000Y-119904000D01*
G75*
G02*
X44854000Y-119829000I75000J0D01*
G01*
G37*
G36*
G01*
X45354000Y-119829000D02*
X45504000Y-119829000D01*
G75*
G02*
X45579000Y-119904000I0J-75000D01*
G01*
X45579000Y-121304000D01*
G75*
G02*
X45504000Y-121379000I-75000J0D01*
G01*
X45354000Y-121379000D01*
G75*
G02*
X45279000Y-121304000I0J75000D01*
G01*
X45279000Y-119904000D01*
G75*
G02*
X45354000Y-119829000I75000J0D01*
G01*
G37*
G36*
G01*
X45854000Y-119829000D02*
X46004000Y-119829000D01*
G75*
G02*
X46079000Y-119904000I0J-75000D01*
G01*
X46079000Y-121304000D01*
G75*
G02*
X46004000Y-121379000I-75000J0D01*
G01*
X45854000Y-121379000D01*
G75*
G02*
X45779000Y-121304000I0J75000D01*
G01*
X45779000Y-119904000D01*
G75*
G02*
X45854000Y-119829000I75000J0D01*
G01*
G37*
G36*
G01*
X46354000Y-119829000D02*
X46504000Y-119829000D01*
G75*
G02*
X46579000Y-119904000I0J-75000D01*
G01*
X46579000Y-121304000D01*
G75*
G02*
X46504000Y-121379000I-75000J0D01*
G01*
X46354000Y-121379000D01*
G75*
G02*
X46279000Y-121304000I0J75000D01*
G01*
X46279000Y-119904000D01*
G75*
G02*
X46354000Y-119829000I75000J0D01*
G01*
G37*
G36*
G01*
X46854000Y-119829000D02*
X47004000Y-119829000D01*
G75*
G02*
X47079000Y-119904000I0J-75000D01*
G01*
X47079000Y-121304000D01*
G75*
G02*
X47004000Y-121379000I-75000J0D01*
G01*
X46854000Y-121379000D01*
G75*
G02*
X46779000Y-121304000I0J75000D01*
G01*
X46779000Y-119904000D01*
G75*
G02*
X46854000Y-119829000I75000J0D01*
G01*
G37*
G36*
G01*
X47354000Y-119829000D02*
X47504000Y-119829000D01*
G75*
G02*
X47579000Y-119904000I0J-75000D01*
G01*
X47579000Y-121304000D01*
G75*
G02*
X47504000Y-121379000I-75000J0D01*
G01*
X47354000Y-121379000D01*
G75*
G02*
X47279000Y-121304000I0J75000D01*
G01*
X47279000Y-119904000D01*
G75*
G02*
X47354000Y-119829000I75000J0D01*
G01*
G37*
G36*
G01*
X47854000Y-119829000D02*
X48004000Y-119829000D01*
G75*
G02*
X48079000Y-119904000I0J-75000D01*
G01*
X48079000Y-121304000D01*
G75*
G02*
X48004000Y-121379000I-75000J0D01*
G01*
X47854000Y-121379000D01*
G75*
G02*
X47779000Y-121304000I0J75000D01*
G01*
X47779000Y-119904000D01*
G75*
G02*
X47854000Y-119829000I75000J0D01*
G01*
G37*
G36*
G01*
X48354000Y-119829000D02*
X48504000Y-119829000D01*
G75*
G02*
X48579000Y-119904000I0J-75000D01*
G01*
X48579000Y-121304000D01*
G75*
G02*
X48504000Y-121379000I-75000J0D01*
G01*
X48354000Y-121379000D01*
G75*
G02*
X48279000Y-121304000I0J75000D01*
G01*
X48279000Y-119904000D01*
G75*
G02*
X48354000Y-119829000I75000J0D01*
G01*
G37*
G36*
G01*
X42177500Y-117940000D02*
X42522500Y-117940000D01*
G75*
G02*
X42670000Y-118087500I0J-147500D01*
G01*
X42670000Y-118382500D01*
G75*
G02*
X42522500Y-118530000I-147500J0D01*
G01*
X42177500Y-118530000D01*
G75*
G02*
X42030000Y-118382500I0J147500D01*
G01*
X42030000Y-118087500D01*
G75*
G02*
X42177500Y-117940000I147500J0D01*
G01*
G37*
G36*
G01*
X42177500Y-116970000D02*
X42522500Y-116970000D01*
G75*
G02*
X42670000Y-117117500I0J-147500D01*
G01*
X42670000Y-117412500D01*
G75*
G02*
X42522500Y-117560000I-147500J0D01*
G01*
X42177500Y-117560000D01*
G75*
G02*
X42030000Y-117412500I0J147500D01*
G01*
X42030000Y-117117500D01*
G75*
G02*
X42177500Y-116970000I147500J0D01*
G01*
G37*
G36*
G01*
X36356250Y-130750000D02*
X35843750Y-130750000D01*
G75*
G02*
X35625000Y-130531250I0J218750D01*
G01*
X35625000Y-130093750D01*
G75*
G02*
X35843750Y-129875000I218750J0D01*
G01*
X36356250Y-129875000D01*
G75*
G02*
X36575000Y-130093750I0J-218750D01*
G01*
X36575000Y-130531250D01*
G75*
G02*
X36356250Y-130750000I-218750J0D01*
G01*
G37*
G36*
G01*
X36356250Y-132325000D02*
X35843750Y-132325000D01*
G75*
G02*
X35625000Y-132106250I0J218750D01*
G01*
X35625000Y-131668750D01*
G75*
G02*
X35843750Y-131450000I218750J0D01*
G01*
X36356250Y-131450000D01*
G75*
G02*
X36575000Y-131668750I0J-218750D01*
G01*
X36575000Y-132106250D01*
G75*
G02*
X36356250Y-132325000I-218750J0D01*
G01*
G37*
G36*
G01*
X50919000Y-132002750D02*
X50919000Y-132515250D01*
G75*
G02*
X50700250Y-132734000I-218750J0D01*
G01*
X50262750Y-132734000D01*
G75*
G02*
X50044000Y-132515250I0J218750D01*
G01*
X50044000Y-132002750D01*
G75*
G02*
X50262750Y-131784000I218750J0D01*
G01*
X50700250Y-131784000D01*
G75*
G02*
X50919000Y-132002750I0J-218750D01*
G01*
G37*
G36*
G01*
X52494000Y-132002750D02*
X52494000Y-132515250D01*
G75*
G02*
X52275250Y-132734000I-218750J0D01*
G01*
X51837750Y-132734000D01*
G75*
G02*
X51619000Y-132515250I0J218750D01*
G01*
X51619000Y-132002750D01*
G75*
G02*
X51837750Y-131784000I218750J0D01*
G01*
X52275250Y-131784000D01*
G75*
G02*
X52494000Y-132002750I0J-218750D01*
G01*
G37*
G36*
G01*
X38729000Y-131181500D02*
X38729000Y-130836500D01*
G75*
G02*
X38876500Y-130689000I147500J0D01*
G01*
X39171500Y-130689000D01*
G75*
G02*
X39319000Y-130836500I0J-147500D01*
G01*
X39319000Y-131181500D01*
G75*
G02*
X39171500Y-131329000I-147500J0D01*
G01*
X38876500Y-131329000D01*
G75*
G02*
X38729000Y-131181500I0J147500D01*
G01*
G37*
G36*
G01*
X37759000Y-131181500D02*
X37759000Y-130836500D01*
G75*
G02*
X37906500Y-130689000I147500J0D01*
G01*
X38201500Y-130689000D01*
G75*
G02*
X38349000Y-130836500I0J-147500D01*
G01*
X38349000Y-131181500D01*
G75*
G02*
X38201500Y-131329000I-147500J0D01*
G01*
X37906500Y-131329000D01*
G75*
G02*
X37759000Y-131181500I0J147500D01*
G01*
G37*
D13*
X43000000Y-109000000D03*
X44000000Y-109000000D03*
X45000000Y-109000000D03*
X46000000Y-109000000D03*
X47000000Y-109000000D03*
D28*
X66000000Y-128000000D03*
X66000000Y-129000000D03*
X66000000Y-130000000D03*
X66000000Y-131000000D03*
X66000000Y-132000000D03*
X24000000Y-132000000D03*
X24000000Y-131000000D03*
X24000000Y-130000000D03*
X24000000Y-129000000D03*
X24000000Y-128000000D03*
D22*
G36*
X58939340Y-113878679D02*
G01*
X59292894Y-114232233D01*
X58232234Y-115292893D01*
X57878680Y-114939339D01*
X58939340Y-113878679D01*
G37*
G36*
X59646446Y-114585786D02*
G01*
X60000000Y-114939340D01*
X58939340Y-116000000D01*
X58585786Y-115646446D01*
X59646446Y-114585786D01*
G37*
G36*
X60353553Y-115292893D02*
G01*
X60707107Y-115646447D01*
X59646447Y-116707107D01*
X59292893Y-116353553D01*
X60353553Y-115292893D01*
G37*
G36*
X61060660Y-116000000D02*
G01*
X61414214Y-116353554D01*
X60353554Y-117414214D01*
X60000000Y-117060660D01*
X61060660Y-116000000D01*
G37*
G36*
X61767767Y-116707106D02*
G01*
X62121321Y-117060660D01*
X61060661Y-118121320D01*
X60707107Y-117767766D01*
X61767767Y-116707106D01*
G37*
G36*
X28893934Y-121878248D02*
G01*
X28328248Y-122443934D01*
X27691852Y-121807538D01*
X28257538Y-121241852D01*
X28893934Y-121878248D01*
G37*
G36*
X30979899Y-122620710D02*
G01*
X30414213Y-123186396D01*
X29777817Y-122550000D01*
X30343503Y-121984314D01*
X30979899Y-122620710D01*
G37*
G36*
X29636396Y-123964213D02*
G01*
X29070710Y-124529899D01*
X28434314Y-123893503D01*
X29000000Y-123327817D01*
X29636396Y-123964213D01*
G37*
D29*
X27000000Y-166250000D03*
X27000000Y-168750000D03*
X27000000Y-171250000D03*
G36*
G01*
X53780000Y-128627500D02*
X53780000Y-128972500D01*
G75*
G02*
X53632500Y-129120000I-147500J0D01*
G01*
X53337500Y-129120000D01*
G75*
G02*
X53190000Y-128972500I0J147500D01*
G01*
X53190000Y-128627500D01*
G75*
G02*
X53337500Y-128480000I147500J0D01*
G01*
X53632500Y-128480000D01*
G75*
G02*
X53780000Y-128627500I0J-147500D01*
G01*
G37*
G36*
G01*
X52810000Y-128627500D02*
X52810000Y-128972500D01*
G75*
G02*
X52662500Y-129120000I-147500J0D01*
G01*
X52367500Y-129120000D01*
G75*
G02*
X52220000Y-128972500I0J147500D01*
G01*
X52220000Y-128627500D01*
G75*
G02*
X52367500Y-128480000I147500J0D01*
G01*
X52662500Y-128480000D01*
G75*
G02*
X52810000Y-128627500I0J-147500D01*
G01*
G37*
G36*
G01*
X43590000Y-134572500D02*
X43590000Y-134227500D01*
G75*
G02*
X43737500Y-134080000I147500J0D01*
G01*
X44032500Y-134080000D01*
G75*
G02*
X44180000Y-134227500I0J-147500D01*
G01*
X44180000Y-134572500D01*
G75*
G02*
X44032500Y-134720000I-147500J0D01*
G01*
X43737500Y-134720000D01*
G75*
G02*
X43590000Y-134572500I0J147500D01*
G01*
G37*
G36*
G01*
X42620000Y-134572500D02*
X42620000Y-134227500D01*
G75*
G02*
X42767500Y-134080000I147500J0D01*
G01*
X43062500Y-134080000D01*
G75*
G02*
X43210000Y-134227500I0J-147500D01*
G01*
X43210000Y-134572500D01*
G75*
G02*
X43062500Y-134720000I-147500J0D01*
G01*
X42767500Y-134720000D01*
G75*
G02*
X42620000Y-134572500I0J147500D01*
G01*
G37*
G36*
G01*
X36172500Y-129380000D02*
X35827500Y-129380000D01*
G75*
G02*
X35680000Y-129232500I0J147500D01*
G01*
X35680000Y-128937500D01*
G75*
G02*
X35827500Y-128790000I147500J0D01*
G01*
X36172500Y-128790000D01*
G75*
G02*
X36320000Y-128937500I0J-147500D01*
G01*
X36320000Y-129232500D01*
G75*
G02*
X36172500Y-129380000I-147500J0D01*
G01*
G37*
G36*
G01*
X36172500Y-128410000D02*
X35827500Y-128410000D01*
G75*
G02*
X35680000Y-128262500I0J147500D01*
G01*
X35680000Y-127967500D01*
G75*
G02*
X35827500Y-127820000I147500J0D01*
G01*
X36172500Y-127820000D01*
G75*
G02*
X36320000Y-127967500I0J-147500D01*
G01*
X36320000Y-128262500D01*
G75*
G02*
X36172500Y-128410000I-147500J0D01*
G01*
G37*
G36*
G01*
X50893500Y-133445250D02*
X50893500Y-133957750D01*
G75*
G02*
X50674750Y-134176500I-218750J0D01*
G01*
X50237250Y-134176500D01*
G75*
G02*
X50018500Y-133957750I0J218750D01*
G01*
X50018500Y-133445250D01*
G75*
G02*
X50237250Y-133226500I218750J0D01*
G01*
X50674750Y-133226500D01*
G75*
G02*
X50893500Y-133445250I0J-218750D01*
G01*
G37*
G36*
G01*
X52468500Y-133445250D02*
X52468500Y-133957750D01*
G75*
G02*
X52249750Y-134176500I-218750J0D01*
G01*
X51812250Y-134176500D01*
G75*
G02*
X51593500Y-133957750I0J218750D01*
G01*
X51593500Y-133445250D01*
G75*
G02*
X51812250Y-133226500I218750J0D01*
G01*
X52249750Y-133226500D01*
G75*
G02*
X52468500Y-133445250I0J-218750D01*
G01*
G37*
G36*
G01*
X25390000Y-179472500D02*
X25390000Y-179127500D01*
G75*
G02*
X25537500Y-178980000I147500J0D01*
G01*
X25832500Y-178980000D01*
G75*
G02*
X25980000Y-179127500I0J-147500D01*
G01*
X25980000Y-179472500D01*
G75*
G02*
X25832500Y-179620000I-147500J0D01*
G01*
X25537500Y-179620000D01*
G75*
G02*
X25390000Y-179472500I0J147500D01*
G01*
G37*
G36*
G01*
X24420000Y-179472500D02*
X24420000Y-179127500D01*
G75*
G02*
X24567500Y-178980000I147500J0D01*
G01*
X24862500Y-178980000D01*
G75*
G02*
X25010000Y-179127500I0J-147500D01*
G01*
X25010000Y-179472500D01*
G75*
G02*
X24862500Y-179620000I-147500J0D01*
G01*
X24567500Y-179620000D01*
G75*
G02*
X24420000Y-179472500I0J147500D01*
G01*
G37*
G36*
G01*
X64327500Y-132790000D02*
X64672500Y-132790000D01*
G75*
G02*
X64820000Y-132937500I0J-147500D01*
G01*
X64820000Y-133232500D01*
G75*
G02*
X64672500Y-133380000I-147500J0D01*
G01*
X64327500Y-133380000D01*
G75*
G02*
X64180000Y-133232500I0J147500D01*
G01*
X64180000Y-132937500D01*
G75*
G02*
X64327500Y-132790000I147500J0D01*
G01*
G37*
G36*
G01*
X64327500Y-131820000D02*
X64672500Y-131820000D01*
G75*
G02*
X64820000Y-131967500I0J-147500D01*
G01*
X64820000Y-132262500D01*
G75*
G02*
X64672500Y-132410000I-147500J0D01*
G01*
X64327500Y-132410000D01*
G75*
G02*
X64180000Y-132262500I0J147500D01*
G01*
X64180000Y-131967500D01*
G75*
G02*
X64327500Y-131820000I147500J0D01*
G01*
G37*
G36*
G01*
X45790000Y-110672500D02*
X45790000Y-110327500D01*
G75*
G02*
X45937500Y-110180000I147500J0D01*
G01*
X46232500Y-110180000D01*
G75*
G02*
X46380000Y-110327500I0J-147500D01*
G01*
X46380000Y-110672500D01*
G75*
G02*
X46232500Y-110820000I-147500J0D01*
G01*
X45937500Y-110820000D01*
G75*
G02*
X45790000Y-110672500I0J147500D01*
G01*
G37*
G36*
G01*
X44820000Y-110672500D02*
X44820000Y-110327500D01*
G75*
G02*
X44967500Y-110180000I147500J0D01*
G01*
X45262500Y-110180000D01*
G75*
G02*
X45410000Y-110327500I0J-147500D01*
G01*
X45410000Y-110672500D01*
G75*
G02*
X45262500Y-110820000I-147500J0D01*
G01*
X44967500Y-110820000D01*
G75*
G02*
X44820000Y-110672500I0J147500D01*
G01*
G37*
G36*
G01*
X25672500Y-129245000D02*
X25327500Y-129245000D01*
G75*
G02*
X25180000Y-129097500I0J147500D01*
G01*
X25180000Y-128802500D01*
G75*
G02*
X25327500Y-128655000I147500J0D01*
G01*
X25672500Y-128655000D01*
G75*
G02*
X25820000Y-128802500I0J-147500D01*
G01*
X25820000Y-129097500D01*
G75*
G02*
X25672500Y-129245000I-147500J0D01*
G01*
G37*
G36*
G01*
X25672500Y-130215000D02*
X25327500Y-130215000D01*
G75*
G02*
X25180000Y-130067500I0J147500D01*
G01*
X25180000Y-129772500D01*
G75*
G02*
X25327500Y-129625000I147500J0D01*
G01*
X25672500Y-129625000D01*
G75*
G02*
X25820000Y-129772500I0J-147500D01*
G01*
X25820000Y-130067500D01*
G75*
G02*
X25672500Y-130215000I-147500J0D01*
G01*
G37*
G36*
G01*
X31656327Y-116687625D02*
X31412375Y-116443673D01*
G75*
G02*
X31412375Y-116235077I104298J104298D01*
G01*
X31620971Y-116026481D01*
G75*
G02*
X31829567Y-116026481I104298J-104298D01*
G01*
X32073519Y-116270433D01*
G75*
G02*
X32073519Y-116479029I-104298J-104298D01*
G01*
X31864923Y-116687625D01*
G75*
G02*
X31656327Y-116687625I-104298J104298D01*
G01*
G37*
G36*
G01*
X30970433Y-117373519D02*
X30726481Y-117129567D01*
G75*
G02*
X30726481Y-116920971I104298J104298D01*
G01*
X30935077Y-116712375D01*
G75*
G02*
X31143673Y-116712375I104298J-104298D01*
G01*
X31387625Y-116956327D01*
G75*
G02*
X31387625Y-117164923I-104298J-104298D01*
G01*
X31179029Y-117373519D01*
G75*
G02*
X30970433Y-117373519I-104298J104298D01*
G01*
G37*
G36*
G01*
X59312375Y-117756327D02*
X59556327Y-117512375D01*
G75*
G02*
X59764923Y-117512375I104298J-104298D01*
G01*
X59973519Y-117720971D01*
G75*
G02*
X59973519Y-117929567I-104298J-104298D01*
G01*
X59729567Y-118173519D01*
G75*
G02*
X59520971Y-118173519I-104298J104298D01*
G01*
X59312375Y-117964923D01*
G75*
G02*
X59312375Y-117756327I104298J104298D01*
G01*
G37*
G36*
G01*
X58626481Y-117070433D02*
X58870433Y-116826481D01*
G75*
G02*
X59079029Y-116826481I104298J-104298D01*
G01*
X59287625Y-117035077D01*
G75*
G02*
X59287625Y-117243673I-104298J-104298D01*
G01*
X59043673Y-117487625D01*
G75*
G02*
X58835077Y-117487625I-104298J104298D01*
G01*
X58626481Y-117279029D01*
G75*
G02*
X58626481Y-117070433I104298J104298D01*
G01*
G37*
G36*
G01*
X60712375Y-119156327D02*
X60956327Y-118912375D01*
G75*
G02*
X61164923Y-118912375I104298J-104298D01*
G01*
X61373519Y-119120971D01*
G75*
G02*
X61373519Y-119329567I-104298J-104298D01*
G01*
X61129567Y-119573519D01*
G75*
G02*
X60920971Y-119573519I-104298J104298D01*
G01*
X60712375Y-119364923D01*
G75*
G02*
X60712375Y-119156327I104298J104298D01*
G01*
G37*
G36*
G01*
X60026481Y-118470433D02*
X60270433Y-118226481D01*
G75*
G02*
X60479029Y-118226481I104298J-104298D01*
G01*
X60687625Y-118435077D01*
G75*
G02*
X60687625Y-118643673I-104298J-104298D01*
G01*
X60443673Y-118887625D01*
G75*
G02*
X60235077Y-118887625I-104298J104298D01*
G01*
X60026481Y-118679029D01*
G75*
G02*
X60026481Y-118470433I104298J104298D01*
G01*
G37*
G36*
G01*
X42172500Y-111860000D02*
X41827500Y-111860000D01*
G75*
G02*
X41680000Y-111712500I0J147500D01*
G01*
X41680000Y-111417500D01*
G75*
G02*
X41827500Y-111270000I147500J0D01*
G01*
X42172500Y-111270000D01*
G75*
G02*
X42320000Y-111417500I0J-147500D01*
G01*
X42320000Y-111712500D01*
G75*
G02*
X42172500Y-111860000I-147500J0D01*
G01*
G37*
G36*
G01*
X42172500Y-112830000D02*
X41827500Y-112830000D01*
G75*
G02*
X41680000Y-112682500I0J147500D01*
G01*
X41680000Y-112387500D01*
G75*
G02*
X41827500Y-112240000I147500J0D01*
G01*
X42172500Y-112240000D01*
G75*
G02*
X42320000Y-112387500I0J-147500D01*
G01*
X42320000Y-112682500D01*
G75*
G02*
X42172500Y-112830000I-147500J0D01*
G01*
G37*
G36*
G01*
X46827500Y-114240000D02*
X47172500Y-114240000D01*
G75*
G02*
X47320000Y-114387500I0J-147500D01*
G01*
X47320000Y-114682500D01*
G75*
G02*
X47172500Y-114830000I-147500J0D01*
G01*
X46827500Y-114830000D01*
G75*
G02*
X46680000Y-114682500I0J147500D01*
G01*
X46680000Y-114387500D01*
G75*
G02*
X46827500Y-114240000I147500J0D01*
G01*
G37*
G36*
G01*
X46827500Y-113270000D02*
X47172500Y-113270000D01*
G75*
G02*
X47320000Y-113417500I0J-147500D01*
G01*
X47320000Y-113712500D01*
G75*
G02*
X47172500Y-113860000I-147500J0D01*
G01*
X46827500Y-113860000D01*
G75*
G02*
X46680000Y-113712500I0J147500D01*
G01*
X46680000Y-113417500D01*
G75*
G02*
X46827500Y-113270000I147500J0D01*
G01*
G37*
D22*
G36*
X27878679Y-117060660D02*
G01*
X28232233Y-116707106D01*
X29292893Y-117767766D01*
X28939339Y-118121320D01*
X27878679Y-117060660D01*
G37*
G36*
X28585786Y-116353554D02*
G01*
X28939340Y-116000000D01*
X30000000Y-117060660D01*
X29646446Y-117414214D01*
X28585786Y-116353554D01*
G37*
G36*
X29292893Y-115646447D02*
G01*
X29646447Y-115292893D01*
X30707107Y-116353553D01*
X30353553Y-116707107D01*
X29292893Y-115646447D01*
G37*
G36*
X30000000Y-114939340D02*
G01*
X30353554Y-114585786D01*
X31414214Y-115646446D01*
X31060660Y-116000000D01*
X30000000Y-114939340D01*
G37*
G36*
X30707106Y-114232233D02*
G01*
X31060660Y-113878679D01*
X32121320Y-114939339D01*
X31767766Y-115292893D01*
X30707106Y-114232233D01*
G37*
G36*
G01*
X29690000Y-169672500D02*
X29690000Y-169327500D01*
G75*
G02*
X29837500Y-169180000I147500J0D01*
G01*
X30132500Y-169180000D01*
G75*
G02*
X30280000Y-169327500I0J-147500D01*
G01*
X30280000Y-169672500D01*
G75*
G02*
X30132500Y-169820000I-147500J0D01*
G01*
X29837500Y-169820000D01*
G75*
G02*
X29690000Y-169672500I0J147500D01*
G01*
G37*
G36*
G01*
X28720000Y-169672500D02*
X28720000Y-169327500D01*
G75*
G02*
X28867500Y-169180000I147500J0D01*
G01*
X29162500Y-169180000D01*
G75*
G02*
X29310000Y-169327500I0J-147500D01*
G01*
X29310000Y-169672500D01*
G75*
G02*
X29162500Y-169820000I-147500J0D01*
G01*
X28867500Y-169820000D01*
G75*
G02*
X28720000Y-169672500I0J147500D01*
G01*
G37*
G36*
G01*
X29172500Y-167810000D02*
X28827500Y-167810000D01*
G75*
G02*
X28680000Y-167662500I0J147500D01*
G01*
X28680000Y-167367500D01*
G75*
G02*
X28827500Y-167220000I147500J0D01*
G01*
X29172500Y-167220000D01*
G75*
G02*
X29320000Y-167367500I0J-147500D01*
G01*
X29320000Y-167662500D01*
G75*
G02*
X29172500Y-167810000I-147500J0D01*
G01*
G37*
G36*
G01*
X29172500Y-168780000D02*
X28827500Y-168780000D01*
G75*
G02*
X28680000Y-168632500I0J147500D01*
G01*
X28680000Y-168337500D01*
G75*
G02*
X28827500Y-168190000I147500J0D01*
G01*
X29172500Y-168190000D01*
G75*
G02*
X29320000Y-168337500I0J-147500D01*
G01*
X29320000Y-168632500D01*
G75*
G02*
X29172500Y-168780000I-147500J0D01*
G01*
G37*
G36*
G01*
X41790000Y-151213750D02*
X41790000Y-152126250D01*
G75*
G02*
X41546250Y-152370000I-243750J0D01*
G01*
X41058750Y-152370000D01*
G75*
G02*
X40815000Y-152126250I0J243750D01*
G01*
X40815000Y-151213750D01*
G75*
G02*
X41058750Y-150970000I243750J0D01*
G01*
X41546250Y-150970000D01*
G75*
G02*
X41790000Y-151213750I0J-243750D01*
G01*
G37*
G36*
G01*
X43665000Y-151213750D02*
X43665000Y-152126250D01*
G75*
G02*
X43421250Y-152370000I-243750J0D01*
G01*
X42933750Y-152370000D01*
G75*
G02*
X42690000Y-152126250I0J243750D01*
G01*
X42690000Y-151213750D01*
G75*
G02*
X42933750Y-150970000I243750J0D01*
G01*
X43421250Y-150970000D01*
G75*
G02*
X43665000Y-151213750I0J-243750D01*
G01*
G37*
G36*
G01*
X47180000Y-139677500D02*
X47180000Y-140022500D01*
G75*
G02*
X47032500Y-140170000I-147500J0D01*
G01*
X46737500Y-140170000D01*
G75*
G02*
X46590000Y-140022500I0J147500D01*
G01*
X46590000Y-139677500D01*
G75*
G02*
X46737500Y-139530000I147500J0D01*
G01*
X47032500Y-139530000D01*
G75*
G02*
X47180000Y-139677500I0J-147500D01*
G01*
G37*
G36*
G01*
X48150000Y-139677500D02*
X48150000Y-140022500D01*
G75*
G02*
X48002500Y-140170000I-147500J0D01*
G01*
X47707500Y-140170000D01*
G75*
G02*
X47560000Y-140022500I0J147500D01*
G01*
X47560000Y-139677500D01*
G75*
G02*
X47707500Y-139530000I147500J0D01*
G01*
X48002500Y-139530000D01*
G75*
G02*
X48150000Y-139677500I0J-147500D01*
G01*
G37*
G36*
G01*
X47790000Y-110672500D02*
X47790000Y-110327500D01*
G75*
G02*
X47937500Y-110180000I147500J0D01*
G01*
X48232500Y-110180000D01*
G75*
G02*
X48380000Y-110327500I0J-147500D01*
G01*
X48380000Y-110672500D01*
G75*
G02*
X48232500Y-110820000I-147500J0D01*
G01*
X47937500Y-110820000D01*
G75*
G02*
X47790000Y-110672500I0J147500D01*
G01*
G37*
G36*
G01*
X46820000Y-110672500D02*
X46820000Y-110327500D01*
G75*
G02*
X46967500Y-110180000I147500J0D01*
G01*
X47262500Y-110180000D01*
G75*
G02*
X47410000Y-110327500I0J-147500D01*
G01*
X47410000Y-110672500D01*
G75*
G02*
X47262500Y-110820000I-147500J0D01*
G01*
X46967500Y-110820000D01*
G75*
G02*
X46820000Y-110672500I0J147500D01*
G01*
G37*
G36*
G01*
X42550000Y-149997500D02*
X42550000Y-150342500D01*
G75*
G02*
X42402500Y-150490000I-147500J0D01*
G01*
X42107500Y-150490000D01*
G75*
G02*
X41960000Y-150342500I0J147500D01*
G01*
X41960000Y-149997500D01*
G75*
G02*
X42107500Y-149850000I147500J0D01*
G01*
X42402500Y-149850000D01*
G75*
G02*
X42550000Y-149997500I0J-147500D01*
G01*
G37*
G36*
G01*
X43520000Y-149997500D02*
X43520000Y-150342500D01*
G75*
G02*
X43372500Y-150490000I-147500J0D01*
G01*
X43077500Y-150490000D01*
G75*
G02*
X42930000Y-150342500I0J147500D01*
G01*
X42930000Y-149997500D01*
G75*
G02*
X43077500Y-149850000I147500J0D01*
G01*
X43372500Y-149850000D01*
G75*
G02*
X43520000Y-149997500I0J-147500D01*
G01*
G37*
D28*
X60400000Y-140205000D03*
X60400000Y-138935000D03*
X60400000Y-137665000D03*
X60400000Y-136395000D03*
X29600000Y-140205000D03*
X29600000Y-138935000D03*
X29600000Y-137665000D03*
X29600000Y-136395000D03*
G36*
G01*
X62356327Y-118087625D02*
X62112375Y-117843673D01*
G75*
G02*
X62112375Y-117635077I104298J104298D01*
G01*
X62320971Y-117426481D01*
G75*
G02*
X62529567Y-117426481I104298J-104298D01*
G01*
X62773519Y-117670433D01*
G75*
G02*
X62773519Y-117879029I-104298J-104298D01*
G01*
X62564923Y-118087625D01*
G75*
G02*
X62356327Y-118087625I-104298J104298D01*
G01*
G37*
G36*
G01*
X61670433Y-118773519D02*
X61426481Y-118529567D01*
G75*
G02*
X61426481Y-118320971I104298J104298D01*
G01*
X61635077Y-118112375D01*
G75*
G02*
X61843673Y-118112375I104298J-104298D01*
G01*
X62087625Y-118356327D01*
G75*
G02*
X62087625Y-118564923I-104298J-104298D01*
G01*
X61879029Y-118773519D01*
G75*
G02*
X61670433Y-118773519I-104298J104298D01*
G01*
G37*
G36*
G01*
X66190000Y-133172500D02*
X66190000Y-132827500D01*
G75*
G02*
X66337500Y-132680000I147500J0D01*
G01*
X66632500Y-132680000D01*
G75*
G02*
X66780000Y-132827500I0J-147500D01*
G01*
X66780000Y-133172500D01*
G75*
G02*
X66632500Y-133320000I-147500J0D01*
G01*
X66337500Y-133320000D01*
G75*
G02*
X66190000Y-133172500I0J147500D01*
G01*
G37*
G36*
G01*
X65220000Y-133172500D02*
X65220000Y-132827500D01*
G75*
G02*
X65367500Y-132680000I147500J0D01*
G01*
X65662500Y-132680000D01*
G75*
G02*
X65810000Y-132827500I0J-147500D01*
G01*
X65810000Y-133172500D01*
G75*
G02*
X65662500Y-133320000I-147500J0D01*
G01*
X65367500Y-133320000D01*
G75*
G02*
X65220000Y-133172500I0J147500D01*
G01*
G37*
G36*
G01*
X23810000Y-126827500D02*
X23810000Y-127172500D01*
G75*
G02*
X23662500Y-127320000I-147500J0D01*
G01*
X23367500Y-127320000D01*
G75*
G02*
X23220000Y-127172500I0J147500D01*
G01*
X23220000Y-126827500D01*
G75*
G02*
X23367500Y-126680000I147500J0D01*
G01*
X23662500Y-126680000D01*
G75*
G02*
X23810000Y-126827500I0J-147500D01*
G01*
G37*
G36*
G01*
X24780000Y-126827500D02*
X24780000Y-127172500D01*
G75*
G02*
X24632500Y-127320000I-147500J0D01*
G01*
X24337500Y-127320000D01*
G75*
G02*
X24190000Y-127172500I0J147500D01*
G01*
X24190000Y-126827500D01*
G75*
G02*
X24337500Y-126680000I147500J0D01*
G01*
X24632500Y-126680000D01*
G75*
G02*
X24780000Y-126827500I0J-147500D01*
G01*
G37*
G36*
G01*
X48172500Y-108810000D02*
X47827500Y-108810000D01*
G75*
G02*
X47680000Y-108662500I0J147500D01*
G01*
X47680000Y-108367500D01*
G75*
G02*
X47827500Y-108220000I147500J0D01*
G01*
X48172500Y-108220000D01*
G75*
G02*
X48320000Y-108367500I0J-147500D01*
G01*
X48320000Y-108662500D01*
G75*
G02*
X48172500Y-108810000I-147500J0D01*
G01*
G37*
G36*
G01*
X48172500Y-109780000D02*
X47827500Y-109780000D01*
G75*
G02*
X47680000Y-109632500I0J147500D01*
G01*
X47680000Y-109337500D01*
G75*
G02*
X47827500Y-109190000I147500J0D01*
G01*
X48172500Y-109190000D01*
G75*
G02*
X48320000Y-109337500I0J-147500D01*
G01*
X48320000Y-109632500D01*
G75*
G02*
X48172500Y-109780000I-147500J0D01*
G01*
G37*
G36*
G01*
X32087625Y-113643673D02*
X31843673Y-113887625D01*
G75*
G02*
X31635077Y-113887625I-104298J104298D01*
G01*
X31426481Y-113679029D01*
G75*
G02*
X31426481Y-113470433I104298J104298D01*
G01*
X31670433Y-113226481D01*
G75*
G02*
X31879029Y-113226481I104298J-104298D01*
G01*
X32087625Y-113435077D01*
G75*
G02*
X32087625Y-113643673I-104298J-104298D01*
G01*
G37*
G36*
G01*
X32773519Y-114329567D02*
X32529567Y-114573519D01*
G75*
G02*
X32320971Y-114573519I-104298J104298D01*
G01*
X32112375Y-114364923D01*
G75*
G02*
X32112375Y-114156327I104298J104298D01*
G01*
X32356327Y-113912375D01*
G75*
G02*
X32564923Y-113912375I104298J-104298D01*
G01*
X32773519Y-114120971D01*
G75*
G02*
X32773519Y-114329567I-104298J-104298D01*
G01*
G37*
G36*
G01*
X25672500Y-127260000D02*
X25327500Y-127260000D01*
G75*
G02*
X25180000Y-127112500I0J147500D01*
G01*
X25180000Y-126817500D01*
G75*
G02*
X25327500Y-126670000I147500J0D01*
G01*
X25672500Y-126670000D01*
G75*
G02*
X25820000Y-126817500I0J-147500D01*
G01*
X25820000Y-127112500D01*
G75*
G02*
X25672500Y-127260000I-147500J0D01*
G01*
G37*
G36*
G01*
X25672500Y-128230000D02*
X25327500Y-128230000D01*
G75*
G02*
X25180000Y-128082500I0J147500D01*
G01*
X25180000Y-127787500D01*
G75*
G02*
X25327500Y-127640000I147500J0D01*
G01*
X25672500Y-127640000D01*
G75*
G02*
X25820000Y-127787500I0J-147500D01*
G01*
X25820000Y-128082500D01*
G75*
G02*
X25672500Y-128230000I-147500J0D01*
G01*
G37*
G36*
G01*
X21590000Y-173972500D02*
X21590000Y-173627500D01*
G75*
G02*
X21737500Y-173480000I147500J0D01*
G01*
X22032500Y-173480000D01*
G75*
G02*
X22180000Y-173627500I0J-147500D01*
G01*
X22180000Y-173972500D01*
G75*
G02*
X22032500Y-174120000I-147500J0D01*
G01*
X21737500Y-174120000D01*
G75*
G02*
X21590000Y-173972500I0J147500D01*
G01*
G37*
G36*
G01*
X20620000Y-173972500D02*
X20620000Y-173627500D01*
G75*
G02*
X20767500Y-173480000I147500J0D01*
G01*
X21062500Y-173480000D01*
G75*
G02*
X21210000Y-173627500I0J-147500D01*
G01*
X21210000Y-173972500D01*
G75*
G02*
X21062500Y-174120000I-147500J0D01*
G01*
X20767500Y-174120000D01*
G75*
G02*
X20620000Y-173972500I0J147500D01*
G01*
G37*
D30*
X59950000Y-129310000D03*
X56050000Y-129310000D03*
X59950000Y-128040000D03*
X56050000Y-128040000D03*
X59950000Y-126770000D03*
X56050000Y-126770000D03*
X59950000Y-125500000D03*
X56050000Y-125500000D03*
X59950000Y-124230000D03*
X56050000Y-124230000D03*
X59950000Y-122960000D03*
X56050000Y-122960000D03*
X59950000Y-121690000D03*
X56050000Y-121690000D03*
G36*
G01*
X45402000Y-139672500D02*
X45402000Y-140017500D01*
G75*
G02*
X45254500Y-140165000I-147500J0D01*
G01*
X44959500Y-140165000D01*
G75*
G02*
X44812000Y-140017500I0J147500D01*
G01*
X44812000Y-139672500D01*
G75*
G02*
X44959500Y-139525000I147500J0D01*
G01*
X45254500Y-139525000D01*
G75*
G02*
X45402000Y-139672500I0J-147500D01*
G01*
G37*
G36*
G01*
X46372000Y-139672500D02*
X46372000Y-140017500D01*
G75*
G02*
X46224500Y-140165000I-147500J0D01*
G01*
X45929500Y-140165000D01*
G75*
G02*
X45782000Y-140017500I0J147500D01*
G01*
X45782000Y-139672500D01*
G75*
G02*
X45929500Y-139525000I147500J0D01*
G01*
X46224500Y-139525000D01*
G75*
G02*
X46372000Y-139672500I0J-147500D01*
G01*
G37*
G36*
G01*
X23572500Y-175995000D02*
X23227500Y-175995000D01*
G75*
G02*
X23080000Y-175847500I0J147500D01*
G01*
X23080000Y-175552500D01*
G75*
G02*
X23227500Y-175405000I147500J0D01*
G01*
X23572500Y-175405000D01*
G75*
G02*
X23720000Y-175552500I0J-147500D01*
G01*
X23720000Y-175847500D01*
G75*
G02*
X23572500Y-175995000I-147500J0D01*
G01*
G37*
G36*
G01*
X23572500Y-176965000D02*
X23227500Y-176965000D01*
G75*
G02*
X23080000Y-176817500I0J147500D01*
G01*
X23080000Y-176522500D01*
G75*
G02*
X23227500Y-176375000I147500J0D01*
G01*
X23572500Y-176375000D01*
G75*
G02*
X23720000Y-176522500I0J-147500D01*
G01*
X23720000Y-176817500D01*
G75*
G02*
X23572500Y-176965000I-147500J0D01*
G01*
G37*
G36*
G01*
X23400000Y-133599999D02*
X23400000Y-134900001D01*
G75*
G02*
X23150001Y-135150000I-249999J0D01*
G01*
X22449999Y-135150000D01*
G75*
G02*
X22200000Y-134900001I0J249999D01*
G01*
X22200000Y-133599999D01*
G75*
G02*
X22449999Y-133350000I249999J0D01*
G01*
X23150001Y-133350000D01*
G75*
G02*
X23400000Y-133599999I0J-249999D01*
G01*
G37*
G36*
G01*
X26300000Y-133599999D02*
X26300000Y-134900001D01*
G75*
G02*
X26050001Y-135150000I-249999J0D01*
G01*
X25349999Y-135150000D01*
G75*
G02*
X25100000Y-134900001I0J249999D01*
G01*
X25100000Y-133599999D01*
G75*
G02*
X25349999Y-133350000I249999J0D01*
G01*
X26050001Y-133350000D01*
G75*
G02*
X26300000Y-133599999I0J-249999D01*
G01*
G37*
G36*
G01*
X52810000Y-123477500D02*
X52810000Y-123822500D01*
G75*
G02*
X52662500Y-123970000I-147500J0D01*
G01*
X52367500Y-123970000D01*
G75*
G02*
X52220000Y-123822500I0J147500D01*
G01*
X52220000Y-123477500D01*
G75*
G02*
X52367500Y-123330000I147500J0D01*
G01*
X52662500Y-123330000D01*
G75*
G02*
X52810000Y-123477500I0J-147500D01*
G01*
G37*
G36*
G01*
X53780000Y-123477500D02*
X53780000Y-123822500D01*
G75*
G02*
X53632500Y-123970000I-147500J0D01*
G01*
X53337500Y-123970000D01*
G75*
G02*
X53190000Y-123822500I0J147500D01*
G01*
X53190000Y-123477500D01*
G75*
G02*
X53337500Y-123330000I147500J0D01*
G01*
X53632500Y-123330000D01*
G75*
G02*
X53780000Y-123477500I0J-147500D01*
G01*
G37*
G36*
G01*
X52810000Y-124527500D02*
X52810000Y-124872500D01*
G75*
G02*
X52662500Y-125020000I-147500J0D01*
G01*
X52367500Y-125020000D01*
G75*
G02*
X52220000Y-124872500I0J147500D01*
G01*
X52220000Y-124527500D01*
G75*
G02*
X52367500Y-124380000I147500J0D01*
G01*
X52662500Y-124380000D01*
G75*
G02*
X52810000Y-124527500I0J-147500D01*
G01*
G37*
G36*
G01*
X53780000Y-124527500D02*
X53780000Y-124872500D01*
G75*
G02*
X53632500Y-125020000I-147500J0D01*
G01*
X53337500Y-125020000D01*
G75*
G02*
X53190000Y-124872500I0J147500D01*
G01*
X53190000Y-124527500D01*
G75*
G02*
X53337500Y-124380000I147500J0D01*
G01*
X53632500Y-124380000D01*
G75*
G02*
X53780000Y-124527500I0J-147500D01*
G01*
G37*
D31*
X47425000Y-118025000D03*
X45775000Y-116775000D03*
X45775000Y-118025000D03*
X47425000Y-116775000D03*
G36*
G01*
X33056327Y-115287625D02*
X32812375Y-115043673D01*
G75*
G02*
X32812375Y-114835077I104298J104298D01*
G01*
X33020971Y-114626481D01*
G75*
G02*
X33229567Y-114626481I104298J-104298D01*
G01*
X33473519Y-114870433D01*
G75*
G02*
X33473519Y-115079029I-104298J-104298D01*
G01*
X33264923Y-115287625D01*
G75*
G02*
X33056327Y-115287625I-104298J104298D01*
G01*
G37*
G36*
G01*
X32370433Y-115973519D02*
X32126481Y-115729567D01*
G75*
G02*
X32126481Y-115520971I104298J104298D01*
G01*
X32335077Y-115312375D01*
G75*
G02*
X32543673Y-115312375I104298J-104298D01*
G01*
X32787625Y-115556327D01*
G75*
G02*
X32787625Y-115764923I-104298J-104298D01*
G01*
X32579029Y-115973519D01*
G75*
G02*
X32370433Y-115973519I-104298J104298D01*
G01*
G37*
G36*
G01*
X64327500Y-130790000D02*
X64672500Y-130790000D01*
G75*
G02*
X64820000Y-130937500I0J-147500D01*
G01*
X64820000Y-131232500D01*
G75*
G02*
X64672500Y-131380000I-147500J0D01*
G01*
X64327500Y-131380000D01*
G75*
G02*
X64180000Y-131232500I0J147500D01*
G01*
X64180000Y-130937500D01*
G75*
G02*
X64327500Y-130790000I147500J0D01*
G01*
G37*
G36*
G01*
X64327500Y-129820000D02*
X64672500Y-129820000D01*
G75*
G02*
X64820000Y-129967500I0J-147500D01*
G01*
X64820000Y-130262500D01*
G75*
G02*
X64672500Y-130410000I-147500J0D01*
G01*
X64327500Y-130410000D01*
G75*
G02*
X64180000Y-130262500I0J147500D01*
G01*
X64180000Y-129967500D01*
G75*
G02*
X64327500Y-129820000I147500J0D01*
G01*
G37*
G36*
G01*
X23585000Y-177960000D02*
X23215000Y-177960000D01*
G75*
G02*
X23080000Y-177825000I0J135000D01*
G01*
X23080000Y-177555000D01*
G75*
G02*
X23215000Y-177420000I135000J0D01*
G01*
X23585000Y-177420000D01*
G75*
G02*
X23720000Y-177555000I0J-135000D01*
G01*
X23720000Y-177825000D01*
G75*
G02*
X23585000Y-177960000I-135000J0D01*
G01*
G37*
G36*
G01*
X23585000Y-178980000D02*
X23215000Y-178980000D01*
G75*
G02*
X23080000Y-178845000I0J135000D01*
G01*
X23080000Y-178575000D01*
G75*
G02*
X23215000Y-178440000I135000J0D01*
G01*
X23585000Y-178440000D01*
G75*
G02*
X23720000Y-178575000I0J-135000D01*
G01*
X23720000Y-178845000D01*
G75*
G02*
X23585000Y-178980000I-135000J0D01*
G01*
G37*
G36*
G01*
X61540000Y-172285000D02*
X61540000Y-171915000D01*
G75*
G02*
X61675000Y-171780000I135000J0D01*
G01*
X61945000Y-171780000D01*
G75*
G02*
X62080000Y-171915000I0J-135000D01*
G01*
X62080000Y-172285000D01*
G75*
G02*
X61945000Y-172420000I-135000J0D01*
G01*
X61675000Y-172420000D01*
G75*
G02*
X61540000Y-172285000I0J135000D01*
G01*
G37*
G36*
G01*
X60520000Y-172285000D02*
X60520000Y-171915000D01*
G75*
G02*
X60655000Y-171780000I135000J0D01*
G01*
X60925000Y-171780000D01*
G75*
G02*
X61060000Y-171915000I0J-135000D01*
G01*
X61060000Y-172285000D01*
G75*
G02*
X60925000Y-172420000I-135000J0D01*
G01*
X60655000Y-172420000D01*
G75*
G02*
X60520000Y-172285000I0J135000D01*
G01*
G37*
G36*
G01*
X61540000Y-176485000D02*
X61540000Y-176115000D01*
G75*
G02*
X61675000Y-175980000I135000J0D01*
G01*
X61945000Y-175980000D01*
G75*
G02*
X62080000Y-176115000I0J-135000D01*
G01*
X62080000Y-176485000D01*
G75*
G02*
X61945000Y-176620000I-135000J0D01*
G01*
X61675000Y-176620000D01*
G75*
G02*
X61540000Y-176485000I0J135000D01*
G01*
G37*
G36*
G01*
X60520000Y-176485000D02*
X60520000Y-176115000D01*
G75*
G02*
X60655000Y-175980000I135000J0D01*
G01*
X60925000Y-175980000D01*
G75*
G02*
X61060000Y-176115000I0J-135000D01*
G01*
X61060000Y-176485000D01*
G75*
G02*
X60925000Y-176620000I-135000J0D01*
G01*
X60655000Y-176620000D01*
G75*
G02*
X60520000Y-176485000I0J135000D01*
G01*
G37*
G36*
G01*
X69215000Y-175040000D02*
X69585000Y-175040000D01*
G75*
G02*
X69720000Y-175175000I0J-135000D01*
G01*
X69720000Y-175445000D01*
G75*
G02*
X69585000Y-175580000I-135000J0D01*
G01*
X69215000Y-175580000D01*
G75*
G02*
X69080000Y-175445000I0J135000D01*
G01*
X69080000Y-175175000D01*
G75*
G02*
X69215000Y-175040000I135000J0D01*
G01*
G37*
G36*
G01*
X69215000Y-174020000D02*
X69585000Y-174020000D01*
G75*
G02*
X69720000Y-174155000I0J-135000D01*
G01*
X69720000Y-174425000D01*
G75*
G02*
X69585000Y-174560000I-135000J0D01*
G01*
X69215000Y-174560000D01*
G75*
G02*
X69080000Y-174425000I0J135000D01*
G01*
X69080000Y-174155000D01*
G75*
G02*
X69215000Y-174020000I135000J0D01*
G01*
G37*
G36*
G01*
X52810000Y-122077500D02*
X52810000Y-122422500D01*
G75*
G02*
X52662500Y-122570000I-147500J0D01*
G01*
X52367500Y-122570000D01*
G75*
G02*
X52220000Y-122422500I0J147500D01*
G01*
X52220000Y-122077500D01*
G75*
G02*
X52367500Y-121930000I147500J0D01*
G01*
X52662500Y-121930000D01*
G75*
G02*
X52810000Y-122077500I0J-147500D01*
G01*
G37*
G36*
G01*
X53780000Y-122077500D02*
X53780000Y-122422500D01*
G75*
G02*
X53632500Y-122570000I-147500J0D01*
G01*
X53337500Y-122570000D01*
G75*
G02*
X53190000Y-122422500I0J147500D01*
G01*
X53190000Y-122077500D01*
G75*
G02*
X53337500Y-121930000I147500J0D01*
G01*
X53632500Y-121930000D01*
G75*
G02*
X53780000Y-122077500I0J-147500D01*
G01*
G37*
G36*
G01*
X36940000Y-123672500D02*
X36940000Y-123327500D01*
G75*
G02*
X37087500Y-123180000I147500J0D01*
G01*
X37382500Y-123180000D01*
G75*
G02*
X37530000Y-123327500I0J-147500D01*
G01*
X37530000Y-123672500D01*
G75*
G02*
X37382500Y-123820000I-147500J0D01*
G01*
X37087500Y-123820000D01*
G75*
G02*
X36940000Y-123672500I0J147500D01*
G01*
G37*
G36*
G01*
X35970000Y-123672500D02*
X35970000Y-123327500D01*
G75*
G02*
X36117500Y-123180000I147500J0D01*
G01*
X36412500Y-123180000D01*
G75*
G02*
X36560000Y-123327500I0J-147500D01*
G01*
X36560000Y-123672500D01*
G75*
G02*
X36412500Y-123820000I-147500J0D01*
G01*
X36117500Y-123820000D01*
G75*
G02*
X35970000Y-123672500I0J147500D01*
G01*
G37*
G36*
G01*
X37725000Y-154743750D02*
X37725000Y-155256250D01*
G75*
G02*
X37506250Y-155475000I-218750J0D01*
G01*
X37068750Y-155475000D01*
G75*
G02*
X36850000Y-155256250I0J218750D01*
G01*
X36850000Y-154743750D01*
G75*
G02*
X37068750Y-154525000I218750J0D01*
G01*
X37506250Y-154525000D01*
G75*
G02*
X37725000Y-154743750I0J-218750D01*
G01*
G37*
G36*
G01*
X36150000Y-154743750D02*
X36150000Y-155256250D01*
G75*
G02*
X35931250Y-155475000I-218750J0D01*
G01*
X35493750Y-155475000D01*
G75*
G02*
X35275000Y-155256250I0J218750D01*
G01*
X35275000Y-154743750D01*
G75*
G02*
X35493750Y-154525000I218750J0D01*
G01*
X35931250Y-154525000D01*
G75*
G02*
X36150000Y-154743750I0J-218750D01*
G01*
G37*
D13*
X49895000Y-135600000D03*
X51165000Y-135600000D03*
X52435000Y-135600000D03*
X53705000Y-135600000D03*
D32*
X34750000Y-170400000D03*
X34750000Y-170900000D03*
X34750000Y-171400000D03*
X34750000Y-171900000D03*
X34750000Y-172400000D03*
X37850000Y-172400000D03*
X37850000Y-171900000D03*
X37850000Y-171400000D03*
X37850000Y-170900000D03*
X37850000Y-170400000D03*
D33*
X36687500Y-170780000D03*
X35912500Y-170780000D03*
X35912500Y-172020000D03*
X36687500Y-172020000D03*
G36*
G01*
X34890000Y-179372500D02*
X34890000Y-179027500D01*
G75*
G02*
X35037500Y-178880000I147500J0D01*
G01*
X35332500Y-178880000D01*
G75*
G02*
X35480000Y-179027500I0J-147500D01*
G01*
X35480000Y-179372500D01*
G75*
G02*
X35332500Y-179520000I-147500J0D01*
G01*
X35037500Y-179520000D01*
G75*
G02*
X34890000Y-179372500I0J147500D01*
G01*
G37*
G36*
G01*
X33920000Y-179372500D02*
X33920000Y-179027500D01*
G75*
G02*
X34067500Y-178880000I147500J0D01*
G01*
X34362500Y-178880000D01*
G75*
G02*
X34510000Y-179027500I0J-147500D01*
G01*
X34510000Y-179372500D01*
G75*
G02*
X34362500Y-179520000I-147500J0D01*
G01*
X34067500Y-179520000D01*
G75*
G02*
X33920000Y-179372500I0J147500D01*
G01*
G37*
G36*
G01*
X39165000Y-170220000D02*
X39535000Y-170220000D01*
G75*
G02*
X39670000Y-170355000I0J-135000D01*
G01*
X39670000Y-170625000D01*
G75*
G02*
X39535000Y-170760000I-135000J0D01*
G01*
X39165000Y-170760000D01*
G75*
G02*
X39030000Y-170625000I0J135000D01*
G01*
X39030000Y-170355000D01*
G75*
G02*
X39165000Y-170220000I135000J0D01*
G01*
G37*
G36*
G01*
X39165000Y-171240000D02*
X39535000Y-171240000D01*
G75*
G02*
X39670000Y-171375000I0J-135000D01*
G01*
X39670000Y-171645000D01*
G75*
G02*
X39535000Y-171780000I-135000J0D01*
G01*
X39165000Y-171780000D01*
G75*
G02*
X39030000Y-171645000I0J135000D01*
G01*
X39030000Y-171375000D01*
G75*
G02*
X39165000Y-171240000I135000J0D01*
G01*
G37*
G36*
G01*
X36840000Y-179385000D02*
X36840000Y-179015000D01*
G75*
G02*
X36975000Y-178880000I135000J0D01*
G01*
X37245000Y-178880000D01*
G75*
G02*
X37380000Y-179015000I0J-135000D01*
G01*
X37380000Y-179385000D01*
G75*
G02*
X37245000Y-179520000I-135000J0D01*
G01*
X36975000Y-179520000D01*
G75*
G02*
X36840000Y-179385000I0J135000D01*
G01*
G37*
G36*
G01*
X35820000Y-179385000D02*
X35820000Y-179015000D01*
G75*
G02*
X35955000Y-178880000I135000J0D01*
G01*
X36225000Y-178880000D01*
G75*
G02*
X36360000Y-179015000I0J-135000D01*
G01*
X36360000Y-179385000D01*
G75*
G02*
X36225000Y-179520000I-135000J0D01*
G01*
X35955000Y-179520000D01*
G75*
G02*
X35820000Y-179385000I0J135000D01*
G01*
G37*
D11*
X37400000Y-151775000D03*
X36900000Y-151775000D03*
X36400000Y-151775000D03*
X36400000Y-153625000D03*
X36900000Y-153625000D03*
X37400000Y-153625000D03*
D12*
X37255000Y-152700000D03*
X36545000Y-152700000D03*
D31*
X35000000Y-124500000D03*
X33000000Y-125450000D03*
X33000000Y-123550000D03*
G36*
G01*
X31515000Y-124740000D02*
X31885000Y-124740000D01*
G75*
G02*
X32020000Y-124875000I0J-135000D01*
G01*
X32020000Y-125145000D01*
G75*
G02*
X31885000Y-125280000I-135000J0D01*
G01*
X31515000Y-125280000D01*
G75*
G02*
X31380000Y-125145000I0J135000D01*
G01*
X31380000Y-124875000D01*
G75*
G02*
X31515000Y-124740000I135000J0D01*
G01*
G37*
G36*
G01*
X31515000Y-123720000D02*
X31885000Y-123720000D01*
G75*
G02*
X32020000Y-123855000I0J-135000D01*
G01*
X32020000Y-124125000D01*
G75*
G02*
X31885000Y-124260000I-135000J0D01*
G01*
X31515000Y-124260000D01*
G75*
G02*
X31380000Y-124125000I0J135000D01*
G01*
X31380000Y-123855000D01*
G75*
G02*
X31515000Y-123720000I135000J0D01*
G01*
G37*
G36*
G01*
X33815000Y-127040000D02*
X34185000Y-127040000D01*
G75*
G02*
X34320000Y-127175000I0J-135000D01*
G01*
X34320000Y-127445000D01*
G75*
G02*
X34185000Y-127580000I-135000J0D01*
G01*
X33815000Y-127580000D01*
G75*
G02*
X33680000Y-127445000I0J135000D01*
G01*
X33680000Y-127175000D01*
G75*
G02*
X33815000Y-127040000I135000J0D01*
G01*
G37*
G36*
G01*
X33815000Y-126020000D02*
X34185000Y-126020000D01*
G75*
G02*
X34320000Y-126155000I0J-135000D01*
G01*
X34320000Y-126425000D01*
G75*
G02*
X34185000Y-126560000I-135000J0D01*
G01*
X33815000Y-126560000D01*
G75*
G02*
X33680000Y-126425000I0J135000D01*
G01*
X33680000Y-126155000D01*
G75*
G02*
X33815000Y-126020000I135000J0D01*
G01*
G37*
D34*
X27150000Y-132400000D03*
X27150000Y-131200000D03*
X27150000Y-130000000D03*
X27150000Y-128800000D03*
X27150000Y-127600000D03*
X32650000Y-128200000D03*
X32650000Y-129400000D03*
X32650000Y-130600000D03*
X32650000Y-131800000D03*
X32650000Y-133000000D03*
D35*
X28500000Y-126550000D03*
X29700000Y-126550000D03*
X30900000Y-126550000D03*
X32100000Y-126550000D03*
X31300000Y-134050000D03*
X30100000Y-134050000D03*
X28900000Y-134050000D03*
X27700000Y-134050000D03*
M02*
