G04 #@! TF.GenerationSoftware,KiCad,Pcbnew,5.1.7-a382d34a8~87~ubuntu18.04.1*
G04 #@! TF.CreationDate,2020-11-02T17:14:04+01:00*
G04 #@! TF.ProjectId,synermycha-electronics,73796e65-726d-4796-9368-612d656c6563,rev?*
G04 #@! TF.SameCoordinates,Original*
G04 #@! TF.FileFunction,Soldermask,Bot*
G04 #@! TF.FilePolarity,Negative*
%FSLAX46Y46*%
G04 Gerber Fmt 4.6, Leading zero omitted, Abs format (unit mm)*
G04 Created by KiCad (PCBNEW 5.1.7-a382d34a8~87~ubuntu18.04.1) date 2020-11-02 17:14:04*
%MOMM*%
%LPD*%
G01*
G04 APERTURE LIST*
%ADD10C,0.602000*%
%ADD11C,1.602000*%
%ADD12C,0.802000*%
%ADD13O,1.002000X2.502000*%
%ADD14O,1.002000X1.802000*%
%ADD15O,0.952000X0.952000*%
%ADD16C,1.002000*%
%ADD17C,2.302000*%
%ADD18C,0.902000*%
%ADD19O,1.102000X1.102000*%
%ADD20C,0.100000*%
G04 APERTURE END LIST*
D10*
X29750000Y-152000000D03*
X28250000Y-152000000D03*
X29750000Y-152750000D03*
X29750000Y-151250000D03*
X28250000Y-151250000D03*
X28250000Y-152750000D03*
X23000000Y-144750000D03*
X23000000Y-143250000D03*
X22250000Y-144750000D03*
X23750000Y-144750000D03*
X23750000Y-143250000D03*
X22250000Y-143250000D03*
X67000000Y-144750000D03*
X67000000Y-143250000D03*
X66250000Y-144750000D03*
X67750000Y-144750000D03*
X67750000Y-143250000D03*
X66250000Y-143250000D03*
X61750000Y-151250000D03*
X61750000Y-152750000D03*
X60250000Y-152750000D03*
X60250000Y-151250000D03*
X61750000Y-152000000D03*
X60250000Y-152000000D03*
D11*
X42500000Y-174000000D03*
X45100000Y-174000000D03*
X63000000Y-121500000D03*
D12*
X42000000Y-171000000D03*
X42850000Y-171000000D03*
X43700000Y-171000000D03*
X44550000Y-171000000D03*
X45400000Y-171000000D03*
X46250000Y-171000000D03*
X47100000Y-171000000D03*
X47950000Y-171000000D03*
X42850000Y-172350000D03*
X44550000Y-172350000D03*
X43700000Y-172350000D03*
X42000000Y-172350000D03*
X46250000Y-172350000D03*
X47100000Y-172350000D03*
X47950000Y-172350000D03*
X45400000Y-172350000D03*
D13*
X40650000Y-171980000D03*
X49300000Y-171980000D03*
D14*
X40650000Y-175360000D03*
X49300000Y-175360000D03*
D11*
X47600000Y-169400000D03*
X42250000Y-169400000D03*
X47600000Y-174000000D03*
X27000000Y-124000000D03*
X27000000Y-126500000D03*
X63000000Y-124000000D03*
X63000000Y-126500000D03*
X63000000Y-131400000D03*
X63000000Y-129000000D03*
G36*
G01*
X30549000Y-153265001D02*
X30549000Y-152564999D01*
G75*
G02*
X30599999Y-152514000I50999J0D01*
G01*
X31300001Y-152514000D01*
G75*
G02*
X31351000Y-152564999I0J-50999D01*
G01*
X31351000Y-153265001D01*
G75*
G02*
X31300001Y-153316000I-50999J0D01*
G01*
X30599999Y-153316000D01*
G75*
G02*
X30549000Y-153265001I0J50999D01*
G01*
G37*
G36*
G01*
X31649000Y-153265001D02*
X31649000Y-152564999D01*
G75*
G02*
X31699999Y-152514000I50999J0D01*
G01*
X32400001Y-152514000D01*
G75*
G02*
X32451000Y-152564999I0J-50999D01*
G01*
X32451000Y-153265001D01*
G75*
G02*
X32400001Y-153316000I-50999J0D01*
G01*
X31699999Y-153316000D01*
G75*
G02*
X31649000Y-153265001I0J50999D01*
G01*
G37*
G36*
G01*
X31649000Y-151435001D02*
X31649000Y-150734999D01*
G75*
G02*
X31699999Y-150684000I50999J0D01*
G01*
X32400001Y-150684000D01*
G75*
G02*
X32451000Y-150734999I0J-50999D01*
G01*
X32451000Y-151435001D01*
G75*
G02*
X32400001Y-151486000I-50999J0D01*
G01*
X31699999Y-151486000D01*
G75*
G02*
X31649000Y-151435001I0J50999D01*
G01*
G37*
G36*
G01*
X30549000Y-151435001D02*
X30549000Y-150734999D01*
G75*
G02*
X30599999Y-150684000I50999J0D01*
G01*
X31300001Y-150684000D01*
G75*
G02*
X31351000Y-150734999I0J-50999D01*
G01*
X31351000Y-151435001D01*
G75*
G02*
X31300001Y-151486000I-50999J0D01*
G01*
X30599999Y-151486000D01*
G75*
G02*
X30549000Y-151435001I0J50999D01*
G01*
G37*
G36*
G01*
X20549000Y-131265001D02*
X20549000Y-130564999D01*
G75*
G02*
X20599999Y-130514000I50999J0D01*
G01*
X21300001Y-130514000D01*
G75*
G02*
X21351000Y-130564999I0J-50999D01*
G01*
X21351000Y-131265001D01*
G75*
G02*
X21300001Y-131316000I-50999J0D01*
G01*
X20599999Y-131316000D01*
G75*
G02*
X20549000Y-131265001I0J50999D01*
G01*
G37*
G36*
G01*
X21649000Y-131265001D02*
X21649000Y-130564999D01*
G75*
G02*
X21699999Y-130514000I50999J0D01*
G01*
X22400001Y-130514000D01*
G75*
G02*
X22451000Y-130564999I0J-50999D01*
G01*
X22451000Y-131265001D01*
G75*
G02*
X22400001Y-131316000I-50999J0D01*
G01*
X21699999Y-131316000D01*
G75*
G02*
X21649000Y-131265001I0J50999D01*
G01*
G37*
G36*
G01*
X21649000Y-129435001D02*
X21649000Y-128734999D01*
G75*
G02*
X21699999Y-128684000I50999J0D01*
G01*
X22400001Y-128684000D01*
G75*
G02*
X22451000Y-128734999I0J-50999D01*
G01*
X22451000Y-129435001D01*
G75*
G02*
X22400001Y-129486000I-50999J0D01*
G01*
X21699999Y-129486000D01*
G75*
G02*
X21649000Y-129435001I0J50999D01*
G01*
G37*
G36*
G01*
X20549000Y-129435001D02*
X20549000Y-128734999D01*
G75*
G02*
X20599999Y-128684000I50999J0D01*
G01*
X21300001Y-128684000D01*
G75*
G02*
X21351000Y-128734999I0J-50999D01*
G01*
X21351000Y-129435001D01*
G75*
G02*
X21300001Y-129486000I-50999J0D01*
G01*
X20599999Y-129486000D01*
G75*
G02*
X20549000Y-129435001I0J50999D01*
G01*
G37*
G36*
G01*
X43734999Y-105549000D02*
X44435001Y-105549000D01*
G75*
G02*
X44486000Y-105599999I0J-50999D01*
G01*
X44486000Y-106300001D01*
G75*
G02*
X44435001Y-106351000I-50999J0D01*
G01*
X43734999Y-106351000D01*
G75*
G02*
X43684000Y-106300001I0J50999D01*
G01*
X43684000Y-105599999D01*
G75*
G02*
X43734999Y-105549000I50999J0D01*
G01*
G37*
G36*
G01*
X43734999Y-106649000D02*
X44435001Y-106649000D01*
G75*
G02*
X44486000Y-106699999I0J-50999D01*
G01*
X44486000Y-107400001D01*
G75*
G02*
X44435001Y-107451000I-50999J0D01*
G01*
X43734999Y-107451000D01*
G75*
G02*
X43684000Y-107400001I0J50999D01*
G01*
X43684000Y-106699999D01*
G75*
G02*
X43734999Y-106649000I50999J0D01*
G01*
G37*
G36*
G01*
X45564999Y-106649000D02*
X46265001Y-106649000D01*
G75*
G02*
X46316000Y-106699999I0J-50999D01*
G01*
X46316000Y-107400001D01*
G75*
G02*
X46265001Y-107451000I-50999J0D01*
G01*
X45564999Y-107451000D01*
G75*
G02*
X45514000Y-107400001I0J50999D01*
G01*
X45514000Y-106699999D01*
G75*
G02*
X45564999Y-106649000I50999J0D01*
G01*
G37*
G36*
G01*
X45564999Y-105549000D02*
X46265001Y-105549000D01*
G75*
G02*
X46316000Y-105599999I0J-50999D01*
G01*
X46316000Y-106300001D01*
G75*
G02*
X46265001Y-106351000I-50999J0D01*
G01*
X45564999Y-106351000D01*
G75*
G02*
X45514000Y-106300001I0J50999D01*
G01*
X45514000Y-105599999D01*
G75*
G02*
X45564999Y-105549000I50999J0D01*
G01*
G37*
G36*
G01*
X69451000Y-128734999D02*
X69451000Y-129435001D01*
G75*
G02*
X69400001Y-129486000I-50999J0D01*
G01*
X68699999Y-129486000D01*
G75*
G02*
X68649000Y-129435001I0J50999D01*
G01*
X68649000Y-128734999D01*
G75*
G02*
X68699999Y-128684000I50999J0D01*
G01*
X69400001Y-128684000D01*
G75*
G02*
X69451000Y-128734999I0J-50999D01*
G01*
G37*
G36*
G01*
X68351000Y-128734999D02*
X68351000Y-129435001D01*
G75*
G02*
X68300001Y-129486000I-50999J0D01*
G01*
X67599999Y-129486000D01*
G75*
G02*
X67549000Y-129435001I0J50999D01*
G01*
X67549000Y-128734999D01*
G75*
G02*
X67599999Y-128684000I50999J0D01*
G01*
X68300001Y-128684000D01*
G75*
G02*
X68351000Y-128734999I0J-50999D01*
G01*
G37*
G36*
G01*
X68351000Y-130564999D02*
X68351000Y-131265001D01*
G75*
G02*
X68300001Y-131316000I-50999J0D01*
G01*
X67599999Y-131316000D01*
G75*
G02*
X67549000Y-131265001I0J50999D01*
G01*
X67549000Y-130564999D01*
G75*
G02*
X67599999Y-130514000I50999J0D01*
G01*
X68300001Y-130514000D01*
G75*
G02*
X68351000Y-130564999I0J-50999D01*
G01*
G37*
G36*
G01*
X69451000Y-130564999D02*
X69451000Y-131265001D01*
G75*
G02*
X69400001Y-131316000I-50999J0D01*
G01*
X68699999Y-131316000D01*
G75*
G02*
X68649000Y-131265001I0J50999D01*
G01*
X68649000Y-130564999D01*
G75*
G02*
X68699999Y-130514000I50999J0D01*
G01*
X69400001Y-130514000D01*
G75*
G02*
X69451000Y-130564999I0J-50999D01*
G01*
G37*
G36*
G01*
X59451000Y-150734999D02*
X59451000Y-151435001D01*
G75*
G02*
X59400001Y-151486000I-50999J0D01*
G01*
X58699999Y-151486000D01*
G75*
G02*
X58649000Y-151435001I0J50999D01*
G01*
X58649000Y-150734999D01*
G75*
G02*
X58699999Y-150684000I50999J0D01*
G01*
X59400001Y-150684000D01*
G75*
G02*
X59451000Y-150734999I0J-50999D01*
G01*
G37*
G36*
G01*
X58351000Y-150734999D02*
X58351000Y-151435001D01*
G75*
G02*
X58300001Y-151486000I-50999J0D01*
G01*
X57599999Y-151486000D01*
G75*
G02*
X57549000Y-151435001I0J50999D01*
G01*
X57549000Y-150734999D01*
G75*
G02*
X57599999Y-150684000I50999J0D01*
G01*
X58300001Y-150684000D01*
G75*
G02*
X58351000Y-150734999I0J-50999D01*
G01*
G37*
G36*
G01*
X58351000Y-152564999D02*
X58351000Y-153265001D01*
G75*
G02*
X58300001Y-153316000I-50999J0D01*
G01*
X57599999Y-153316000D01*
G75*
G02*
X57549000Y-153265001I0J50999D01*
G01*
X57549000Y-152564999D01*
G75*
G02*
X57599999Y-152514000I50999J0D01*
G01*
X58300001Y-152514000D01*
G75*
G02*
X58351000Y-152564999I0J-50999D01*
G01*
G37*
G36*
G01*
X59451000Y-152564999D02*
X59451000Y-153265001D01*
G75*
G02*
X59400001Y-153316000I-50999J0D01*
G01*
X58699999Y-153316000D01*
G75*
G02*
X58649000Y-153265001I0J50999D01*
G01*
X58649000Y-152564999D01*
G75*
G02*
X58699999Y-152514000I50999J0D01*
G01*
X59400001Y-152514000D01*
G75*
G02*
X59451000Y-152564999I0J-50999D01*
G01*
G37*
G36*
G01*
X69451000Y-171734999D02*
X69451000Y-172435001D01*
G75*
G02*
X69400001Y-172486000I-50999J0D01*
G01*
X68699999Y-172486000D01*
G75*
G02*
X68649000Y-172435001I0J50999D01*
G01*
X68649000Y-171734999D01*
G75*
G02*
X68699999Y-171684000I50999J0D01*
G01*
X69400001Y-171684000D01*
G75*
G02*
X69451000Y-171734999I0J-50999D01*
G01*
G37*
G36*
G01*
X68351000Y-171734999D02*
X68351000Y-172435001D01*
G75*
G02*
X68300001Y-172486000I-50999J0D01*
G01*
X67599999Y-172486000D01*
G75*
G02*
X67549000Y-172435001I0J50999D01*
G01*
X67549000Y-171734999D01*
G75*
G02*
X67599999Y-171684000I50999J0D01*
G01*
X68300001Y-171684000D01*
G75*
G02*
X68351000Y-171734999I0J-50999D01*
G01*
G37*
G36*
G01*
X68351000Y-173564999D02*
X68351000Y-174265001D01*
G75*
G02*
X68300001Y-174316000I-50999J0D01*
G01*
X67599999Y-174316000D01*
G75*
G02*
X67549000Y-174265001I0J50999D01*
G01*
X67549000Y-173564999D01*
G75*
G02*
X67599999Y-173514000I50999J0D01*
G01*
X68300001Y-173514000D01*
G75*
G02*
X68351000Y-173564999I0J-50999D01*
G01*
G37*
G36*
G01*
X69451000Y-173564999D02*
X69451000Y-174265001D01*
G75*
G02*
X69400001Y-174316000I-50999J0D01*
G01*
X68699999Y-174316000D01*
G75*
G02*
X68649000Y-174265001I0J50999D01*
G01*
X68649000Y-173564999D01*
G75*
G02*
X68699999Y-173514000I50999J0D01*
G01*
X69400001Y-173514000D01*
G75*
G02*
X69451000Y-173564999I0J-50999D01*
G01*
G37*
G36*
G01*
X26933051Y-113972032D02*
X27428027Y-113477056D01*
G75*
G02*
X27500151Y-113477056I36062J-36062D01*
G01*
X27995127Y-113972032D01*
G75*
G02*
X27995127Y-114044156I-36062J-36062D01*
G01*
X27500151Y-114539132D01*
G75*
G02*
X27428027Y-114539132I-36062J36062D01*
G01*
X26933051Y-114044156D01*
G75*
G02*
X26933051Y-113972032I36062J36062D01*
G01*
G37*
G36*
G01*
X27710868Y-114749849D02*
X28205844Y-114254873D01*
G75*
G02*
X28277968Y-114254873I36062J-36062D01*
G01*
X28772944Y-114749849D01*
G75*
G02*
X28772944Y-114821973I-36062J-36062D01*
G01*
X28277968Y-115316949D01*
G75*
G02*
X28205844Y-115316949I-36062J36062D01*
G01*
X27710868Y-114821973D01*
G75*
G02*
X27710868Y-114749849I36062J36062D01*
G01*
G37*
G36*
G01*
X29004873Y-113455844D02*
X29499849Y-112960868D01*
G75*
G02*
X29571973Y-112960868I36062J-36062D01*
G01*
X30066949Y-113455844D01*
G75*
G02*
X30066949Y-113527968I-36062J-36062D01*
G01*
X29571973Y-114022944D01*
G75*
G02*
X29499849Y-114022944I-36062J36062D01*
G01*
X29004873Y-113527968D01*
G75*
G02*
X29004873Y-113455844I36062J36062D01*
G01*
G37*
G36*
G01*
X28227056Y-112678027D02*
X28722032Y-112183051D01*
G75*
G02*
X28794156Y-112183051I36062J-36062D01*
G01*
X29289132Y-112678027D01*
G75*
G02*
X29289132Y-112750151I-36062J-36062D01*
G01*
X28794156Y-113245127D01*
G75*
G02*
X28722032Y-113245127I-36062J36062D01*
G01*
X28227056Y-112750151D01*
G75*
G02*
X28227056Y-112678027I36062J36062D01*
G01*
G37*
G36*
G01*
X61527968Y-112433051D02*
X62022944Y-112928027D01*
G75*
G02*
X62022944Y-113000151I-36062J-36062D01*
G01*
X61527968Y-113495127D01*
G75*
G02*
X61455844Y-113495127I-36062J36062D01*
G01*
X60960868Y-113000151D01*
G75*
G02*
X60960868Y-112928027I36062J36062D01*
G01*
X61455844Y-112433051D01*
G75*
G02*
X61527968Y-112433051I36062J-36062D01*
G01*
G37*
G36*
G01*
X60750151Y-113210868D02*
X61245127Y-113705844D01*
G75*
G02*
X61245127Y-113777968I-36062J-36062D01*
G01*
X60750151Y-114272944D01*
G75*
G02*
X60678027Y-114272944I-36062J36062D01*
G01*
X60183051Y-113777968D01*
G75*
G02*
X60183051Y-113705844I36062J36062D01*
G01*
X60678027Y-113210868D01*
G75*
G02*
X60750151Y-113210868I36062J-36062D01*
G01*
G37*
G36*
G01*
X62044156Y-114504873D02*
X62539132Y-114999849D01*
G75*
G02*
X62539132Y-115071973I-36062J-36062D01*
G01*
X62044156Y-115566949D01*
G75*
G02*
X61972032Y-115566949I-36062J36062D01*
G01*
X61477056Y-115071973D01*
G75*
G02*
X61477056Y-114999849I36062J36062D01*
G01*
X61972032Y-114504873D01*
G75*
G02*
X62044156Y-114504873I36062J-36062D01*
G01*
G37*
G36*
G01*
X62821973Y-113727056D02*
X63316949Y-114222032D01*
G75*
G02*
X63316949Y-114294156I-36062J-36062D01*
G01*
X62821973Y-114789132D01*
G75*
G02*
X62749849Y-114789132I-36062J36062D01*
G01*
X62254873Y-114294156D01*
G75*
G02*
X62254873Y-114222032I36062J36062D01*
G01*
X62749849Y-113727056D01*
G75*
G02*
X62821973Y-113727056I36062J-36062D01*
G01*
G37*
G36*
G01*
X46265001Y-179451000D02*
X45564999Y-179451000D01*
G75*
G02*
X45514000Y-179400001I0J50999D01*
G01*
X45514000Y-178699999D01*
G75*
G02*
X45564999Y-178649000I50999J0D01*
G01*
X46265001Y-178649000D01*
G75*
G02*
X46316000Y-178699999I0J-50999D01*
G01*
X46316000Y-179400001D01*
G75*
G02*
X46265001Y-179451000I-50999J0D01*
G01*
G37*
G36*
G01*
X46265001Y-178351000D02*
X45564999Y-178351000D01*
G75*
G02*
X45514000Y-178300001I0J50999D01*
G01*
X45514000Y-177599999D01*
G75*
G02*
X45564999Y-177549000I50999J0D01*
G01*
X46265001Y-177549000D01*
G75*
G02*
X46316000Y-177599999I0J-50999D01*
G01*
X46316000Y-178300001D01*
G75*
G02*
X46265001Y-178351000I-50999J0D01*
G01*
G37*
G36*
G01*
X44435001Y-178351000D02*
X43734999Y-178351000D01*
G75*
G02*
X43684000Y-178300001I0J50999D01*
G01*
X43684000Y-177599999D01*
G75*
G02*
X43734999Y-177549000I50999J0D01*
G01*
X44435001Y-177549000D01*
G75*
G02*
X44486000Y-177599999I0J-50999D01*
G01*
X44486000Y-178300001D01*
G75*
G02*
X44435001Y-178351000I-50999J0D01*
G01*
G37*
G36*
G01*
X44435001Y-179451000D02*
X43734999Y-179451000D01*
G75*
G02*
X43684000Y-179400001I0J50999D01*
G01*
X43684000Y-178699999D01*
G75*
G02*
X43734999Y-178649000I50999J0D01*
G01*
X44435001Y-178649000D01*
G75*
G02*
X44486000Y-178699999I0J-50999D01*
G01*
X44486000Y-179400001D01*
G75*
G02*
X44435001Y-179451000I-50999J0D01*
G01*
G37*
G36*
G01*
X20549000Y-174265001D02*
X20549000Y-173564999D01*
G75*
G02*
X20599999Y-173514000I50999J0D01*
G01*
X21300001Y-173514000D01*
G75*
G02*
X21351000Y-173564999I0J-50999D01*
G01*
X21351000Y-174265001D01*
G75*
G02*
X21300001Y-174316000I-50999J0D01*
G01*
X20599999Y-174316000D01*
G75*
G02*
X20549000Y-174265001I0J50999D01*
G01*
G37*
G36*
G01*
X21649000Y-174265001D02*
X21649000Y-173564999D01*
G75*
G02*
X21699999Y-173514000I50999J0D01*
G01*
X22400001Y-173514000D01*
G75*
G02*
X22451000Y-173564999I0J-50999D01*
G01*
X22451000Y-174265001D01*
G75*
G02*
X22400001Y-174316000I-50999J0D01*
G01*
X21699999Y-174316000D01*
G75*
G02*
X21649000Y-174265001I0J50999D01*
G01*
G37*
G36*
G01*
X21649000Y-172435001D02*
X21649000Y-171734999D01*
G75*
G02*
X21699999Y-171684000I50999J0D01*
G01*
X22400001Y-171684000D01*
G75*
G02*
X22451000Y-171734999I0J-50999D01*
G01*
X22451000Y-172435001D01*
G75*
G02*
X22400001Y-172486000I-50999J0D01*
G01*
X21699999Y-172486000D01*
G75*
G02*
X21649000Y-172435001I0J50999D01*
G01*
G37*
G36*
G01*
X20549000Y-172435001D02*
X20549000Y-171734999D01*
G75*
G02*
X20599999Y-171684000I50999J0D01*
G01*
X21300001Y-171684000D01*
G75*
G02*
X21351000Y-171734999I0J-50999D01*
G01*
X21351000Y-172435001D01*
G75*
G02*
X21300001Y-172486000I-50999J0D01*
G01*
X20599999Y-172486000D01*
G75*
G02*
X20549000Y-172435001I0J50999D01*
G01*
G37*
D15*
X37400000Y-149100000D03*
G36*
G01*
X36924000Y-148525000D02*
X36924000Y-147675000D01*
G75*
G02*
X36975000Y-147624000I51000J0D01*
G01*
X37825000Y-147624000D01*
G75*
G02*
X37876000Y-147675000I0J-51000D01*
G01*
X37876000Y-148525000D01*
G75*
G02*
X37825000Y-148576000I-51000J0D01*
G01*
X36975000Y-148576000D01*
G75*
G02*
X36924000Y-148525000I0J51000D01*
G01*
G37*
X52500000Y-154800000D03*
G36*
G01*
X52024000Y-154225000D02*
X52024000Y-153375000D01*
G75*
G02*
X52075000Y-153324000I51000J0D01*
G01*
X52925000Y-153324000D01*
G75*
G02*
X52976000Y-153375000I0J-51000D01*
G01*
X52976000Y-154225000D01*
G75*
G02*
X52925000Y-154276000I-51000J0D01*
G01*
X52075000Y-154276000D01*
G75*
G02*
X52024000Y-154225000I0J51000D01*
G01*
G37*
D16*
X24250000Y-165350000D03*
X24250000Y-172150000D03*
G36*
G01*
X39252000Y-110639000D02*
X39648000Y-110639000D01*
G75*
G02*
X39821000Y-110812000I0J-173000D01*
G01*
X39821000Y-111158000D01*
G75*
G02*
X39648000Y-111331000I-173000J0D01*
G01*
X39252000Y-111331000D01*
G75*
G02*
X39079000Y-111158000I0J173000D01*
G01*
X39079000Y-110812000D01*
G75*
G02*
X39252000Y-110639000I173000J0D01*
G01*
G37*
G36*
G01*
X39252000Y-109669000D02*
X39648000Y-109669000D01*
G75*
G02*
X39821000Y-109842000I0J-173000D01*
G01*
X39821000Y-110188000D01*
G75*
G02*
X39648000Y-110361000I-173000J0D01*
G01*
X39252000Y-110361000D01*
G75*
G02*
X39079000Y-110188000I0J173000D01*
G01*
X39079000Y-109842000D01*
G75*
G02*
X39252000Y-109669000I173000J0D01*
G01*
G37*
D17*
X34125000Y-139750000D03*
X55875000Y-139750000D03*
X34125000Y-163250000D03*
X55875000Y-163250000D03*
D18*
X39450000Y-110500000D03*
D19*
X32200000Y-173870000D03*
G36*
G01*
X31649000Y-173100000D02*
X31649000Y-172100000D01*
G75*
G02*
X31700000Y-172049000I51000J0D01*
G01*
X32700000Y-172049000D01*
G75*
G02*
X32751000Y-172100000I0J-51000D01*
G01*
X32751000Y-173100000D01*
G75*
G02*
X32700000Y-173151000I-51000J0D01*
G01*
X31700000Y-173151000D01*
G75*
G02*
X31649000Y-173100000I0J51000D01*
G01*
G37*
X30200000Y-177870000D03*
G36*
G01*
X29649000Y-177100000D02*
X29649000Y-176100000D01*
G75*
G02*
X29700000Y-176049000I51000J0D01*
G01*
X30700000Y-176049000D01*
G75*
G02*
X30751000Y-176100000I0J-51000D01*
G01*
X30751000Y-177100000D01*
G75*
G02*
X30700000Y-177151000I-51000J0D01*
G01*
X29700000Y-177151000D01*
G75*
G02*
X29649000Y-177100000I0J51000D01*
G01*
G37*
X30200000Y-173870000D03*
G36*
G01*
X29649000Y-173100000D02*
X29649000Y-172100000D01*
G75*
G02*
X29700000Y-172049000I51000J0D01*
G01*
X30700000Y-172049000D01*
G75*
G02*
X30751000Y-172100000I0J-51000D01*
G01*
X30751000Y-173100000D01*
G75*
G02*
X30700000Y-173151000I-51000J0D01*
G01*
X29700000Y-173151000D01*
G75*
G02*
X29649000Y-173100000I0J51000D01*
G01*
G37*
X32200000Y-177870000D03*
G36*
G01*
X31649000Y-177100000D02*
X31649000Y-176100000D01*
G75*
G02*
X31700000Y-176049000I51000J0D01*
G01*
X32700000Y-176049000D01*
G75*
G02*
X32751000Y-176100000I0J-51000D01*
G01*
X32751000Y-177100000D01*
G75*
G02*
X32700000Y-177151000I-51000J0D01*
G01*
X31700000Y-177151000D01*
G75*
G02*
X31649000Y-177100000I0J51000D01*
G01*
G37*
D20*
G36*
X32523654Y-177150000D02*
G01*
X32523654Y-177152000D01*
X32522118Y-177152990D01*
X32497931Y-177155372D01*
X32474856Y-177162372D01*
X32453592Y-177173737D01*
X32434955Y-177189032D01*
X32419660Y-177207669D01*
X32408295Y-177228933D01*
X32401295Y-177252008D01*
X32398932Y-177275998D01*
X32401295Y-177299990D01*
X32408295Y-177323065D01*
X32419660Y-177344329D01*
X32434955Y-177362966D01*
X32453670Y-177378324D01*
X32457998Y-177381216D01*
X32458883Y-177383010D01*
X32457772Y-177384673D01*
X32456122Y-177384727D01*
X32359365Y-177344650D01*
X32253808Y-177323653D01*
X32146192Y-177323653D01*
X32040635Y-177344650D01*
X31943878Y-177384727D01*
X31941895Y-177384466D01*
X31941130Y-177382618D01*
X31942002Y-177381216D01*
X31946330Y-177378324D01*
X31965045Y-177362965D01*
X31980340Y-177344328D01*
X31991705Y-177323065D01*
X31998705Y-177299990D01*
X32001068Y-177275998D01*
X31998705Y-177252007D01*
X31991705Y-177228932D01*
X31980340Y-177207669D01*
X31965044Y-177189032D01*
X31946407Y-177173737D01*
X31925144Y-177162372D01*
X31902069Y-177155372D01*
X31877882Y-177152990D01*
X31876256Y-177151825D01*
X31876452Y-177149835D01*
X31878078Y-177149000D01*
X32521922Y-177149000D01*
X32523654Y-177150000D01*
G37*
G36*
X30523654Y-177150000D02*
G01*
X30523654Y-177152000D01*
X30522118Y-177152990D01*
X30497931Y-177155372D01*
X30474856Y-177162372D01*
X30453592Y-177173737D01*
X30434955Y-177189032D01*
X30419660Y-177207669D01*
X30408295Y-177228933D01*
X30401295Y-177252008D01*
X30398932Y-177275998D01*
X30401295Y-177299990D01*
X30408295Y-177323065D01*
X30419660Y-177344329D01*
X30434955Y-177362966D01*
X30453670Y-177378324D01*
X30457998Y-177381216D01*
X30458883Y-177383010D01*
X30457772Y-177384673D01*
X30456122Y-177384727D01*
X30359365Y-177344650D01*
X30253808Y-177323653D01*
X30146192Y-177323653D01*
X30040635Y-177344650D01*
X29943878Y-177384727D01*
X29941895Y-177384466D01*
X29941130Y-177382618D01*
X29942002Y-177381216D01*
X29946330Y-177378324D01*
X29965045Y-177362965D01*
X29980340Y-177344328D01*
X29991705Y-177323065D01*
X29998705Y-177299990D01*
X30001068Y-177275998D01*
X29998705Y-177252007D01*
X29991705Y-177228932D01*
X29980340Y-177207669D01*
X29965044Y-177189032D01*
X29946407Y-177173737D01*
X29925144Y-177162372D01*
X29902069Y-177155372D01*
X29877882Y-177152990D01*
X29876256Y-177151825D01*
X29876452Y-177149835D01*
X29878078Y-177149000D01*
X30521922Y-177149000D01*
X30523654Y-177150000D01*
G37*
G36*
X32523654Y-173150000D02*
G01*
X32523654Y-173152000D01*
X32522118Y-173152990D01*
X32497931Y-173155372D01*
X32474856Y-173162372D01*
X32453592Y-173173737D01*
X32434955Y-173189032D01*
X32419660Y-173207669D01*
X32408295Y-173228933D01*
X32401295Y-173252008D01*
X32398932Y-173275998D01*
X32401295Y-173299990D01*
X32408295Y-173323065D01*
X32419660Y-173344329D01*
X32434955Y-173362966D01*
X32453670Y-173378324D01*
X32457998Y-173381216D01*
X32458883Y-173383010D01*
X32457772Y-173384673D01*
X32456122Y-173384727D01*
X32359365Y-173344650D01*
X32253808Y-173323653D01*
X32146192Y-173323653D01*
X32040635Y-173344650D01*
X31943878Y-173384727D01*
X31941895Y-173384466D01*
X31941130Y-173382618D01*
X31942002Y-173381216D01*
X31946330Y-173378324D01*
X31965045Y-173362965D01*
X31980340Y-173344328D01*
X31991705Y-173323065D01*
X31998705Y-173299990D01*
X32001068Y-173275998D01*
X31998705Y-173252007D01*
X31991705Y-173228932D01*
X31980340Y-173207669D01*
X31965044Y-173189032D01*
X31946407Y-173173737D01*
X31925144Y-173162372D01*
X31902069Y-173155372D01*
X31877882Y-173152990D01*
X31876256Y-173151825D01*
X31876452Y-173149835D01*
X31878078Y-173149000D01*
X32521922Y-173149000D01*
X32523654Y-173150000D01*
G37*
G36*
X30523654Y-173150000D02*
G01*
X30523654Y-173152000D01*
X30522118Y-173152990D01*
X30497931Y-173155372D01*
X30474856Y-173162372D01*
X30453592Y-173173737D01*
X30434955Y-173189032D01*
X30419660Y-173207669D01*
X30408295Y-173228933D01*
X30401295Y-173252008D01*
X30398932Y-173275998D01*
X30401295Y-173299990D01*
X30408295Y-173323065D01*
X30419660Y-173344329D01*
X30434955Y-173362966D01*
X30453670Y-173378324D01*
X30457998Y-173381216D01*
X30458883Y-173383010D01*
X30457772Y-173384673D01*
X30456122Y-173384727D01*
X30359365Y-173344650D01*
X30253808Y-173323653D01*
X30146192Y-173323653D01*
X30040635Y-173344650D01*
X29943878Y-173384727D01*
X29941895Y-173384466D01*
X29941130Y-173382618D01*
X29942002Y-173381216D01*
X29946330Y-173378324D01*
X29965045Y-173362965D01*
X29980340Y-173344328D01*
X29991705Y-173323065D01*
X29998705Y-173299990D01*
X30001068Y-173275998D01*
X29998705Y-173252007D01*
X29991705Y-173228932D01*
X29980340Y-173207669D01*
X29965044Y-173189032D01*
X29946407Y-173173737D01*
X29925144Y-173162372D01*
X29902069Y-173155372D01*
X29877882Y-173152990D01*
X29876256Y-173151825D01*
X29876452Y-173149835D01*
X29878078Y-173149000D01*
X30521922Y-173149000D01*
X30523654Y-173150000D01*
G37*
G36*
X45726509Y-172116767D02*
G01*
X45738033Y-172130810D01*
X45756670Y-172146105D01*
X45777934Y-172157470D01*
X45801009Y-172164470D01*
X45825000Y-172166833D01*
X45848991Y-172164470D01*
X45872066Y-172157470D01*
X45893330Y-172146105D01*
X45911967Y-172130810D01*
X45923491Y-172116767D01*
X45925363Y-172116063D01*
X45926909Y-172117331D01*
X45926700Y-172119147D01*
X45898123Y-172161917D01*
X45868191Y-172234178D01*
X45852931Y-172310894D01*
X45852931Y-172389106D01*
X45868191Y-172465822D01*
X45898123Y-172538083D01*
X45926700Y-172580853D01*
X45926831Y-172582849D01*
X45925168Y-172583960D01*
X45923491Y-172583233D01*
X45911967Y-172569190D01*
X45893330Y-172553895D01*
X45872066Y-172542530D01*
X45848991Y-172535530D01*
X45825000Y-172533167D01*
X45801009Y-172535530D01*
X45777934Y-172542530D01*
X45756670Y-172553895D01*
X45738033Y-172569190D01*
X45726509Y-172583233D01*
X45724637Y-172583937D01*
X45723091Y-172582669D01*
X45723300Y-172580853D01*
X45751877Y-172538083D01*
X45781809Y-172465822D01*
X45797069Y-172389106D01*
X45797069Y-172310894D01*
X45781809Y-172234178D01*
X45751877Y-172161917D01*
X45723300Y-172119147D01*
X45723169Y-172117151D01*
X45724832Y-172116040D01*
X45726509Y-172116767D01*
G37*
G36*
X46576509Y-172116767D02*
G01*
X46588033Y-172130810D01*
X46606670Y-172146105D01*
X46627934Y-172157470D01*
X46651009Y-172164470D01*
X46675000Y-172166833D01*
X46698991Y-172164470D01*
X46722066Y-172157470D01*
X46743330Y-172146105D01*
X46761967Y-172130810D01*
X46773491Y-172116767D01*
X46775363Y-172116063D01*
X46776909Y-172117331D01*
X46776700Y-172119147D01*
X46748123Y-172161917D01*
X46718191Y-172234178D01*
X46702931Y-172310894D01*
X46702931Y-172389106D01*
X46718191Y-172465822D01*
X46748123Y-172538083D01*
X46776700Y-172580853D01*
X46776831Y-172582849D01*
X46775168Y-172583960D01*
X46773491Y-172583233D01*
X46761967Y-172569190D01*
X46743330Y-172553895D01*
X46722066Y-172542530D01*
X46698991Y-172535530D01*
X46675000Y-172533167D01*
X46651009Y-172535530D01*
X46627934Y-172542530D01*
X46606670Y-172553895D01*
X46588033Y-172569190D01*
X46576509Y-172583233D01*
X46574637Y-172583937D01*
X46573091Y-172582669D01*
X46573300Y-172580853D01*
X46601877Y-172538083D01*
X46631809Y-172465822D01*
X46647069Y-172389106D01*
X46647069Y-172310894D01*
X46631809Y-172234178D01*
X46601877Y-172161917D01*
X46573300Y-172119147D01*
X46573169Y-172117151D01*
X46574832Y-172116040D01*
X46576509Y-172116767D01*
G37*
G36*
X44876509Y-172116767D02*
G01*
X44888033Y-172130810D01*
X44906670Y-172146105D01*
X44927934Y-172157470D01*
X44951009Y-172164470D01*
X44975000Y-172166833D01*
X44998991Y-172164470D01*
X45022066Y-172157470D01*
X45043330Y-172146105D01*
X45061967Y-172130810D01*
X45073491Y-172116767D01*
X45075363Y-172116063D01*
X45076909Y-172117331D01*
X45076700Y-172119147D01*
X45048123Y-172161917D01*
X45018191Y-172234178D01*
X45002931Y-172310894D01*
X45002931Y-172389106D01*
X45018191Y-172465822D01*
X45048123Y-172538083D01*
X45076700Y-172580853D01*
X45076831Y-172582849D01*
X45075168Y-172583960D01*
X45073491Y-172583233D01*
X45061967Y-172569190D01*
X45043330Y-172553895D01*
X45022066Y-172542530D01*
X44998991Y-172535530D01*
X44975000Y-172533167D01*
X44951009Y-172535530D01*
X44927934Y-172542530D01*
X44906670Y-172553895D01*
X44888033Y-172569190D01*
X44876509Y-172583233D01*
X44874637Y-172583937D01*
X44873091Y-172582669D01*
X44873300Y-172580853D01*
X44901877Y-172538083D01*
X44931809Y-172465822D01*
X44947069Y-172389106D01*
X44947069Y-172310894D01*
X44931809Y-172234178D01*
X44901877Y-172161917D01*
X44873300Y-172119147D01*
X44873169Y-172117151D01*
X44874832Y-172116040D01*
X44876509Y-172116767D01*
G37*
G36*
X42326509Y-172116767D02*
G01*
X42338033Y-172130810D01*
X42356670Y-172146105D01*
X42377934Y-172157470D01*
X42401009Y-172164470D01*
X42425000Y-172166833D01*
X42448991Y-172164470D01*
X42472066Y-172157470D01*
X42493330Y-172146105D01*
X42511967Y-172130810D01*
X42523491Y-172116767D01*
X42525363Y-172116063D01*
X42526909Y-172117331D01*
X42526700Y-172119147D01*
X42498123Y-172161917D01*
X42468191Y-172234178D01*
X42452931Y-172310894D01*
X42452931Y-172389106D01*
X42468191Y-172465822D01*
X42498123Y-172538083D01*
X42526700Y-172580853D01*
X42526831Y-172582849D01*
X42525168Y-172583960D01*
X42523491Y-172583233D01*
X42511967Y-172569190D01*
X42493330Y-172553895D01*
X42472066Y-172542530D01*
X42448991Y-172535530D01*
X42425000Y-172533167D01*
X42401009Y-172535530D01*
X42377934Y-172542530D01*
X42356670Y-172553895D01*
X42338033Y-172569190D01*
X42326509Y-172583233D01*
X42324637Y-172583937D01*
X42323091Y-172582669D01*
X42323300Y-172580853D01*
X42351877Y-172538083D01*
X42381809Y-172465822D01*
X42397069Y-172389106D01*
X42397069Y-172310894D01*
X42381809Y-172234178D01*
X42351877Y-172161917D01*
X42323300Y-172119147D01*
X42323169Y-172117151D01*
X42324832Y-172116040D01*
X42326509Y-172116767D01*
G37*
G36*
X44026509Y-172116767D02*
G01*
X44038033Y-172130810D01*
X44056670Y-172146105D01*
X44077934Y-172157470D01*
X44101009Y-172164470D01*
X44125000Y-172166833D01*
X44148991Y-172164470D01*
X44172066Y-172157470D01*
X44193330Y-172146105D01*
X44211967Y-172130810D01*
X44223491Y-172116767D01*
X44225363Y-172116063D01*
X44226909Y-172117331D01*
X44226700Y-172119147D01*
X44198123Y-172161917D01*
X44168191Y-172234178D01*
X44152931Y-172310894D01*
X44152931Y-172389106D01*
X44168191Y-172465822D01*
X44198123Y-172538083D01*
X44226700Y-172580853D01*
X44226831Y-172582849D01*
X44225168Y-172583960D01*
X44223491Y-172583233D01*
X44211967Y-172569190D01*
X44193330Y-172553895D01*
X44172066Y-172542530D01*
X44148991Y-172535530D01*
X44125000Y-172533167D01*
X44101009Y-172535530D01*
X44077934Y-172542530D01*
X44056670Y-172553895D01*
X44038033Y-172569190D01*
X44026509Y-172583233D01*
X44024637Y-172583937D01*
X44023091Y-172582669D01*
X44023300Y-172580853D01*
X44051877Y-172538083D01*
X44081809Y-172465822D01*
X44097069Y-172389106D01*
X44097069Y-172310894D01*
X44081809Y-172234178D01*
X44051877Y-172161917D01*
X44023300Y-172119147D01*
X44023169Y-172117151D01*
X44024832Y-172116040D01*
X44026509Y-172116767D01*
G37*
G36*
X47426509Y-172116767D02*
G01*
X47438033Y-172130810D01*
X47456670Y-172146105D01*
X47477934Y-172157470D01*
X47501009Y-172164470D01*
X47525000Y-172166833D01*
X47548991Y-172164470D01*
X47572066Y-172157470D01*
X47593330Y-172146105D01*
X47611967Y-172130810D01*
X47623491Y-172116767D01*
X47625363Y-172116063D01*
X47626909Y-172117331D01*
X47626700Y-172119147D01*
X47598123Y-172161917D01*
X47568191Y-172234178D01*
X47552931Y-172310894D01*
X47552931Y-172389106D01*
X47568191Y-172465822D01*
X47598123Y-172538083D01*
X47626700Y-172580853D01*
X47626831Y-172582849D01*
X47625168Y-172583960D01*
X47623491Y-172583233D01*
X47611967Y-172569190D01*
X47593330Y-172553895D01*
X47572066Y-172542530D01*
X47548991Y-172535530D01*
X47525000Y-172533167D01*
X47501009Y-172535530D01*
X47477934Y-172542530D01*
X47456670Y-172553895D01*
X47438033Y-172569190D01*
X47426509Y-172583233D01*
X47424637Y-172583937D01*
X47423091Y-172582669D01*
X47423300Y-172580853D01*
X47451877Y-172538083D01*
X47481809Y-172465822D01*
X47497069Y-172389106D01*
X47497069Y-172310894D01*
X47481809Y-172234178D01*
X47451877Y-172161917D01*
X47423300Y-172119147D01*
X47423169Y-172117151D01*
X47424832Y-172116040D01*
X47426509Y-172116767D01*
G37*
G36*
X43176509Y-172116767D02*
G01*
X43188033Y-172130810D01*
X43206670Y-172146105D01*
X43227934Y-172157470D01*
X43251009Y-172164470D01*
X43275000Y-172166833D01*
X43298991Y-172164470D01*
X43322066Y-172157470D01*
X43343330Y-172146105D01*
X43361967Y-172130810D01*
X43373491Y-172116767D01*
X43375363Y-172116063D01*
X43376909Y-172117331D01*
X43376700Y-172119147D01*
X43348123Y-172161917D01*
X43318191Y-172234178D01*
X43302931Y-172310894D01*
X43302931Y-172389106D01*
X43318191Y-172465822D01*
X43348123Y-172538083D01*
X43376700Y-172580853D01*
X43376831Y-172582849D01*
X43375168Y-172583960D01*
X43373491Y-172583233D01*
X43361967Y-172569190D01*
X43343330Y-172553895D01*
X43322066Y-172542530D01*
X43298991Y-172535530D01*
X43275000Y-172533167D01*
X43251009Y-172535530D01*
X43227934Y-172542530D01*
X43206670Y-172553895D01*
X43188033Y-172569190D01*
X43176509Y-172583233D01*
X43174637Y-172583937D01*
X43173091Y-172582669D01*
X43173300Y-172580853D01*
X43201877Y-172538083D01*
X43231809Y-172465822D01*
X43247069Y-172389106D01*
X43247069Y-172310894D01*
X43231809Y-172234178D01*
X43201877Y-172161917D01*
X43173300Y-172119147D01*
X43173169Y-172117151D01*
X43174832Y-172116040D01*
X43176509Y-172116767D01*
G37*
G36*
X44026509Y-170766767D02*
G01*
X44038033Y-170780810D01*
X44056670Y-170796105D01*
X44077934Y-170807470D01*
X44101009Y-170814470D01*
X44125000Y-170816833D01*
X44148991Y-170814470D01*
X44172066Y-170807470D01*
X44193330Y-170796105D01*
X44211967Y-170780810D01*
X44223491Y-170766767D01*
X44225363Y-170766063D01*
X44226909Y-170767331D01*
X44226700Y-170769147D01*
X44198123Y-170811917D01*
X44168191Y-170884178D01*
X44152931Y-170960894D01*
X44152931Y-171039106D01*
X44168191Y-171115822D01*
X44198123Y-171188083D01*
X44226700Y-171230853D01*
X44226831Y-171232849D01*
X44225168Y-171233960D01*
X44223491Y-171233233D01*
X44211967Y-171219190D01*
X44193330Y-171203895D01*
X44172066Y-171192530D01*
X44148991Y-171185530D01*
X44125000Y-171183167D01*
X44101009Y-171185530D01*
X44077934Y-171192530D01*
X44056670Y-171203895D01*
X44038033Y-171219190D01*
X44026509Y-171233233D01*
X44024637Y-171233937D01*
X44023091Y-171232669D01*
X44023300Y-171230853D01*
X44051877Y-171188083D01*
X44081809Y-171115822D01*
X44097069Y-171039106D01*
X44097069Y-170960894D01*
X44081809Y-170884178D01*
X44051877Y-170811917D01*
X44023300Y-170769147D01*
X44023169Y-170767151D01*
X44024832Y-170766040D01*
X44026509Y-170766767D01*
G37*
G36*
X46576509Y-170766767D02*
G01*
X46588033Y-170780810D01*
X46606670Y-170796105D01*
X46627934Y-170807470D01*
X46651009Y-170814470D01*
X46675000Y-170816833D01*
X46698991Y-170814470D01*
X46722066Y-170807470D01*
X46743330Y-170796105D01*
X46761967Y-170780810D01*
X46773491Y-170766767D01*
X46775363Y-170766063D01*
X46776909Y-170767331D01*
X46776700Y-170769147D01*
X46748123Y-170811917D01*
X46718191Y-170884178D01*
X46702931Y-170960894D01*
X46702931Y-171039106D01*
X46718191Y-171115822D01*
X46748123Y-171188083D01*
X46776700Y-171230853D01*
X46776831Y-171232849D01*
X46775168Y-171233960D01*
X46773491Y-171233233D01*
X46761967Y-171219190D01*
X46743330Y-171203895D01*
X46722066Y-171192530D01*
X46698991Y-171185530D01*
X46675000Y-171183167D01*
X46651009Y-171185530D01*
X46627934Y-171192530D01*
X46606670Y-171203895D01*
X46588033Y-171219190D01*
X46576509Y-171233233D01*
X46574637Y-171233937D01*
X46573091Y-171232669D01*
X46573300Y-171230853D01*
X46601877Y-171188083D01*
X46631809Y-171115822D01*
X46647069Y-171039106D01*
X46647069Y-170960894D01*
X46631809Y-170884178D01*
X46601877Y-170811917D01*
X46573300Y-170769147D01*
X46573169Y-170767151D01*
X46574832Y-170766040D01*
X46576509Y-170766767D01*
G37*
G36*
X43176509Y-170766767D02*
G01*
X43188033Y-170780810D01*
X43206670Y-170796105D01*
X43227934Y-170807470D01*
X43251009Y-170814470D01*
X43275000Y-170816833D01*
X43298991Y-170814470D01*
X43322066Y-170807470D01*
X43343330Y-170796105D01*
X43361967Y-170780810D01*
X43373491Y-170766767D01*
X43375363Y-170766063D01*
X43376909Y-170767331D01*
X43376700Y-170769147D01*
X43348123Y-170811917D01*
X43318191Y-170884178D01*
X43302931Y-170960894D01*
X43302931Y-171039106D01*
X43318191Y-171115822D01*
X43348123Y-171188083D01*
X43376700Y-171230853D01*
X43376831Y-171232849D01*
X43375168Y-171233960D01*
X43373491Y-171233233D01*
X43361967Y-171219190D01*
X43343330Y-171203895D01*
X43322066Y-171192530D01*
X43298991Y-171185530D01*
X43275000Y-171183167D01*
X43251009Y-171185530D01*
X43227934Y-171192530D01*
X43206670Y-171203895D01*
X43188033Y-171219190D01*
X43176509Y-171233233D01*
X43174637Y-171233937D01*
X43173091Y-171232669D01*
X43173300Y-171230853D01*
X43201877Y-171188083D01*
X43231809Y-171115822D01*
X43247069Y-171039106D01*
X43247069Y-170960894D01*
X43231809Y-170884178D01*
X43201877Y-170811917D01*
X43173300Y-170769147D01*
X43173169Y-170767151D01*
X43174832Y-170766040D01*
X43176509Y-170766767D01*
G37*
G36*
X42326509Y-170766767D02*
G01*
X42338033Y-170780810D01*
X42356670Y-170796105D01*
X42377934Y-170807470D01*
X42401009Y-170814470D01*
X42425000Y-170816833D01*
X42448991Y-170814470D01*
X42472066Y-170807470D01*
X42493330Y-170796105D01*
X42511967Y-170780810D01*
X42523491Y-170766767D01*
X42525363Y-170766063D01*
X42526909Y-170767331D01*
X42526700Y-170769147D01*
X42498123Y-170811917D01*
X42468191Y-170884178D01*
X42452931Y-170960894D01*
X42452931Y-171039106D01*
X42468191Y-171115822D01*
X42498123Y-171188083D01*
X42526700Y-171230853D01*
X42526831Y-171232849D01*
X42525168Y-171233960D01*
X42523491Y-171233233D01*
X42511967Y-171219190D01*
X42493330Y-171203895D01*
X42472066Y-171192530D01*
X42448991Y-171185530D01*
X42425000Y-171183167D01*
X42401009Y-171185530D01*
X42377934Y-171192530D01*
X42356670Y-171203895D01*
X42338033Y-171219190D01*
X42326509Y-171233233D01*
X42324637Y-171233937D01*
X42323091Y-171232669D01*
X42323300Y-171230853D01*
X42351877Y-171188083D01*
X42381809Y-171115822D01*
X42397069Y-171039106D01*
X42397069Y-170960894D01*
X42381809Y-170884178D01*
X42351877Y-170811917D01*
X42323300Y-170769147D01*
X42323169Y-170767151D01*
X42324832Y-170766040D01*
X42326509Y-170766767D01*
G37*
G36*
X47426509Y-170766767D02*
G01*
X47438033Y-170780810D01*
X47456670Y-170796105D01*
X47477934Y-170807470D01*
X47501009Y-170814470D01*
X47525000Y-170816833D01*
X47548991Y-170814470D01*
X47572066Y-170807470D01*
X47593330Y-170796105D01*
X47611967Y-170780810D01*
X47623491Y-170766767D01*
X47625363Y-170766063D01*
X47626909Y-170767331D01*
X47626700Y-170769147D01*
X47598123Y-170811917D01*
X47568191Y-170884178D01*
X47552931Y-170960894D01*
X47552931Y-171039106D01*
X47568191Y-171115822D01*
X47598123Y-171188083D01*
X47626700Y-171230853D01*
X47626831Y-171232849D01*
X47625168Y-171233960D01*
X47623491Y-171233233D01*
X47611967Y-171219190D01*
X47593330Y-171203895D01*
X47572066Y-171192530D01*
X47548991Y-171185530D01*
X47525000Y-171183167D01*
X47501009Y-171185530D01*
X47477934Y-171192530D01*
X47456670Y-171203895D01*
X47438033Y-171219190D01*
X47426509Y-171233233D01*
X47424637Y-171233937D01*
X47423091Y-171232669D01*
X47423300Y-171230853D01*
X47451877Y-171188083D01*
X47481809Y-171115822D01*
X47497069Y-171039106D01*
X47497069Y-170960894D01*
X47481809Y-170884178D01*
X47451877Y-170811917D01*
X47423300Y-170769147D01*
X47423169Y-170767151D01*
X47424832Y-170766040D01*
X47426509Y-170766767D01*
G37*
G36*
X44876509Y-170766767D02*
G01*
X44888033Y-170780810D01*
X44906670Y-170796105D01*
X44927934Y-170807470D01*
X44951009Y-170814470D01*
X44975000Y-170816833D01*
X44998991Y-170814470D01*
X45022066Y-170807470D01*
X45043330Y-170796105D01*
X45061967Y-170780810D01*
X45073491Y-170766767D01*
X45075363Y-170766063D01*
X45076909Y-170767331D01*
X45076700Y-170769147D01*
X45048123Y-170811917D01*
X45018191Y-170884178D01*
X45002931Y-170960894D01*
X45002931Y-171039106D01*
X45018191Y-171115822D01*
X45048123Y-171188083D01*
X45076700Y-171230853D01*
X45076831Y-171232849D01*
X45075168Y-171233960D01*
X45073491Y-171233233D01*
X45061967Y-171219190D01*
X45043330Y-171203895D01*
X45022066Y-171192530D01*
X44998991Y-171185530D01*
X44975000Y-171183167D01*
X44951009Y-171185530D01*
X44927934Y-171192530D01*
X44906670Y-171203895D01*
X44888033Y-171219190D01*
X44876509Y-171233233D01*
X44874637Y-171233937D01*
X44873091Y-171232669D01*
X44873300Y-171230853D01*
X44901877Y-171188083D01*
X44931809Y-171115822D01*
X44947069Y-171039106D01*
X44947069Y-170960894D01*
X44931809Y-170884178D01*
X44901877Y-170811917D01*
X44873300Y-170769147D01*
X44873169Y-170767151D01*
X44874832Y-170766040D01*
X44876509Y-170766767D01*
G37*
G36*
X45726509Y-170766767D02*
G01*
X45738033Y-170780810D01*
X45756670Y-170796105D01*
X45777934Y-170807470D01*
X45801009Y-170814470D01*
X45825000Y-170816833D01*
X45848991Y-170814470D01*
X45872066Y-170807470D01*
X45893330Y-170796105D01*
X45911967Y-170780810D01*
X45923491Y-170766767D01*
X45925363Y-170766063D01*
X45926909Y-170767331D01*
X45926700Y-170769147D01*
X45898123Y-170811917D01*
X45868191Y-170884178D01*
X45852931Y-170960894D01*
X45852931Y-171039106D01*
X45868191Y-171115822D01*
X45898123Y-171188083D01*
X45926700Y-171230853D01*
X45926831Y-171232849D01*
X45925168Y-171233960D01*
X45923491Y-171233233D01*
X45911967Y-171219190D01*
X45893330Y-171203895D01*
X45872066Y-171192530D01*
X45848991Y-171185530D01*
X45825000Y-171183167D01*
X45801009Y-171185530D01*
X45777934Y-171192530D01*
X45756670Y-171203895D01*
X45738033Y-171219190D01*
X45726509Y-171233233D01*
X45724637Y-171233937D01*
X45723091Y-171232669D01*
X45723300Y-171230853D01*
X45751877Y-171188083D01*
X45781809Y-171115822D01*
X45797069Y-171039106D01*
X45797069Y-170960894D01*
X45781809Y-170884178D01*
X45751877Y-170811917D01*
X45723300Y-170769147D01*
X45723169Y-170767151D01*
X45724832Y-170766040D01*
X45726509Y-170766767D01*
G37*
G36*
X52948580Y-154275000D02*
G01*
X52948580Y-154277000D01*
X52947044Y-154277990D01*
X52922857Y-154280372D01*
X52899782Y-154287372D01*
X52878518Y-154298737D01*
X52859881Y-154314032D01*
X52844586Y-154332669D01*
X52833221Y-154353933D01*
X52826221Y-154377008D01*
X52823858Y-154400999D01*
X52826221Y-154424990D01*
X52833221Y-154448065D01*
X52844586Y-154469329D01*
X52856112Y-154483373D01*
X52856438Y-154485347D01*
X52854892Y-154486615D01*
X52853152Y-154486056D01*
X52800697Y-154433601D01*
X52723438Y-154381978D01*
X52637594Y-154346420D01*
X52546457Y-154328292D01*
X52453543Y-154328292D01*
X52362406Y-154346420D01*
X52276562Y-154381978D01*
X52199303Y-154433601D01*
X52146848Y-154486056D01*
X52144916Y-154486574D01*
X52143502Y-154485160D01*
X52143888Y-154483373D01*
X52155414Y-154469329D01*
X52166779Y-154448065D01*
X52173779Y-154424990D01*
X52176142Y-154400999D01*
X52173779Y-154377008D01*
X52166779Y-154353933D01*
X52155414Y-154332669D01*
X52140119Y-154314032D01*
X52121482Y-154298737D01*
X52100218Y-154287372D01*
X52077143Y-154280372D01*
X52052956Y-154277990D01*
X52051330Y-154276825D01*
X52051526Y-154274835D01*
X52053152Y-154274000D01*
X52946848Y-154274000D01*
X52948580Y-154275000D01*
G37*
G36*
X28390266Y-152265048D02*
G01*
X28391031Y-152266896D01*
X28390159Y-152268298D01*
X28383608Y-152272675D01*
X28364893Y-152288034D01*
X28349598Y-152306671D01*
X28338233Y-152327935D01*
X28331233Y-152351010D01*
X28328870Y-152375001D01*
X28331233Y-152398992D01*
X28338233Y-152422067D01*
X28349599Y-152443330D01*
X28364894Y-152461967D01*
X28383608Y-152477325D01*
X28390159Y-152481702D01*
X28391044Y-152483496D01*
X28389933Y-152485159D01*
X28388283Y-152485213D01*
X28336794Y-152463885D01*
X28279304Y-152452449D01*
X28220696Y-152452449D01*
X28163206Y-152463885D01*
X28111717Y-152485213D01*
X28109734Y-152484952D01*
X28108969Y-152483104D01*
X28109841Y-152481702D01*
X28116392Y-152477325D01*
X28135107Y-152461966D01*
X28150402Y-152443329D01*
X28161767Y-152422065D01*
X28168767Y-152398990D01*
X28171130Y-152374999D01*
X28168767Y-152351008D01*
X28161767Y-152327933D01*
X28150401Y-152306670D01*
X28135106Y-152288033D01*
X28116392Y-152272675D01*
X28109841Y-152268298D01*
X28108956Y-152266504D01*
X28110067Y-152264841D01*
X28111717Y-152264787D01*
X28163206Y-152286115D01*
X28220696Y-152297551D01*
X28279304Y-152297551D01*
X28336794Y-152286115D01*
X28388283Y-152264787D01*
X28390266Y-152265048D01*
G37*
G36*
X29890266Y-152265048D02*
G01*
X29891031Y-152266896D01*
X29890159Y-152268298D01*
X29883608Y-152272675D01*
X29864893Y-152288034D01*
X29849598Y-152306671D01*
X29838233Y-152327935D01*
X29831233Y-152351010D01*
X29828870Y-152375001D01*
X29831233Y-152398992D01*
X29838233Y-152422067D01*
X29849599Y-152443330D01*
X29864894Y-152461967D01*
X29883608Y-152477325D01*
X29890159Y-152481702D01*
X29891044Y-152483496D01*
X29889933Y-152485159D01*
X29888283Y-152485213D01*
X29836794Y-152463885D01*
X29779304Y-152452449D01*
X29720696Y-152452449D01*
X29663206Y-152463885D01*
X29611717Y-152485213D01*
X29609734Y-152484952D01*
X29608969Y-152483104D01*
X29609841Y-152481702D01*
X29616392Y-152477325D01*
X29635107Y-152461966D01*
X29650402Y-152443329D01*
X29661767Y-152422065D01*
X29668767Y-152398990D01*
X29671130Y-152374999D01*
X29668767Y-152351008D01*
X29661767Y-152327933D01*
X29650401Y-152306670D01*
X29635106Y-152288033D01*
X29616392Y-152272675D01*
X29609841Y-152268298D01*
X29608956Y-152266504D01*
X29610067Y-152264841D01*
X29611717Y-152264787D01*
X29663206Y-152286115D01*
X29720696Y-152297551D01*
X29779304Y-152297551D01*
X29836794Y-152286115D01*
X29888283Y-152264787D01*
X29890266Y-152265048D01*
G37*
G36*
X60390266Y-152265048D02*
G01*
X60391031Y-152266896D01*
X60390159Y-152268298D01*
X60383608Y-152272675D01*
X60364893Y-152288034D01*
X60349598Y-152306671D01*
X60338233Y-152327935D01*
X60331233Y-152351010D01*
X60328870Y-152375001D01*
X60331233Y-152398992D01*
X60338233Y-152422067D01*
X60349599Y-152443330D01*
X60364894Y-152461967D01*
X60383608Y-152477325D01*
X60390159Y-152481702D01*
X60391044Y-152483496D01*
X60389933Y-152485159D01*
X60388283Y-152485213D01*
X60336794Y-152463885D01*
X60279304Y-152452449D01*
X60220696Y-152452449D01*
X60163206Y-152463885D01*
X60111717Y-152485213D01*
X60109734Y-152484952D01*
X60108969Y-152483104D01*
X60109841Y-152481702D01*
X60116392Y-152477325D01*
X60135107Y-152461966D01*
X60150402Y-152443329D01*
X60161767Y-152422065D01*
X60168767Y-152398990D01*
X60171130Y-152374999D01*
X60168767Y-152351008D01*
X60161767Y-152327933D01*
X60150401Y-152306670D01*
X60135106Y-152288033D01*
X60116392Y-152272675D01*
X60109841Y-152268298D01*
X60108956Y-152266504D01*
X60110067Y-152264841D01*
X60111717Y-152264787D01*
X60163206Y-152286115D01*
X60220696Y-152297551D01*
X60279304Y-152297551D01*
X60336794Y-152286115D01*
X60388283Y-152264787D01*
X60390266Y-152265048D01*
G37*
G36*
X61890266Y-152265048D02*
G01*
X61891031Y-152266896D01*
X61890159Y-152268298D01*
X61883608Y-152272675D01*
X61864893Y-152288034D01*
X61849598Y-152306671D01*
X61838233Y-152327935D01*
X61831233Y-152351010D01*
X61828870Y-152375001D01*
X61831233Y-152398992D01*
X61838233Y-152422067D01*
X61849599Y-152443330D01*
X61864894Y-152461967D01*
X61883608Y-152477325D01*
X61890159Y-152481702D01*
X61891044Y-152483496D01*
X61889933Y-152485159D01*
X61888283Y-152485213D01*
X61836794Y-152463885D01*
X61779304Y-152452449D01*
X61720696Y-152452449D01*
X61663206Y-152463885D01*
X61611717Y-152485213D01*
X61609734Y-152484952D01*
X61608969Y-152483104D01*
X61609841Y-152481702D01*
X61616392Y-152477325D01*
X61635107Y-152461966D01*
X61650402Y-152443329D01*
X61661767Y-152422065D01*
X61668767Y-152398990D01*
X61671130Y-152374999D01*
X61668767Y-152351008D01*
X61661767Y-152327933D01*
X61650401Y-152306670D01*
X61635106Y-152288033D01*
X61616392Y-152272675D01*
X61609841Y-152268298D01*
X61608956Y-152266504D01*
X61610067Y-152264841D01*
X61611717Y-152264787D01*
X61663206Y-152286115D01*
X61720696Y-152297551D01*
X61779304Y-152297551D01*
X61836794Y-152286115D01*
X61888283Y-152264787D01*
X61890266Y-152265048D01*
G37*
G36*
X28390266Y-151515048D02*
G01*
X28391031Y-151516896D01*
X28390159Y-151518298D01*
X28383608Y-151522675D01*
X28364893Y-151538034D01*
X28349598Y-151556671D01*
X28338233Y-151577935D01*
X28331233Y-151601010D01*
X28328870Y-151625001D01*
X28331233Y-151648992D01*
X28338233Y-151672067D01*
X28349599Y-151693330D01*
X28364894Y-151711967D01*
X28383608Y-151727325D01*
X28390159Y-151731702D01*
X28391044Y-151733496D01*
X28389933Y-151735159D01*
X28388283Y-151735213D01*
X28336794Y-151713885D01*
X28279304Y-151702449D01*
X28220696Y-151702449D01*
X28163206Y-151713885D01*
X28111717Y-151735213D01*
X28109734Y-151734952D01*
X28108969Y-151733104D01*
X28109841Y-151731702D01*
X28116392Y-151727325D01*
X28135107Y-151711966D01*
X28150402Y-151693329D01*
X28161767Y-151672065D01*
X28168767Y-151648990D01*
X28171130Y-151624999D01*
X28168767Y-151601008D01*
X28161767Y-151577933D01*
X28150401Y-151556670D01*
X28135106Y-151538033D01*
X28116392Y-151522675D01*
X28109841Y-151518298D01*
X28108956Y-151516504D01*
X28110067Y-151514841D01*
X28111717Y-151514787D01*
X28163206Y-151536115D01*
X28220696Y-151547551D01*
X28279304Y-151547551D01*
X28336794Y-151536115D01*
X28388283Y-151514787D01*
X28390266Y-151515048D01*
G37*
G36*
X60390266Y-151515048D02*
G01*
X60391031Y-151516896D01*
X60390159Y-151518298D01*
X60383608Y-151522675D01*
X60364893Y-151538034D01*
X60349598Y-151556671D01*
X60338233Y-151577935D01*
X60331233Y-151601010D01*
X60328870Y-151625001D01*
X60331233Y-151648992D01*
X60338233Y-151672067D01*
X60349599Y-151693330D01*
X60364894Y-151711967D01*
X60383608Y-151727325D01*
X60390159Y-151731702D01*
X60391044Y-151733496D01*
X60389933Y-151735159D01*
X60388283Y-151735213D01*
X60336794Y-151713885D01*
X60279304Y-151702449D01*
X60220696Y-151702449D01*
X60163206Y-151713885D01*
X60111717Y-151735213D01*
X60109734Y-151734952D01*
X60108969Y-151733104D01*
X60109841Y-151731702D01*
X60116392Y-151727325D01*
X60135107Y-151711966D01*
X60150402Y-151693329D01*
X60161767Y-151672065D01*
X60168767Y-151648990D01*
X60171130Y-151624999D01*
X60168767Y-151601008D01*
X60161767Y-151577933D01*
X60150401Y-151556670D01*
X60135106Y-151538033D01*
X60116392Y-151522675D01*
X60109841Y-151518298D01*
X60108956Y-151516504D01*
X60110067Y-151514841D01*
X60111717Y-151514787D01*
X60163206Y-151536115D01*
X60220696Y-151547551D01*
X60279304Y-151547551D01*
X60336794Y-151536115D01*
X60388283Y-151514787D01*
X60390266Y-151515048D01*
G37*
G36*
X29890266Y-151515048D02*
G01*
X29891031Y-151516896D01*
X29890159Y-151518298D01*
X29883608Y-151522675D01*
X29864893Y-151538034D01*
X29849598Y-151556671D01*
X29838233Y-151577935D01*
X29831233Y-151601010D01*
X29828870Y-151625001D01*
X29831233Y-151648992D01*
X29838233Y-151672067D01*
X29849599Y-151693330D01*
X29864894Y-151711967D01*
X29883608Y-151727325D01*
X29890159Y-151731702D01*
X29891044Y-151733496D01*
X29889933Y-151735159D01*
X29888283Y-151735213D01*
X29836794Y-151713885D01*
X29779304Y-151702449D01*
X29720696Y-151702449D01*
X29663206Y-151713885D01*
X29611717Y-151735213D01*
X29609734Y-151734952D01*
X29608969Y-151733104D01*
X29609841Y-151731702D01*
X29616392Y-151727325D01*
X29635107Y-151711966D01*
X29650402Y-151693329D01*
X29661767Y-151672065D01*
X29668767Y-151648990D01*
X29671130Y-151624999D01*
X29668767Y-151601008D01*
X29661767Y-151577933D01*
X29650401Y-151556670D01*
X29635106Y-151538033D01*
X29616392Y-151522675D01*
X29609841Y-151518298D01*
X29608956Y-151516504D01*
X29610067Y-151514841D01*
X29611717Y-151514787D01*
X29663206Y-151536115D01*
X29720696Y-151547551D01*
X29779304Y-151547551D01*
X29836794Y-151536115D01*
X29888283Y-151514787D01*
X29890266Y-151515048D01*
G37*
G36*
X61890266Y-151515048D02*
G01*
X61891031Y-151516896D01*
X61890159Y-151518298D01*
X61883608Y-151522675D01*
X61864893Y-151538034D01*
X61849598Y-151556671D01*
X61838233Y-151577935D01*
X61831233Y-151601010D01*
X61828870Y-151625001D01*
X61831233Y-151648992D01*
X61838233Y-151672067D01*
X61849599Y-151693330D01*
X61864894Y-151711967D01*
X61883608Y-151727325D01*
X61890159Y-151731702D01*
X61891044Y-151733496D01*
X61889933Y-151735159D01*
X61888283Y-151735213D01*
X61836794Y-151713885D01*
X61779304Y-151702449D01*
X61720696Y-151702449D01*
X61663206Y-151713885D01*
X61611717Y-151735213D01*
X61609734Y-151734952D01*
X61608969Y-151733104D01*
X61609841Y-151731702D01*
X61616392Y-151727325D01*
X61635107Y-151711966D01*
X61650402Y-151693329D01*
X61661767Y-151672065D01*
X61668767Y-151648990D01*
X61671130Y-151624999D01*
X61668767Y-151601008D01*
X61661767Y-151577933D01*
X61650401Y-151556670D01*
X61635106Y-151538033D01*
X61616392Y-151522675D01*
X61609841Y-151518298D01*
X61608956Y-151516504D01*
X61610067Y-151514841D01*
X61611717Y-151514787D01*
X61663206Y-151536115D01*
X61720696Y-151547551D01*
X61779304Y-151547551D01*
X61836794Y-151536115D01*
X61888283Y-151514787D01*
X61890266Y-151515048D01*
G37*
G36*
X37848580Y-148575000D02*
G01*
X37848580Y-148577000D01*
X37847044Y-148577990D01*
X37822857Y-148580372D01*
X37799782Y-148587372D01*
X37778518Y-148598737D01*
X37759881Y-148614032D01*
X37744586Y-148632669D01*
X37733221Y-148653933D01*
X37726221Y-148677008D01*
X37723858Y-148700999D01*
X37726221Y-148724990D01*
X37733221Y-148748065D01*
X37744586Y-148769329D01*
X37756112Y-148783373D01*
X37756438Y-148785347D01*
X37754892Y-148786615D01*
X37753152Y-148786056D01*
X37700697Y-148733601D01*
X37623438Y-148681978D01*
X37537594Y-148646420D01*
X37446457Y-148628292D01*
X37353543Y-148628292D01*
X37262406Y-148646420D01*
X37176562Y-148681978D01*
X37099303Y-148733601D01*
X37046848Y-148786056D01*
X37044916Y-148786574D01*
X37043502Y-148785160D01*
X37043888Y-148783373D01*
X37055414Y-148769329D01*
X37066779Y-148748065D01*
X37073779Y-148724990D01*
X37076142Y-148700999D01*
X37073779Y-148677008D01*
X37066779Y-148653933D01*
X37055414Y-148632669D01*
X37040119Y-148614032D01*
X37021482Y-148598737D01*
X37000218Y-148587372D01*
X36977143Y-148580372D01*
X36952956Y-148577990D01*
X36951330Y-148576825D01*
X36951526Y-148574835D01*
X36953152Y-148574000D01*
X37846848Y-148574000D01*
X37848580Y-148575000D01*
G37*
G36*
X67485159Y-144610067D02*
G01*
X67485213Y-144611717D01*
X67463885Y-144663206D01*
X67452449Y-144720696D01*
X67452449Y-144779304D01*
X67463885Y-144836794D01*
X67485213Y-144888283D01*
X67484952Y-144890266D01*
X67483104Y-144891031D01*
X67481702Y-144890159D01*
X67477325Y-144883608D01*
X67461966Y-144864893D01*
X67443329Y-144849598D01*
X67422065Y-144838233D01*
X67398990Y-144831233D01*
X67374999Y-144828870D01*
X67351008Y-144831233D01*
X67327933Y-144838233D01*
X67306670Y-144849599D01*
X67288033Y-144864894D01*
X67272675Y-144883608D01*
X67268298Y-144890159D01*
X67266504Y-144891044D01*
X67264841Y-144889933D01*
X67264787Y-144888283D01*
X67286115Y-144836794D01*
X67297551Y-144779304D01*
X67297551Y-144720696D01*
X67286115Y-144663206D01*
X67264787Y-144611717D01*
X67265048Y-144609734D01*
X67266896Y-144608969D01*
X67268298Y-144609841D01*
X67272675Y-144616392D01*
X67288034Y-144635107D01*
X67306671Y-144650402D01*
X67327935Y-144661767D01*
X67351010Y-144668767D01*
X67375001Y-144671130D01*
X67398992Y-144668767D01*
X67422067Y-144661767D01*
X67443330Y-144650401D01*
X67461967Y-144635106D01*
X67477325Y-144616392D01*
X67481702Y-144609841D01*
X67483496Y-144608956D01*
X67485159Y-144610067D01*
G37*
G36*
X23485159Y-144610067D02*
G01*
X23485213Y-144611717D01*
X23463885Y-144663206D01*
X23452449Y-144720696D01*
X23452449Y-144779304D01*
X23463885Y-144836794D01*
X23485213Y-144888283D01*
X23484952Y-144890266D01*
X23483104Y-144891031D01*
X23481702Y-144890159D01*
X23477325Y-144883608D01*
X23461966Y-144864893D01*
X23443329Y-144849598D01*
X23422065Y-144838233D01*
X23398990Y-144831233D01*
X23374999Y-144828870D01*
X23351008Y-144831233D01*
X23327933Y-144838233D01*
X23306670Y-144849599D01*
X23288033Y-144864894D01*
X23272675Y-144883608D01*
X23268298Y-144890159D01*
X23266504Y-144891044D01*
X23264841Y-144889933D01*
X23264787Y-144888283D01*
X23286115Y-144836794D01*
X23297551Y-144779304D01*
X23297551Y-144720696D01*
X23286115Y-144663206D01*
X23264787Y-144611717D01*
X23265048Y-144609734D01*
X23266896Y-144608969D01*
X23268298Y-144609841D01*
X23272675Y-144616392D01*
X23288034Y-144635107D01*
X23306671Y-144650402D01*
X23327935Y-144661767D01*
X23351010Y-144668767D01*
X23375001Y-144671130D01*
X23398992Y-144668767D01*
X23422067Y-144661767D01*
X23443330Y-144650401D01*
X23461967Y-144635106D01*
X23477325Y-144616392D01*
X23481702Y-144609841D01*
X23483496Y-144608956D01*
X23485159Y-144610067D01*
G37*
G36*
X22735159Y-144610067D02*
G01*
X22735213Y-144611717D01*
X22713885Y-144663206D01*
X22702449Y-144720696D01*
X22702449Y-144779304D01*
X22713885Y-144836794D01*
X22735213Y-144888283D01*
X22734952Y-144890266D01*
X22733104Y-144891031D01*
X22731702Y-144890159D01*
X22727325Y-144883608D01*
X22711966Y-144864893D01*
X22693329Y-144849598D01*
X22672065Y-144838233D01*
X22648990Y-144831233D01*
X22624999Y-144828870D01*
X22601008Y-144831233D01*
X22577933Y-144838233D01*
X22556670Y-144849599D01*
X22538033Y-144864894D01*
X22522675Y-144883608D01*
X22518298Y-144890159D01*
X22516504Y-144891044D01*
X22514841Y-144889933D01*
X22514787Y-144888283D01*
X22536115Y-144836794D01*
X22547551Y-144779304D01*
X22547551Y-144720696D01*
X22536115Y-144663206D01*
X22514787Y-144611717D01*
X22515048Y-144609734D01*
X22516896Y-144608969D01*
X22518298Y-144609841D01*
X22522675Y-144616392D01*
X22538034Y-144635107D01*
X22556671Y-144650402D01*
X22577935Y-144661767D01*
X22601010Y-144668767D01*
X22625001Y-144671130D01*
X22648992Y-144668767D01*
X22672067Y-144661767D01*
X22693330Y-144650401D01*
X22711967Y-144635106D01*
X22727325Y-144616392D01*
X22731702Y-144609841D01*
X22733496Y-144608956D01*
X22735159Y-144610067D01*
G37*
G36*
X66735159Y-144610067D02*
G01*
X66735213Y-144611717D01*
X66713885Y-144663206D01*
X66702449Y-144720696D01*
X66702449Y-144779304D01*
X66713885Y-144836794D01*
X66735213Y-144888283D01*
X66734952Y-144890266D01*
X66733104Y-144891031D01*
X66731702Y-144890159D01*
X66727325Y-144883608D01*
X66711966Y-144864893D01*
X66693329Y-144849598D01*
X66672065Y-144838233D01*
X66648990Y-144831233D01*
X66624999Y-144828870D01*
X66601008Y-144831233D01*
X66577933Y-144838233D01*
X66556670Y-144849599D01*
X66538033Y-144864894D01*
X66522675Y-144883608D01*
X66518298Y-144890159D01*
X66516504Y-144891044D01*
X66514841Y-144889933D01*
X66514787Y-144888283D01*
X66536115Y-144836794D01*
X66547551Y-144779304D01*
X66547551Y-144720696D01*
X66536115Y-144663206D01*
X66514787Y-144611717D01*
X66515048Y-144609734D01*
X66516896Y-144608969D01*
X66518298Y-144609841D01*
X66522675Y-144616392D01*
X66538034Y-144635107D01*
X66556671Y-144650402D01*
X66577935Y-144661767D01*
X66601010Y-144668767D01*
X66625001Y-144671130D01*
X66648992Y-144668767D01*
X66672067Y-144661767D01*
X66693330Y-144650401D01*
X66711967Y-144635106D01*
X66727325Y-144616392D01*
X66731702Y-144609841D01*
X66733496Y-144608956D01*
X66735159Y-144610067D01*
G37*
G36*
X66735159Y-143110067D02*
G01*
X66735213Y-143111717D01*
X66713885Y-143163206D01*
X66702449Y-143220696D01*
X66702449Y-143279304D01*
X66713885Y-143336794D01*
X66735213Y-143388283D01*
X66734952Y-143390266D01*
X66733104Y-143391031D01*
X66731702Y-143390159D01*
X66727325Y-143383608D01*
X66711966Y-143364893D01*
X66693329Y-143349598D01*
X66672065Y-143338233D01*
X66648990Y-143331233D01*
X66624999Y-143328870D01*
X66601008Y-143331233D01*
X66577933Y-143338233D01*
X66556670Y-143349599D01*
X66538033Y-143364894D01*
X66522675Y-143383608D01*
X66518298Y-143390159D01*
X66516504Y-143391044D01*
X66514841Y-143389933D01*
X66514787Y-143388283D01*
X66536115Y-143336794D01*
X66547551Y-143279304D01*
X66547551Y-143220696D01*
X66536115Y-143163206D01*
X66514787Y-143111717D01*
X66515048Y-143109734D01*
X66516896Y-143108969D01*
X66518298Y-143109841D01*
X66522675Y-143116392D01*
X66538034Y-143135107D01*
X66556671Y-143150402D01*
X66577935Y-143161767D01*
X66601010Y-143168767D01*
X66625001Y-143171130D01*
X66648992Y-143168767D01*
X66672067Y-143161767D01*
X66693330Y-143150401D01*
X66711967Y-143135106D01*
X66727325Y-143116392D01*
X66731702Y-143109841D01*
X66733496Y-143108956D01*
X66735159Y-143110067D01*
G37*
G36*
X22735159Y-143110067D02*
G01*
X22735213Y-143111717D01*
X22713885Y-143163206D01*
X22702449Y-143220696D01*
X22702449Y-143279304D01*
X22713885Y-143336794D01*
X22735213Y-143388283D01*
X22734952Y-143390266D01*
X22733104Y-143391031D01*
X22731702Y-143390159D01*
X22727325Y-143383608D01*
X22711966Y-143364893D01*
X22693329Y-143349598D01*
X22672065Y-143338233D01*
X22648990Y-143331233D01*
X22624999Y-143328870D01*
X22601008Y-143331233D01*
X22577933Y-143338233D01*
X22556670Y-143349599D01*
X22538033Y-143364894D01*
X22522675Y-143383608D01*
X22518298Y-143390159D01*
X22516504Y-143391044D01*
X22514841Y-143389933D01*
X22514787Y-143388283D01*
X22536115Y-143336794D01*
X22547551Y-143279304D01*
X22547551Y-143220696D01*
X22536115Y-143163206D01*
X22514787Y-143111717D01*
X22515048Y-143109734D01*
X22516896Y-143108969D01*
X22518298Y-143109841D01*
X22522675Y-143116392D01*
X22538034Y-143135107D01*
X22556671Y-143150402D01*
X22577935Y-143161767D01*
X22601010Y-143168767D01*
X22625001Y-143171130D01*
X22648992Y-143168767D01*
X22672067Y-143161767D01*
X22693330Y-143150401D01*
X22711967Y-143135106D01*
X22727325Y-143116392D01*
X22731702Y-143109841D01*
X22733496Y-143108956D01*
X22735159Y-143110067D01*
G37*
G36*
X23485159Y-143110067D02*
G01*
X23485213Y-143111717D01*
X23463885Y-143163206D01*
X23452449Y-143220696D01*
X23452449Y-143279304D01*
X23463885Y-143336794D01*
X23485213Y-143388283D01*
X23484952Y-143390266D01*
X23483104Y-143391031D01*
X23481702Y-143390159D01*
X23477325Y-143383608D01*
X23461966Y-143364893D01*
X23443329Y-143349598D01*
X23422065Y-143338233D01*
X23398990Y-143331233D01*
X23374999Y-143328870D01*
X23351008Y-143331233D01*
X23327933Y-143338233D01*
X23306670Y-143349599D01*
X23288033Y-143364894D01*
X23272675Y-143383608D01*
X23268298Y-143390159D01*
X23266504Y-143391044D01*
X23264841Y-143389933D01*
X23264787Y-143388283D01*
X23286115Y-143336794D01*
X23297551Y-143279304D01*
X23297551Y-143220696D01*
X23286115Y-143163206D01*
X23264787Y-143111717D01*
X23265048Y-143109734D01*
X23266896Y-143108969D01*
X23268298Y-143109841D01*
X23272675Y-143116392D01*
X23288034Y-143135107D01*
X23306671Y-143150402D01*
X23327935Y-143161767D01*
X23351010Y-143168767D01*
X23375001Y-143171130D01*
X23398992Y-143168767D01*
X23422067Y-143161767D01*
X23443330Y-143150401D01*
X23461967Y-143135106D01*
X23477325Y-143116392D01*
X23481702Y-143109841D01*
X23483496Y-143108956D01*
X23485159Y-143110067D01*
G37*
G36*
X67485159Y-143110067D02*
G01*
X67485213Y-143111717D01*
X67463885Y-143163206D01*
X67452449Y-143220696D01*
X67452449Y-143279304D01*
X67463885Y-143336794D01*
X67485213Y-143388283D01*
X67484952Y-143390266D01*
X67483104Y-143391031D01*
X67481702Y-143390159D01*
X67477325Y-143383608D01*
X67461966Y-143364893D01*
X67443329Y-143349598D01*
X67422065Y-143338233D01*
X67398990Y-143331233D01*
X67374999Y-143328870D01*
X67351008Y-143331233D01*
X67327933Y-143338233D01*
X67306670Y-143349599D01*
X67288033Y-143364894D01*
X67272675Y-143383608D01*
X67268298Y-143390159D01*
X67266504Y-143391044D01*
X67264841Y-143389933D01*
X67264787Y-143388283D01*
X67286115Y-143336794D01*
X67297551Y-143279304D01*
X67297551Y-143220696D01*
X67286115Y-143163206D01*
X67264787Y-143111717D01*
X67265048Y-143109734D01*
X67266896Y-143108969D01*
X67268298Y-143109841D01*
X67272675Y-143116392D01*
X67288034Y-143135107D01*
X67306671Y-143150402D01*
X67327935Y-143161767D01*
X67351010Y-143168767D01*
X67375001Y-143171130D01*
X67398992Y-143168767D01*
X67422067Y-143161767D01*
X67443330Y-143150401D01*
X67461967Y-143135106D01*
X67477325Y-143116392D01*
X67481702Y-143109841D01*
X67483496Y-143108956D01*
X67485159Y-143110067D01*
G37*
M02*
