  0
SECTION
  2
HEADER
  9
$ANGBASE
  50
0.0
  9
$ANGDIR
  70
1
  9
$MEASUREMENT
  70
0
  0
ENDSEC
  0
SECTION
  2
TABLES
  0
TABLE
  2
LTYPE
  70
4
  0
LTYPE
  5
40F
  2
CONTINUOUS
  70
0
  3
Solid line
  72
65
  73
0
  40
0.0
  0
LTYPE
  5
410
  2
DASHDOT
 70
0
  3
Dash Dot ____ _ ____ _
 72
65
 73
4
 40
2.0
 49
1.25
 49
-0.25
 49
0.25
 49
-0.25
  0
LTYPE
  5
411
  2
DASHED
 70
0
  3
Dashed __ __ __ __ __
 72
65
 73
2
 40
0.75
 49
0.5
 49
-0.25
  0
LTYPE
  5
43B
  2
DOTTED
 70
0
  3
Dotted .  .  .  .
 72
65
 73
2
 40
0.2
 49
0.0
 49
-0.2
  0
ENDTAB
  0
TABLE
  2
STYLE
  70
4
  0
STYLE
  2
KICAD
  70
0
  40
0
  41
1
  42
1
  50
0
  71
0
  3
isocp.shx
  0
STYLE
  2
KICADB
  70
0
  40
0
  41
1
  42
1
  50
0
  71
0
  3
isocp.shx
  0
STYLE
  2
KICADI
  70
0
  40
0
  41
1
  42
1
  50
15
  71
0
  3
isocp.shx
  0
STYLE
  2
KICADBI
  70
0
  40
0
  41
1
  42
1
  50
15
  71
0
  3
isocp.shx
  0
ENDTAB
  0
TABLE
  2
LAYER
  70
1
  0
LAYER
  2
BLACK
  70
0
  62
7
  6
CONTINUOUS
  0
ENDTAB
  0
ENDSEC
  0
SECTION
  2
ENTITIES
0
LINE
8
BLACK
6
CONTINUOUS
10
1.84883
20
-4.84901
11
1.84891
21
-4.84904
0
LINE
8
BLACK
6
CONTINUOUS
10
1.84891
20
-4.84904
11
1.84899
21
-4.84908
0
LINE
8
BLACK
6
CONTINUOUS
10
1.84899
20
-4.84908
11
1.86595
21
-4.8581
0
LINE
8
BLACK
6
CONTINUOUS
10
1.86595
20
-4.8581
11
1.86595
21
-4.8581
0
LINE
8
BLACK
6
CONTINUOUS
10
1.86595
20
-4.8581
11
1.86595
21
-4.8581
0
LINE
8
BLACK
6
CONTINUOUS
10
1.86595
20
-4.8581
11
1.86597
21
-4.8581
0
LINE
8
BLACK
6
CONTINUOUS
10
1.86597
20
-4.8581
11
1.86604
21
-4.85815
0
LINE
8
BLACK
6
CONTINUOUS
10
1.86604
20
-4.85815
11
1.86611
21
-4.8582
0
LINE
8
BLACK
6
CONTINUOUS
10
1.86611
20
-4.8582
11
1.881
21
-4.87034
0
LINE
8
BLACK
6
CONTINUOUS
10
1.881
20
-4.87034
11
1.88101
21
-4.87035
0
LINE
8
BLACK
6
CONTINUOUS
10
1.88101
20
-4.87035
11
1.88104
21
-4.87038
0
LINE
8
BLACK
6
CONTINUOUS
10
1.88104
20
-4.87038
11
1.88107
21
-4.87041
0
LINE
8
BLACK
6
CONTINUOUS
10
1.88107
20
-4.87041
11
1.88128
21
-4.87062
0
LINE
8
BLACK
6
CONTINUOUS
10
1.88128
20
-4.87062
11
1.88128
21
-4.87062
0
LINE
8
BLACK
6
CONTINUOUS
10
1.88128
20
-4.87062
11
1.8813
21
-4.87064
0
LINE
8
BLACK
6
CONTINUOUS
10
1.8813
20
-4.87064
11
1.88132
21
-4.87065
0
LINE
8
BLACK
6
CONTINUOUS
10
1.88132
20
-4.87065
11
1.88132
21
-4.87066
0
LINE
8
BLACK
6
CONTINUOUS
10
1.88132
20
-4.87066
11
2.41285
21
-5.40218
0
LINE
8
BLACK
6
CONTINUOUS
10
2.41285
20
-5.40218
11
2.41288
21
-5.40222
0
LINE
8
BLACK
6
CONTINUOUS
10
2.41288
20
-5.40222
11
2.41288
21
-5.40222
0
LINE
8
BLACK
6
CONTINUOUS
10
2.41288
20
-5.40222
11
2.42507
21
-5.41706
0
LINE
8
BLACK
6
CONTINUOUS
10
2.42507
20
-5.41706
11
2.42508
21
-5.41707
0
LINE
8
BLACK
6
CONTINUOUS
10
2.42508
20
-5.41707
11
2.42513
21
-5.41715
0
LINE
8
BLACK
6
CONTINUOUS
10
2.42513
20
-5.41715
11
2.42518
21
-5.41722
0
LINE
8
BLACK
6
CONTINUOUS
10
2.42518
20
-5.41722
11
2.43425
21
-5.43415
0
LINE
8
BLACK
6
CONTINUOUS
10
2.43425
20
-5.43415
11
2.43426
21
-5.43416
0
LINE
8
BLACK
6
CONTINUOUS
10
2.43426
20
-5.43416
11
2.43429
21
-5.43425
0
LINE
8
BLACK
6
CONTINUOUS
10
2.43429
20
-5.43425
11
2.43433
21
-5.43433
0
LINE
8
BLACK
6
CONTINUOUS
10
2.43433
20
-5.43433
11
2.43994
21
-5.4527
0
LINE
8
BLACK
6
CONTINUOUS
10
2.43994
20
-5.4527
11
2.43995
21
-5.45271
0
LINE
8
BLACK
6
CONTINUOUS
10
2.43995
20
-5.45271
11
2.43996
21
-5.4528
0
LINE
8
BLACK
6
CONTINUOUS
10
2.43996
20
-5.4528
11
2.43998
21
-5.45289
0
LINE
8
BLACK
6
CONTINUOUS
10
2.43998
20
-5.45289
11
2.44192
21
-5.472
0
LINE
8
BLACK
6
CONTINUOUS
10
2.44192
20
-5.472
11
2.44192
21
-5.47201
0
LINE
8
BLACK
6
CONTINUOUS
10
2.44192
20
-5.47201
11
2.44192
21
-5.47205
0
LINE
8
BLACK
6
CONTINUOUS
10
2.44192
20
-5.47205
11
2.44193
21
-5.4721
0
LINE
8
BLACK
6
CONTINUOUS
10
2.44193
20
-5.4721
11
2.44193
21
-5.47239
0
LINE
8
BLACK
6
CONTINUOUS
10
2.44193
20
-5.47239
11
2.44193
21
-5.47239
0
LINE
8
BLACK
6
CONTINUOUS
10
2.44193
20
-5.47239
11
2.44193
21
-6.29926
0
LINE
8
BLACK
6
CONTINUOUS
10
2.44193
20
-6.29926
11
2.44192
21
-6.29931
0
LINE
8
BLACK
6
CONTINUOUS
10
2.44192
20
-6.29931
11
2.44192
21
-6.29931
0
LINE
8
BLACK
6
CONTINUOUS
10
2.44192
20
-6.29931
11
2.44117
21
-6.30696
0
LINE
8
BLACK
6
CONTINUOUS
10
2.44117
20
-6.30696
11
2.44117
21
-6.30697
0
LINE
8
BLACK
6
CONTINUOUS
10
2.44117
20
-6.30697
11
2.44115
21
-6.30706
0
LINE
8
BLACK
6
CONTINUOUS
10
2.44115
20
-6.30706
11
2.44114
21
-6.30714
0
LINE
8
BLACK
6
CONTINUOUS
10
2.44114
20
-6.30714
11
2.43892
21
-6.3145
0
LINE
8
BLACK
6
CONTINUOUS
10
2.43892
20
-6.3145
11
2.43891
21
-6.31451
0
LINE
8
BLACK
6
CONTINUOUS
10
2.43891
20
-6.31451
11
2.43888
21
-6.3146
0
LINE
8
BLACK
6
CONTINUOUS
10
2.43888
20
-6.3146
11
2.43884
21
-6.31468
0
LINE
8
BLACK
6
CONTINUOUS
10
2.43884
20
-6.31468
11
2.43524
21
-6.32146
0
LINE
8
BLACK
6
CONTINUOUS
10
2.43524
20
-6.32146
11
2.43523
21
-6.32147
0
LINE
8
BLACK
6
CONTINUOUS
10
2.43523
20
-6.32147
11
2.43518
21
-6.32155
0
LINE
8
BLACK
6
CONTINUOUS
10
2.43518
20
-6.32155
11
2.43513
21
-6.32162
0
LINE
8
BLACK
6
CONTINUOUS
10
2.43513
20
-6.32162
11
2.43027
21
-6.32758
0
LINE
8
BLACK
6
CONTINUOUS
10
2.43027
20
-6.32758
11
2.43026
21
-6.32759
0
LINE
8
BLACK
6
CONTINUOUS
10
2.43026
20
-6.32759
11
2.4302
21
-6.32765
0
LINE
8
BLACK
6
CONTINUOUS
10
2.4302
20
-6.32765
11
2.43014
21
-6.32771
0
LINE
8
BLACK
6
CONTINUOUS
10
2.43014
20
-6.32771
11
2.42422
21
-6.33261
0
LINE
8
BLACK
6
CONTINUOUS
10
2.42422
20
-6.33261
11
2.42421
21
-6.33262
0
LINE
8
BLACK
6
CONTINUOUS
10
2.42421
20
-6.33262
11
2.42413
21
-6.33267
0
LINE
8
BLACK
6
CONTINUOUS
10
2.42413
20
-6.33267
11
2.42406
21
-6.33272
0
LINE
8
BLACK
6
CONTINUOUS
10
2.42406
20
-6.33272
11
2.4173
21
-6.33637
0
LINE
8
BLACK
6
CONTINUOUS
10
2.4173
20
-6.33637
11
2.41729
21
-6.33638
0
LINE
8
BLACK
6
CONTINUOUS
10
2.41729
20
-6.33638
11
2.4172
21
-6.33641
0
LINE
8
BLACK
6
CONTINUOUS
10
2.4172
20
-6.33641
11
2.41712
21
-6.33645
0
LINE
8
BLACK
6
CONTINUOUS
10
2.41712
20
-6.33645
11
2.40978
21
-6.33872
0
LINE
8
BLACK
6
CONTINUOUS
10
2.40978
20
-6.33872
11
2.40977
21
-6.33872
0
LINE
8
BLACK
6
CONTINUOUS
10
2.40977
20
-6.33872
11
2.40968
21
-6.33874
0
LINE
8
BLACK
6
CONTINUOUS
10
2.40968
20
-6.33874
11
2.40959
21
-6.33876
0
LINE
8
BLACK
6
CONTINUOUS
10
2.40959
20
-6.33876
11
2.40195
21
-6.33956
0
LINE
8
BLACK
6
CONTINUOUS
10
2.40195
20
-6.33956
11
2.40194
21
-6.33956
0
LINE
8
BLACK
6
CONTINUOUS
10
2.40194
20
-6.33956
11
2.4019
21
-6.33956
0
LINE
8
BLACK
6
CONTINUOUS
10
2.4019
20
-6.33956
11
2.40185
21
-6.33957
0
LINE
8
BLACK
6
CONTINUOUS
10
2.40185
20
-6.33957
11
2.40162
21
-6.33957
0
LINE
8
BLACK
6
CONTINUOUS
10
2.40162
20
-6.33957
11
2.40162
21
-6.33957
0
LINE
8
BLACK
6
CONTINUOUS
10
2.40162
20
-6.33957
11
2.06693
21
-6.33957
0
LINE
8
BLACK
6
CONTINUOUS
10
2.06693
20
-6.33957
11
2.06684
21
-6.33957
0
LINE
8
BLACK
6
CONTINUOUS
10
2.06684
20
-6.33957
11
2.06317
21
-6.33995
0
LINE
8
BLACK
6
CONTINUOUS
10
2.06317
20
-6.33995
11
2.05968
21
-6.34103
0
LINE
8
BLACK
6
CONTINUOUS
10
2.05968
20
-6.34103
11
2.05647
21
-6.34277
0
LINE
8
BLACK
6
CONTINUOUS
10
2.05647
20
-6.34277
11
2.05366
21
-6.34509
0
LINE
8
BLACK
6
CONTINUOUS
10
2.05366
20
-6.34509
11
2.05136
21
-6.34792
0
LINE
8
BLACK
6
CONTINUOUS
10
2.05136
20
-6.34792
11
2.04964
21
-6.35114
0
LINE
8
BLACK
6
CONTINUOUS
10
2.04964
20
-6.35114
11
2.04859
21
-6.35464
0
LINE
8
BLACK
6
CONTINUOUS
10
2.04859
20
-6.35464
11
2.04823
21
-6.35832
0
LINE
8
BLACK
6
CONTINUOUS
10
2.04823
20
-6.35832
11
2.04823
21
-6.98819
0
LINE
8
BLACK
6
CONTINUOUS
10
2.04823
20
-6.98819
11
2.04823
21
-6.98827
0
LINE
8
BLACK
6
CONTINUOUS
10
2.04823
20
-6.98827
11
2.04861
21
-6.99195
0
LINE
8
BLACK
6
CONTINUOUS
10
2.04861
20
-6.99195
11
2.04969
21
-6.99543
0
LINE
8
BLACK
6
CONTINUOUS
10
2.04969
20
-6.99543
11
2.05143
21
-6.99864
0
LINE
8
BLACK
6
CONTINUOUS
10
2.05143
20
-6.99864
11
2.05376
21
-7.00146
0
LINE
8
BLACK
6
CONTINUOUS
10
2.05376
20
-7.00146
11
2.05658
21
-7.00376
0
LINE
8
BLACK
6
CONTINUOUS
10
2.05658
20
-7.00376
11
2.0598
21
-7.00547
0
LINE
8
BLACK
6
CONTINUOUS
10
2.0598
20
-7.00547
11
2.0633
21
-7.00653
0
LINE
8
BLACK
6
CONTINUOUS
10
2.0633
20
-7.00653
11
2.06698
21
-7.00689
0
LINE
8
BLACK
6
CONTINUOUS
10
2.06698
20
-7.00689
11
2.40162
21
-7.00689
0
LINE
8
BLACK
6
CONTINUOUS
10
2.40162
20
-7.00689
11
2.40167
21
-7.00689
0
LINE
8
BLACK
6
CONTINUOUS
10
2.40167
20
-7.00689
11
2.40167
21
-7.00689
0
LINE
8
BLACK
6
CONTINUOUS
10
2.40167
20
-7.00689
11
2.40932
21
-7.00764
0
LINE
8
BLACK
6
CONTINUOUS
10
2.40932
20
-7.00764
11
2.40933
21
-7.00765
0
LINE
8
BLACK
6
CONTINUOUS
10
2.40933
20
-7.00765
11
2.40942
21
-7.00766
0
LINE
8
BLACK
6
CONTINUOUS
10
2.40942
20
-7.00766
11
2.40951
21
-7.00768
0
LINE
8
BLACK
6
CONTINUOUS
10
2.40951
20
-7.00768
11
2.41686
21
-7.0099
0
LINE
8
BLACK
6
CONTINUOUS
10
2.41686
20
-7.0099
11
2.41688
21
-7.00991
0
LINE
8
BLACK
6
CONTINUOUS
10
2.41688
20
-7.00991
11
2.41696
21
-7.00994
0
LINE
8
BLACK
6
CONTINUOUS
10
2.41696
20
-7.00994
11
2.41704
21
-7.00998
0
LINE
8
BLACK
6
CONTINUOUS
10
2.41704
20
-7.00998
11
2.42382
21
-7.01358
0
LINE
8
BLACK
6
CONTINUOUS
10
2.42382
20
-7.01358
11
2.42384
21
-7.01359
0
LINE
8
BLACK
6
CONTINUOUS
10
2.42384
20
-7.01359
11
2.42391
21
-7.01364
0
LINE
8
BLACK
6
CONTINUOUS
10
2.42391
20
-7.01364
11
2.42398
21
-7.01369
0
LINE
8
BLACK
6
CONTINUOUS
10
2.42398
20
-7.01369
11
2.42994
21
-7.01855
0
LINE
8
BLACK
6
CONTINUOUS
10
2.42994
20
-7.01855
11
2.42995
21
-7.01855
0
LINE
8
BLACK
6
CONTINUOUS
10
2.42995
20
-7.01855
11
2.43001
21
-7.01862
0
LINE
8
BLACK
6
CONTINUOUS
10
2.43001
20
-7.01862
11
2.43007
21
-7.01868
0
LINE
8
BLACK
6
CONTINUOUS
10
2.43007
20
-7.01868
11
2.43497
21
-7.0246
0
LINE
8
BLACK
6
CONTINUOUS
10
2.43497
20
-7.0246
11
2.43498
21
-7.02461
0
LINE
8
BLACK
6
CONTINUOUS
10
2.43498
20
-7.02461
11
2.43503
21
-7.02469
0
LINE
8
BLACK
6
CONTINUOUS
10
2.43503
20
-7.02469
11
2.43508
21
-7.02476
0
LINE
8
BLACK
6
CONTINUOUS
10
2.43508
20
-7.02476
11
2.43873
21
-7.03152
0
LINE
8
BLACK
6
CONTINUOUS
10
2.43873
20
-7.03152
11
2.43874
21
-7.03153
0
LINE
8
BLACK
6
CONTINUOUS
10
2.43874
20
-7.03153
11
2.43877
21
-7.03161
0
LINE
8
BLACK
6
CONTINUOUS
10
2.43877
20
-7.03161
11
2.43881
21
-7.0317
0
LINE
8
BLACK
6
CONTINUOUS
10
2.43881
20
-7.0317
11
2.44108
21
-7.03904
0
LINE
8
BLACK
6
CONTINUOUS
10
2.44108
20
-7.03904
11
2.44108
21
-7.03905
0
LINE
8
BLACK
6
CONTINUOUS
10
2.44108
20
-7.03905
11
2.4411
21
-7.03914
0
LINE
8
BLACK
6
CONTINUOUS
10
2.4411
20
-7.03914
11
2.44112
21
-7.03922
0
LINE
8
BLACK
6
CONTINUOUS
10
2.44112
20
-7.03922
11
2.44192
21
-7.04687
0
LINE
8
BLACK
6
CONTINUOUS
10
2.44192
20
-7.04687
11
2.44192
21
-7.04688
0
LINE
8
BLACK
6
CONTINUOUS
10
2.44192
20
-7.04688
11
2.44192
21
-7.04692
0
LINE
8
BLACK
6
CONTINUOUS
10
2.44192
20
-7.04692
11
2.44193
21
-7.04697
0
LINE
8
BLACK
6
CONTINUOUS
10
2.44193
20
-7.04697
11
2.44193
21
-7.04719
0
LINE
8
BLACK
6
CONTINUOUS
10
2.44193
20
-7.04719
11
2.44193
21
-7.0472
0
LINE
8
BLACK
6
CONTINUOUS
10
2.44193
20
-7.0472
11
2.44193
21
-7.75595
0
LINE
8
BLACK
6
CONTINUOUS
10
2.44193
20
-7.75595
11
2.44192
21
-7.756
0
LINE
8
BLACK
6
CONTINUOUS
10
2.44192
20
-7.756
11
2.44192
21
-7.756
0
LINE
8
BLACK
6
CONTINUOUS
10
2.44192
20
-7.756
11
2.44117
21
-7.76365
0
LINE
8
BLACK
6
CONTINUOUS
10
2.44117
20
-7.76365
11
2.44117
21
-7.76366
0
LINE
8
BLACK
6
CONTINUOUS
10
2.44117
20
-7.76366
11
2.44115
21
-7.76375
0
LINE
8
BLACK
6
CONTINUOUS
10
2.44115
20
-7.76375
11
2.44114
21
-7.76384
0
LINE
8
BLACK
6
CONTINUOUS
10
2.44114
20
-7.76384
11
2.43892
21
-7.77119
0
LINE
8
BLACK
6
CONTINUOUS
10
2.43892
20
-7.77119
11
2.43891
21
-7.77121
0
LINE
8
BLACK
6
CONTINUOUS
10
2.43891
20
-7.77121
11
2.43888
21
-7.77129
0
LINE
8
BLACK
6
CONTINUOUS
10
2.43888
20
-7.77129
11
2.43884
21
-7.77137
0
LINE
8
BLACK
6
CONTINUOUS
10
2.43884
20
-7.77137
11
2.43524
21
-7.77815
0
LINE
8
BLACK
6
CONTINUOUS
10
2.43524
20
-7.77815
11
2.43523
21
-7.77817
0
LINE
8
BLACK
6
CONTINUOUS
10
2.43523
20
-7.77817
11
2.43518
21
-7.77824
0
LINE
8
BLACK
6
CONTINUOUS
10
2.43518
20
-7.77824
11
2.43513
21
-7.77831
0
LINE
8
BLACK
6
CONTINUOUS
10
2.43513
20
-7.77831
11
2.43027
21
-7.78427
0
LINE
8
BLACK
6
CONTINUOUS
10
2.43027
20
-7.78427
11
2.43026
21
-7.78428
0
LINE
8
BLACK
6
CONTINUOUS
10
2.43026
20
-7.78428
11
2.4302
21
-7.78434
0
LINE
8
BLACK
6
CONTINUOUS
10
2.4302
20
-7.78434
11
2.43014
21
-7.78441
0
LINE
8
BLACK
6
CONTINUOUS
10
2.43014
20
-7.78441
11
2.42422
21
-7.7893
0
LINE
8
BLACK
6
CONTINUOUS
10
2.42422
20
-7.7893
11
2.42421
21
-7.78931
0
LINE
8
BLACK
6
CONTINUOUS
10
2.42421
20
-7.78931
11
2.42413
21
-7.78936
0
LINE
8
BLACK
6
CONTINUOUS
10
2.42413
20
-7.78936
11
2.42406
21
-7.78941
0
LINE
8
BLACK
6
CONTINUOUS
10
2.42406
20
-7.78941
11
2.4173
21
-7.79307
0
LINE
8
BLACK
6
CONTINUOUS
10
2.4173
20
-7.79307
11
2.41729
21
-7.79307
0
LINE
8
BLACK
6
CONTINUOUS
10
2.41729
20
-7.79307
11
2.4172
21
-7.7931
0
LINE
8
BLACK
6
CONTINUOUS
10
2.4172
20
-7.7931
11
2.41712
21
-7.79314
0
LINE
8
BLACK
6
CONTINUOUS
10
2.41712
20
-7.79314
11
2.40978
21
-7.79541
0
LINE
8
BLACK
6
CONTINUOUS
10
2.40978
20
-7.79541
11
2.40977
21
-7.79542
0
LINE
8
BLACK
6
CONTINUOUS
10
2.40977
20
-7.79542
11
2.40968
21
-7.79543
0
LINE
8
BLACK
6
CONTINUOUS
10
2.40968
20
-7.79543
11
2.40959
21
-7.79545
0
LINE
8
BLACK
6
CONTINUOUS
10
2.40959
20
-7.79545
11
2.40195
21
-7.79625
0
LINE
8
BLACK
6
CONTINUOUS
10
2.40195
20
-7.79625
11
2.40194
21
-7.79625
0
LINE
8
BLACK
6
CONTINUOUS
10
2.40194
20
-7.79625
11
2.4019
21
-7.79625
0
LINE
8
BLACK
6
CONTINUOUS
10
2.4019
20
-7.79625
11
2.40185
21
-7.79626
0
LINE
8
BLACK
6
CONTINUOUS
10
2.40185
20
-7.79626
11
2.40162
21
-7.79626
0
LINE
8
BLACK
6
CONTINUOUS
10
2.40162
20
-7.79626
11
2.40162
21
-7.79626
0
LINE
8
BLACK
6
CONTINUOUS
10
2.40162
20
-7.79626
11
0.511763
21
-7.79626
0
LINE
8
BLACK
6
CONTINUOUS
10
0.511763
20
-7.79626
11
0.511716
21
-7.79626
0
LINE
8
BLACK
6
CONTINUOUS
10
0.511716
20
-7.79626
11
0.511715
21
-7.79626
0
LINE
8
BLACK
6
CONTINUOUS
10
0.511715
20
-7.79626
11
0.504068
21
-7.79551
0
LINE
8
BLACK
6
CONTINUOUS
10
0.504068
20
-7.79551
11
0.504054
21
-7.7955
0
LINE
8
BLACK
6
CONTINUOUS
10
0.504054
20
-7.7955
11
0.503966
21
-7.79549
0
LINE
8
BLACK
6
CONTINUOUS
10
0.503966
20
-7.79549
11
0.50388
21
-7.79547
0
LINE
8
BLACK
6
CONTINUOUS
10
0.50388
20
-7.79547
11
0.496524
21
-7.79325
0
LINE
8
BLACK
6
CONTINUOUS
10
0.496524
20
-7.79325
11
0.496511
21
-7.79324
0
LINE
8
BLACK
6
CONTINUOUS
10
0.496511
20
-7.79324
11
0.496428
21
-7.79321
0
LINE
8
BLACK
6
CONTINUOUS
10
0.496428
20
-7.79321
11
0.496346
21
-7.79317
0
LINE
8
BLACK
6
CONTINUOUS
10
0.496346
20
-7.79317
11
0.489562
21
-7.78957
0
LINE
8
BLACK
6
CONTINUOUS
10
0.489562
20
-7.78957
11
0.48955
21
-7.78956
0
LINE
8
BLACK
6
CONTINUOUS
10
0.48955
20
-7.78956
11
0.489477
21
-7.78951
0
LINE
8
BLACK
6
CONTINUOUS
10
0.489477
20
-7.78951
11
0.489402
21
-7.78946
0
LINE
8
BLACK
6
CONTINUOUS
10
0.489402
20
-7.78946
11
0.483447
21
-7.7846
0
LINE
8
BLACK
6
CONTINUOUS
10
0.483447
20
-7.7846
11
0.483437
21
-7.7846
0
LINE
8
BLACK
6
CONTINUOUS
10
0.483437
20
-7.7846
11
0.483374
21
-7.78453
0
LINE
8
BLACK
6
CONTINUOUS
10
0.483374
20
-7.78453
11
0.483311
21
-7.78447
0
LINE
8
BLACK
6
CONTINUOUS
10
0.483311
20
-7.78447
11
0.478413
21
-7.77855
0
LINE
8
BLACK
6
CONTINUOUS
10
0.478413
20
-7.77855
11
0.478405
21
-7.77854
0
LINE
8
BLACK
6
CONTINUOUS
10
0.478405
20
-7.77854
11
0.478356
21
-7.77846
0
LINE
8
BLACK
6
CONTINUOUS
10
0.478356
20
-7.77846
11
0.478306
21
-7.77839
0
LINE
8
BLACK
6
CONTINUOUS
10
0.478306
20
-7.77839
11
0.474651
21
-7.77163
0
LINE
8
BLACK
6
CONTINUOUS
10
0.474651
20
-7.77163
11
0.474645
21
-7.77162
0
LINE
8
BLACK
6
CONTINUOUS
10
0.474645
20
-7.77162
11
0.474612
21
-7.77154
0
LINE
8
BLACK
6
CONTINUOUS
10
0.474612
20
-7.77154
11
0.474577
21
-7.77145
0
LINE
8
BLACK
6
CONTINUOUS
10
0.474577
20
-7.77145
11
0.472305
21
-7.76411
0
LINE
8
BLACK
6
CONTINUOUS
10
0.472305
20
-7.76411
11
0.472301
21
-7.7641
0
LINE
8
BLACK
6
CONTINUOUS
10
0.472301
20
-7.7641
11
0.472284
21
-7.76401
0
LINE
8
BLACK
6
CONTINUOUS
10
0.472284
20
-7.76401
11
0.472266
21
-7.76392
0
LINE
8
BLACK
6
CONTINUOUS
10
0.472266
20
-7.76392
11
0.471463
21
-7.75628
0
LINE
8
BLACK
6
CONTINUOUS
10
0.471463
20
-7.75628
11
0.471462
21
-7.75627
0
LINE
8
BLACK
6
CONTINUOUS
10
0.471462
20
-7.75627
11
0.471462
21
-7.75623
0
LINE
8
BLACK
6
CONTINUOUS
10
0.471462
20
-7.75623
11
0.471458
21
-7.75618
0
LINE
8
BLACK
6
CONTINUOUS
10
0.471458
20
-7.75618
11
0.471457
21
-7.75596
0
LINE
8
BLACK
6
CONTINUOUS
10
0.471457
20
-7.75596
11
0.471457
21
-7.75595
0
LINE
8
BLACK
6
CONTINUOUS
10
0.471457
20
-7.75595
11
0.471457
21
-7.20468
0
LINE
8
BLACK
6
CONTINUOUS
10
0.471457
20
-7.20468
11
0.471457
21
-7.0472
0
LINE
8
BLACK
6
CONTINUOUS
10
0.471457
20
-7.0472
11
0.471461
21
-7.04715
0
LINE
8
BLACK
6
CONTINUOUS
10
0.471461
20
-7.04715
11
0.471461
21
-7.04715
0
LINE
8
BLACK
6
CONTINUOUS
10
0.471461
20
-7.04715
11
0.472211
21
-7.0395
0
LINE
8
BLACK
6
CONTINUOUS
10
0.472211
20
-7.0395
11
0.472213
21
-7.03949
0
LINE
8
BLACK
6
CONTINUOUS
10
0.472213
20
-7.03949
11
0.472231
21
-7.0394
0
LINE
8
BLACK
6
CONTINUOUS
10
0.472231
20
-7.0394
11
0.472249
21
-7.03931
0
LINE
8
BLACK
6
CONTINUOUS
10
0.472249
20
-7.03931
11
0.474469
21
-7.03196
0
LINE
8
BLACK
6
CONTINUOUS
10
0.474469
20
-7.03196
11
0.474473
21
-7.03194
0
LINE
8
BLACK
6
CONTINUOUS
10
0.474473
20
-7.03194
11
0.474509
21
-7.03186
0
LINE
8
BLACK
6
CONTINUOUS
10
0.474509
20
-7.03186
11
0.474543
21
-7.03178
0
LINE
8
BLACK
6
CONTINUOUS
10
0.474543
20
-7.03178
11
0.47815
21
-7.02499
0
LINE
8
BLACK
6
CONTINUOUS
10
0.47815
20
-7.02499
11
0.478156
21
-7.02498
0
LINE
8
BLACK
6
CONTINUOUS
10
0.478156
20
-7.02498
11
0.478206
21
-7.02491
0
LINE
8
BLACK
6
CONTINUOUS
10
0.478206
20
-7.02491
11
0.478256
21
-7.02483
0
LINE
8
BLACK
6
CONTINUOUS
10
0.478256
20
-7.02483
11
0.483112
21
-7.01888
0
LINE
8
BLACK
6
CONTINUOUS
10
0.483112
20
-7.01888
11
0.483121
21
-7.01887
0
LINE
8
BLACK
6
CONTINUOUS
10
0.483121
20
-7.01887
11
0.483184
21
-7.01881
0
LINE
8
BLACK
6
CONTINUOUS
10
0.483184
20
-7.01881
11
0.483248
21
-7.01874
0
LINE
8
BLACK
6
CONTINUOUS
10
0.483248
20
-7.01874
11
0.489168
21
-7.01385
0
LINE
8
BLACK
6
CONTINUOUS
10
0.489168
20
-7.01385
11
0.489179
21
-7.01384
0
LINE
8
BLACK
6
CONTINUOUS
10
0.489179
20
-7.01384
11
0.489254
21
-7.01379
0
LINE
8
BLACK
6
CONTINUOUS
10
0.489254
20
-7.01379
11
0.489327
21
-7.01374
0
LINE
8
BLACK
6
CONTINUOUS
10
0.489327
20
-7.01374
11
0.496086
21
-7.01008
0
LINE
8
BLACK
6
CONTINUOUS
10
0.496086
20
-7.01008
11
0.496098
21
-7.01008
0
LINE
8
BLACK
6
CONTINUOUS
10
0.496098
20
-7.01008
11
0.496182
21
-7.01004
0
LINE
8
BLACK
6
CONTINUOUS
10
0.496182
20
-7.01004
11
0.496263
21
-7.01001
0
LINE
8
BLACK
6
CONTINUOUS
10
0.496263
20
-7.01001
11
0.503604
21
-7.00774
0
LINE
8
BLACK
6
CONTINUOUS
10
0.503604
20
-7.00774
11
0.503617
21
-7.00773
0
LINE
8
BLACK
6
CONTINUOUS
10
0.503617
20
-7.00773
11
0.503705
21
-7.00772
0
LINE
8
BLACK
6
CONTINUOUS
10
0.503705
20
-7.00772
11
0.503792
21
-7.0077
0
LINE
8
BLACK
6
CONTINUOUS
10
0.503792
20
-7.0077
11
0.511433
21
-7.0069
0
LINE
8
BLACK
6
CONTINUOUS
10
0.511433
20
-7.0069
11
0.511447
21
-7.00689
0
LINE
8
BLACK
6
CONTINUOUS
10
0.511447
20
-7.00689
11
0.51149
21
-7.0069
0
LINE
8
BLACK
6
CONTINUOUS
10
0.51149
20
-7.0069
11
0.511533
21
-7.00689
0
LINE
8
BLACK
6
CONTINUOUS
10
0.511533
20
-7.00689
11
0.511761
21
-7.00689
0
LINE
8
BLACK
6
CONTINUOUS
10
0.511761
20
-7.00689
11
0.511763
21
-7.00689
0
LINE
8
BLACK
6
CONTINUOUS
10
0.511763
20
-7.00689
11
0.846453
21
-7.00689
0
LINE
8
BLACK
6
CONTINUOUS
10
0.846453
20
-7.00689
11
0.846541
21
-7.00689
0
LINE
8
BLACK
6
CONTINUOUS
10
0.846541
20
-7.00689
11
0.850216
21
-7.0065
0
LINE
8
BLACK
6
CONTINUOUS
10
0.850216
20
-7.0065
11
0.853702
21
-7.00542
0
LINE
8
BLACK
6
CONTINUOUS
10
0.853702
20
-7.00542
11
0.856911
21
-7.00369
0
LINE
8
BLACK
6
CONTINUOUS
10
0.856911
20
-7.00369
11
0.859723
21
-7.00136
0
LINE
8
BLACK
6
CONTINUOUS
10
0.859723
20
-7.00136
11
0.862029
21
-6.99854
0
LINE
8
BLACK
6
CONTINUOUS
10
0.862029
20
-6.99854
11
0.863742
21
-6.99531
0
LINE
8
BLACK
6
CONTINUOUS
10
0.863742
20
-6.99531
11
0.864797
21
-6.99182
0
LINE
8
BLACK
6
CONTINUOUS
10
0.864797
20
-6.99182
11
0.865157
21
-6.98814
0
LINE
8
BLACK
6
CONTINUOUS
10
0.865157
20
-6.98814
11
0.865158
21
-6.35827
0
LINE
8
BLACK
6
CONTINUOUS
10
0.865158
20
-6.35827
11
0.865157
21
-6.35827
0
LINE
8
BLACK
6
CONTINUOUS
10
0.865157
20
-6.35827
11
0.865157
21
-6.35818
0
LINE
8
BLACK
6
CONTINUOUS
10
0.865157
20
-6.35818
11
0.864771
21
-6.35451
0
LINE
8
BLACK
6
CONTINUOUS
10
0.864771
20
-6.35451
11
0.863692
21
-6.35102
0
LINE
8
BLACK
6
CONTINUOUS
10
0.863692
20
-6.35102
11
0.861956
21
-6.34781
0
LINE
8
BLACK
6
CONTINUOUS
10
0.861956
20
-6.34781
11
0.85963
21
-6.345
0
LINE
8
BLACK
6
CONTINUOUS
10
0.85963
20
-6.345
11
0.856803
21
-6.3427
0
LINE
8
BLACK
6
CONTINUOUS
10
0.856803
20
-6.3427
11
0.853581
21
-6.34098
0
LINE
8
BLACK
6
CONTINUOUS
10
0.853581
20
-6.34098
11
0.850088
21
-6.33993
0
LINE
8
BLACK
6
CONTINUOUS
10
0.850088
20
-6.33993
11
0.846408
21
-6.33957
0
LINE
8
BLACK
6
CONTINUOUS
10
0.846408
20
-6.33957
11
0.511763
21
-6.33957
0
LINE
8
BLACK
6
CONTINUOUS
10
0.511763
20
-6.33957
11
0.511716
21
-6.33956
0
LINE
8
BLACK
6
CONTINUOUS
10
0.511716
20
-6.33956
11
0.511715
21
-6.33956
0
LINE
8
BLACK
6
CONTINUOUS
10
0.511715
20
-6.33956
11
0.504068
21
-6.33881
0
LINE
8
BLACK
6
CONTINUOUS
10
0.504068
20
-6.33881
11
0.504054
21
-6.33881
0
LINE
8
BLACK
6
CONTINUOUS
10
0.504054
20
-6.33881
11
0.503966
21
-6.33879
0
LINE
8
BLACK
6
CONTINUOUS
10
0.503966
20
-6.33879
11
0.50388
21
-6.33878
0
LINE
8
BLACK
6
CONTINUOUS
10
0.50388
20
-6.33878
11
0.496524
21
-6.33655
0
LINE
8
BLACK
6
CONTINUOUS
10
0.496524
20
-6.33655
11
0.496511
21
-6.33655
0
LINE
8
BLACK
6
CONTINUOUS
10
0.496511
20
-6.33655
11
0.496428
21
-6.33651
0
LINE
8
BLACK
6
CONTINUOUS
10
0.496428
20
-6.33651
11
0.496346
21
-6.33648
0
LINE
8
BLACK
6
CONTINUOUS
10
0.496346
20
-6.33648
11
0.489562
21
-6.33287
0
LINE
8
BLACK
6
CONTINUOUS
10
0.489562
20
-6.33287
11
0.48955
21
-6.33287
0
LINE
8
BLACK
6
CONTINUOUS
10
0.48955
20
-6.33287
11
0.489477
21
-6.33282
0
LINE
8
BLACK
6
CONTINUOUS
10
0.489477
20
-6.33282
11
0.489402
21
-6.33277
0
LINE
8
BLACK
6
CONTINUOUS
10
0.489402
20
-6.33277
11
0.483447
21
-6.32791
0
LINE
8
BLACK
6
CONTINUOUS
10
0.483447
20
-6.32791
11
0.483437
21
-6.3279
0
LINE
8
BLACK
6
CONTINUOUS
10
0.483437
20
-6.3279
11
0.483374
21
-6.32784
0
LINE
8
BLACK
6
CONTINUOUS
10
0.483374
20
-6.32784
11
0.483311
21
-6.32778
0
LINE
8
BLACK
6
CONTINUOUS
10
0.483311
20
-6.32778
11
0.478413
21
-6.32186
0
LINE
8
BLACK
6
CONTINUOUS
10
0.478413
20
-6.32186
11
0.478405
21
-6.32184
0
LINE
8
BLACK
6
CONTINUOUS
10
0.478405
20
-6.32184
11
0.478356
21
-6.32177
0
LINE
8
BLACK
6
CONTINUOUS
10
0.478356
20
-6.32177
11
0.478306
21
-6.3217
0
LINE
8
BLACK
6
CONTINUOUS
10
0.478306
20
-6.3217
11
0.474651
21
-6.31494
0
LINE
8
BLACK
6
CONTINUOUS
10
0.474651
20
-6.31494
11
0.474645
21
-6.31493
0
LINE
8
BLACK
6
CONTINUOUS
10
0.474645
20
-6.31493
11
0.474612
21
-6.31484
0
LINE
8
BLACK
6
CONTINUOUS
10
0.474612
20
-6.31484
11
0.474577
21
-6.31476
0
LINE
8
BLACK
6
CONTINUOUS
10
0.474577
20
-6.31476
11
0.472305
21
-6.30742
0
LINE
8
BLACK
6
CONTINUOUS
10
0.472305
20
-6.30742
11
0.472301
21
-6.30741
0
LINE
8
BLACK
6
CONTINUOUS
10
0.472301
20
-6.30741
11
0.472284
21
-6.30732
0
LINE
8
BLACK
6
CONTINUOUS
10
0.472284
20
-6.30732
11
0.472266
21
-6.30723
0
LINE
8
BLACK
6
CONTINUOUS
10
0.472266
20
-6.30723
11
0.471463
21
-6.29959
0
LINE
8
BLACK
6
CONTINUOUS
10
0.471463
20
-6.29959
11
0.471462
21
-6.29958
0
LINE
8
BLACK
6
CONTINUOUS
10
0.471462
20
-6.29958
11
0.471462
21
-6.29953
0
LINE
8
BLACK
6
CONTINUOUS
10
0.471462
20
-6.29953
11
0.471458
21
-6.29949
0
LINE
8
BLACK
6
CONTINUOUS
10
0.471458
20
-6.29949
11
0.471457
21
-6.29926
0
LINE
8
BLACK
6
CONTINUOUS
10
0.471457
20
-6.29926
11
0.471457
21
-6.29926
0
LINE
8
BLACK
6
CONTINUOUS
10
0.471457
20
-6.29926
11
0.471457
21
-6.29923
0
LINE
8
BLACK
6
CONTINUOUS
10
0.471457
20
-6.29923
11
0.471457
21
-6.29922
0
LINE
8
BLACK
6
CONTINUOUS
10
0.471457
20
-6.29922
11
0.471457
21
-6.2992
0
LINE
8
BLACK
6
CONTINUOUS
10
0.471457
20
-6.2992
11
0.471457
21
-6.22052
0
LINE
8
BLACK
6
CONTINUOUS
10
0.471457
20
-6.22052
11
0.471457
21
-6.22052
0
LINE
8
BLACK
6
CONTINUOUS
10
0.471457
20
-6.22052
11
0.471457
21
-6.22049
0
LINE
8
BLACK
6
CONTINUOUS
10
0.471457
20
-6.22049
11
0.471457
21
-6.22042
0
LINE
8
BLACK
6
CONTINUOUS
10
0.471457
20
-6.22042
11
0.471457
21
-6.22042
0
LINE
8
BLACK
6
CONTINUOUS
10
0.471457
20
-6.22042
11
0.472446
21
-5.47239
0
LINE
8
BLACK
6
CONTINUOUS
10
0.472446
20
-5.47239
11
0.472451
21
-5.47235
0
LINE
8
BLACK
6
CONTINUOUS
10
0.472451
20
-5.47235
11
0.472451
21
-5.47234
0
LINE
8
BLACK
6
CONTINUOUS
10
0.472451
20
-5.47234
11
0.474306
21
-5.45342
0
LINE
8
BLACK
6
CONTINUOUS
10
0.474306
20
-5.45342
11
0.474308
21
-5.45341
0
LINE
8
BLACK
6
CONTINUOUS
10
0.474308
20
-5.45341
11
0.474326
21
-5.45332
0
LINE
8
BLACK
6
CONTINUOUS
10
0.474326
20
-5.45332
11
0.474344
21
-5.45323
0
LINE
8
BLACK
6
CONTINUOUS
10
0.474344
20
-5.45323
11
0.47984
21
-5.43503
0
LINE
8
BLACK
6
CONTINUOUS
10
0.47984
20
-5.43503
11
0.479844
21
-5.43501
0
LINE
8
BLACK
6
CONTINUOUS
10
0.479844
20
-5.43501
11
0.479879
21
-5.43493
0
LINE
8
BLACK
6
CONTINUOUS
10
0.479879
20
-5.43493
11
0.479913
21
-5.43485
0
LINE
8
BLACK
6
CONTINUOUS
10
0.479913
20
-5.43485
11
0.488841
21
-5.41806
0
LINE
8
BLACK
6
CONTINUOUS
10
0.488841
20
-5.41806
11
0.488847
21
-5.41805
0
LINE
8
BLACK
6
CONTINUOUS
10
0.488847
20
-5.41805
11
0.488897
21
-5.41797
0
LINE
8
BLACK
6
CONTINUOUS
10
0.488897
20
-5.41797
11
0.488947
21
-5.4179
0
LINE
8
BLACK
6
CONTINUOUS
10
0.488947
20
-5.4179
11
0.500966
21
-5.40316
0
LINE
8
BLACK
6
CONTINUOUS
10
0.500966
20
-5.40316
11
0.500974
21
-5.40315
0
LINE
8
BLACK
6
CONTINUOUS
10
0.500974
20
-5.40315
11
0.501005
21
-5.40312
0
LINE
8
BLACK
6
CONTINUOUS
10
0.501005
20
-5.40312
11
0.501031
21
-5.40309
0
LINE
8
BLACK
6
CONTINUOUS
10
0.501031
20
-5.40309
11
0.501271
21
-5.40285
0
LINE
8
BLACK
6
CONTINUOUS
10
0.501271
20
-5.40285
11
0.501274
21
-5.40285
0
LINE
8
BLACK
6
CONTINUOUS
10
0.501274
20
-5.40285
11
1.0321
21
-4.87062
0
LINE
8
BLACK
6
CONTINUOUS
10
1.0321
20
-4.87062
11
1.03214
21
-4.87059
0
LINE
8
BLACK
6
CONTINUOUS
10
1.03214
20
-4.87059
11
1.03214
21
-4.87059
0
LINE
8
BLACK
6
CONTINUOUS
10
1.03214
20
-4.87059
11
1.03216
21
-4.87057
0
LINE
8
BLACK
6
CONTINUOUS
10
1.03216
20
-4.87057
11
1.03221
21
-4.87053
0
LINE
8
BLACK
6
CONTINUOUS
10
1.03221
20
-4.87053
11
1.03221
21
-4.87053
0
LINE
8
BLACK
6
CONTINUOUS
10
1.03221
20
-4.87053
11
1.04698
21
-4.85839
0
LINE
8
BLACK
6
CONTINUOUS
10
1.04698
20
-4.85839
11
1.04699
21
-4.85839
0
LINE
8
BLACK
6
CONTINUOUS
10
1.04699
20
-4.85839
11
1.04707
21
-4.85834
0
LINE
8
BLACK
6
CONTINUOUS
10
1.04707
20
-4.85834
11
1.04714
21
-4.85829
0
LINE
8
BLACK
6
CONTINUOUS
10
1.04714
20
-4.85829
11
1.06407
21
-4.84921
0
LINE
8
BLACK
6
CONTINUOUS
10
1.06407
20
-4.84921
11
1.06408
21
-4.8492
0
LINE
8
BLACK
6
CONTINUOUS
10
1.06408
20
-4.8492
11
1.06417
21
-4.84917
0
LINE
8
BLACK
6
CONTINUOUS
10
1.06417
20
-4.84917
11
1.06425
21
-4.84914
0
LINE
8
BLACK
6
CONTINUOUS
10
1.06425
20
-4.84914
11
1.08262
21
-4.84352
0
LINE
8
BLACK
6
CONTINUOUS
10
1.08262
20
-4.84352
11
1.08263
21
-4.84352
0
LINE
8
BLACK
6
CONTINUOUS
10
1.08263
20
-4.84352
11
1.08272
21
-4.8435
0
LINE
8
BLACK
6
CONTINUOUS
10
1.08272
20
-4.8435
11
1.08281
21
-4.84348
0
LINE
8
BLACK
6
CONTINUOUS
10
1.08281
20
-4.84348
11
1.10192
21
-4.84154
0
LINE
8
BLACK
6
CONTINUOUS
10
1.10192
20
-4.84154
11
1.10193
21
-4.84154
0
LINE
8
BLACK
6
CONTINUOUS
10
1.10193
20
-4.84154
11
1.10197
21
-4.84154
0
LINE
8
BLACK
6
CONTINUOUS
10
1.10197
20
-4.84154
11
1.10202
21
-4.84154
0
LINE
8
BLACK
6
CONTINUOUS
10
1.10202
20
-4.84154
11
1.10231
21
-4.84154
0
LINE
8
BLACK
6
CONTINUOUS
10
1.10231
20
-4.84154
11
1.10231
21
-4.84154
0
LINE
8
BLACK
6
CONTINUOUS
10
1.10231
20
-4.84154
11
1.81107
21
-4.84154
0
LINE
8
BLACK
6
CONTINUOUS
10
1.81107
20
-4.84154
11
1.81112
21
-4.84154
0
LINE
8
BLACK
6
CONTINUOUS
10
1.81112
20
-4.84154
11
1.81112
21
-4.84154
0
LINE
8
BLACK
6
CONTINUOUS
10
1.81112
20
-4.84154
11
1.83024
21
-4.84341
0
LINE
8
BLACK
6
CONTINUOUS
10
1.83024
20
-4.84341
11
1.83025
21
-4.84342
0
LINE
8
BLACK
6
CONTINUOUS
10
1.83025
20
-4.84342
11
1.83034
21
-4.84343
0
LINE
8
BLACK
6
CONTINUOUS
10
1.83034
20
-4.84343
11
1.83043
21
-4.84345
0
LINE
8
BLACK
6
CONTINUOUS
10
1.83043
20
-4.84345
11
1.84881
21
-4.849
0
LINE
8
BLACK
6
CONTINUOUS
10
1.84881
20
-4.849
11
1.84882
21
-4.849
0
LINE
8
BLACK
6
CONTINUOUS
10
1.84882
20
-4.849
11
1.84883
21
-4.84901
0
LINE
8
BLACK
6
CONTINUOUS
10
0.511589
20
-7.00886
11
0.504093
21
-7.00965
0
LINE
8
BLACK
6
CONTINUOUS
10
0.504093
20
-7.00965
11
0.496938
21
-7.01186
0
LINE
8
BLACK
6
CONTINUOUS
10
0.496938
20
-7.01186
11
0.490349
21
-7.01542
0
LINE
8
BLACK
6
CONTINUOUS
10
0.490349
20
-7.01542
11
0.484577
21
-7.0202
0
LINE
8
BLACK
6
CONTINUOUS
10
0.484577
20
-7.0202
11
0.479843
21
-7.026
0
LINE
8
BLACK
6
CONTINUOUS
10
0.479843
20
-7.026
11
0.476326
21
-7.03262
0
LINE
8
BLACK
6
CONTINUOUS
10
0.476326
20
-7.03262
11
0.474161
21
-7.03979
0
LINE
8
BLACK
6
CONTINUOUS
10
0.474161
20
-7.03979
11
0.473425
21
-7.04729
0
LINE
8
BLACK
6
CONTINUOUS
10
0.473425
20
-7.04729
11
0.473425
21
-7.7559
0
LINE
8
BLACK
6
CONTINUOUS
10
0.473425
20
-7.7559
11
0.473426
21
-7.75613
0
LINE
8
BLACK
6
CONTINUOUS
10
0.473426
20
-7.75613
11
0.474214
21
-7.76362
0
LINE
8
BLACK
6
CONTINUOUS
10
0.474214
20
-7.76362
11
0.476429
21
-7.77078
0
LINE
8
BLACK
6
CONTINUOUS
10
0.476429
20
-7.77078
11
0.479992
21
-7.77737
0
LINE
8
BLACK
6
CONTINUOUS
10
0.479992
20
-7.77737
11
0.484766
21
-7.78314
0
LINE
8
BLACK
6
CONTINUOUS
10
0.484766
20
-7.78314
11
0.490571
21
-7.78787
0
LINE
8
BLACK
6
CONTINUOUS
10
0.490571
20
-7.78787
11
0.497185
21
-7.79139
0
LINE
8
BLACK
6
CONTINUOUS
10
0.497185
20
-7.79139
11
0.504356
21
-7.79356
0
LINE
8
BLACK
6
CONTINUOUS
10
0.504356
20
-7.79356
11
0.511859
21
-7.79429
0
LINE
8
BLACK
6
CONTINUOUS
10
0.511859
20
-7.79429
11
2.40157
21
-7.79429
0
LINE
8
BLACK
6
CONTINUOUS
10
2.40157
20
-7.79429
11
2.4018
21
-7.79429
0
LINE
8
BLACK
6
CONTINUOUS
10
2.4018
20
-7.79429
11
2.40929
21
-7.7935
0
LINE
8
BLACK
6
CONTINUOUS
10
2.40929
20
-7.7935
11
2.41645
21
-7.79129
0
LINE
8
BLACK
6
CONTINUOUS
10
2.41645
20
-7.79129
11
2.42304
21
-7.78772
0
LINE
8
BLACK
6
CONTINUOUS
10
2.42304
20
-7.78772
11
2.42881
21
-7.78295
0
LINE
8
BLACK
6
CONTINUOUS
10
2.42881
20
-7.78295
11
2.43354
21
-7.77715
0
LINE
8
BLACK
6
CONTINUOUS
10
2.43354
20
-7.77715
11
2.43706
21
-7.77053
0
LINE
8
BLACK
6
CONTINUOUS
10
2.43706
20
-7.77053
11
2.43922
21
-7.76336
0
LINE
8
BLACK
6
CONTINUOUS
10
2.43922
20
-7.76336
11
2.43996
21
-7.75586
0
LINE
8
BLACK
6
CONTINUOUS
10
2.43996
20
-7.75586
11
2.43996
21
-7.20468
0
LINE
8
BLACK
6
CONTINUOUS
10
2.43996
20
-7.20468
11
2.43996
21
-7.20468
0
LINE
8
BLACK
6
CONTINUOUS
10
2.43996
20
-7.20468
11
2.43996
21
-7.04725
0
LINE
8
BLACK
6
CONTINUOUS
10
2.43996
20
-7.04725
11
2.43996
21
-7.04702
0
LINE
8
BLACK
6
CONTINUOUS
10
2.43996
20
-7.04702
11
2.43917
21
-7.03953
0
LINE
8
BLACK
6
CONTINUOUS
10
2.43917
20
-7.03953
11
2.43696
21
-7.03237
0
LINE
8
BLACK
6
CONTINUOUS
10
2.43696
20
-7.03237
11
2.43339
21
-7.02578
0
LINE
8
BLACK
6
CONTINUOUS
10
2.43339
20
-7.02578
11
2.42862
21
-7.02001
0
LINE
8
BLACK
6
CONTINUOUS
10
2.42862
20
-7.02001
11
2.42281
21
-7.01528
0
LINE
8
BLACK
6
CONTINUOUS
10
2.42281
20
-7.01528
11
2.4162
21
-7.01176
0
LINE
8
BLACK
6
CONTINUOUS
10
2.4162
20
-7.01176
11
2.40903
21
-7.00959
0
LINE
8
BLACK
6
CONTINUOUS
10
2.40903
20
-7.00959
11
2.40153
21
-7.00886
0
LINE
8
BLACK
6
CONTINUOUS
10
2.40153
20
-7.00886
11
2.06688
21
-7.00886
0
LINE
8
BLACK
6
CONTINUOUS
10
2.06688
20
-7.00886
11
2.06683
21
-7.00885
0
LINE
8
BLACK
6
CONTINUOUS
10
2.06683
20
-7.00885
11
2.06683
21
-7.00885
0
LINE
8
BLACK
6
CONTINUOUS
10
2.06683
20
-7.00885
11
2.06301
21
-7.00848
0
LINE
8
BLACK
6
CONTINUOUS
10
2.06301
20
-7.00848
11
2.06301
21
-7.00848
0
LINE
8
BLACK
6
CONTINUOUS
10
2.06301
20
-7.00848
11
2.063
21
-7.00848
0
LINE
8
BLACK
6
CONTINUOUS
10
2.063
20
-7.00848
11
2.06291
21
-7.00846
0
LINE
8
BLACK
6
CONTINUOUS
10
2.06291
20
-7.00846
11
2.06282
21
-7.00844
0
LINE
8
BLACK
6
CONTINUOUS
10
2.06282
20
-7.00844
11
2.05914
21
-7.00733
0
LINE
8
BLACK
6
CONTINUOUS
10
2.05914
20
-7.00733
11
2.05913
21
-7.00733
0
LINE
8
BLACK
6
CONTINUOUS
10
2.05913
20
-7.00733
11
2.05905
21
-7.00729
0
LINE
8
BLACK
6
CONTINUOUS
10
2.05905
20
-7.00729
11
2.05897
21
-7.00726
0
LINE
8
BLACK
6
CONTINUOUS
10
2.05897
20
-7.00726
11
2.05557
21
-7.00545
0
LINE
8
BLACK
6
CONTINUOUS
10
2.05557
20
-7.00545
11
2.05556
21
-7.00545
0
LINE
8
BLACK
6
CONTINUOUS
10
2.05556
20
-7.00545
11
2.05549
21
-7.0054
0
LINE
8
BLACK
6
CONTINUOUS
10
2.05549
20
-7.0054
11
2.05541
21
-7.00535
0
LINE
8
BLACK
6
CONTINUOUS
10
2.05541
20
-7.00535
11
2.05244
21
-7.00292
0
LINE
8
BLACK
6
CONTINUOUS
10
2.05244
20
-7.00292
11
2.05244
21
-7.00292
0
LINE
8
BLACK
6
CONTINUOUS
10
2.05244
20
-7.00292
11
2.05244
21
-7.00292
0
LINE
8
BLACK
6
CONTINUOUS
10
2.05244
20
-7.00292
11
2.05243
21
-7.00291
0
LINE
8
BLACK
6
CONTINUOUS
10
2.05243
20
-7.00291
11
2.05236
21
-7.00285
0
LINE
8
BLACK
6
CONTINUOUS
10
2.05236
20
-7.00285
11
2.0523
21
-7.00278
0
LINE
8
BLACK
6
CONTINUOUS
10
2.0523
20
-7.00278
11
2.04985
21
-6.99982
0
LINE
8
BLACK
6
CONTINUOUS
10
2.04985
20
-6.99982
11
2.04984
21
-6.99981
0
LINE
8
BLACK
6
CONTINUOUS
10
2.04984
20
-6.99981
11
2.04979
21
-6.99974
0
LINE
8
BLACK
6
CONTINUOUS
10
2.04979
20
-6.99974
11
2.04974
21
-6.99966
0
LINE
8
BLACK
6
CONTINUOUS
10
2.04974
20
-6.99966
11
2.04792
21
-6.99629
0
LINE
8
BLACK
6
CONTINUOUS
10
2.04792
20
-6.99629
11
2.04791
21
-6.99627
0
LINE
8
BLACK
6
CONTINUOUS
10
2.04791
20
-6.99627
11
2.04788
21
-6.99619
0
LINE
8
BLACK
6
CONTINUOUS
10
2.04788
20
-6.99619
11
2.04784
21
-6.99611
0
LINE
8
BLACK
6
CONTINUOUS
10
2.04784
20
-6.99611
11
2.04671
21
-6.99244
0
LINE
8
BLACK
6
CONTINUOUS
10
2.04671
20
-6.99244
11
2.0467
21
-6.99243
0
LINE
8
BLACK
6
CONTINUOUS
10
2.0467
20
-6.99243
11
2.04669
21
-6.99234
0
LINE
8
BLACK
6
CONTINUOUS
10
2.04669
20
-6.99234
11
2.04667
21
-6.99225
0
LINE
8
BLACK
6
CONTINUOUS
10
2.04667
20
-6.99225
11
2.04627
21
-6.98843
0
LINE
8
BLACK
6
CONTINUOUS
10
2.04627
20
-6.98843
11
2.04626
21
-6.98842
0
LINE
8
BLACK
6
CONTINUOUS
10
2.04626
20
-6.98842
11
2.04626
21
-6.98837
0
LINE
8
BLACK
6
CONTINUOUS
10
2.04626
20
-6.98837
11
2.04626
21
-6.98833
0
LINE
8
BLACK
6
CONTINUOUS
10
2.04626
20
-6.98833
11
2.04626
21
-6.98824
0
LINE
8
BLACK
6
CONTINUOUS
10
2.04626
20
-6.98824
11
2.04626
21
-6.98824
0
LINE
8
BLACK
6
CONTINUOUS
10
2.04626
20
-6.98824
11
2.04626
21
-6.9882
0
LINE
8
BLACK
6
CONTINUOUS
10
2.04626
20
-6.9882
11
2.04626
21
-6.98819
0
LINE
8
BLACK
6
CONTINUOUS
10
2.04626
20
-6.98819
11
2.04626
21
-6.98818
0
LINE
8
BLACK
6
CONTINUOUS
10
2.04626
20
-6.98818
11
2.04626
21
-6.35822
0
LINE
8
BLACK
6
CONTINUOUS
10
2.04626
20
-6.35822
11
2.04626
21
-6.35817
0
LINE
8
BLACK
6
CONTINUOUS
10
2.04626
20
-6.35817
11
2.04626
21
-6.35817
0
LINE
8
BLACK
6
CONTINUOUS
10
2.04626
20
-6.35817
11
2.04664
21
-6.35435
0
LINE
8
BLACK
6
CONTINUOUS
10
2.04664
20
-6.35435
11
2.04664
21
-6.35433
0
LINE
8
BLACK
6
CONTINUOUS
10
2.04664
20
-6.35433
11
2.04666
21
-6.35425
0
LINE
8
BLACK
6
CONTINUOUS
10
2.04666
20
-6.35425
11
2.04668
21
-6.35416
0
LINE
8
BLACK
6
CONTINUOUS
10
2.04668
20
-6.35416
11
2.04779
21
-6.35048
0
LINE
8
BLACK
6
CONTINUOUS
10
2.04779
20
-6.35048
11
2.04779
21
-6.35047
0
LINE
8
BLACK
6
CONTINUOUS
10
2.04779
20
-6.35047
11
2.04783
21
-6.35039
0
LINE
8
BLACK
6
CONTINUOUS
10
2.04783
20
-6.35039
11
2.04786
21
-6.3503
0
LINE
8
BLACK
6
CONTINUOUS
10
2.04786
20
-6.3503
11
2.04966
21
-6.34691
0
LINE
8
BLACK
6
CONTINUOUS
10
2.04966
20
-6.34691
11
2.04967
21
-6.3469
0
LINE
8
BLACK
6
CONTINUOUS
10
2.04967
20
-6.3469
11
2.04972
21
-6.34683
0
LINE
8
BLACK
6
CONTINUOUS
10
2.04972
20
-6.34683
11
2.04977
21
-6.34675
0
LINE
8
BLACK
6
CONTINUOUS
10
2.04977
20
-6.34675
11
2.0522
21
-6.34377
0
LINE
8
BLACK
6
CONTINUOUS
10
2.0522
20
-6.34377
11
2.05221
21
-6.34376
0
LINE
8
BLACK
6
CONTINUOUS
10
2.05221
20
-6.34376
11
2.05227
21
-6.3437
0
LINE
8
BLACK
6
CONTINUOUS
10
2.05227
20
-6.3437
11
2.05233
21
-6.34364
0
LINE
8
BLACK
6
CONTINUOUS
10
2.05233
20
-6.34364
11
2.05529
21
-6.34119
0
LINE
8
BLACK
6
CONTINUOUS
10
2.05529
20
-6.34119
11
2.0553
21
-6.34118
0
LINE
8
BLACK
6
CONTINUOUS
10
2.0553
20
-6.34118
11
2.05538
21
-6.34113
0
LINE
8
BLACK
6
CONTINUOUS
10
2.05538
20
-6.34113
11
2.05545
21
-6.34108
0
LINE
8
BLACK
6
CONTINUOUS
10
2.05545
20
-6.34108
11
2.05883
21
-6.33925
0
LINE
8
BLACK
6
CONTINUOUS
10
2.05883
20
-6.33925
11
2.05884
21
-6.33925
0
LINE
8
BLACK
6
CONTINUOUS
10
2.05884
20
-6.33925
11
2.05893
21
-6.33921
0
LINE
8
BLACK
6
CONTINUOUS
10
2.05893
20
-6.33921
11
2.05901
21
-6.33918
0
LINE
8
BLACK
6
CONTINUOUS
10
2.05901
20
-6.33918
11
2.06268
21
-6.33804
0
LINE
8
BLACK
6
CONTINUOUS
10
2.06268
20
-6.33804
11
2.06269
21
-6.33804
0
LINE
8
BLACK
6
CONTINUOUS
10
2.06269
20
-6.33804
11
2.06278
21
-6.33802
0
LINE
8
BLACK
6
CONTINUOUS
10
2.06278
20
-6.33802
11
2.06287
21
-6.33801
0
LINE
8
BLACK
6
CONTINUOUS
10
2.06287
20
-6.33801
11
2.06669
21
-6.3376
0
LINE
8
BLACK
6
CONTINUOUS
10
2.06669
20
-6.3376
11
2.0667
21
-6.3376
0
LINE
8
BLACK
6
CONTINUOUS
10
2.0667
20
-6.3376
11
2.06675
21
-6.3376
0
LINE
8
BLACK
6
CONTINUOUS
10
2.06675
20
-6.3376
11
2.06679
21
-6.3376
0
LINE
8
BLACK
6
CONTINUOUS
10
2.06679
20
-6.3376
11
2.06688
21
-6.3376
0
LINE
8
BLACK
6
CONTINUOUS
10
2.06688
20
-6.3376
11
2.06688
21
-6.3376
0
LINE
8
BLACK
6
CONTINUOUS
10
2.06688
20
-6.3376
11
2.40157
21
-6.3376
0
LINE
8
BLACK
6
CONTINUOUS
10
2.40157
20
-6.3376
11
2.4018
21
-6.3376
0
LINE
8
BLACK
6
CONTINUOUS
10
2.4018
20
-6.3376
11
2.40929
21
-6.33681
0
LINE
8
BLACK
6
CONTINUOUS
10
2.40929
20
-6.33681
11
2.41645
21
-6.33459
0
LINE
8
BLACK
6
CONTINUOUS
10
2.41645
20
-6.33459
11
2.42304
21
-6.33103
0
LINE
8
BLACK
6
CONTINUOUS
10
2.42304
20
-6.33103
11
2.42881
21
-6.32626
0
LINE
8
BLACK
6
CONTINUOUS
10
2.42881
20
-6.32626
11
2.43354
21
-6.32045
0
LINE
8
BLACK
6
CONTINUOUS
10
2.43354
20
-6.32045
11
2.43706
21
-6.31384
0
LINE
8
BLACK
6
CONTINUOUS
10
2.43706
20
-6.31384
11
2.43922
21
-6.30667
0
LINE
8
BLACK
6
CONTINUOUS
10
2.43922
20
-6.30667
11
2.43996
21
-6.29916
0
LINE
8
BLACK
6
CONTINUOUS
10
2.43996
20
-6.29916
11
2.43996
21
-6.22042
0
LINE
8
BLACK
6
CONTINUOUS
10
2.43996
20
-6.22042
11
2.43996
21
-5.47244
0
LINE
8
BLACK
6
CONTINUOUS
10
2.43996
20
-5.47244
11
2.43996
21
-5.47215
0
LINE
8
BLACK
6
CONTINUOUS
10
2.43996
20
-5.47215
11
2.43803
21
-5.45318
0
LINE
8
BLACK
6
CONTINUOUS
10
2.43803
20
-5.45318
11
2.43247
21
-5.435
0
LINE
8
BLACK
6
CONTINUOUS
10
2.43247
20
-5.435
11
2.42349
21
-5.41824
0
LINE
8
BLACK
6
CONTINUOUS
10
2.42349
20
-5.41824
11
2.41139
21
-5.40351
0
LINE
8
BLACK
6
CONTINUOUS
10
2.41139
20
-5.40351
11
1.87993
21
-4.87205
0
LINE
8
BLACK
6
CONTINUOUS
10
1.87993
20
-4.87205
11
1.87993
21
-4.87204
0
LINE
8
BLACK
6
CONTINUOUS
10
1.87993
20
-4.87204
11
1.87972
21
-4.87184
0
LINE
8
BLACK
6
CONTINUOUS
10
1.87972
20
-4.87184
11
1.86494
21
-4.85979
0
LINE
8
BLACK
6
CONTINUOUS
10
1.86494
20
-4.85979
11
1.84815
21
-4.85086
0
LINE
8
BLACK
6
CONTINUOUS
10
1.84815
20
-4.85086
11
1.82995
21
-4.84536
0
LINE
8
BLACK
6
CONTINUOUS
10
1.82995
20
-4.84536
11
1.81098
21
-4.8435
0
LINE
8
BLACK
6
CONTINUOUS
10
1.81098
20
-4.8435
11
1.10236
21
-4.8435
0
LINE
8
BLACK
6
CONTINUOUS
10
1.10236
20
-4.8435
11
1.10207
21
-4.8435
0
LINE
8
BLACK
6
CONTINUOUS
10
1.10207
20
-4.8435
11
1.0831
21
-4.84543
0
LINE
8
BLACK
6
CONTINUOUS
10
1.0831
20
-4.84543
11
1.06492
21
-4.85099
0
LINE
8
BLACK
6
CONTINUOUS
10
1.06492
20
-4.85099
11
1.04816
21
-4.85998
0
LINE
8
BLACK
6
CONTINUOUS
10
1.04816
20
-4.85998
11
1.03343
21
-4.87208
0
LINE
8
BLACK
6
CONTINUOUS
10
1.03343
20
-4.87208
11
0.502666
21
-5.40424
0
LINE
8
BLACK
6
CONTINUOUS
10
0.502666
20
-5.40424
11
0.502666
21
-5.40424
0
LINE
8
BLACK
6
CONTINUOUS
10
0.502666
20
-5.40424
11
0.50246
21
-5.40444
0
LINE
8
BLACK
6
CONTINUOUS
10
0.50246
20
-5.40444
11
0.490533
21
-5.41907
0
LINE
8
BLACK
6
CONTINUOUS
10
0.490533
20
-5.41907
11
0.481696
21
-5.43569
0
LINE
8
BLACK
6
CONTINUOUS
10
0.481696
20
-5.43569
11
0.476256
21
-5.45371
0
LINE
8
BLACK
6
CONTINUOUS
10
0.476256
20
-5.45371
11
0.474414
21
-5.47249
0
LINE
8
BLACK
6
CONTINUOUS
10
0.474414
20
-5.47249
11
0.473425
21
-6.22046
0
LINE
8
BLACK
6
CONTINUOUS
10
0.473425
20
-6.22046
11
0.473425
21
-6.29921
0
LINE
8
BLACK
6
CONTINUOUS
10
0.473425
20
-6.29921
11
0.473426
21
-6.29943
0
LINE
8
BLACK
6
CONTINUOUS
10
0.473426
20
-6.29943
11
0.474214
21
-6.30693
0
LINE
8
BLACK
6
CONTINUOUS
10
0.474214
20
-6.30693
11
0.476429
21
-6.31409
0
LINE
8
BLACK
6
CONTINUOUS
10
0.476429
20
-6.31409
11
0.479992
21
-6.32067
0
LINE
8
BLACK
6
CONTINUOUS
10
0.479992
20
-6.32067
11
0.484766
21
-6.32645
0
LINE
8
BLACK
6
CONTINUOUS
10
0.484766
20
-6.32645
11
0.490571
21
-6.33118
0
LINE
8
BLACK
6
CONTINUOUS
10
0.490571
20
-6.33118
11
0.497185
21
-6.3347
0
LINE
8
BLACK
6
CONTINUOUS
10
0.497185
20
-6.3347
11
0.504356
21
-6.33686
0
LINE
8
BLACK
6
CONTINUOUS
10
0.504356
20
-6.33686
11
0.511859
21
-6.3376
0
LINE
8
BLACK
6
CONTINUOUS
10
0.511859
20
-6.3376
11
0.846505
21
-6.3376
0
LINE
8
BLACK
6
CONTINUOUS
10
0.846505
20
-6.3376
11
0.846552
21
-6.3376
0
LINE
8
BLACK
6
CONTINUOUS
10
0.846552
20
-6.3376
11
0.846553
21
-6.3376
0
LINE
8
BLACK
6
CONTINUOUS
10
0.846553
20
-6.3376
11
0.850376
21
-6.33798
0
LINE
8
BLACK
6
CONTINUOUS
10
0.850376
20
-6.33798
11
0.85039
21
-6.33798
0
LINE
8
BLACK
6
CONTINUOUS
10
0.85039
20
-6.33798
11
0.850478
21
-6.338
0
LINE
8
BLACK
6
CONTINUOUS
10
0.850478
20
-6.338
11
0.850565
21
-6.33802
0
LINE
8
BLACK
6
CONTINUOUS
10
0.850565
20
-6.33802
11
0.854243
21
-6.33913
0
LINE
8
BLACK
6
CONTINUOUS
10
0.854243
20
-6.33913
11
0.854256
21
-6.33913
0
LINE
8
BLACK
6
CONTINUOUS
10
0.854256
20
-6.33913
11
0.854338
21
-6.33916
0
LINE
8
BLACK
6
CONTINUOUS
10
0.854338
20
-6.33916
11
0.85442
21
-6.3392
0
LINE
8
BLACK
6
CONTINUOUS
10
0.85442
20
-6.3392
11
0.857812
21
-6.341
0
LINE
8
BLACK
6
CONTINUOUS
10
0.857812
20
-6.341
11
0.857824
21
-6.34101
0
LINE
8
BLACK
6
CONTINUOUS
10
0.857824
20
-6.34101
11
0.857899
21
-6.34106
0
LINE
8
BLACK
6
CONTINUOUS
10
0.857899
20
-6.34106
11
0.857972
21
-6.34111
0
LINE
8
BLACK
6
CONTINUOUS
10
0.857972
20
-6.34111
11
0.86095
21
-6.34354
0
LINE
8
BLACK
6
CONTINUOUS
10
0.86095
20
-6.34354
11
0.86096
21
-6.34355
0
LINE
8
BLACK
6
CONTINUOUS
10
0.86096
20
-6.34355
11
0.861022
21
-6.34361
0
LINE
8
BLACK
6
CONTINUOUS
10
0.861022
20
-6.34361
11
0.861086
21
-6.34367
0
LINE
8
BLACK
6
CONTINUOUS
10
0.861086
20
-6.34367
11
0.863535
21
-6.34663
0
LINE
8
BLACK
6
CONTINUOUS
10
0.863535
20
-6.34663
11
0.863543
21
-6.34664
0
LINE
8
BLACK
6
CONTINUOUS
10
0.863543
20
-6.34664
11
0.863593
21
-6.34672
0
LINE
8
BLACK
6
CONTINUOUS
10
0.863593
20
-6.34672
11
0.863642
21
-6.34679
0
LINE
8
BLACK
6
CONTINUOUS
10
0.863642
20
-6.34679
11
0.865469
21
-6.35017
0
LINE
8
BLACK
6
CONTINUOUS
10
0.865469
20
-6.35017
11
0.865476
21
-6.35018
0
LINE
8
BLACK
6
CONTINUOUS
10
0.865476
20
-6.35018
11
0.865509
21
-6.35027
0
LINE
8
BLACK
6
CONTINUOUS
10
0.865509
20
-6.35027
11
0.865544
21
-6.35035
0
LINE
8
BLACK
6
CONTINUOUS
10
0.865544
20
-6.35035
11
0.86668
21
-6.35402
0
LINE
8
BLACK
6
CONTINUOUS
10
0.86668
20
-6.35402
11
0.866684
21
-6.35403
0
LINE
8
BLACK
6
CONTINUOUS
10
0.866684
20
-6.35403
11
0.866701
21
-6.35412
0
LINE
8
BLACK
6
CONTINUOUS
10
0.866701
20
-6.35412
11
0.866719
21
-6.35421
0
LINE
8
BLACK
6
CONTINUOUS
10
0.866719
20
-6.35421
11
0.86712
21
-6.35803
0
LINE
8
BLACK
6
CONTINUOUS
10
0.86712
20
-6.35803
11
0.867121
21
-6.35804
0
LINE
8
BLACK
6
CONTINUOUS
10
0.867121
20
-6.35804
11
0.867121
21
-6.35808
0
LINE
8
BLACK
6
CONTINUOUS
10
0.867121
20
-6.35808
11
0.867126
21
-6.35813
0
LINE
8
BLACK
6
CONTINUOUS
10
0.867126
20
-6.35813
11
0.867126
21
-6.35822
0
LINE
8
BLACK
6
CONTINUOUS
10
0.867126
20
-6.35822
11
0.867126
21
-6.35822
0
LINE
8
BLACK
6
CONTINUOUS
10
0.867126
20
-6.35822
11
0.867126
21
-6.98824
0
LINE
8
BLACK
6
CONTINUOUS
10
0.867126
20
-6.98824
11
0.867121
21
-6.98828
0
LINE
8
BLACK
6
CONTINUOUS
10
0.867121
20
-6.98828
11
0.867121
21
-6.98828
0
LINE
8
BLACK
6
CONTINUOUS
10
0.867121
20
-6.98828
11
0.866746
21
-6.99211
0
LINE
8
BLACK
6
CONTINUOUS
10
0.866746
20
-6.99211
11
0.866745
21
-6.99212
0
LINE
8
BLACK
6
CONTINUOUS
10
0.866745
20
-6.99212
11
0.866726
21
-6.99221
0
LINE
8
BLACK
6
CONTINUOUS
10
0.866726
20
-6.99221
11
0.866709
21
-6.9923
0
LINE
8
BLACK
6
CONTINUOUS
10
0.866709
20
-6.9923
11
0.865599
21
-6.99597
0
LINE
8
BLACK
6
CONTINUOUS
10
0.865599
20
-6.99597
11
0.865595
21
-6.99599
0
LINE
8
BLACK
6
CONTINUOUS
10
0.865595
20
-6.99599
11
0.865559
21
-6.99607
0
LINE
8
BLACK
6
CONTINUOUS
10
0.865559
20
-6.99607
11
0.865525
21
-6.99615
0
LINE
8
BLACK
6
CONTINUOUS
10
0.865525
20
-6.99615
11
0.863722
21
-6.99954
0
LINE
8
BLACK
6
CONTINUOUS
10
0.863722
20
-6.99954
11
0.863715
21
-6.99956
0
LINE
8
BLACK
6
CONTINUOUS
10
0.863715
20
-6.99956
11
0.863664
21
-6.99963
0
LINE
8
BLACK
6
CONTINUOUS
10
0.863664
20
-6.99963
11
0.863616
21
-6.9997
0
LINE
8
BLACK
6
CONTINUOUS
10
0.863616
20
-6.9997
11
0.861188
21
-7.00268
0
LINE
8
BLACK
6
CONTINUOUS
10
0.861188
20
-7.00268
11
0.861187
21
-7.00268
0
LINE
8
BLACK
6
CONTINUOUS
10
0.861187
20
-7.00268
11
0.861187
21
-7.00268
0
LINE
8
BLACK
6
CONTINUOUS
10
0.861187
20
-7.00268
11
0.861179
21
-7.00269
0
LINE
8
BLACK
6
CONTINUOUS
10
0.861179
20
-7.00269
11
0.861115
21
-7.00275
0
LINE
8
BLACK
6
CONTINUOUS
10
0.861115
20
-7.00275
11
0.861052
21
-7.00282
0
LINE
8
BLACK
6
CONTINUOUS
10
0.861052
20
-7.00282
11
0.858092
21
-7.00527
0
LINE
8
BLACK
6
CONTINUOUS
10
0.858092
20
-7.00527
11
0.858081
21
-7.00528
0
LINE
8
BLACK
6
CONTINUOUS
10
0.858081
20
-7.00528
11
0.858006
21
-7.00532
0
LINE
8
BLACK
6
CONTINUOUS
10
0.858006
20
-7.00532
11
0.857933
21
-7.00537
0
LINE
8
BLACK
6
CONTINUOUS
10
0.857933
20
-7.00537
11
0.854553
21
-7.0072
0
LINE
8
BLACK
6
CONTINUOUS
10
0.854553
20
-7.0072
11
0.854541
21
-7.00721
0
LINE
8
BLACK
6
CONTINUOUS
10
0.854541
20
-7.00721
11
0.854458
21
-7.00724
0
LINE
8
BLACK
6
CONTINUOUS
10
0.854458
20
-7.00724
11
0.854376
21
-7.00728
0
LINE
8
BLACK
6
CONTINUOUS
10
0.854376
20
-7.00728
11
0.850706
21
-7.00841
0
LINE
8
BLACK
6
CONTINUOUS
10
0.850706
20
-7.00841
11
0.850693
21
-7.00842
0
LINE
8
BLACK
6
CONTINUOUS
10
0.850693
20
-7.00842
11
0.850605
21
-7.00843
0
LINE
8
BLACK
6
CONTINUOUS
10
0.850605
20
-7.00843
11
0.850518
21
-7.00845
0
LINE
8
BLACK
6
CONTINUOUS
10
0.850518
20
-7.00845
11
0.846697
21
-7.00885
0
LINE
8
BLACK
6
CONTINUOUS
10
0.846697
20
-7.00885
11
0.846683
21
-7.00885
0
LINE
8
BLACK
6
CONTINUOUS
10
0.846683
20
-7.00885
11
0.84664
21
-7.00885
0
LINE
8
BLACK
6
CONTINUOUS
10
0.84664
20
-7.00885
11
0.846598
21
-7.00886
0
LINE
8
BLACK
6
CONTINUOUS
10
0.846598
20
-7.00886
11
0.846506
21
-7.00886
0
LINE
8
BLACK
6
CONTINUOUS
10
0.846506
20
-7.00886
11
0.846505
21
-7.00886
0
LINE
8
BLACK
6
CONTINUOUS
10
0.846505
20
-7.00886
11
0.511814
21
-7.00886
0
LINE
8
BLACK
6
CONTINUOUS
10
0.511814
20
-7.00886
11
0.511589
21
-7.00886
  0
ENDSEC
  0
EOF
