G04 #@! TF.GenerationSoftware,KiCad,Pcbnew,5.1.7-a382d34a8~87~ubuntu18.04.1*
G04 #@! TF.CreationDate,2020-11-02T17:14:04+01:00*
G04 #@! TF.ProjectId,synermycha-electronics,73796e65-726d-4796-9368-612d656c6563,rev?*
G04 #@! TF.SameCoordinates,Original*
G04 #@! TF.FileFunction,Profile,NP*
%FSLAX46Y46*%
G04 Gerber Fmt 4.6, Leading zero omitted, Abs format (unit mm)*
G04 Created by KiCad (PCBNEW 5.1.7-a382d34a8~87~ubuntu18.04.1) date 2020-11-02 17:14:04*
%MOMM*%
%LPD*%
G01*
G04 APERTURE LIST*
G04 #@! TA.AperFunction,Profile*
%ADD10C,0.050000*%
G04 #@! TD*
G04 APERTURE END LIST*
D10*
X25000000Y-145000000D02*
G75*
G02*
X25000000Y-143000000I0J1000000D01*
G01*
X21000000Y-143000000D02*
G75*
G02*
X21000000Y-145000000I0J-1000000D01*
G01*
X28000000Y-154000000D02*
G75*
G02*
X30000000Y-154000000I1000000J0D01*
G01*
X30000000Y-150000000D02*
G75*
G02*
X28000000Y-150000000I-1000000J0D01*
G01*
X62000000Y-150000000D02*
G75*
G02*
X60000000Y-150000000I-1000000J0D01*
G01*
X60000000Y-154000000D02*
G75*
G02*
X62000000Y-154000000I1000000J0D01*
G01*
X65000000Y-143000000D02*
G75*
G02*
X65000000Y-145000000I0J-1000000D01*
G01*
X69000000Y-145000000D02*
G75*
G02*
X69000000Y-143000000I0J1000000D01*
G01*
X62000000Y-157000000D02*
X62000000Y-154000000D01*
X60000000Y-154000000D02*
X60000000Y-159500000D01*
X60000000Y-143500000D02*
X60000000Y-150000000D01*
X65000000Y-143000000D02*
X60500000Y-143000000D01*
X69000000Y-145000000D02*
X72000000Y-145000000D01*
X62000000Y-146015390D02*
X62000000Y-150000000D01*
X65000000Y-145000000D02*
X63346134Y-145000000D01*
X21000000Y-145000000D02*
X18000000Y-145000000D01*
X26653866Y-145000000D02*
X25000000Y-145000000D01*
X29500000Y-143000000D02*
X25000000Y-143000000D01*
X30000000Y-143500000D02*
X30000000Y-150000000D01*
X30000000Y-159500000D02*
X30000000Y-154000000D01*
X28000000Y-154000000D02*
X28000000Y-157000000D01*
X28000000Y-146015390D02*
X28000000Y-150000000D01*
X62000000Y-146015390D02*
G75*
G02*
X63346134Y-145000000I1346134J-384610D01*
G01*
X62100000Y-157000000D02*
X70000000Y-157000000D01*
X72000000Y-153000000D02*
X72000000Y-145000000D01*
X18000000Y-153000000D02*
X18000000Y-145000000D01*
X28000000Y-157000000D02*
X27900000Y-157000000D01*
X28000000Y-146015390D02*
G75*
G03*
X26653866Y-145000000I-1346134J-384610D01*
G01*
X70000000Y-157000000D02*
X72000000Y-153000000D01*
X27900000Y-157000000D02*
X20000000Y-157000000D01*
X20000000Y-157000000D02*
X18000000Y-153000000D01*
X62100000Y-157000000D02*
X62000000Y-157000000D01*
X54000000Y-105000000D02*
G75*
G02*
X55767767Y-105732233I0J-2500000D01*
G01*
X69267767Y-119232233D02*
G75*
G02*
X70000000Y-121000000I-1767767J-1767767D01*
G01*
X34232233Y-105732233D02*
G75*
G02*
X36000000Y-105000000I1767767J-1767767D01*
G01*
X20025128Y-121000000D02*
G75*
G02*
X20750001Y-119250001I2474872J0D01*
G01*
X70000000Y-142000000D02*
G75*
G02*
X69000000Y-143000000I-1000000J0D01*
G01*
X60000000Y-143500000D02*
G75*
G02*
X60500000Y-143000000I500000J0D01*
G01*
X60500000Y-160000000D02*
G75*
G02*
X60000000Y-159500000I0J500000D01*
G01*
X69000000Y-160000000D02*
G75*
G02*
X70000000Y-161000000I0J-1000000D01*
G01*
X70000000Y-179000000D02*
G75*
G02*
X69000000Y-180000000I-1000000J0D01*
G01*
X21000000Y-180000000D02*
G75*
G02*
X20000000Y-179000000I0J1000000D01*
G01*
X20000000Y-161000000D02*
G75*
G02*
X21000000Y-160000000I1000000J0D01*
G01*
X30000000Y-159500000D02*
G75*
G02*
X29500000Y-160000000I-500000J0D01*
G01*
X21000000Y-143000000D02*
G75*
G02*
X20000000Y-142000000I0J1000000D01*
G01*
X29500000Y-143000000D02*
G75*
G02*
X30000000Y-143500000I0J-500000D01*
G01*
X60500000Y-160000000D02*
X60500000Y-160000000D01*
X20000000Y-161000000D02*
X20000000Y-165000000D01*
X29500000Y-160000000D02*
X21000000Y-160000000D01*
X70000000Y-161000000D02*
X70000000Y-165000000D01*
X60500000Y-160000000D02*
X69000000Y-160000000D01*
X70000000Y-142000000D02*
X70000000Y-140000000D01*
X20000000Y-140000000D02*
X20000000Y-142000000D01*
X55767767Y-105732233D02*
X69267767Y-119232233D01*
X70000000Y-165000000D02*
X70000000Y-179000000D01*
X70000000Y-121000000D02*
X70000000Y-140000000D01*
X20000000Y-140000000D02*
X20025128Y-121000000D01*
X20000000Y-179000000D02*
X20000000Y-165000000D01*
X69000000Y-180000000D02*
X21000000Y-180000000D01*
X36000000Y-105000000D02*
X54000000Y-105000000D01*
X20750001Y-119250001D02*
X34232233Y-105732233D01*
M02*
