M48
; DRILL file {KiCad 5.1.7-a382d34a8~87~ubuntu18.04.1} date Thu Oct 29 22:25:13 2020
; FORMAT={-:-/ absolute / inch / decimal}
; #@! TF.CreationDate,2020-10-29T22:25:13+01:00
; #@! TF.GenerationSoftware,Kicad,Pcbnew,5.1.7-a382d34a8~87~ubuntu18.04.1
; #@! TF.FileFunction,Plated,1,4,PTH
FMAT,2
INCH
T1C0.0118
T2C0.0157
T3C0.0197
T4C0.0236
T5C0.0256
%
G90
G05
T1
X0.5498Y-7.5171
X0.5591Y-5.9606
X0.5591Y-5.9921
X0.5591Y-6.0236
X0.5827Y-5.935
X0.5827Y-6.0551
X0.6142Y-5.8268
X0.6142Y-5.935
X0.6142Y-6.0551
X0.6299Y-5.9055
X0.6457Y-5.8661
X0.6457Y-5.935
X0.6457Y-6.0551
X0.6772Y-5.935
X0.6772Y-6.0551
X0.689Y-5.7073
X0.7087Y-5.935
X0.7087Y-6.0551
X0.7402Y-5.935
X0.7402Y-6.0551
X0.7677Y-5.8268
X0.7717Y-5.935
X0.7717Y-6.0551
X0.8031Y-5.935
X0.8268Y-7.3037
X0.8504Y-5.315
X0.8504Y-7.7677
X0.8583Y-5.2677
X0.8661Y-7.3028
X0.9134Y-5.619
X0.9213Y-5.9843
X0.9899Y-5.2345
X0.9921Y-5.9488
X1.0039Y-7.3937
X1.0079Y-7.3386
X1.0236Y-5.7209
X1.1024Y-5.7992
X1.1339Y-5.7677
X1.1387Y-5.7353
X1.1535Y-5.6063
X1.1575Y-5.6811
X1.2126Y-7.4961
X1.2208Y-5.8658
X1.2272Y-5.9699
X1.2496Y-5.9925
X1.2518Y-5.9212
X1.27Y-5.9472
X1.2717Y-5.6693
X1.2761Y-5.7005
X1.2874Y-7.375
X1.2953Y-5.4016
X1.2953Y-5.7913
X1.3189Y-7.0634
X1.3189Y-7.3035
X1.3228Y-6.8799
X1.3268Y-5.8258
X1.3386Y-5.1392
X1.3677Y-6.4994
X1.374Y-5.9843
X1.3912Y-6.1747
X1.4134Y-7.3917
X1.4173Y-5.0157
X1.4366Y-7.022
X1.439Y-7.3524
X1.4397Y-6.4244
X1.4567Y-4.9843
X1.4646Y-7.3917
X1.4764Y-5.5512
X1.4843Y-5.9646
X1.4921Y-6.4549
X1.5512Y-5.7165
X1.5549Y-5.6654
X1.555Y-6.0
X1.563Y-5.9646
X1.5827Y-6.1055
X1.6106Y-5.4059
X1.6142Y-5.6654
X1.6142Y-5.6988
X1.7323Y-5.7402
X1.7323Y-5.9724
X1.7362Y-5.9134
X1.748Y-6.0315
X1.7526Y-5.7795
X1.7798Y-5.8694
X1.7953Y-5.6575
X1.7953Y-6.0315
X1.8031Y-5.9009
X1.8917Y-5.5496
X1.8917Y-5.6996
X1.8917Y-5.7496
X1.8937Y-5.9016
X1.8996Y-5.8701
X2.0079Y-5.2598
X2.0118Y-6.7283
X2.0551Y-5.2677
X2.0883Y-5.4033
X2.1654Y-5.4921
X2.1654Y-5.5906
X2.1654Y-5.689
X2.1654Y-5.7874
X2.1654Y-5.8858
X2.2244Y-5.9482
X2.2598Y-7.5118
X2.2598Y-7.626
X2.2598Y-7.6614
X2.2677Y-5.7874
X2.2992Y-5.8268
X2.4094Y-7.7638
T2
X0.5079Y-7.5531
X0.5098Y-5.8622
X0.5591Y-5.5433
X0.563Y-6.1732
X0.563Y-6.2126
X0.563Y-6.252
X0.5706Y-5.4493
X0.6024Y-5.7087
X0.6024Y-6.1732
X0.6024Y-6.2126
X0.6024Y-6.252
X0.6102Y-7.3327
X0.6102Y-7.372
X0.6417Y-6.1732
X0.6417Y-6.2126
X0.6417Y-6.252
X0.6496Y-7.3327
X0.6496Y-7.372
X0.6535Y-7.6024
X0.6535Y-7.6417
X0.7165Y-7.5827
X0.7165Y-7.622
X0.7165Y-7.6614
X0.7559Y-7.5827
X0.7559Y-7.622
X0.7559Y-7.6614
X0.7657Y-5.1969
X0.7913Y-5.313
X0.7953Y-7.5827
X0.7953Y-7.622
X0.7953Y-7.6614
X0.8504Y-6.0787
X0.9035Y-6.7303
X0.9291Y-5.1732
X0.9843Y-5.3976
X0.9843Y-5.437
X0.9843Y-5.4764
X1.0Y-6.5079
X1.0Y-6.5472
X1.0Y-6.5866
X1.0236Y-5.3976
X1.0236Y-5.437
X1.0236Y-5.4764
X1.0354Y-6.6417
X1.0354Y-6.6732
X1.0394Y-6.5079
X1.0394Y-6.5472
X1.0394Y-6.5866
X1.063Y-5.3976
X1.063Y-5.437
X1.063Y-5.4764
X1.063Y-5.6102
X1.0669Y-6.6417
X1.0669Y-6.6732
X1.0787Y-6.5079
X1.0787Y-6.5472
X1.0787Y-6.5866
X1.0984Y-7.378
X1.1102Y-5.5709
X1.1142Y-5.7047
X1.1299Y-6.0472
X1.1299Y-6.0866
X1.1299Y-6.126
X1.1358Y-5.8996
X1.1378Y-7.378
X1.1516Y-5.5709
X1.1693Y-6.0472
X1.1693Y-6.0866
X1.1693Y-6.126
X1.2087Y-6.0472
X1.2087Y-6.0866
X1.2087Y-6.126
X1.2165Y-7.1024
X1.2165Y-7.1417
X1.2165Y-7.1811
X1.2441Y-6.8307
X1.2441Y-6.8701
X1.2559Y-7.1024
X1.2559Y-7.1417
X1.2559Y-7.1811
X1.2835Y-6.8307
X1.2835Y-6.8701
X1.3484Y-5.3248
X1.3484Y-5.3642
X1.378Y-4.9705
X1.3858Y-7.2992
X1.4173Y-7.563
X1.4173Y-7.6024
X1.4173Y-7.6417
X1.4193Y-4.8799
X1.4291Y-7.1614
X1.4291Y-7.2008
X1.4384Y-6.6844
X1.439Y-5.7224
X1.439Y-5.811
X1.4567Y-5.1024
X1.4567Y-7.563
X1.4567Y-7.6024
X1.4567Y-7.6417
X1.459Y-6.6429
X1.4685Y-7.1614
X1.4685Y-7.2008
X1.4783Y-5.7224
X1.4783Y-5.811
X1.4862Y-5.2953
X1.4921Y-7.7598
X1.4961Y-6.2756
X1.4961Y-6.315
X1.4961Y-6.3543
X1.4961Y-7.563
X1.4961Y-7.6024
X1.4961Y-7.6417
X1.5354Y-6.2756
X1.5354Y-6.315
X1.5354Y-6.3543
X1.5512Y-5.3425
X1.5748Y-4.9705
X1.5748Y-6.2756
X1.5748Y-6.315
X1.5748Y-6.3543
X1.624Y-5.4429
X1.6689Y-5.9722
X1.6721Y-5.9162
X1.7008Y-6.0394
X1.7165Y-5.1535
X1.7165Y-5.1929
X1.7165Y-5.2323
X1.752Y-5.5217
X1.7559Y-5.1535
X1.7559Y-5.1929
X1.7559Y-5.2323
X1.7913Y-5.5768
X1.7913Y-5.7717
X1.7953Y-5.1535
X1.7953Y-5.1929
X1.7953Y-5.2323
X1.7953Y-5.5197
X2.0098Y-5.2028
X2.0098Y-6.6575
X2.0472Y-5.748
X2.063Y-6.0787
X2.1063Y-5.1555
X2.1496Y-5.3366
X2.2205Y-7.6299
X2.2441Y-7.4587
X2.2756Y-6.1772
X2.2756Y-6.2165
X2.2756Y-6.2559
X2.3031Y-5.9449
X2.315Y-6.1772
X2.315Y-6.2165
X2.315Y-6.2559
X2.3189Y-5.748
X2.3228Y-7.4587
X2.3543Y-6.1772
X2.3543Y-6.2165
X2.3543Y-6.2559
X2.378Y-7.6181
X2.4016Y-5.7913
X2.4035Y-7.4843
X1.3386Y-7.4409
X1.3386Y-7.4941
X1.372Y-7.4409
X1.372Y-7.4941
X1.4055Y-7.4409
X1.4055Y-7.4941
X1.439Y-7.4409
X1.439Y-7.4941
X1.4724Y-7.4409
X1.4724Y-7.4941
X1.5059Y-7.4409
X1.5059Y-7.4941
X1.5394Y-7.4409
X1.5394Y-7.4941
X1.5728Y-7.4409
X1.5728Y-7.4941
T3
X1.1575Y-6.5394
X1.1575Y-6.5787
X1.752Y-6.7638
X1.752Y-6.8031
T5
X0.9528Y-7.5039
X0.9528Y-7.5539
X0.874Y-7.5039
X0.874Y-7.5539
X0.874Y-7.6614
X0.874Y-7.7114
X0.9528Y-7.6614
X0.9528Y-7.7114
T4
G00X1.2854Y-7.45
M15
G01X1.2854Y-7.5091
M16
G05
G00X1.2854Y-7.5969
M15
G01X1.2854Y-7.6283
M16
G05
G00X1.626Y-7.45
M15
G01X1.626Y-7.5091
M16
G05
G00X1.626Y-7.5969
M15
G01X1.626Y-7.6283
M16
G05
T0
M30
