  0
SECTION
  2
HEADER
  9
$ANGBASE
  50
0.0
  9
$ANGDIR
  70
1
  9
$MEASUREMENT
  70
0
  0
ENDSEC
  0
SECTION
  2
TABLES
  0
TABLE
  2
LTYPE
  70
4
  0
LTYPE
  5
40F
  2
CONTINUOUS
  70
0
  3
Solid line
  72
65
  73
0
  40
0.0
  0
LTYPE
  5
410
  2
DASHDOT
 70
0
  3
Dash Dot ____ _ ____ _
 72
65
 73
4
 40
2.0
 49
1.25
 49
-0.25
 49
0.25
 49
-0.25
  0
LTYPE
  5
411
  2
DASHED
 70
0
  3
Dashed __ __ __ __ __
 72
65
 73
2
 40
0.75
 49
0.5
 49
-0.25
  0
LTYPE
  5
43B
  2
DOTTED
 70
0
  3
Dotted .  .  .  .
 72
65
 73
2
 40
0.2
 49
0.0
 49
-0.2
  0
ENDTAB
  0
TABLE
  2
STYLE
  70
4
  0
STYLE
  2
KICAD
  70
0
  40
0
  41
1
  42
1
  50
0
  71
0
  3
isocp.shx
  0
STYLE
  2
KICADB
  70
0
  40
0
  41
1
  42
1
  50
0
  71
0
  3
isocp.shx
  0
STYLE
  2
KICADI
  70
0
  40
0
  41
1
  42
1
  50
15
  71
0
  3
isocp.shx
  0
STYLE
  2
KICADBI
  70
0
  40
0
  41
1
  42
1
  50
15
  71
0
  3
isocp.shx
  0
ENDTAB
  0
TABLE
  2
LAYER
  70
1
  0
LAYER
  2
BLACK
  70
0
  62
7
  6
CONTINUOUS
  0
ENDTAB
  0
ENDSEC
  0
SECTION
  2
ENTITIES
0
LINE
8
BLACK
6
CONTINUOUS
10
1.43445
20
-7.77165
11
1.40689
21
-7.77165
0
LINE
8
BLACK
6
CONTINUOUS
10
1.40689
20
-7.77165
11
1.40689
21
-7.74409
0
LINE
8
BLACK
6
CONTINUOUS
10
1.40689
20
-7.74409
11
1.43445
21
-7.74409
0
LINE
8
BLACK
6
CONTINUOUS
10
1.43445
20
-7.74409
11
1.43445
21
-7.77165
0
LINE
8
BLACK
6
CONTINUOUS
10
1.5065
20
-7.77165
11
1.47894
21
-7.77165
0
LINE
8
BLACK
6
CONTINUOUS
10
1.47894
20
-7.77165
11
1.47894
21
-7.74409
0
LINE
8
BLACK
6
CONTINUOUS
10
1.47894
20
-7.74409
11
1.5065
21
-7.74409
0
LINE
8
BLACK
6
CONTINUOUS
10
1.5065
20
-7.74409
11
1.5065
21
-7.77165
0
LINE
8
BLACK
6
CONTINUOUS
10
1.43445
20
-7.72835
11
1.40689
21
-7.72835
0
LINE
8
BLACK
6
CONTINUOUS
10
1.40689
20
-7.72835
11
1.40689
21
-7.70079
0
LINE
8
BLACK
6
CONTINUOUS
10
1.40689
20
-7.70079
11
1.43445
21
-7.70079
0
LINE
8
BLACK
6
CONTINUOUS
10
1.43445
20
-7.70079
11
1.43445
21
-7.72835
0
LINE
8
BLACK
6
CONTINUOUS
10
1.5065
20
-7.72835
11
1.47894
21
-7.72835
0
LINE
8
BLACK
6
CONTINUOUS
10
1.47894
20
-7.72835
11
1.47894
21
-7.70079
0
LINE
8
BLACK
6
CONTINUOUS
10
1.47894
20
-7.70079
11
1.5065
21
-7.70079
0
LINE
8
BLACK
6
CONTINUOUS
10
1.5065
20
-7.70079
11
1.5065
21
-7.72835
0
LINE
8
BLACK
6
CONTINUOUS
10
0.566929
20
-7.56949
11
0.53937
21
-7.56949
0
LINE
8
BLACK
6
CONTINUOUS
10
0.53937
20
-7.56949
11
0.53937
21
-7.54193
0
LINE
8
BLACK
6
CONTINUOUS
10
0.53937
20
-7.54193
11
0.566929
21
-7.54193
0
LINE
8
BLACK
6
CONTINUOUS
10
0.566929
20
-7.54193
11
0.566929
21
-7.56949
0
LINE
8
BLACK
6
CONTINUOUS
10
0.523622
20
-7.56949
11
0.496063
21
-7.56949
0
LINE
8
BLACK
6
CONTINUOUS
10
0.496063
20
-7.56949
11
0.496063
21
-7.54193
0
LINE
8
BLACK
6
CONTINUOUS
10
0.496063
20
-7.54193
11
0.523622
21
-7.54193
0
LINE
8
BLACK
6
CONTINUOUS
10
0.523622
20
-7.54193
11
0.523622
21
-7.56949
0
LINE
8
BLACK
6
CONTINUOUS
10
2.41732
20
-7.56949
11
2.38976
21
-7.56949
0
LINE
8
BLACK
6
CONTINUOUS
10
2.38976
20
-7.56949
11
2.38976
21
-7.54193
0
LINE
8
BLACK
6
CONTINUOUS
10
2.38976
20
-7.54193
11
2.41732
21
-7.54193
0
LINE
8
BLACK
6
CONTINUOUS
10
2.41732
20
-7.54193
11
2.41732
21
-7.56949
0
LINE
8
BLACK
6
CONTINUOUS
10
2.37402
20
-7.56949
11
2.34646
21
-7.56949
0
LINE
8
BLACK
6
CONTINUOUS
10
2.34646
20
-7.56949
11
2.34646
21
-7.54193
0
LINE
8
BLACK
6
CONTINUOUS
10
2.34646
20
-7.54193
11
2.37402
21
-7.54193
0
LINE
8
BLACK
6
CONTINUOUS
10
2.37402
20
-7.54193
11
2.37402
21
-7.56949
0
LINE
8
BLACK
6
CONTINUOUS
10
0.523622
20
-7.49744
11
0.496063
21
-7.49744
0
LINE
8
BLACK
6
CONTINUOUS
10
0.496063
20
-7.49744
11
0.496063
21
-7.46988
0
LINE
8
BLACK
6
CONTINUOUS
10
0.496063
20
-7.46988
11
0.523622
21
-7.46988
0
LINE
8
BLACK
6
CONTINUOUS
10
0.523622
20
-7.46988
11
0.523622
21
-7.49744
0
LINE
8
BLACK
6
CONTINUOUS
10
0.566929
20
-7.49744
11
0.53937
21
-7.49744
0
LINE
8
BLACK
6
CONTINUOUS
10
0.53937
20
-7.49744
11
0.53937
21
-7.46988
0
LINE
8
BLACK
6
CONTINUOUS
10
0.53937
20
-7.46988
11
0.566929
21
-7.46988
0
LINE
8
BLACK
6
CONTINUOUS
10
0.566929
20
-7.46988
11
0.566929
21
-7.49744
0
LINE
8
BLACK
6
CONTINUOUS
10
2.37402
20
-7.49744
11
2.34646
21
-7.49744
0
LINE
8
BLACK
6
CONTINUOUS
10
2.34646
20
-7.49744
11
2.34646
21
-7.46988
0
LINE
8
BLACK
6
CONTINUOUS
10
2.34646
20
-7.46988
11
2.37402
21
-7.46988
0
LINE
8
BLACK
6
CONTINUOUS
10
2.37402
20
-7.46988
11
2.37402
21
-7.49744
0
LINE
8
BLACK
6
CONTINUOUS
10
2.41732
20
-7.49744
11
2.38976
21
-7.49744
0
LINE
8
BLACK
6
CONTINUOUS
10
2.38976
20
-7.49744
11
2.38976
21
-7.46988
0
LINE
8
BLACK
6
CONTINUOUS
10
2.38976
20
-7.46988
11
2.41732
21
-7.46988
0
LINE
8
BLACK
6
CONTINUOUS
10
2.41732
20
-7.46988
11
2.41732
21
-7.49744
0
LINE
8
BLACK
6
CONTINUOUS
10
0.96063
20
-6.74272
11
0.933071
21
-6.74272
0
LINE
8
BLACK
6
CONTINUOUS
10
0.933071
20
-6.74272
11
0.933071
21
-6.71516
0
LINE
8
BLACK
6
CONTINUOUS
10
0.933071
20
-6.71516
11
0.96063
21
-6.71516
0
LINE
8
BLACK
6
CONTINUOUS
10
0.96063
20
-6.71516
11
0.96063
21
-6.74272
0
LINE
8
BLACK
6
CONTINUOUS
10
2.02362
20
-6.74272
11
1.99606
21
-6.74272
0
LINE
8
BLACK
6
CONTINUOUS
10
1.99606
20
-6.74272
11
1.99606
21
-6.71516
0
LINE
8
BLACK
6
CONTINUOUS
10
1.99606
20
-6.71516
11
2.02362
21
-6.71516
0
LINE
8
BLACK
6
CONTINUOUS
10
2.02362
20
-6.71516
11
2.02362
21
-6.74272
0
LINE
8
BLACK
6
CONTINUOUS
10
1.98031
20
-6.74272
11
1.95276
21
-6.74272
0
LINE
8
BLACK
6
CONTINUOUS
10
1.95276
20
-6.74272
11
1.95276
21
-6.71516
0
LINE
8
BLACK
6
CONTINUOUS
10
1.95276
20
-6.71516
11
1.98031
21
-6.71516
0
LINE
8
BLACK
6
CONTINUOUS
10
1.98031
20
-6.71516
11
1.98031
21
-6.74272
0
LINE
8
BLACK
6
CONTINUOUS
10
0.917323
20
-6.74272
11
0.889764
21
-6.74272
0
LINE
8
BLACK
6
CONTINUOUS
10
0.889764
20
-6.74272
11
0.889764
21
-6.71516
0
LINE
8
BLACK
6
CONTINUOUS
10
0.889764
20
-6.71516
11
0.917323
21
-6.71516
0
LINE
8
BLACK
6
CONTINUOUS
10
0.917323
20
-6.71516
11
0.917323
21
-6.74272
0
LINE
8
BLACK
6
CONTINUOUS
10
2.02362
20
-6.67067
11
1.99606
21
-6.67067
0
LINE
8
BLACK
6
CONTINUOUS
10
1.99606
20
-6.67067
11
1.99606
21
-6.64311
0
LINE
8
BLACK
6
CONTINUOUS
10
1.99606
20
-6.64311
11
2.02362
21
-6.64311
0
LINE
8
BLACK
6
CONTINUOUS
10
2.02362
20
-6.64311
11
2.02362
21
-6.67067
0
LINE
8
BLACK
6
CONTINUOUS
10
1.98031
20
-6.67067
11
1.95276
21
-6.67067
0
LINE
8
BLACK
6
CONTINUOUS
10
1.95276
20
-6.67067
11
1.95276
21
-6.64311
0
LINE
8
BLACK
6
CONTINUOUS
10
1.95276
20
-6.64311
11
1.98031
21
-6.64311
0
LINE
8
BLACK
6
CONTINUOUS
10
1.98031
20
-6.64311
11
1.98031
21
-6.67067
0
LINE
8
BLACK
6
CONTINUOUS
10
0.96063
20
-6.67067
11
0.933071
21
-6.67067
0
LINE
8
BLACK
6
CONTINUOUS
10
0.933071
20
-6.67067
11
0.933071
21
-6.64311
0
LINE
8
BLACK
6
CONTINUOUS
10
0.933071
20
-6.64311
11
0.96063
21
-6.64311
0
LINE
8
BLACK
6
CONTINUOUS
10
0.96063
20
-6.64311
11
0.96063
21
-6.67067
0
LINE
8
BLACK
6
CONTINUOUS
10
0.917323
20
-6.67067
11
0.889764
21
-6.67067
0
LINE
8
BLACK
6
CONTINUOUS
10
0.889764
20
-6.67067
11
0.889764
21
-6.64311
0
LINE
8
BLACK
6
CONTINUOUS
10
0.889764
20
-6.64311
11
0.917323
21
-6.64311
0
LINE
8
BLACK
6
CONTINUOUS
10
0.917323
20
-6.64311
11
0.917323
21
-6.67067
0
LINE
8
BLACK
6
CONTINUOUS
10
2.37402
20
-5.87657
11
2.34646
21
-5.87657
0
LINE
8
BLACK
6
CONTINUOUS
10
2.34646
20
-5.87657
11
2.34646
21
-5.84902
0
LINE
8
BLACK
6
CONTINUOUS
10
2.34646
20
-5.84902
11
2.37402
21
-5.84902
0
LINE
8
BLACK
6
CONTINUOUS
10
2.37402
20
-5.84902
11
2.37402
21
-5.87657
0
LINE
8
BLACK
6
CONTINUOUS
10
0.566929
20
-5.87657
11
0.53937
21
-5.87657
0
LINE
8
BLACK
6
CONTINUOUS
10
0.53937
20
-5.87657
11
0.53937
21
-5.84902
0
LINE
8
BLACK
6
CONTINUOUS
10
0.53937
20
-5.84902
11
0.566929
21
-5.84902
0
LINE
8
BLACK
6
CONTINUOUS
10
0.566929
20
-5.84902
11
0.566929
21
-5.87657
0
LINE
8
BLACK
6
CONTINUOUS
10
2.41732
20
-5.87657
11
2.38976
21
-5.87657
0
LINE
8
BLACK
6
CONTINUOUS
10
2.38976
20
-5.87657
11
2.38976
21
-5.84902
0
LINE
8
BLACK
6
CONTINUOUS
10
2.38976
20
-5.84902
11
2.41732
21
-5.84902
0
LINE
8
BLACK
6
CONTINUOUS
10
2.41732
20
-5.84902
11
2.41732
21
-5.87657
0
LINE
8
BLACK
6
CONTINUOUS
10
0.523622
20
-5.87657
11
0.496063
21
-5.87657
0
LINE
8
BLACK
6
CONTINUOUS
10
0.496063
20
-5.87657
11
0.496063
21
-5.84902
0
LINE
8
BLACK
6
CONTINUOUS
10
0.496063
20
-5.84902
11
0.523622
21
-5.84902
0
LINE
8
BLACK
6
CONTINUOUS
10
0.523622
20
-5.84902
11
0.523622
21
-5.87657
0
LINE
8
BLACK
6
CONTINUOUS
10
0.566929
20
-5.80453
11
0.53937
21
-5.80453
0
LINE
8
BLACK
6
CONTINUOUS
10
0.53937
20
-5.80453
11
0.53937
21
-5.77697
0
LINE
8
BLACK
6
CONTINUOUS
10
0.53937
20
-5.77697
11
0.566929
21
-5.77697
0
LINE
8
BLACK
6
CONTINUOUS
10
0.566929
20
-5.77697
11
0.566929
21
-5.80453
0
LINE
8
BLACK
6
CONTINUOUS
10
0.523622
20
-5.80453
11
0.496063
21
-5.80453
0
LINE
8
BLACK
6
CONTINUOUS
10
0.496063
20
-5.80453
11
0.496063
21
-5.77697
0
LINE
8
BLACK
6
CONTINUOUS
10
0.496063
20
-5.77697
11
0.523622
21
-5.77697
0
LINE
8
BLACK
6
CONTINUOUS
10
0.523622
20
-5.77697
11
0.523622
21
-5.80453
0
LINE
8
BLACK
6
CONTINUOUS
10
2.41732
20
-5.80453
11
2.38976
21
-5.80453
0
LINE
8
BLACK
6
CONTINUOUS
10
2.38976
20
-5.80453
11
2.38976
21
-5.77697
0
LINE
8
BLACK
6
CONTINUOUS
10
2.38976
20
-5.77697
11
2.41732
21
-5.77697
0
LINE
8
BLACK
6
CONTINUOUS
10
2.41732
20
-5.77697
11
2.41732
21
-5.80453
0
LINE
8
BLACK
6
CONTINUOUS
10
2.37402
20
-5.80453
11
2.34646
21
-5.80453
0
LINE
8
BLACK
6
CONTINUOUS
10
2.34646
20
-5.80453
11
2.34646
21
-5.77697
0
LINE
8
BLACK
6
CONTINUOUS
10
2.34646
20
-5.77697
11
2.37402
21
-5.77697
0
LINE
8
BLACK
6
CONTINUOUS
10
2.37402
20
-5.77697
11
2.37402
21
-5.80453
0
LINE
8
BLACK
6
CONTINUOUS
10
2.14579
20
-5.23763
11
2.1263
21
-5.25712
0
LINE
8
BLACK
6
CONTINUOUS
10
2.1263
20
-5.25712
11
2.10682
21
-5.23763
0
LINE
8
BLACK
6
CONTINUOUS
10
2.10682
20
-5.23763
11
2.1263
21
-5.21815
0
LINE
8
BLACK
6
CONTINUOUS
10
2.1263
20
-5.21815
11
2.14579
21
-5.23763
0
LINE
8
BLACK
6
CONTINUOUS
10
0.816413
20
-5.22779
11
0.796925
21
-5.24728
0
LINE
8
BLACK
6
CONTINUOUS
10
0.796925
20
-5.24728
11
0.777438
21
-5.22779
0
LINE
8
BLACK
6
CONTINUOUS
10
0.777438
20
-5.22779
11
0.796925
21
-5.2083
0
LINE
8
BLACK
6
CONTINUOUS
10
0.796925
20
-5.2083
11
0.816413
21
-5.22779
0
LINE
8
BLACK
6
CONTINUOUS
10
2.17641
20
-5.20701
11
2.15693
21
-5.2265
0
LINE
8
BLACK
6
CONTINUOUS
10
2.15693
20
-5.2265
11
2.13744
21
-5.20701
0
LINE
8
BLACK
6
CONTINUOUS
10
2.13744
20
-5.20701
11
2.15693
21
-5.18752
0
LINE
8
BLACK
6
CONTINUOUS
10
2.15693
20
-5.18752
11
2.17641
21
-5.20701
0
LINE
8
BLACK
6
CONTINUOUS
10
0.78579
20
-5.19717
11
0.766303
21
-5.21666
0
LINE
8
BLACK
6
CONTINUOUS
10
0.766303
20
-5.21666
11
0.746816
21
-5.19717
0
LINE
8
BLACK
6
CONTINUOUS
10
0.746816
20
-5.19717
11
0.766303
21
-5.17768
0
LINE
8
BLACK
6
CONTINUOUS
10
0.766303
20
-5.17768
11
0.78579
21
-5.19717
0
LINE
8
BLACK
6
CONTINUOUS
10
2.09485
20
-5.18669
11
2.07536
21
-5.20618
0
LINE
8
BLACK
6
CONTINUOUS
10
2.07536
20
-5.20618
11
2.05587
21
-5.18669
0
LINE
8
BLACK
6
CONTINUOUS
10
2.05587
20
-5.18669
11
2.07536
21
-5.1672
0
LINE
8
BLACK
6
CONTINUOUS
10
2.07536
20
-5.1672
11
2.09485
21
-5.18669
0
LINE
8
BLACK
6
CONTINUOUS
10
0.867358
20
-5.17685
11
0.847871
21
-5.19633
0
LINE
8
BLACK
6
CONTINUOUS
10
0.847871
20
-5.19633
11
0.828383
21
-5.17685
0
LINE
8
BLACK
6
CONTINUOUS
10
0.828383
20
-5.17685
11
0.847871
21
-5.15736
0
LINE
8
BLACK
6
CONTINUOUS
10
0.847871
20
-5.15736
11
0.867358
21
-5.17685
0
LINE
8
BLACK
6
CONTINUOUS
10
2.12547
20
-5.15607
11
2.10598
21
-5.17555
0
LINE
8
BLACK
6
CONTINUOUS
10
2.10598
20
-5.17555
11
2.08649
21
-5.15607
0
LINE
8
BLACK
6
CONTINUOUS
10
2.08649
20
-5.15607
11
2.10598
21
-5.13658
0
LINE
8
BLACK
6
CONTINUOUS
10
2.10598
20
-5.13658
11
2.12547
21
-5.15607
0
LINE
8
BLACK
6
CONTINUOUS
10
0.836735
20
-5.14622
11
0.817248
21
-5.16571
0
LINE
8
BLACK
6
CONTINUOUS
10
0.817248
20
-5.16571
11
0.797761
21
-5.14622
0
LINE
8
BLACK
6
CONTINUOUS
10
0.797761
20
-5.14622
11
0.817248
21
-5.12674
0
LINE
8
BLACK
6
CONTINUOUS
10
0.817248
20
-5.12674
11
0.836735
21
-5.14622
0
LINE
8
BLACK
6
CONTINUOUS
10
1.24611
20
-5.06665
11
1.2472
21
-5.06698
0
LINE
8
BLACK
6
CONTINUOUS
10
1.2472
20
-5.06698
11
1.24821
21
-5.06751
0
LINE
8
BLACK
6
CONTINUOUS
10
1.24821
20
-5.06751
11
1.24909
21
-5.06824
0
LINE
8
BLACK
6
CONTINUOUS
10
1.24909
20
-5.06824
11
1.24981
21
-5.06912
0
LINE
8
BLACK
6
CONTINUOUS
10
1.24981
20
-5.06912
11
1.25035
21
-5.07012
0
LINE
8
BLACK
6
CONTINUOUS
10
1.25035
20
-5.07012
11
1.25068
21
-5.07121
0
LINE
8
BLACK
6
CONTINUOUS
10
1.25068
20
-5.07121
11
1.25079
21
-5.07234
0
LINE
8
BLACK
6
CONTINUOUS
10
1.25079
20
-5.07234
11
1.25079
21
-5.08396
0
LINE
8
BLACK
6
CONTINUOUS
10
1.25079
20
-5.08396
11
1.25068
21
-5.08509
0
LINE
8
BLACK
6
CONTINUOUS
10
1.25068
20
-5.08509
11
1.25035
21
-5.08618
0
LINE
8
BLACK
6
CONTINUOUS
10
1.25035
20
-5.08618
11
1.24981
21
-5.08718
0
LINE
8
BLACK
6
CONTINUOUS
10
1.24981
20
-5.08718
11
1.24909
21
-5.08806
0
LINE
8
BLACK
6
CONTINUOUS
10
1.24909
20
-5.08806
11
1.24821
21
-5.08879
0
LINE
8
BLACK
6
CONTINUOUS
10
1.24821
20
-5.08879
11
1.2472
21
-5.08932
0
LINE
8
BLACK
6
CONTINUOUS
10
1.2472
20
-5.08932
11
1.24611
21
-5.08965
0
LINE
8
BLACK
6
CONTINUOUS
10
1.24611
20
-5.08965
11
1.24498
21
-5.08976
0
LINE
8
BLACK
6
CONTINUOUS
10
1.24498
20
-5.08976
11
1.2314
21
-5.08976
0
LINE
8
BLACK
6
CONTINUOUS
10
1.2314
20
-5.08976
11
1.23026
21
-5.08965
0
LINE
8
BLACK
6
CONTINUOUS
10
1.23026
20
-5.08965
11
1.22918
21
-5.08932
0
LINE
8
BLACK
6
CONTINUOUS
10
1.22918
20
-5.08932
11
1.22817
21
-5.08879
0
LINE
8
BLACK
6
CONTINUOUS
10
1.22817
20
-5.08879
11
1.22729
21
-5.08806
0
LINE
8
BLACK
6
CONTINUOUS
10
1.22729
20
-5.08806
11
1.22657
21
-5.08718
0
LINE
8
BLACK
6
CONTINUOUS
10
1.22657
20
-5.08718
11
1.22603
21
-5.08618
0
LINE
8
BLACK
6
CONTINUOUS
10
1.22603
20
-5.08618
11
1.2257
21
-5.08509
0
LINE
8
BLACK
6
CONTINUOUS
10
1.2257
20
-5.08509
11
1.22559
21
-5.08396
0
LINE
8
BLACK
6
CONTINUOUS
10
1.22559
20
-5.08396
11
1.22559
21
-5.07234
0
LINE
8
BLACK
6
CONTINUOUS
10
1.22559
20
-5.07234
11
1.2257
21
-5.07121
0
LINE
8
BLACK
6
CONTINUOUS
10
1.2257
20
-5.07121
11
1.22603
21
-5.07012
0
LINE
8
BLACK
6
CONTINUOUS
10
1.22603
20
-5.07012
11
1.22657
21
-5.06912
0
LINE
8
BLACK
6
CONTINUOUS
10
1.22657
20
-5.06912
11
1.22729
21
-5.06824
0
LINE
8
BLACK
6
CONTINUOUS
10
1.22729
20
-5.06824
11
1.22817
21
-5.06751
0
LINE
8
BLACK
6
CONTINUOUS
10
1.22817
20
-5.06751
11
1.22918
21
-5.06698
0
LINE
8
BLACK
6
CONTINUOUS
10
1.22918
20
-5.06698
11
1.23026
21
-5.06665
0
LINE
8
BLACK
6
CONTINUOUS
10
1.23026
20
-5.06665
11
1.2314
21
-5.06654
0
LINE
8
BLACK
6
CONTINUOUS
10
1.2314
20
-5.06654
11
1.24498
21
-5.06654
0
LINE
8
BLACK
6
CONTINUOUS
10
1.24498
20
-5.06654
11
1.24611
21
-5.06665
0
LINE
8
BLACK
6
CONTINUOUS
10
1.24611
20
-5.02846
11
1.2472
21
-5.02879
0
LINE
8
BLACK
6
CONTINUOUS
10
1.2472
20
-5.02879
11
1.24821
21
-5.02933
0
LINE
8
BLACK
6
CONTINUOUS
10
1.24821
20
-5.02933
11
1.24909
21
-5.03005
0
LINE
8
BLACK
6
CONTINUOUS
10
1.24909
20
-5.03005
11
1.24981
21
-5.03093
0
LINE
8
BLACK
6
CONTINUOUS
10
1.24981
20
-5.03093
11
1.25035
21
-5.03193
0
LINE
8
BLACK
6
CONTINUOUS
10
1.25035
20
-5.03193
11
1.25068
21
-5.03302
0
LINE
8
BLACK
6
CONTINUOUS
10
1.25068
20
-5.03302
11
1.25079
21
-5.03415
0
LINE
8
BLACK
6
CONTINUOUS
10
1.25079
20
-5.03415
11
1.25079
21
-5.04577
0
LINE
8
BLACK
6
CONTINUOUS
10
1.25079
20
-5.04577
11
1.25068
21
-5.0469
0
LINE
8
BLACK
6
CONTINUOUS
10
1.25068
20
-5.0469
11
1.25035
21
-5.04799
0
LINE
8
BLACK
6
CONTINUOUS
10
1.25035
20
-5.04799
11
1.24981
21
-5.04899
0
LINE
8
BLACK
6
CONTINUOUS
10
1.24981
20
-5.04899
11
1.24909
21
-5.04987
0
LINE
8
BLACK
6
CONTINUOUS
10
1.24909
20
-5.04987
11
1.24821
21
-5.0506
0
LINE
8
BLACK
6
CONTINUOUS
10
1.24821
20
-5.0506
11
1.2472
21
-5.05113
0
LINE
8
BLACK
6
CONTINUOUS
10
1.2472
20
-5.05113
11
1.24611
21
-5.05146
0
LINE
8
BLACK
6
CONTINUOUS
10
1.24611
20
-5.05146
11
1.24498
21
-5.05157
0
LINE
8
BLACK
6
CONTINUOUS
10
1.24498
20
-5.05157
11
1.2314
21
-5.05157
0
LINE
8
BLACK
6
CONTINUOUS
10
1.2314
20
-5.05157
11
1.23026
21
-5.05146
0
LINE
8
BLACK
6
CONTINUOUS
10
1.23026
20
-5.05146
11
1.22918
21
-5.05113
0
LINE
8
BLACK
6
CONTINUOUS
10
1.22918
20
-5.05113
11
1.22817
21
-5.0506
0
LINE
8
BLACK
6
CONTINUOUS
10
1.22817
20
-5.0506
11
1.22729
21
-5.04987
0
LINE
8
BLACK
6
CONTINUOUS
10
1.22729
20
-5.04987
11
1.22657
21
-5.04899
0
LINE
8
BLACK
6
CONTINUOUS
10
1.22657
20
-5.04899
11
1.22603
21
-5.04799
0
LINE
8
BLACK
6
CONTINUOUS
10
1.22603
20
-5.04799
11
1.2257
21
-5.0469
0
LINE
8
BLACK
6
CONTINUOUS
10
1.2257
20
-5.0469
11
1.22559
21
-5.04577
0
LINE
8
BLACK
6
CONTINUOUS
10
1.22559
20
-5.04577
11
1.22559
21
-5.03415
0
LINE
8
BLACK
6
CONTINUOUS
10
1.22559
20
-5.03415
11
1.2257
21
-5.03302
0
LINE
8
BLACK
6
CONTINUOUS
10
1.2257
20
-5.03302
11
1.22603
21
-5.03193
0
LINE
8
BLACK
6
CONTINUOUS
10
1.22603
20
-5.03193
11
1.22657
21
-5.03093
0
LINE
8
BLACK
6
CONTINUOUS
10
1.22657
20
-5.03093
11
1.22729
21
-5.03005
0
LINE
8
BLACK
6
CONTINUOUS
10
1.22729
20
-5.03005
11
1.22817
21
-5.02933
0
LINE
8
BLACK
6
CONTINUOUS
10
1.22817
20
-5.02933
11
1.22918
21
-5.02879
0
LINE
8
BLACK
6
CONTINUOUS
10
1.22918
20
-5.02879
11
1.23026
21
-5.02846
0
LINE
8
BLACK
6
CONTINUOUS
10
1.23026
20
-5.02846
11
1.2314
21
-5.02835
0
LINE
8
BLACK
6
CONTINUOUS
10
1.2314
20
-5.02835
11
1.24498
21
-5.02835
0
LINE
8
BLACK
6
CONTINUOUS
10
1.24498
20
-5.02835
11
1.24611
21
-5.02846
0
LINE
8
BLACK
6
CONTINUOUS
10
1.43445
20
-4.93701
11
1.40689
21
-4.93701
0
LINE
8
BLACK
6
CONTINUOUS
10
1.40689
20
-4.93701
11
1.40689
21
-4.90945
0
LINE
8
BLACK
6
CONTINUOUS
10
1.40689
20
-4.90945
11
1.43445
21
-4.90945
0
LINE
8
BLACK
6
CONTINUOUS
10
1.43445
20
-4.90945
11
1.43445
21
-4.93701
0
LINE
8
BLACK
6
CONTINUOUS
10
1.5065
20
-4.93701
11
1.47894
21
-4.93701
0
LINE
8
BLACK
6
CONTINUOUS
10
1.47894
20
-4.93701
11
1.47894
21
-4.90945
0
LINE
8
BLACK
6
CONTINUOUS
10
1.47894
20
-4.90945
11
1.5065
21
-4.90945
0
LINE
8
BLACK
6
CONTINUOUS
10
1.5065
20
-4.90945
11
1.5065
21
-4.93701
0
LINE
8
BLACK
6
CONTINUOUS
10
1.43445
20
-4.8937
11
1.40689
21
-4.8937
0
LINE
8
BLACK
6
CONTINUOUS
10
1.40689
20
-4.8937
11
1.40689
21
-4.86614
0
LINE
8
BLACK
6
CONTINUOUS
10
1.40689
20
-4.86614
11
1.43445
21
-4.86614
0
LINE
8
BLACK
6
CONTINUOUS
10
1.43445
20
-4.86614
11
1.43445
21
-4.8937
0
LINE
8
BLACK
6
CONTINUOUS
10
1.5065
20
-4.8937
11
1.47894
21
-4.8937
0
LINE
8
BLACK
6
CONTINUOUS
10
1.47894
20
-4.8937
11
1.47894
21
-4.86614
0
LINE
8
BLACK
6
CONTINUOUS
10
1.47894
20
-4.86614
11
1.5065
21
-4.86614
0
LINE
8
BLACK
6
CONTINUOUS
10
1.5065
20
-4.86614
11
1.5065
21
-4.8937
  0
ENDSEC
  0
EOF
