G04 #@! TF.GenerationSoftware,KiCad,Pcbnew,5.1.7-a382d34a8~87~ubuntu18.04.1*
G04 #@! TF.CreationDate,2020-11-02T16:56:13+01:00*
G04 #@! TF.ProjectId,debug_station,64656275-675f-4737-9461-74696f6e2e6b,rev?*
G04 #@! TF.SameCoordinates,Original*
G04 #@! TF.FileFunction,Soldermask,Bot*
G04 #@! TF.FilePolarity,Negative*
%FSLAX46Y46*%
G04 Gerber Fmt 4.6, Leading zero omitted, Abs format (unit mm)*
G04 Created by KiCad (PCBNEW 5.1.7-a382d34a8~87~ubuntu18.04.1) date 2020-11-02 16:56:13*
%MOMM*%
%LPD*%
G01*
G04 APERTURE LIST*
%ADD10C,2.102000*%
%ADD11O,1.002000X1.802000*%
%ADD12O,1.002000X2.502000*%
%ADD13C,0.802000*%
%ADD14C,0.100000*%
G04 APERTURE END LIST*
D10*
X34500000Y-192000000D03*
X37100000Y-192000000D03*
X55000000Y-139500000D03*
X39600000Y-187400000D03*
X34250000Y-187400000D03*
X39600000Y-192000000D03*
X19000000Y-142000000D03*
X19000000Y-144500000D03*
X55000000Y-142000000D03*
X55000000Y-144500000D03*
X55000000Y-149400000D03*
X55000000Y-147000000D03*
D11*
X28800000Y-196360000D03*
X20150000Y-196360000D03*
D12*
X28800000Y-192980000D03*
X20150000Y-192980000D03*
D13*
X24900000Y-193350000D03*
X27450000Y-193350000D03*
X26600000Y-193350000D03*
X25750000Y-193350000D03*
X21500000Y-193350000D03*
X23200000Y-193350000D03*
X24050000Y-193350000D03*
X22350000Y-193350000D03*
X27450000Y-192000000D03*
X26600000Y-192000000D03*
X25750000Y-192000000D03*
X24900000Y-192000000D03*
X24050000Y-192000000D03*
X23200000Y-192000000D03*
X22350000Y-192000000D03*
X21500000Y-192000000D03*
D14*
G36*
X25226509Y-193116767D02*
G01*
X25238033Y-193130810D01*
X25256670Y-193146105D01*
X25277934Y-193157470D01*
X25301009Y-193164470D01*
X25325000Y-193166833D01*
X25348991Y-193164470D01*
X25372066Y-193157470D01*
X25393330Y-193146105D01*
X25411967Y-193130810D01*
X25423491Y-193116767D01*
X25425363Y-193116063D01*
X25426909Y-193117331D01*
X25426700Y-193119147D01*
X25398123Y-193161917D01*
X25368191Y-193234178D01*
X25352931Y-193310894D01*
X25352931Y-193389106D01*
X25368191Y-193465822D01*
X25398123Y-193538083D01*
X25426700Y-193580853D01*
X25426831Y-193582849D01*
X25425168Y-193583960D01*
X25423491Y-193583233D01*
X25411967Y-193569190D01*
X25393330Y-193553895D01*
X25372066Y-193542530D01*
X25348991Y-193535530D01*
X25325000Y-193533167D01*
X25301009Y-193535530D01*
X25277934Y-193542530D01*
X25256670Y-193553895D01*
X25238033Y-193569190D01*
X25226509Y-193583233D01*
X25224637Y-193583937D01*
X25223091Y-193582669D01*
X25223300Y-193580853D01*
X25251877Y-193538083D01*
X25281809Y-193465822D01*
X25297069Y-193389106D01*
X25297069Y-193310894D01*
X25281809Y-193234178D01*
X25251877Y-193161917D01*
X25223300Y-193119147D01*
X25223169Y-193117151D01*
X25224832Y-193116040D01*
X25226509Y-193116767D01*
G37*
G36*
X22676509Y-193116767D02*
G01*
X22688033Y-193130810D01*
X22706670Y-193146105D01*
X22727934Y-193157470D01*
X22751009Y-193164470D01*
X22775000Y-193166833D01*
X22798991Y-193164470D01*
X22822066Y-193157470D01*
X22843330Y-193146105D01*
X22861967Y-193130810D01*
X22873491Y-193116767D01*
X22875363Y-193116063D01*
X22876909Y-193117331D01*
X22876700Y-193119147D01*
X22848123Y-193161917D01*
X22818191Y-193234178D01*
X22802931Y-193310894D01*
X22802931Y-193389106D01*
X22818191Y-193465822D01*
X22848123Y-193538083D01*
X22876700Y-193580853D01*
X22876831Y-193582849D01*
X22875168Y-193583960D01*
X22873491Y-193583233D01*
X22861967Y-193569190D01*
X22843330Y-193553895D01*
X22822066Y-193542530D01*
X22798991Y-193535530D01*
X22775000Y-193533167D01*
X22751009Y-193535530D01*
X22727934Y-193542530D01*
X22706670Y-193553895D01*
X22688033Y-193569190D01*
X22676509Y-193583233D01*
X22674637Y-193583937D01*
X22673091Y-193582669D01*
X22673300Y-193580853D01*
X22701877Y-193538083D01*
X22731809Y-193465822D01*
X22747069Y-193389106D01*
X22747069Y-193310894D01*
X22731809Y-193234178D01*
X22701877Y-193161917D01*
X22673300Y-193119147D01*
X22673169Y-193117151D01*
X22674832Y-193116040D01*
X22676509Y-193116767D01*
G37*
G36*
X26076509Y-193116767D02*
G01*
X26088033Y-193130810D01*
X26106670Y-193146105D01*
X26127934Y-193157470D01*
X26151009Y-193164470D01*
X26175000Y-193166833D01*
X26198991Y-193164470D01*
X26222066Y-193157470D01*
X26243330Y-193146105D01*
X26261967Y-193130810D01*
X26273491Y-193116767D01*
X26275363Y-193116063D01*
X26276909Y-193117331D01*
X26276700Y-193119147D01*
X26248123Y-193161917D01*
X26218191Y-193234178D01*
X26202931Y-193310894D01*
X26202931Y-193389106D01*
X26218191Y-193465822D01*
X26248123Y-193538083D01*
X26276700Y-193580853D01*
X26276831Y-193582849D01*
X26275168Y-193583960D01*
X26273491Y-193583233D01*
X26261967Y-193569190D01*
X26243330Y-193553895D01*
X26222066Y-193542530D01*
X26198991Y-193535530D01*
X26175000Y-193533167D01*
X26151009Y-193535530D01*
X26127934Y-193542530D01*
X26106670Y-193553895D01*
X26088033Y-193569190D01*
X26076509Y-193583233D01*
X26074637Y-193583937D01*
X26073091Y-193582669D01*
X26073300Y-193580853D01*
X26101877Y-193538083D01*
X26131809Y-193465822D01*
X26147069Y-193389106D01*
X26147069Y-193310894D01*
X26131809Y-193234178D01*
X26101877Y-193161917D01*
X26073300Y-193119147D01*
X26073169Y-193117151D01*
X26074832Y-193116040D01*
X26076509Y-193116767D01*
G37*
G36*
X23526509Y-193116767D02*
G01*
X23538033Y-193130810D01*
X23556670Y-193146105D01*
X23577934Y-193157470D01*
X23601009Y-193164470D01*
X23625000Y-193166833D01*
X23648991Y-193164470D01*
X23672066Y-193157470D01*
X23693330Y-193146105D01*
X23711967Y-193130810D01*
X23723491Y-193116767D01*
X23725363Y-193116063D01*
X23726909Y-193117331D01*
X23726700Y-193119147D01*
X23698123Y-193161917D01*
X23668191Y-193234178D01*
X23652931Y-193310894D01*
X23652931Y-193389106D01*
X23668191Y-193465822D01*
X23698123Y-193538083D01*
X23726700Y-193580853D01*
X23726831Y-193582849D01*
X23725168Y-193583960D01*
X23723491Y-193583233D01*
X23711967Y-193569190D01*
X23693330Y-193553895D01*
X23672066Y-193542530D01*
X23648991Y-193535530D01*
X23625000Y-193533167D01*
X23601009Y-193535530D01*
X23577934Y-193542530D01*
X23556670Y-193553895D01*
X23538033Y-193569190D01*
X23526509Y-193583233D01*
X23524637Y-193583937D01*
X23523091Y-193582669D01*
X23523300Y-193580853D01*
X23551877Y-193538083D01*
X23581809Y-193465822D01*
X23597069Y-193389106D01*
X23597069Y-193310894D01*
X23581809Y-193234178D01*
X23551877Y-193161917D01*
X23523300Y-193119147D01*
X23523169Y-193117151D01*
X23524832Y-193116040D01*
X23526509Y-193116767D01*
G37*
G36*
X24376509Y-193116767D02*
G01*
X24388033Y-193130810D01*
X24406670Y-193146105D01*
X24427934Y-193157470D01*
X24451009Y-193164470D01*
X24475000Y-193166833D01*
X24498991Y-193164470D01*
X24522066Y-193157470D01*
X24543330Y-193146105D01*
X24561967Y-193130810D01*
X24573491Y-193116767D01*
X24575363Y-193116063D01*
X24576909Y-193117331D01*
X24576700Y-193119147D01*
X24548123Y-193161917D01*
X24518191Y-193234178D01*
X24502931Y-193310894D01*
X24502931Y-193389106D01*
X24518191Y-193465822D01*
X24548123Y-193538083D01*
X24576700Y-193580853D01*
X24576831Y-193582849D01*
X24575168Y-193583960D01*
X24573491Y-193583233D01*
X24561967Y-193569190D01*
X24543330Y-193553895D01*
X24522066Y-193542530D01*
X24498991Y-193535530D01*
X24475000Y-193533167D01*
X24451009Y-193535530D01*
X24427934Y-193542530D01*
X24406670Y-193553895D01*
X24388033Y-193569190D01*
X24376509Y-193583233D01*
X24374637Y-193583937D01*
X24373091Y-193582669D01*
X24373300Y-193580853D01*
X24401877Y-193538083D01*
X24431809Y-193465822D01*
X24447069Y-193389106D01*
X24447069Y-193310894D01*
X24431809Y-193234178D01*
X24401877Y-193161917D01*
X24373300Y-193119147D01*
X24373169Y-193117151D01*
X24374832Y-193116040D01*
X24376509Y-193116767D01*
G37*
G36*
X26926509Y-193116767D02*
G01*
X26938033Y-193130810D01*
X26956670Y-193146105D01*
X26977934Y-193157470D01*
X27001009Y-193164470D01*
X27025000Y-193166833D01*
X27048991Y-193164470D01*
X27072066Y-193157470D01*
X27093330Y-193146105D01*
X27111967Y-193130810D01*
X27123491Y-193116767D01*
X27125363Y-193116063D01*
X27126909Y-193117331D01*
X27126700Y-193119147D01*
X27098123Y-193161917D01*
X27068191Y-193234178D01*
X27052931Y-193310894D01*
X27052931Y-193389106D01*
X27068191Y-193465822D01*
X27098123Y-193538083D01*
X27126700Y-193580853D01*
X27126831Y-193582849D01*
X27125168Y-193583960D01*
X27123491Y-193583233D01*
X27111967Y-193569190D01*
X27093330Y-193553895D01*
X27072066Y-193542530D01*
X27048991Y-193535530D01*
X27025000Y-193533167D01*
X27001009Y-193535530D01*
X26977934Y-193542530D01*
X26956670Y-193553895D01*
X26938033Y-193569190D01*
X26926509Y-193583233D01*
X26924637Y-193583937D01*
X26923091Y-193582669D01*
X26923300Y-193580853D01*
X26951877Y-193538083D01*
X26981809Y-193465822D01*
X26997069Y-193389106D01*
X26997069Y-193310894D01*
X26981809Y-193234178D01*
X26951877Y-193161917D01*
X26923300Y-193119147D01*
X26923169Y-193117151D01*
X26924832Y-193116040D01*
X26926509Y-193116767D01*
G37*
G36*
X21826509Y-193116767D02*
G01*
X21838033Y-193130810D01*
X21856670Y-193146105D01*
X21877934Y-193157470D01*
X21901009Y-193164470D01*
X21925000Y-193166833D01*
X21948991Y-193164470D01*
X21972066Y-193157470D01*
X21993330Y-193146105D01*
X22011967Y-193130810D01*
X22023491Y-193116767D01*
X22025363Y-193116063D01*
X22026909Y-193117331D01*
X22026700Y-193119147D01*
X21998123Y-193161917D01*
X21968191Y-193234178D01*
X21952931Y-193310894D01*
X21952931Y-193389106D01*
X21968191Y-193465822D01*
X21998123Y-193538083D01*
X22026700Y-193580853D01*
X22026831Y-193582849D01*
X22025168Y-193583960D01*
X22023491Y-193583233D01*
X22011967Y-193569190D01*
X21993330Y-193553895D01*
X21972066Y-193542530D01*
X21948991Y-193535530D01*
X21925000Y-193533167D01*
X21901009Y-193535530D01*
X21877934Y-193542530D01*
X21856670Y-193553895D01*
X21838033Y-193569190D01*
X21826509Y-193583233D01*
X21824637Y-193583937D01*
X21823091Y-193582669D01*
X21823300Y-193580853D01*
X21851877Y-193538083D01*
X21881809Y-193465822D01*
X21897069Y-193389106D01*
X21897069Y-193310894D01*
X21881809Y-193234178D01*
X21851877Y-193161917D01*
X21823300Y-193119147D01*
X21823169Y-193117151D01*
X21824832Y-193116040D01*
X21826509Y-193116767D01*
G37*
G36*
X24376509Y-191766767D02*
G01*
X24388033Y-191780810D01*
X24406670Y-191796105D01*
X24427934Y-191807470D01*
X24451009Y-191814470D01*
X24475000Y-191816833D01*
X24498991Y-191814470D01*
X24522066Y-191807470D01*
X24543330Y-191796105D01*
X24561967Y-191780810D01*
X24573491Y-191766767D01*
X24575363Y-191766063D01*
X24576909Y-191767331D01*
X24576700Y-191769147D01*
X24548123Y-191811917D01*
X24518191Y-191884178D01*
X24502931Y-191960894D01*
X24502931Y-192039106D01*
X24518191Y-192115822D01*
X24548123Y-192188083D01*
X24576700Y-192230853D01*
X24576831Y-192232849D01*
X24575168Y-192233960D01*
X24573491Y-192233233D01*
X24561967Y-192219190D01*
X24543330Y-192203895D01*
X24522066Y-192192530D01*
X24498991Y-192185530D01*
X24475000Y-192183167D01*
X24451009Y-192185530D01*
X24427934Y-192192530D01*
X24406670Y-192203895D01*
X24388033Y-192219190D01*
X24376509Y-192233233D01*
X24374637Y-192233937D01*
X24373091Y-192232669D01*
X24373300Y-192230853D01*
X24401877Y-192188083D01*
X24431809Y-192115822D01*
X24447069Y-192039106D01*
X24447069Y-191960894D01*
X24431809Y-191884178D01*
X24401877Y-191811917D01*
X24373300Y-191769147D01*
X24373169Y-191767151D01*
X24374832Y-191766040D01*
X24376509Y-191766767D01*
G37*
G36*
X21826509Y-191766767D02*
G01*
X21838033Y-191780810D01*
X21856670Y-191796105D01*
X21877934Y-191807470D01*
X21901009Y-191814470D01*
X21925000Y-191816833D01*
X21948991Y-191814470D01*
X21972066Y-191807470D01*
X21993330Y-191796105D01*
X22011967Y-191780810D01*
X22023491Y-191766767D01*
X22025363Y-191766063D01*
X22026909Y-191767331D01*
X22026700Y-191769147D01*
X21998123Y-191811917D01*
X21968191Y-191884178D01*
X21952931Y-191960894D01*
X21952931Y-192039106D01*
X21968191Y-192115822D01*
X21998123Y-192188083D01*
X22026700Y-192230853D01*
X22026831Y-192232849D01*
X22025168Y-192233960D01*
X22023491Y-192233233D01*
X22011967Y-192219190D01*
X21993330Y-192203895D01*
X21972066Y-192192530D01*
X21948991Y-192185530D01*
X21925000Y-192183167D01*
X21901009Y-192185530D01*
X21877934Y-192192530D01*
X21856670Y-192203895D01*
X21838033Y-192219190D01*
X21826509Y-192233233D01*
X21824637Y-192233937D01*
X21823091Y-192232669D01*
X21823300Y-192230853D01*
X21851877Y-192188083D01*
X21881809Y-192115822D01*
X21897069Y-192039106D01*
X21897069Y-191960894D01*
X21881809Y-191884178D01*
X21851877Y-191811917D01*
X21823300Y-191769147D01*
X21823169Y-191767151D01*
X21824832Y-191766040D01*
X21826509Y-191766767D01*
G37*
G36*
X22676509Y-191766767D02*
G01*
X22688033Y-191780810D01*
X22706670Y-191796105D01*
X22727934Y-191807470D01*
X22751009Y-191814470D01*
X22775000Y-191816833D01*
X22798991Y-191814470D01*
X22822066Y-191807470D01*
X22843330Y-191796105D01*
X22861967Y-191780810D01*
X22873491Y-191766767D01*
X22875363Y-191766063D01*
X22876909Y-191767331D01*
X22876700Y-191769147D01*
X22848123Y-191811917D01*
X22818191Y-191884178D01*
X22802931Y-191960894D01*
X22802931Y-192039106D01*
X22818191Y-192115822D01*
X22848123Y-192188083D01*
X22876700Y-192230853D01*
X22876831Y-192232849D01*
X22875168Y-192233960D01*
X22873491Y-192233233D01*
X22861967Y-192219190D01*
X22843330Y-192203895D01*
X22822066Y-192192530D01*
X22798991Y-192185530D01*
X22775000Y-192183167D01*
X22751009Y-192185530D01*
X22727934Y-192192530D01*
X22706670Y-192203895D01*
X22688033Y-192219190D01*
X22676509Y-192233233D01*
X22674637Y-192233937D01*
X22673091Y-192232669D01*
X22673300Y-192230853D01*
X22701877Y-192188083D01*
X22731809Y-192115822D01*
X22747069Y-192039106D01*
X22747069Y-191960894D01*
X22731809Y-191884178D01*
X22701877Y-191811917D01*
X22673300Y-191769147D01*
X22673169Y-191767151D01*
X22674832Y-191766040D01*
X22676509Y-191766767D01*
G37*
G36*
X26926509Y-191766767D02*
G01*
X26938033Y-191780810D01*
X26956670Y-191796105D01*
X26977934Y-191807470D01*
X27001009Y-191814470D01*
X27025000Y-191816833D01*
X27048991Y-191814470D01*
X27072066Y-191807470D01*
X27093330Y-191796105D01*
X27111967Y-191780810D01*
X27123491Y-191766767D01*
X27125363Y-191766063D01*
X27126909Y-191767331D01*
X27126700Y-191769147D01*
X27098123Y-191811917D01*
X27068191Y-191884178D01*
X27052931Y-191960894D01*
X27052931Y-192039106D01*
X27068191Y-192115822D01*
X27098123Y-192188083D01*
X27126700Y-192230853D01*
X27126831Y-192232849D01*
X27125168Y-192233960D01*
X27123491Y-192233233D01*
X27111967Y-192219190D01*
X27093330Y-192203895D01*
X27072066Y-192192530D01*
X27048991Y-192185530D01*
X27025000Y-192183167D01*
X27001009Y-192185530D01*
X26977934Y-192192530D01*
X26956670Y-192203895D01*
X26938033Y-192219190D01*
X26926509Y-192233233D01*
X26924637Y-192233937D01*
X26923091Y-192232669D01*
X26923300Y-192230853D01*
X26951877Y-192188083D01*
X26981809Y-192115822D01*
X26997069Y-192039106D01*
X26997069Y-191960894D01*
X26981809Y-191884178D01*
X26951877Y-191811917D01*
X26923300Y-191769147D01*
X26923169Y-191767151D01*
X26924832Y-191766040D01*
X26926509Y-191766767D01*
G37*
G36*
X23526509Y-191766767D02*
G01*
X23538033Y-191780810D01*
X23556670Y-191796105D01*
X23577934Y-191807470D01*
X23601009Y-191814470D01*
X23625000Y-191816833D01*
X23648991Y-191814470D01*
X23672066Y-191807470D01*
X23693330Y-191796105D01*
X23711967Y-191780810D01*
X23723491Y-191766767D01*
X23725363Y-191766063D01*
X23726909Y-191767331D01*
X23726700Y-191769147D01*
X23698123Y-191811917D01*
X23668191Y-191884178D01*
X23652931Y-191960894D01*
X23652931Y-192039106D01*
X23668191Y-192115822D01*
X23698123Y-192188083D01*
X23726700Y-192230853D01*
X23726831Y-192232849D01*
X23725168Y-192233960D01*
X23723491Y-192233233D01*
X23711967Y-192219190D01*
X23693330Y-192203895D01*
X23672066Y-192192530D01*
X23648991Y-192185530D01*
X23625000Y-192183167D01*
X23601009Y-192185530D01*
X23577934Y-192192530D01*
X23556670Y-192203895D01*
X23538033Y-192219190D01*
X23526509Y-192233233D01*
X23524637Y-192233937D01*
X23523091Y-192232669D01*
X23523300Y-192230853D01*
X23551877Y-192188083D01*
X23581809Y-192115822D01*
X23597069Y-192039106D01*
X23597069Y-191960894D01*
X23581809Y-191884178D01*
X23551877Y-191811917D01*
X23523300Y-191769147D01*
X23523169Y-191767151D01*
X23524832Y-191766040D01*
X23526509Y-191766767D01*
G37*
G36*
X26076509Y-191766767D02*
G01*
X26088033Y-191780810D01*
X26106670Y-191796105D01*
X26127934Y-191807470D01*
X26151009Y-191814470D01*
X26175000Y-191816833D01*
X26198991Y-191814470D01*
X26222066Y-191807470D01*
X26243330Y-191796105D01*
X26261967Y-191780810D01*
X26273491Y-191766767D01*
X26275363Y-191766063D01*
X26276909Y-191767331D01*
X26276700Y-191769147D01*
X26248123Y-191811917D01*
X26218191Y-191884178D01*
X26202931Y-191960894D01*
X26202931Y-192039106D01*
X26218191Y-192115822D01*
X26248123Y-192188083D01*
X26276700Y-192230853D01*
X26276831Y-192232849D01*
X26275168Y-192233960D01*
X26273491Y-192233233D01*
X26261967Y-192219190D01*
X26243330Y-192203895D01*
X26222066Y-192192530D01*
X26198991Y-192185530D01*
X26175000Y-192183167D01*
X26151009Y-192185530D01*
X26127934Y-192192530D01*
X26106670Y-192203895D01*
X26088033Y-192219190D01*
X26076509Y-192233233D01*
X26074637Y-192233937D01*
X26073091Y-192232669D01*
X26073300Y-192230853D01*
X26101877Y-192188083D01*
X26131809Y-192115822D01*
X26147069Y-192039106D01*
X26147069Y-191960894D01*
X26131809Y-191884178D01*
X26101877Y-191811917D01*
X26073300Y-191769147D01*
X26073169Y-191767151D01*
X26074832Y-191766040D01*
X26076509Y-191766767D01*
G37*
G36*
X25226509Y-191766767D02*
G01*
X25238033Y-191780810D01*
X25256670Y-191796105D01*
X25277934Y-191807470D01*
X25301009Y-191814470D01*
X25325000Y-191816833D01*
X25348991Y-191814470D01*
X25372066Y-191807470D01*
X25393330Y-191796105D01*
X25411967Y-191780810D01*
X25423491Y-191766767D01*
X25425363Y-191766063D01*
X25426909Y-191767331D01*
X25426700Y-191769147D01*
X25398123Y-191811917D01*
X25368191Y-191884178D01*
X25352931Y-191960894D01*
X25352931Y-192039106D01*
X25368191Y-192115822D01*
X25398123Y-192188083D01*
X25426700Y-192230853D01*
X25426831Y-192232849D01*
X25425168Y-192233960D01*
X25423491Y-192233233D01*
X25411967Y-192219190D01*
X25393330Y-192203895D01*
X25372066Y-192192530D01*
X25348991Y-192185530D01*
X25325000Y-192183167D01*
X25301009Y-192185530D01*
X25277934Y-192192530D01*
X25256670Y-192203895D01*
X25238033Y-192219190D01*
X25226509Y-192233233D01*
X25224637Y-192233937D01*
X25223091Y-192232669D01*
X25223300Y-192230853D01*
X25251877Y-192188083D01*
X25281809Y-192115822D01*
X25297069Y-192039106D01*
X25297069Y-191960894D01*
X25281809Y-191884178D01*
X25251877Y-191811917D01*
X25223300Y-191769147D01*
X25223169Y-191767151D01*
X25224832Y-191766040D01*
X25226509Y-191766767D01*
G37*
M02*
