M48
; DRILL file {KiCad 5.1.7-a382d34a8~87~ubuntu18.04.1} date Mon Nov  2 16:56:10 2020
; FORMAT={-:-/ absolute / inch / decimal}
; #@! TF.CreationDate,2020-11-02T16:56:10+01:00
; #@! TF.GenerationSoftware,Kicad,Pcbnew,5.1.7-a382d34a8~87~ubuntu18.04.1
; #@! TF.FileFunction,Plated,1,2,PTH
FMAT,2
INCH
T1C0.0157
T2C0.0236
T3C0.0433
%
G90
G05
T1
X0.748Y-5.5906
X0.748Y-5.689
X0.8465Y-7.5591
X0.8465Y-7.6122
X0.8799Y-7.5591
X0.8799Y-7.6122
X0.9134Y-7.5591
X0.9134Y-7.6122
X0.9469Y-7.5591
X0.9469Y-7.6122
X0.9803Y-7.5591
X0.9803Y-7.6122
X1.0138Y-7.5591
X1.0138Y-7.6122
X1.0472Y-7.5591
X1.0472Y-7.6122
X1.0807Y-7.5591
X1.0807Y-7.6122
T3
X2.1654Y-5.7874
X0.748Y-5.5906
X1.5591Y-7.5591
X1.5591Y-7.378
X1.3484Y-7.378
X2.1654Y-5.8819
X1.4606Y-7.5591
X1.3583Y-7.5591
X2.1654Y-5.689
X0.748Y-5.689
X2.1654Y-5.4921
X2.1654Y-5.5906
T2
G00X0.7933Y-7.5681
M15
G01X0.7933Y-7.6272
M16
G05
G00X0.7933Y-7.715
M15
G01X0.7933Y-7.7465
M16
G05
G00X1.1339Y-7.5681
M15
G01X1.1339Y-7.6272
M16
G05
G00X1.1339Y-7.715
M15
G01X1.1339Y-7.7465
M16
G05
T0
M30
