G04 #@! TF.GenerationSoftware,KiCad,Pcbnew,5.1.7-a382d34a8~87~ubuntu18.04.1*
G04 #@! TF.CreationDate,2020-11-02T16:56:13+01:00*
G04 #@! TF.ProjectId,debug_station,64656275-675f-4737-9461-74696f6e2e6b,rev?*
G04 #@! TF.SameCoordinates,Original*
G04 #@! TF.FileFunction,Profile,NP*
%FSLAX46Y46*%
G04 Gerber Fmt 4.6, Leading zero omitted, Abs format (unit mm)*
G04 Created by KiCad (PCBNEW 5.1.7-a382d34a8~87~ubuntu18.04.1) date 2020-11-02 16:56:13*
%MOMM*%
%LPD*%
G01*
G04 APERTURE LIST*
G04 #@! TA.AperFunction,Profile*
%ADD10C,0.050000*%
G04 #@! TD*
G04 APERTURE END LIST*
D10*
X13000000Y-161000000D02*
G75*
G02*
X12000000Y-160000000I0J1000000D01*
G01*
X46000000Y-123000000D02*
G75*
G02*
X47767767Y-123732233I0J-2500000D01*
G01*
X61267767Y-137232233D02*
G75*
G02*
X62000000Y-139000000I-1767767J-1767767D01*
G01*
X26232233Y-123732233D02*
G75*
G02*
X28000000Y-123000000I1767767J-1767767D01*
G01*
X12025128Y-139000000D02*
G75*
G02*
X12750001Y-137250001I2474872J0D01*
G01*
X62000000Y-160000000D02*
G75*
G02*
X61000000Y-161000000I-1000000J0D01*
G01*
X52000000Y-161500000D02*
G75*
G02*
X52500000Y-161000000I500000J0D01*
G01*
X52500000Y-178000000D02*
G75*
G02*
X52000000Y-177500000I0J500000D01*
G01*
X61000000Y-178000000D02*
G75*
G02*
X62000000Y-179000000I0J-1000000D01*
G01*
X62000000Y-197000000D02*
G75*
G02*
X61000000Y-198000000I-1000000J0D01*
G01*
X13000000Y-198000000D02*
G75*
G02*
X12000000Y-197000000I0J1000000D01*
G01*
X12000000Y-179000000D02*
G75*
G02*
X13000000Y-178000000I1000000J0D01*
G01*
X22000000Y-177500000D02*
G75*
G02*
X21500000Y-178000000I-500000J0D01*
G01*
X21500000Y-161000000D02*
G75*
G02*
X22000000Y-161500000I0J-500000D01*
G01*
X52500000Y-178000000D02*
X52500000Y-178000000D01*
X12000000Y-179000000D02*
X12000000Y-183000000D01*
X21500000Y-178000000D02*
X13000000Y-178000000D01*
X62000000Y-179000000D02*
X62000000Y-183000000D01*
X52500000Y-178000000D02*
X61000000Y-178000000D01*
X62000000Y-160000000D02*
X62000000Y-158000000D01*
X52500000Y-161000000D02*
X61000000Y-161000000D01*
X12000000Y-158000000D02*
X12000000Y-160000000D01*
X47767767Y-123732233D02*
X61267767Y-137232233D01*
X62000000Y-183000000D02*
X62000000Y-197000000D01*
X52000000Y-161500000D02*
X52000000Y-177500000D01*
X62000000Y-139000000D02*
X62000000Y-158000000D01*
X12000000Y-158000000D02*
X12025128Y-139000000D01*
X21500000Y-161000000D02*
X13000000Y-161000000D01*
X22000000Y-177500000D02*
X22000000Y-161500000D01*
X12000000Y-197000000D02*
X12000000Y-183000000D01*
X61000000Y-198000000D02*
X13000000Y-198000000D01*
X28000000Y-123000000D02*
X46000000Y-123000000D01*
X12750001Y-137250001D02*
X26232233Y-123732233D01*
M02*
