  0
SECTION
  2
HEADER
  9
$ANGBASE
  50
0.0
  9
$ANGDIR
  70
1
  9
$MEASUREMENT
  70
1
  0
ENDSEC
  0
SECTION
  2
TABLES
  0
TABLE
  2
LTYPE
  70
4
  0
LTYPE
  5
40F
  2
CONTINUOUS
  70
0
  3
Solid line
  72
65
  73
0
  40
0.0
  0
LTYPE
  5
410
  2
DASHDOT
 70
0
  3
Dash Dot ____ _ ____ _
 72
65
 73
4
 40
2.0
 49
1.25
 49
-0.25
 49
0.25
 49
-0.25
  0
LTYPE
  5
411
  2
DASHED
 70
0
  3
Dashed __ __ __ __ __
 72
65
 73
2
 40
0.75
 49
0.5
 49
-0.25
  0
LTYPE
  5
43B
  2
DOTTED
 70
0
  3
Dotted .  .  .  .
 72
65
 73
2
 40
0.2
 49
0.0
 49
-0.2
  0
ENDTAB
  0
TABLE
  2
STYLE
  70
4
  0
STYLE
  2
KICAD
  70
0
  40
0
  41
1
  42
1
  50
0
  71
0
  3
isocp.shx
  0
STYLE
  2
KICADB
  70
0
  40
0
  41
1
  42
1
  50
0
  71
0
  3
isocp.shx
  0
STYLE
  2
KICADI
  70
0
  40
0
  41
1
  42
1
  50
15
  71
0
  3
isocp.shx
  0
STYLE
  2
KICADBI
  70
0
  40
0
  41
1
  42
1
  50
15
  71
0
  3
isocp.shx
  0
ENDTAB
  0
TABLE
  2
LAYER
  70
1
  0
LAYER
  2
BLACK
  70
0
  62
7
  6
CONTINUOUS
  0
ENDTAB
  0
ENDSEC
  0
SECTION
  2
ENTITIES
0
LINE
8
BLACK
6
CONTINUOUS
10
-1.66249
20
0.938472
11
-1.6079
21
0.915857
0
LINE
8
BLACK
6
CONTINUOUS
10
-1.6079
20
0.915857
11
-1.58417
21
0.9
0
LINE
8
BLACK
6
CONTINUOUS
10
-1.58417
20
0.9
11
-1.35
21
0.9
0
LINE
8
BLACK
6
CONTINUOUS
10
-1.35
20
0.9
11
-1.35
21
0.4
0
LINE
8
BLACK
6
CONTINUOUS
10
-1.35
20
0.4
11
-1.58417
21
0.4
0
LINE
8
BLACK
6
CONTINUOUS
10
-1.58417
20
0.4
11
-1.6079
21
0.384143
0
LINE
8
BLACK
6
CONTINUOUS
10
-1.6079
20
0.384143
11
-1.66249
21
0.361528
0
LINE
8
BLACK
6
CONTINUOUS
10
-1.66249
20
0.361528
11
-1.72045
21
0.35
0
LINE
8
BLACK
6
CONTINUOUS
10
-1.72045
20
0.35
11
-1.77955
21
0.35
0
LINE
8
BLACK
6
CONTINUOUS
10
-1.77955
20
0.35
11
-1.83751
21
0.361528
0
LINE
8
BLACK
6
CONTINUOUS
10
-1.83751
20
0.361528
11
-1.8921
21
0.384143
0
LINE
8
BLACK
6
CONTINUOUS
10
-1.8921
20
0.384143
11
-1.94124
21
0.416974
0
LINE
8
BLACK
6
CONTINUOUS
10
-1.94124
20
0.416974
11
-1.98303
21
0.458761
0
LINE
8
BLACK
6
CONTINUOUS
10
-1.98303
20
0.458761
11
-2.01586
21
0.507897
0
LINE
8
BLACK
6
CONTINUOUS
10
-2.01586
20
0.507897
11
-2.03847
21
0.562493
0
LINE
8
BLACK
6
CONTINUOUS
10
-2.03847
20
0.562493
11
-2.05
21
0.620453
0
LINE
8
BLACK
6
CONTINUOUS
10
-2.05
20
0.620453
11
-2.05
21
0.679547
0
LINE
8
BLACK
6
CONTINUOUS
10
-2.05
20
0.679547
11
-2.03847
21
0.737507
0
LINE
8
BLACK
6
CONTINUOUS
10
-2.03847
20
0.737507
11
-2.01586
21
0.792103
0
LINE
8
BLACK
6
CONTINUOUS
10
-2.01586
20
0.792103
11
-1.98303
21
0.841239
0
LINE
8
BLACK
6
CONTINUOUS
10
-1.98303
20
0.841239
11
-1.94124
21
0.883026
0
LINE
8
BLACK
6
CONTINUOUS
10
-1.94124
20
0.883026
11
-1.8921
21
0.915857
0
LINE
8
BLACK
6
CONTINUOUS
10
-1.8921
20
0.915857
11
-1.83751
21
0.938472
0
LINE
8
BLACK
6
CONTINUOUS
10
-1.83751
20
0.938472
11
-1.77955
21
0.95
0
LINE
8
BLACK
6
CONTINUOUS
10
-1.77955
20
0.95
11
-1.72045
21
0.95
0
LINE
8
BLACK
6
CONTINUOUS
10
-1.72045
20
0.95
11
-1.66249
21
0.938472
0
LINE
8
BLACK
6
CONTINUOUS
10
-1.35
20
1.5262
11
-1.20133
21
1.5262
0
LINE
8
BLACK
6
CONTINUOUS
10
-1.20133
20
1.5262
11
-1.1976
21
1.52657
0
LINE
8
BLACK
6
CONTINUOUS
10
-1.1976
20
1.52657
11
-1.19387
21
1.5262
0
LINE
8
BLACK
6
CONTINUOUS
10
-1.19387
20
1.5262
11
-1.19386
21
1.5262
0
LINE
8
BLACK
6
CONTINUOUS
10
-1.19386
20
1.5262
11
-1.18266
21
1.5251
0
LINE
8
BLACK
6
CONTINUOUS
10
-1.18266
20
1.5251
11
-1.1683
21
1.52074
0
LINE
8
BLACK
6
CONTINUOUS
10
-1.1683
20
1.52074
11
-1.15506
21
1.51366
0
LINE
8
BLACK
6
CONTINUOUS
10
-1.15506
20
1.51366
11
-1.14346
21
1.50414
0
LINE
8
BLACK
6
CONTINUOUS
10
-1.14346
20
1.50414
11
-1.14107
21
1.50123
0
LINE
8
BLACK
6
CONTINUOUS
10
-1.14107
20
1.50123
11
-0.748762
21
1.10892
0
LINE
8
BLACK
6
CONTINUOUS
10
-0.748762
20
1.10892
11
-0.745858
21
1.10654
0
LINE
8
BLACK
6
CONTINUOUS
10
-0.745858
20
1.10654
11
-0.743476
21
1.10364
0
LINE
8
BLACK
6
CONTINUOUS
10
-0.743476
20
1.10364
11
-0.736336
21
1.09494
0
LINE
8
BLACK
6
CONTINUOUS
10
-0.736336
20
1.09494
11
-0.736335
21
1.09494
0
LINE
8
BLACK
6
CONTINUOUS
10
-0.736335
20
1.09494
11
-0.72926
21
1.0817
0
LINE
8
BLACK
6
CONTINUOUS
10
-0.72926
20
1.0817
11
-0.724903
21
1.06734
0
LINE
8
BLACK
6
CONTINUOUS
10
-0.724903
20
1.06734
11
-0.7238
21
1.05614
0
LINE
8
BLACK
6
CONTINUOUS
10
-0.7238
20
1.05614
11
-0.723432
21
1.0524
0
LINE
8
BLACK
6
CONTINUOUS
10
-0.723432
20
1.0524
11
-0.7238
21
1.04867
0
LINE
8
BLACK
6
CONTINUOUS
10
-0.7238
20
1.04867
11
-0.7238
21
0.940721
0
LINE
8
BLACK
6
CONTINUOUS
10
-0.7238
20
0.940721
11
-0.712493
21
0.938472
0
LINE
8
BLACK
6
CONTINUOUS
10
-0.712493
20
0.938472
11
-0.657897
21
0.915857
0
LINE
8
BLACK
6
CONTINUOUS
10
-0.657897
20
0.915857
11
-0.634165
21
0.9
0
LINE
8
BLACK
6
CONTINUOUS
10
-0.634165
20
0.9
11
-0.55
21
0.9
0
LINE
8
BLACK
6
CONTINUOUS
10
-0.55
20
0.9
11
-0.55
21
0.815835
0
LINE
8
BLACK
6
CONTINUOUS
10
-0.55
20
0.815835
11
-0.534143
21
0.792103
0
LINE
8
BLACK
6
CONTINUOUS
10
-0.534143
20
0.792103
11
-0.511528
21
0.737507
0
LINE
8
BLACK
6
CONTINUOUS
10
-0.511528
20
0.737507
11
-0.509279
21
0.7262
0
LINE
8
BLACK
6
CONTINUOUS
10
-0.509279
20
0.7262
11
-0.25
21
0.7262
0
LINE
8
BLACK
6
CONTINUOUS
10
-0.25
20
0.7262
11
-0.25
21
0.9
0
LINE
8
BLACK
6
CONTINUOUS
10
-0.25
20
0.9
11
0.25
21
0.9
0
LINE
8
BLACK
6
CONTINUOUS
10
0.25
20
0.9
11
0.25
21
0.7262
0
LINE
8
BLACK
6
CONTINUOUS
10
0.25
20
0.7262
11
0.55
21
0.7262
0
LINE
8
BLACK
6
CONTINUOUS
10
0.55
20
0.7262
11
0.55
21
0.9
0
LINE
8
BLACK
6
CONTINUOUS
10
0.55
20
0.9
11
0.723801
21
0.9
0
LINE
8
BLACK
6
CONTINUOUS
10
0.723801
20
0.9
11
0.723801
21
1.04866
0
LINE
8
BLACK
6
CONTINUOUS
10
0.723801
20
1.04866
11
0.723432
21
1.0524
0
LINE
8
BLACK
6
CONTINUOUS
10
0.723432
20
1.0524
11
0.724904
21
1.06734
0
LINE
8
BLACK
6
CONTINUOUS
10
0.724904
20
1.06734
11
0.729261
21
1.0817
0
LINE
8
BLACK
6
CONTINUOUS
10
0.729261
20
1.0817
11
0.736336
21
1.09494
0
LINE
8
BLACK
6
CONTINUOUS
10
0.736336
20
1.09494
11
0.743477
21
1.10364
0
LINE
8
BLACK
6
CONTINUOUS
10
0.743477
20
1.10364
11
0.745859
21
1.10654
0
LINE
8
BLACK
6
CONTINUOUS
10
0.745859
20
1.10654
11
0.748764
21
1.10893
0
LINE
8
BLACK
6
CONTINUOUS
10
0.748764
20
1.10893
11
1.14107
21
1.50124
0
LINE
8
BLACK
6
CONTINUOUS
10
1.14107
20
1.50124
11
1.14346
21
1.50414
0
LINE
8
BLACK
6
CONTINUOUS
10
1.14346
20
1.50414
11
1.14976
21
1.50931
0
LINE
8
BLACK
6
CONTINUOUS
10
1.14976
20
1.50931
11
1.15506
21
1.51366
0
LINE
8
BLACK
6
CONTINUOUS
10
1.15506
20
1.51366
11
1.1683
21
1.52074
0
LINE
8
BLACK
6
CONTINUOUS
10
1.1683
20
1.52074
11
1.1683
21
1.52074
0
LINE
8
BLACK
6
CONTINUOUS
10
1.1683
20
1.52074
11
1.18266
21
1.5251
0
LINE
8
BLACK
6
CONTINUOUS
10
1.18266
20
1.5251
11
1.19386
21
1.5262
0
LINE
8
BLACK
6
CONTINUOUS
10
1.19386
20
1.5262
11
1.19386
21
1.5262
0
LINE
8
BLACK
6
CONTINUOUS
10
1.19386
20
1.5262
11
1.1976
21
1.52657
0
LINE
8
BLACK
6
CONTINUOUS
10
1.1976
20
1.52657
11
1.20133
21
1.5262
0
LINE
8
BLACK
6
CONTINUOUS
10
1.20133
20
1.5262
11
1.35
21
1.5262
0
LINE
8
BLACK
6
CONTINUOUS
10
1.35
20
1.5262
11
1.35
21
1.7
0
LINE
8
BLACK
6
CONTINUOUS
10
1.35
20
1.7
11
1.85
21
1.7
0
LINE
8
BLACK
6
CONTINUOUS
10
1.85
20
1.7
11
1.85
21
1.2
0
LINE
8
BLACK
6
CONTINUOUS
10
1.85
20
1.2
11
1.35
21
1.2
0
LINE
8
BLACK
6
CONTINUOUS
10
1.35
20
1.2
11
1.35
21
1.3738
0
LINE
8
BLACK
6
CONTINUOUS
10
1.35
20
1.3738
11
1.22916
21
1.3738
0
LINE
8
BLACK
6
CONTINUOUS
10
1.22916
20
1.3738
11
0.8762
21
1.02084
0
LINE
8
BLACK
6
CONTINUOUS
10
0.8762
20
1.02084
11
0.8762
21
0.9
0
LINE
8
BLACK
6
CONTINUOUS
10
0.8762
20
0.9
11
1.05
21
0.9
0
LINE
8
BLACK
6
CONTINUOUS
10
1.05
20
0.9
11
1.05
21
0.4
0
LINE
8
BLACK
6
CONTINUOUS
10
1.05
20
0.4
11
0.55
21
0.4
0
LINE
8
BLACK
6
CONTINUOUS
10
0.55
20
0.4
11
0.55
21
0.5738
0
LINE
8
BLACK
6
CONTINUOUS
10
0.55
20
0.5738
11
0.25
21
0.5738
0
LINE
8
BLACK
6
CONTINUOUS
10
0.25
20
0.5738
11
0.25
21
0.4
0
LINE
8
BLACK
6
CONTINUOUS
10
0.25
20
0.4
11
-0.25
21
0.4
0
LINE
8
BLACK
6
CONTINUOUS
10
-0.25
20
0.4
11
-0.25
21
0.5738
0
LINE
8
BLACK
6
CONTINUOUS
10
-0.25
20
0.5738
11
-0.509279
21
0.5738
0
LINE
8
BLACK
6
CONTINUOUS
10
-0.509279
20
0.5738
11
-0.511528
21
0.562493
0
LINE
8
BLACK
6
CONTINUOUS
10
-0.511528
20
0.562493
11
-0.534143
21
0.507897
0
LINE
8
BLACK
6
CONTINUOUS
10
-0.534143
20
0.507897
11
-0.55
21
0.484165
0
LINE
8
BLACK
6
CONTINUOUS
10
-0.55
20
0.484165
11
-0.55
21
0.4
0
LINE
8
BLACK
6
CONTINUOUS
10
-0.55
20
0.4
11
-0.634165
21
0.4
0
LINE
8
BLACK
6
CONTINUOUS
10
-0.634165
20
0.4
11
-0.657897
21
0.384143
0
LINE
8
BLACK
6
CONTINUOUS
10
-0.657897
20
0.384143
11
-0.712493
21
0.361528
0
LINE
8
BLACK
6
CONTINUOUS
10
-0.712493
20
0.361528
11
-0.770453
21
0.35
0
LINE
8
BLACK
6
CONTINUOUS
10
-0.770453
20
0.35
11
-0.829547
21
0.35
0
LINE
8
BLACK
6
CONTINUOUS
10
-0.829547
20
0.35
11
-0.887507
21
0.361528
0
LINE
8
BLACK
6
CONTINUOUS
10
-0.887507
20
0.361528
11
-0.942103
21
0.384143
0
LINE
8
BLACK
6
CONTINUOUS
10
-0.942103
20
0.384143
11
-0.965835
21
0.4
0
LINE
8
BLACK
6
CONTINUOUS
10
-0.965835
20
0.4
11
-1.05
21
0.4
0
LINE
8
BLACK
6
CONTINUOUS
10
-1.05
20
0.4
11
-1.05
21
0.484165
0
LINE
8
BLACK
6
CONTINUOUS
10
-1.05
20
0.484165
11
-1.06586
21
0.507897
0
LINE
8
BLACK
6
CONTINUOUS
10
-1.06586
20
0.507897
11
-1.08847
21
0.562493
0
LINE
8
BLACK
6
CONTINUOUS
10
-1.08847
20
0.562493
11
-1.1
21
0.620453
0
LINE
8
BLACK
6
CONTINUOUS
10
-1.1
20
0.620453
11
-1.1
21
0.679547
0
LINE
8
BLACK
6
CONTINUOUS
10
-1.1
20
0.679547
11
-1.08847
21
0.737507
0
LINE
8
BLACK
6
CONTINUOUS
10
-1.08847
20
0.737507
11
-1.06586
21
0.792103
0
LINE
8
BLACK
6
CONTINUOUS
10
-1.06586
20
0.792103
11
-1.05
21
0.815835
0
LINE
8
BLACK
6
CONTINUOUS
10
-1.05
20
0.815835
11
-1.05
21
0.9
0
LINE
8
BLACK
6
CONTINUOUS
10
-1.05
20
0.9
11
-0.965835
21
0.9
0
LINE
8
BLACK
6
CONTINUOUS
10
-0.965835
20
0.9
11
-0.942103
21
0.915857
0
LINE
8
BLACK
6
CONTINUOUS
10
-0.942103
20
0.915857
11
-0.887507
21
0.938472
0
LINE
8
BLACK
6
CONTINUOUS
10
-0.887507
20
0.938472
11
-0.8762
21
0.940721
0
LINE
8
BLACK
6
CONTINUOUS
10
-0.8762
20
0.940721
11
-0.8762
21
1.02084
0
LINE
8
BLACK
6
CONTINUOUS
10
-0.8762
20
1.02084
11
-1.22916
21
1.3738
0
LINE
8
BLACK
6
CONTINUOUS
10
-1.22916
20
1.3738
11
-1.35
21
1.3738
0
LINE
8
BLACK
6
CONTINUOUS
10
-1.35
20
1.3738
11
-1.35
21
1.2
0
LINE
8
BLACK
6
CONTINUOUS
10
-1.35
20
1.2
11
-1.85
21
1.2
0
LINE
8
BLACK
6
CONTINUOUS
10
-1.85
20
1.2
11
-1.85
21
1.7
0
LINE
8
BLACK
6
CONTINUOUS
10
-1.85
20
1.7
11
-1.35
21
1.7
0
LINE
8
BLACK
6
CONTINUOUS
10
-1.35
20
1.7
11
-1.35
21
1.5262
0
LINE
8
BLACK
6
CONTINUOUS
10
1.68751
20
2.53847
11
1.7421
21
2.51586
0
LINE
8
BLACK
6
CONTINUOUS
10
1.7421
20
2.51586
11
1.76583
21
2.5
0
LINE
8
BLACK
6
CONTINUOUS
10
1.76583
20
2.5
11
1.85
21
2.5
0
LINE
8
BLACK
6
CONTINUOUS
10
1.85
20
2.5
11
1.85
21
2.41583
0
LINE
8
BLACK
6
CONTINUOUS
10
1.85
20
2.41583
11
1.86586
21
2.3921
0
LINE
8
BLACK
6
CONTINUOUS
10
1.86586
20
2.3921
11
1.88847
21
2.33751
0
LINE
8
BLACK
6
CONTINUOUS
10
1.88847
20
2.33751
11
1.89072
21
2.3262
0
LINE
8
BLACK
6
CONTINUOUS
10
1.89072
20
2.3262
11
1.99867
21
2.3262
0
LINE
8
BLACK
6
CONTINUOUS
10
1.99867
20
2.3262
11
2.0024
21
2.32657
0
LINE
8
BLACK
6
CONTINUOUS
10
2.0024
20
2.32657
11
2.00613
21
2.3262
0
LINE
8
BLACK
6
CONTINUOUS
10
2.00613
20
2.3262
11
2.00614
21
2.3262
0
LINE
8
BLACK
6
CONTINUOUS
10
2.00614
20
2.3262
11
2.01734
21
2.3251
0
LINE
8
BLACK
6
CONTINUOUS
10
2.01734
20
2.3251
11
2.0317
21
2.32074
0
LINE
8
BLACK
6
CONTINUOUS
10
2.0317
20
2.32074
11
2.04494
21
2.31366
0
LINE
8
BLACK
6
CONTINUOUS
10
2.04494
20
2.31366
11
2.05654
21
2.30414
0
LINE
8
BLACK
6
CONTINUOUS
10
2.05654
20
2.30414
11
2.05893
21
2.30123
0
LINE
8
BLACK
6
CONTINUOUS
10
2.05893
20
2.30123
11
2.17744
21
2.18273
0
LINE
8
BLACK
6
CONTINUOUS
10
2.17744
20
2.18273
11
2.18034
21
2.18034
0
LINE
8
BLACK
6
CONTINUOUS
10
2.18034
20
2.18034
11
2.18986
21
2.16874
0
LINE
8
BLACK
6
CONTINUOUS
10
2.18986
20
2.16874
11
2.19694
21
2.1555
0
LINE
8
BLACK
6
CONTINUOUS
10
2.19694
20
2.1555
11
2.2013
21
2.14114
0
LINE
8
BLACK
6
CONTINUOUS
10
2.2013
20
2.14114
11
2.2024
21
2.12994
0
LINE
8
BLACK
6
CONTINUOUS
10
2.2024
20
2.12994
11
2.20277
21
2.1262
0
LINE
8
BLACK
6
CONTINUOUS
10
2.20277
20
2.1262
11
2.2024
21
2.12247
0
LINE
8
BLACK
6
CONTINUOUS
10
2.2024
20
2.12247
11
2.2024
21
0.777535
0
LINE
8
BLACK
6
CONTINUOUS
10
2.2024
20
0.777535
11
2.20277
21
0.7738
0
LINE
8
BLACK
6
CONTINUOUS
10
2.20277
20
0.7738
11
2.2024
21
0.770066
0
LINE
8
BLACK
6
CONTINUOUS
10
2.2024
20
0.770066
11
2.2024
21
0.770064
0
LINE
8
BLACK
6
CONTINUOUS
10
2.2024
20
0.770064
11
2.2013
21
0.758863
0
LINE
8
BLACK
6
CONTINUOUS
10
2.2013
20
0.758863
11
2.19694
21
0.7445
0
LINE
8
BLACK
6
CONTINUOUS
10
2.19694
20
0.7445
11
2.18986
21
0.731262
0
LINE
8
BLACK
6
CONTINUOUS
10
2.18986
20
0.731262
11
2.18034
21
0.719659
0
LINE
8
BLACK
6
CONTINUOUS
10
2.18034
20
0.719659
11
2.17744
21
0.717276
0
LINE
8
BLACK
6
CONTINUOUS
10
2.17744
20
0.717276
11
2.05893
21
0.598768
0
LINE
8
BLACK
6
CONTINUOUS
10
2.05893
20
0.598768
11
2.05654
21
0.595858
0
LINE
8
BLACK
6
CONTINUOUS
10
2.05654
20
0.595858
11
2.04494
21
0.586336
0
LINE
8
BLACK
6
CONTINUOUS
10
2.04494
20
0.586336
11
2.0317
21
0.57926
0
LINE
8
BLACK
6
CONTINUOUS
10
2.0317
20
0.57926
11
2.01734
21
0.574903
0
LINE
8
BLACK
6
CONTINUOUS
10
2.01734
20
0.574903
11
2.00614
21
0.5738
0
LINE
8
BLACK
6
CONTINUOUS
10
2.00614
20
0.5738
11
2.00613
21
0.5738
0
LINE
8
BLACK
6
CONTINUOUS
10
2.00613
20
0.5738
11
2.0024
21
0.573432
0
LINE
8
BLACK
6
CONTINUOUS
10
2.0024
20
0.573432
11
1.99867
21
0.5738
0
LINE
8
BLACK
6
CONTINUOUS
10
1.99867
20
0.5738
11
1.85
21
0.5738
0
LINE
8
BLACK
6
CONTINUOUS
10
1.85
20
0.5738
11
1.85
21
0.4
0
LINE
8
BLACK
6
CONTINUOUS
10
1.85
20
0.4
11
1.35
21
0.4
0
LINE
8
BLACK
6
CONTINUOUS
10
1.35
20
0.4
11
1.35
21
0.9
0
LINE
8
BLACK
6
CONTINUOUS
10
1.35
20
0.9
11
1.85
21
0.9
0
LINE
8
BLACK
6
CONTINUOUS
10
1.85
20
0.9
11
1.85
21
0.7262
0
LINE
8
BLACK
6
CONTINUOUS
10
1.85
20
0.7262
11
1.97084
21
0.7262
0
LINE
8
BLACK
6
CONTINUOUS
10
1.97084
20
0.7262
11
2.05
21
0.805364
0
LINE
8
BLACK
6
CONTINUOUS
10
2.05
20
0.805364
11
2.05
21
1.63006
0
LINE
8
BLACK
6
CONTINUOUS
10
2.05
20
1.63006
11
2.05
21
2.09464
0
LINE
8
BLACK
6
CONTINUOUS
10
2.05
20
2.09464
11
1.97084
21
2.1738
0
LINE
8
BLACK
6
CONTINUOUS
10
1.97084
20
2.1738
11
1.89072
21
2.1738
0
LINE
8
BLACK
6
CONTINUOUS
10
1.89072
20
2.1738
11
1.88847
21
2.16249
0
LINE
8
BLACK
6
CONTINUOUS
10
1.88847
20
2.16249
11
1.86586
21
2.1079
0
LINE
8
BLACK
6
CONTINUOUS
10
1.86586
20
2.1079
11
1.85
21
2.08417
0
LINE
8
BLACK
6
CONTINUOUS
10
1.85
20
2.08417
11
1.85
21
2
0
LINE
8
BLACK
6
CONTINUOUS
10
1.85
20
2
11
1.76583
21
2
0
LINE
8
BLACK
6
CONTINUOUS
10
1.76583
20
2
11
1.7421
21
1.98414
0
LINE
8
BLACK
6
CONTINUOUS
10
1.7421
20
1.98414
11
1.68751
21
1.96153
0
LINE
8
BLACK
6
CONTINUOUS
10
1.68751
20
1.96153
11
1.62955
21
1.95
0
LINE
8
BLACK
6
CONTINUOUS
10
1.62955
20
1.95
11
1.57045
21
1.95
0
LINE
8
BLACK
6
CONTINUOUS
10
1.57045
20
1.95
11
1.51249
21
1.96153
0
LINE
8
BLACK
6
CONTINUOUS
10
1.51249
20
1.96153
11
1.4579
21
1.98414
0
LINE
8
BLACK
6
CONTINUOUS
10
1.4579
20
1.98414
11
1.43416
21
2
0
LINE
8
BLACK
6
CONTINUOUS
10
1.43416
20
2
11
1.35
21
2
0
LINE
8
BLACK
6
CONTINUOUS
10
1.35
20
2
11
1.35
21
2.08417
0
LINE
8
BLACK
6
CONTINUOUS
10
1.35
20
2.08417
11
1.33414
21
2.1079
0
LINE
8
BLACK
6
CONTINUOUS
10
1.33414
20
2.1079
11
1.31153
21
2.16249
0
LINE
8
BLACK
6
CONTINUOUS
10
1.31153
20
2.16249
11
1.3
21
2.22045
0
LINE
8
BLACK
6
CONTINUOUS
10
1.3
20
2.22045
11
1.3
21
2.27955
0
LINE
8
BLACK
6
CONTINUOUS
10
1.3
20
2.27955
11
1.31153
21
2.33751
0
LINE
8
BLACK
6
CONTINUOUS
10
1.31153
20
2.33751
11
1.33414
21
2.3921
0
LINE
8
BLACK
6
CONTINUOUS
10
1.33414
20
2.3921
11
1.35
21
2.41583
0
LINE
8
BLACK
6
CONTINUOUS
10
1.35
20
2.41583
11
1.35
21
2.5
0
LINE
8
BLACK
6
CONTINUOUS
10
1.35
20
2.5
11
1.43416
21
2.5
0
LINE
8
BLACK
6
CONTINUOUS
10
1.43416
20
2.5
11
1.4579
21
2.51586
0
LINE
8
BLACK
6
CONTINUOUS
10
1.4579
20
2.51586
11
1.51249
21
2.53847
0
LINE
8
BLACK
6
CONTINUOUS
10
1.51249
20
2.53847
11
1.57045
21
2.55
0
LINE
8
BLACK
6
CONTINUOUS
10
1.57045
20
2.55
11
1.62955
21
2.55
0
LINE
8
BLACK
6
CONTINUOUS
10
1.62955
20
2.55
11
1.68751
21
2.53847
0
LINE
8
BLACK
6
CONTINUOUS
10
0.25
20
2.34418
11
0.252942
21
2.34124
0
LINE
8
BLACK
6
CONTINUOUS
10
0.252942
20
2.34124
11
0.285773
21
2.2921
0
LINE
8
BLACK
6
CONTINUOUS
10
0.285773
20
2.2921
11
0.308388
21
2.23751
0
LINE
8
BLACK
6
CONTINUOUS
10
0.308388
20
2.23751
11
0.319916
21
2.17955
0
LINE
8
BLACK
6
CONTINUOUS
10
0.319916
20
2.17955
11
0.319916
21
2.12045
0
LINE
8
BLACK
6
CONTINUOUS
10
0.319916
20
2.12045
11
0.308388
21
2.06249
0
LINE
8
BLACK
6
CONTINUOUS
10
0.308388
20
2.06249
11
0.285773
21
2.0079
0
LINE
8
BLACK
6
CONTINUOUS
10
0.285773
20
2.0079
11
0.252942
21
1.95876
0
LINE
8
BLACK
6
CONTINUOUS
10
0.252942
20
1.95876
11
0.211155
21
1.91697
0
LINE
8
BLACK
6
CONTINUOUS
10
0.211155
20
1.91697
11
0.162019
21
1.88414
0
LINE
8
BLACK
6
CONTINUOUS
10
0.162019
20
1.88414
11
0.107423
21
1.86153
0
LINE
8
BLACK
6
CONTINUOUS
10
0.107423
20
1.86153
11
0.0762
21
1.85532
0
LINE
8
BLACK
6
CONTINUOUS
10
0.0762
20
1.85532
11
0.0762
21
1.63006
0
LINE
8
BLACK
6
CONTINUOUS
10
0.0762
20
1.63006
11
0.075097
21
1.61886
0
LINE
8
BLACK
6
CONTINUOUS
10
0.075097
20
1.61886
11
0.07074
21
1.6045
0
LINE
8
BLACK
6
CONTINUOUS
10
0.07074
20
1.6045
11
0.063664
21
1.59126
0
LINE
8
BLACK
6
CONTINUOUS
10
0.063664
20
1.59126
11
0.054142
21
1.57966
0
LINE
8
BLACK
6
CONTINUOUS
10
0.054142
20
1.57966
11
0.042539
21
1.57014
0
LINE
8
BLACK
6
CONTINUOUS
10
0.042539
20
1.57014
11
0.029301
21
1.56306
0
LINE
8
BLACK
6
CONTINUOUS
10
0.029301
20
1.56306
11
0.014938
21
1.5587
0
LINE
8
BLACK
6
CONTINUOUS
10
0.014938
20
1.5587
11
0
21
1.55723
0
LINE
8
BLACK
6
CONTINUOUS
10
0
20
1.55723
11
-0.014937
21
1.5587
0
LINE
8
BLACK
6
CONTINUOUS
10
-0.014937
20
1.5587
11
-0.0293
21
1.56306
0
LINE
8
BLACK
6
CONTINUOUS
10
-0.0293
20
1.56306
11
-0.042538
21
1.57014
0
LINE
8
BLACK
6
CONTINUOUS
10
-0.042538
20
1.57014
11
-0.054141
21
1.57966
0
LINE
8
BLACK
6
CONTINUOUS
10
-0.054141
20
1.57966
11
-0.063663
21
1.59126
0
LINE
8
BLACK
6
CONTINUOUS
10
-0.063663
20
1.59126
11
-0.070739
21
1.6045
0
LINE
8
BLACK
6
CONTINUOUS
10
-0.070739
20
1.6045
11
-0.075096
21
1.61886
0
LINE
8
BLACK
6
CONTINUOUS
10
-0.075096
20
1.61886
11
-0.076199
21
1.63006
0
LINE
8
BLACK
6
CONTINUOUS
10
-0.076199
20
1.63006
11
-0.076199
21
1.86509
0
LINE
8
BLACK
6
CONTINUOUS
10
-0.076199
20
1.86509
11
-0.122187
21
1.88414
0
LINE
8
BLACK
6
CONTINUOUS
10
-0.122187
20
1.88414
11
-0.171323
21
1.91697
0
LINE
8
BLACK
6
CONTINUOUS
10
-0.171323
20
1.91697
11
-0.21311
21
1.95876
0
LINE
8
BLACK
6
CONTINUOUS
10
-0.21311
20
1.95876
11
-0.240664
21
2
0
LINE
8
BLACK
6
CONTINUOUS
10
-0.240664
20
2
11
-0.25
21
2
0
LINE
8
BLACK
6
CONTINUOUS
10
-0.25
20
2
11
-0.25
21
2.0177
0
LINE
8
BLACK
6
CONTINUOUS
10
-0.25
20
2.0177
11
-0.268556
21
2.06249
0
LINE
8
BLACK
6
CONTINUOUS
10
-0.268556
20
2.06249
11
-0.280084
21
2.12045
0
LINE
8
BLACK
6
CONTINUOUS
10
-0.280084
20
2.12045
11
-0.280084
21
2.17955
0
LINE
8
BLACK
6
CONTINUOUS
10
-0.280084
20
2.17955
11
-0.268556
21
2.23751
0
LINE
8
BLACK
6
CONTINUOUS
10
-0.268556
20
2.23751
11
-0.25
21
2.2823
0
LINE
8
BLACK
6
CONTINUOUS
10
-0.25
20
2.2823
11
-0.25
21
2.5
0
LINE
8
BLACK
6
CONTINUOUS
10
-0.25
20
2.5
11
0.25
21
2.5
0
LINE
8
BLACK
6
CONTINUOUS
10
0.25
20
2.5
11
0.25
21
2.34418
0
LINE
8
BLACK
6
CONTINUOUS
10
1.05
20
2.31583
11
1.06586
21
2.2921
0
LINE
8
BLACK
6
CONTINUOUS
10
1.06586
20
2.2921
11
1.08847
21
2.23751
0
LINE
8
BLACK
6
CONTINUOUS
10
1.08847
20
2.23751
11
1.1
21
2.17955
0
LINE
8
BLACK
6
CONTINUOUS
10
1.1
20
2.17955
11
1.1
21
2.12045
0
LINE
8
BLACK
6
CONTINUOUS
10
1.1
20
2.12045
11
1.08847
21
2.06249
0
LINE
8
BLACK
6
CONTINUOUS
10
1.08847
20
2.06249
11
1.06586
21
2.0079
0
LINE
8
BLACK
6
CONTINUOUS
10
1.06586
20
2.0079
11
1.03303
21
1.95876
0
LINE
8
BLACK
6
CONTINUOUS
10
1.03303
20
1.95876
11
0.991239
21
1.91697
0
LINE
8
BLACK
6
CONTINUOUS
10
0.991239
20
1.91697
11
0.942103
21
1.88414
0
LINE
8
BLACK
6
CONTINUOUS
10
0.942103
20
1.88414
11
0.887507
21
1.86153
0
LINE
8
BLACK
6
CONTINUOUS
10
0.887507
20
1.86153
11
0.829547
21
1.85
0
LINE
8
BLACK
6
CONTINUOUS
10
0.829547
20
1.85
11
0.770453
21
1.85
0
LINE
8
BLACK
6
CONTINUOUS
10
0.770453
20
1.85
11
0.712493
21
1.86153
0
LINE
8
BLACK
6
CONTINUOUS
10
0.712493
20
1.86153
11
0.657897
21
1.88414
0
LINE
8
BLACK
6
CONTINUOUS
10
0.657897
20
1.88414
11
0.608761
21
1.91697
0
LINE
8
BLACK
6
CONTINUOUS
10
0.608761
20
1.91697
11
0.566974
21
1.95876
0
LINE
8
BLACK
6
CONTINUOUS
10
0.566974
20
1.95876
11
0.534143
21
2.0079
0
LINE
8
BLACK
6
CONTINUOUS
10
0.534143
20
2.0079
11
0.511528
21
2.06249
0
LINE
8
BLACK
6
CONTINUOUS
10
0.511528
20
2.06249
11
0.5
21
2.12045
0
LINE
8
BLACK
6
CONTINUOUS
10
0.5
20
2.12045
11
0.5
21
2.17955
0
LINE
8
BLACK
6
CONTINUOUS
10
0.5
20
2.17955
11
0.511528
21
2.23751
0
LINE
8
BLACK
6
CONTINUOUS
10
0.511528
20
2.23751
11
0.534143
21
2.2921
0
LINE
8
BLACK
6
CONTINUOUS
10
0.534143
20
2.2921
11
0.55
21
2.31583
0
LINE
8
BLACK
6
CONTINUOUS
10
0.55
20
2.31583
11
0.55
21
2.5
0
LINE
8
BLACK
6
CONTINUOUS
10
0.55
20
2.5
11
1.05
21
2.5
0
LINE
8
BLACK
6
CONTINUOUS
10
1.05
20
2.5
11
1.05
21
2.31583
0
LINE
8
BLACK
6
CONTINUOUS
10
-1.35
20
2.42426
11
-1.31698
21
2.39124
0
LINE
8
BLACK
6
CONTINUOUS
10
-1.31698
20
2.39124
11
-1.28414
21
2.3421
0
LINE
8
BLACK
6
CONTINUOUS
10
-1.28414
20
2.3421
11
-1.26153
21
2.28751
0
LINE
8
BLACK
6
CONTINUOUS
10
-1.26153
20
2.28751
11
-1.25
21
2.22955
0
LINE
8
BLACK
6
CONTINUOUS
10
-1.25
20
2.22955
11
-1.25
21
2.17045
0
LINE
8
BLACK
6
CONTINUOUS
10
-1.25
20
2.17045
11
-1.26153
21
2.11249
0
LINE
8
BLACK
6
CONTINUOUS
10
-1.26153
20
2.11249
11
-1.28414
21
2.0579
0
LINE
8
BLACK
6
CONTINUOUS
10
-1.28414
20
2.0579
11
-1.31698
21
2.00876
0
LINE
8
BLACK
6
CONTINUOUS
10
-1.31698
20
2.00876
11
-1.35876
21
1.96697
0
LINE
8
BLACK
6
CONTINUOUS
10
-1.35876
20
1.96697
11
-1.4079
21
1.93414
0
LINE
8
BLACK
6
CONTINUOUS
10
-1.4079
20
1.93414
11
-1.46249
21
1.91153
0
LINE
8
BLACK
6
CONTINUOUS
10
-1.46249
20
1.91153
11
-1.52045
21
1.9
0
LINE
8
BLACK
6
CONTINUOUS
10
-1.52045
20
1.9
11
-1.57955
21
1.9
0
LINE
8
BLACK
6
CONTINUOUS
10
-1.57955
20
1.9
11
-1.63751
21
1.91153
0
LINE
8
BLACK
6
CONTINUOUS
10
-1.63751
20
1.91153
11
-1.6921
21
1.93414
0
LINE
8
BLACK
6
CONTINUOUS
10
-1.6921
20
1.93414
11
-1.74124
21
1.96697
0
LINE
8
BLACK
6
CONTINUOUS
10
-1.74124
20
1.96697
11
-1.77427
21
2
0
LINE
8
BLACK
6
CONTINUOUS
10
-1.77427
20
2
11
-1.85
21
2
0
LINE
8
BLACK
6
CONTINUOUS
10
-1.85
20
2
11
-1.85
21
2.17044
0
LINE
8
BLACK
6
CONTINUOUS
10
-1.85
20
2.17044
11
-1.85
21
2.17045
0
LINE
8
BLACK
6
CONTINUOUS
10
-1.85
20
2.17045
11
-1.85
21
2.22955
0
LINE
8
BLACK
6
CONTINUOUS
10
-1.85
20
2.22955
11
-1.85
21
2.22956
0
LINE
8
BLACK
6
CONTINUOUS
10
-1.85
20
2.22956
11
-1.85
21
2.5
0
LINE
8
BLACK
6
CONTINUOUS
10
-1.85
20
2.5
11
-1.35
21
2.5
0
LINE
8
BLACK
6
CONTINUOUS
10
-1.35
20
2.5
11
-1.35
21
2.42426
0
LINE
8
BLACK
6
CONTINUOUS
10
-0.55
20
2
11
-1.05
21
2
0
LINE
8
BLACK
6
CONTINUOUS
10
-1.05
20
2
11
-1.05
21
2.5
0
LINE
8
BLACK
6
CONTINUOUS
10
-1.05
20
2.5
11
-0.55
21
2.5
0
LINE
8
BLACK
6
CONTINUOUS
10
-0.55
20
2.5
11
-0.55
21
2
0
CIRCLE
8
BLACK
10
-0.8
20
0.65
40
0.15
0
CIRCLE
8
BLACK
10
1.6
20
2.25
40
0.15
0
CIRCLE
8
BLACK
10
-1.55
20
2.2
40
0.15
0
CIRCLE
8
BLACK
10
0.8
20
2.15
40
0.15
0
CIRCLE
8
BLACK
10
0.019916
20
2.15
40
0.15
0
CIRCLE
8
BLACK
10
-1.75
20
0.65
40
0.15
  0
ENDSEC
  0
EOF
