  0
SECTION
  2
HEADER
  9
$ANGBASE
  50
0.0
  9
$ANGDIR
  70
1
  9
$MEASUREMENT
  70
1
  0
ENDSEC
  0
SECTION
  2
TABLES
  0
TABLE
  2
LTYPE
  70
4
  0
LTYPE
  5
40F
  2
CONTINUOUS
  70
0
  3
Solid line
  72
65
  73
0
  40
0.0
  0
LTYPE
  5
410
  2
DASHDOT
 70
0
  3
Dash Dot ____ _ ____ _
 72
65
 73
4
 40
2.0
 49
1.25
 49
-0.25
 49
0.25
 49
-0.25
  0
LTYPE
  5
411
  2
DASHED
 70
0
  3
Dashed __ __ __ __ __
 72
65
 73
2
 40
0.75
 49
0.5
 49
-0.25
  0
LTYPE
  5
43B
  2
DOTTED
 70
0
  3
Dotted .  .  .  .
 72
65
 73
2
 40
0.2
 49
0.0
 49
-0.2
  0
ENDTAB
  0
TABLE
  2
STYLE
  70
4
  0
STYLE
  2
KICAD
  70
0
  40
0
  41
1
  42
1
  50
0
  71
0
  3
isocp.shx
  0
STYLE
  2
KICADB
  70
0
  40
0
  41
1
  42
1
  50
0
  71
0
  3
isocp.shx
  0
STYLE
  2
KICADI
  70
0
  40
0
  41
1
  42
1
  50
15
  71
0
  3
isocp.shx
  0
STYLE
  2
KICADBI
  70
0
  40
0
  41
1
  42
1
  50
15
  71
0
  3
isocp.shx
  0
ENDTAB
  0
TABLE
  2
LAYER
  70
1
  0
LAYER
  2
BLACK
  70
0
  62
7
  6
CONTINUOUS
  0
ENDTAB
  0
ENDSEC
  0
SECTION
  2
ENTITIES
0
LINE
8
BLACK
6
CONTINUOUS
10
2.25
20
0
11
1.75
21
0
0
LINE
8
BLACK
6
CONTINUOUS
10
1.75
20
0
11
1.75
21
1.5
0
LINE
8
BLACK
6
CONTINUOUS
10
1.75
20
1.5
11
2.25
21
1.5
0
LINE
8
BLACK
6
CONTINUOUS
10
2.25
20
1.5
11
2.25
21
0
0
LINE
8
BLACK
6
CONTINUOUS
10
1.25
20
0
11
0.75
21
0
0
LINE
8
BLACK
6
CONTINUOUS
10
0.75
20
0
11
0.75
21
1.5
0
LINE
8
BLACK
6
CONTINUOUS
10
0.75
20
1.5
11
1.25
21
1.5
0
LINE
8
BLACK
6
CONTINUOUS
10
1.25
20
1.5
11
1.25
21
0
0
LINE
8
BLACK
6
CONTINUOUS
10
0.25
20
0
11
-0.25
21
0
0
LINE
8
BLACK
6
CONTINUOUS
10
-0.25
20
0
11
-0.25
21
1.5
0
LINE
8
BLACK
6
CONTINUOUS
10
-0.25
20
1.5
11
0.25
21
1.5
0
LINE
8
BLACK
6
CONTINUOUS
10
0.25
20
1.5
11
0.25
21
0
0
LINE
8
BLACK
6
CONTINUOUS
10
-0.75
20
0
11
-1.25
21
0
0
LINE
8
BLACK
6
CONTINUOUS
10
-1.25
20
0
11
-1.25
21
1.5
0
LINE
8
BLACK
6
CONTINUOUS
10
-1.25
20
1.5
11
-0.75
21
1.5
0
LINE
8
BLACK
6
CONTINUOUS
10
-0.75
20
1.5
11
-0.75
21
0
0
LINE
8
BLACK
6
CONTINUOUS
10
-1.75
20
0
11
-2.25
21
0
0
LINE
8
BLACK
6
CONTINUOUS
10
-2.25
20
0
11
-2.25
21
1.5
0
LINE
8
BLACK
6
CONTINUOUS
10
-2.25
20
1.5
11
-1.75
21
1.5
0
LINE
8
BLACK
6
CONTINUOUS
10
-1.75
20
1.5
11
-1.75
21
0
0
LINE
8
BLACK
6
CONTINUOUS
10
-0.588724
20
2.51717
11
-0.561054
21
2.50877
0
LINE
8
BLACK
6
CONTINUOUS
10
-0.561054
20
2.50877
11
-0.535553
21
2.49514
0
LINE
8
BLACK
6
CONTINUOUS
10
-0.535553
20
2.49514
11
-0.513202
21
2.4768
0
LINE
8
BLACK
6
CONTINUOUS
10
-0.513202
20
2.4768
11
-0.494858
21
2.45445
0
LINE
8
BLACK
6
CONTINUOUS
10
-0.494858
20
2.45445
11
-0.481228
21
2.42895
0
LINE
8
BLACK
6
CONTINUOUS
10
-0.481228
20
2.42895
11
-0.472834
21
2.40128
0
LINE
8
BLACK
6
CONTINUOUS
10
-0.472834
20
2.40128
11
-0.47
21
2.3725
0
LINE
8
BLACK
6
CONTINUOUS
10
-0.47
20
2.3725
11
-0.47
21
2.0275
0
LINE
8
BLACK
6
CONTINUOUS
10
-0.47
20
2.0275
11
-0.472834
21
1.99872
0
LINE
8
BLACK
6
CONTINUOUS
10
-0.472834
20
1.99872
11
-0.481228
21
1.97105
0
LINE
8
BLACK
6
CONTINUOUS
10
-0.481228
20
1.97105
11
-0.494858
21
1.94555
0
LINE
8
BLACK
6
CONTINUOUS
10
-0.494858
20
1.94555
11
-0.513202
21
1.9232
0
LINE
8
BLACK
6
CONTINUOUS
10
-0.513202
20
1.9232
11
-0.535553
21
1.90486
0
LINE
8
BLACK
6
CONTINUOUS
10
-0.535553
20
1.90486
11
-0.561054
21
1.89123
0
LINE
8
BLACK
6
CONTINUOUS
10
-0.561054
20
1.89123
11
-0.588724
21
1.88283
0
LINE
8
BLACK
6
CONTINUOUS
10
-0.588724
20
1.88283
11
-0.6175
21
1.88
0
LINE
8
BLACK
6
CONTINUOUS
10
-0.6175
20
1.88
11
-0.9125
21
1.88
0
LINE
8
BLACK
6
CONTINUOUS
10
-0.9125
20
1.88
11
-0.941276
21
1.88283
0
LINE
8
BLACK
6
CONTINUOUS
10
-0.941276
20
1.88283
11
-0.968946
21
1.89123
0
LINE
8
BLACK
6
CONTINUOUS
10
-0.968946
20
1.89123
11
-0.994447
21
1.90486
0
LINE
8
BLACK
6
CONTINUOUS
10
-0.994447
20
1.90486
11
-1.0168
21
1.9232
0
LINE
8
BLACK
6
CONTINUOUS
10
-1.0168
20
1.9232
11
-1.03514
21
1.94555
0
LINE
8
BLACK
6
CONTINUOUS
10
-1.03514
20
1.94555
11
-1.04877
21
1.97105
0
LINE
8
BLACK
6
CONTINUOUS
10
-1.04877
20
1.97105
11
-1.05717
21
1.99872
0
LINE
8
BLACK
6
CONTINUOUS
10
-1.05717
20
1.99872
11
-1.06
21
2.0275
0
LINE
8
BLACK
6
CONTINUOUS
10
-1.06
20
2.0275
11
-1.06
21
2.3725
0
LINE
8
BLACK
6
CONTINUOUS
10
-1.06
20
2.3725
11
-1.05717
21
2.40128
0
LINE
8
BLACK
6
CONTINUOUS
10
-1.05717
20
2.40128
11
-1.04877
21
2.42895
0
LINE
8
BLACK
6
CONTINUOUS
10
-1.04877
20
2.42895
11
-1.03514
21
2.45445
0
LINE
8
BLACK
6
CONTINUOUS
10
-1.03514
20
2.45445
11
-1.0168
21
2.4768
0
LINE
8
BLACK
6
CONTINUOUS
10
-1.0168
20
2.4768
11
-0.994447
21
2.49514
0
LINE
8
BLACK
6
CONTINUOUS
10
-0.994447
20
2.49514
11
-0.968946
21
2.50877
0
LINE
8
BLACK
6
CONTINUOUS
10
-0.968946
20
2.50877
11
-0.941276
21
2.51717
0
LINE
8
BLACK
6
CONTINUOUS
10
-0.941276
20
2.51717
11
-0.9125
21
2.52
0
LINE
8
BLACK
6
CONTINUOUS
10
-0.9125
20
2.52
11
-0.6175
21
2.52
0
LINE
8
BLACK
6
CONTINUOUS
10
-0.6175
20
2.52
11
-0.588724
21
2.51717
0
LINE
8
BLACK
6
CONTINUOUS
10
-1.55872
20
2.51717
11
-1.53105
21
2.50877
0
LINE
8
BLACK
6
CONTINUOUS
10
-1.53105
20
2.50877
11
-1.50555
21
2.49514
0
LINE
8
BLACK
6
CONTINUOUS
10
-1.50555
20
2.49514
11
-1.4832
21
2.4768
0
LINE
8
BLACK
6
CONTINUOUS
10
-1.4832
20
2.4768
11
-1.46486
21
2.45445
0
LINE
8
BLACK
6
CONTINUOUS
10
-1.46486
20
2.45445
11
-1.45123
21
2.42895
0
LINE
8
BLACK
6
CONTINUOUS
10
-1.45123
20
2.42895
11
-1.44283
21
2.40128
0
LINE
8
BLACK
6
CONTINUOUS
10
-1.44283
20
2.40128
11
-1.44
21
2.3725
0
LINE
8
BLACK
6
CONTINUOUS
10
-1.44
20
2.3725
11
-1.44
21
2.0275
0
LINE
8
BLACK
6
CONTINUOUS
10
-1.44
20
2.0275
11
-1.44283
21
1.99872
0
LINE
8
BLACK
6
CONTINUOUS
10
-1.44283
20
1.99872
11
-1.45123
21
1.97105
0
LINE
8
BLACK
6
CONTINUOUS
10
-1.45123
20
1.97105
11
-1.46486
21
1.94555
0
LINE
8
BLACK
6
CONTINUOUS
10
-1.46486
20
1.94555
11
-1.4832
21
1.9232
0
LINE
8
BLACK
6
CONTINUOUS
10
-1.4832
20
1.9232
11
-1.50555
21
1.90486
0
LINE
8
BLACK
6
CONTINUOUS
10
-1.50555
20
1.90486
11
-1.53105
21
1.89123
0
LINE
8
BLACK
6
CONTINUOUS
10
-1.53105
20
1.89123
11
-1.55872
21
1.88283
0
LINE
8
BLACK
6
CONTINUOUS
10
-1.55872
20
1.88283
11
-1.5875
21
1.88
0
LINE
8
BLACK
6
CONTINUOUS
10
-1.5875
20
1.88
11
-1.8825
21
1.88
0
LINE
8
BLACK
6
CONTINUOUS
10
-1.8825
20
1.88
11
-1.91128
21
1.88283
0
LINE
8
BLACK
6
CONTINUOUS
10
-1.91128
20
1.88283
11
-1.93895
21
1.89123
0
LINE
8
BLACK
6
CONTINUOUS
10
-1.93895
20
1.89123
11
-1.96445
21
1.90486
0
LINE
8
BLACK
6
CONTINUOUS
10
-1.96445
20
1.90486
11
-1.9868
21
1.9232
0
LINE
8
BLACK
6
CONTINUOUS
10
-1.9868
20
1.9232
11
-2.00514
21
1.94555
0
LINE
8
BLACK
6
CONTINUOUS
10
-2.00514
20
1.94555
11
-2.01877
21
1.97105
0
LINE
8
BLACK
6
CONTINUOUS
10
-2.01877
20
1.97105
11
-2.02717
21
1.99872
0
LINE
8
BLACK
6
CONTINUOUS
10
-2.02717
20
1.99872
11
-2.03
21
2.0275
0
LINE
8
BLACK
6
CONTINUOUS
10
-2.03
20
2.0275
11
-2.03
21
2.3725
0
LINE
8
BLACK
6
CONTINUOUS
10
-2.03
20
2.3725
11
-2.02717
21
2.40128
0
LINE
8
BLACK
6
CONTINUOUS
10
-2.02717
20
2.40128
11
-2.01877
21
2.42895
0
LINE
8
BLACK
6
CONTINUOUS
10
-2.01877
20
2.42895
11
-2.00514
21
2.45445
0
LINE
8
BLACK
6
CONTINUOUS
10
-2.00514
20
2.45445
11
-1.9868
21
2.4768
0
LINE
8
BLACK
6
CONTINUOUS
10
-1.9868
20
2.4768
11
-1.96445
21
2.49514
0
LINE
8
BLACK
6
CONTINUOUS
10
-1.96445
20
2.49514
11
-1.93895
21
2.50877
0
LINE
8
BLACK
6
CONTINUOUS
10
-1.93895
20
2.50877
11
-1.91128
21
2.51717
0
LINE
8
BLACK
6
CONTINUOUS
10
-1.91128
20
2.51717
11
-1.8825
21
2.52
0
LINE
8
BLACK
6
CONTINUOUS
10
-1.8825
20
2.52
11
-1.5875
21
2.52
0
LINE
8
BLACK
6
CONTINUOUS
10
-1.5875
20
2.52
11
-1.55872
21
2.51717
  0
ENDSEC
  0
EOF
