  0
SECTION
  2
HEADER
  9
$ANGBASE
  50
0.0
  9
$ANGDIR
  70
1
  9
$MEASUREMENT
  70
1
  0
ENDSEC
  0
SECTION
  2
TABLES
  0
TABLE
  2
LTYPE
  70
4
  0
LTYPE
  5
40F
  2
CONTINUOUS
  70
0
  3
Solid line
  72
65
  73
0
  40
0.0
  0
LTYPE
  5
410
  2
DASHDOT
 70
0
  3
Dash Dot ____ _ ____ _
 72
65
 73
4
 40
2.0
 49
1.25
 49
-0.25
 49
0.25
 49
-0.25
  0
LTYPE
  5
411
  2
DASHED
 70
0
  3
Dashed __ __ __ __ __
 72
65
 73
2
 40
0.75
 49
0.5
 49
-0.25
  0
LTYPE
  5
43B
  2
DOTTED
 70
0
  3
Dotted .  .  .  .
 72
65
 73
2
 40
0.2
 49
0.0
 49
-0.2
  0
ENDTAB
  0
TABLE
  2
STYLE
  70
4
  0
STYLE
  2
KICAD
  70
0
  40
0
  41
1
  42
1
  50
0
  71
0
  3
isocp.shx
  0
STYLE
  2
KICADB
  70
0
  40
0
  41
1
  42
1
  50
0
  71
0
  3
isocp.shx
  0
STYLE
  2
KICADI
  70
0
  40
0
  41
1
  42
1
  50
15
  71
0
  3
isocp.shx
  0
STYLE
  2
KICADBI
  70
0
  40
0
  41
1
  42
1
  50
15
  71
0
  3
isocp.shx
  0
ENDTAB
  0
TABLE
  2
LAYER
  70
1
  0
LAYER
  2
BLACK
  70
0
  62
7
  6
CONTINUOUS
  0
ENDTAB
  0
ENDSEC
  0
SECTION
  2
ENTITIES
0
LINE
8
BLACK
6
CONTINUOUS
10
2.255
20
1.55075
11
2.25995
21
1.55002
0
LINE
8
BLACK
6
CONTINUOUS
10
2.25995
20
1.55002
11
2.2648
21
1.5488
0
LINE
8
BLACK
6
CONTINUOUS
10
2.2648
20
1.5488
11
2.26952
21
1.54712
0
LINE
8
BLACK
6
CONTINUOUS
10
2.26952
20
1.54712
11
2.27404
21
1.54498
0
LINE
8
BLACK
6
CONTINUOUS
10
2.27404
20
1.54498
11
2.27833
21
1.54241
0
LINE
8
BLACK
6
CONTINUOUS
10
2.27833
20
1.54241
11
2.28235
21
1.53942
0
LINE
8
BLACK
6
CONTINUOUS
10
2.28235
20
1.53942
11
2.28606
21
1.53606
0
LINE
8
BLACK
6
CONTINUOUS
10
2.28606
20
1.53606
11
2.28942
21
1.53235
0
LINE
8
BLACK
6
CONTINUOUS
10
2.28942
20
1.53235
11
2.29241
21
1.52833
0
LINE
8
BLACK
6
CONTINUOUS
10
2.29241
20
1.52833
11
2.29498
21
1.52404
0
LINE
8
BLACK
6
CONTINUOUS
10
2.29498
20
1.52404
11
2.29712
21
1.51952
0
LINE
8
BLACK
6
CONTINUOUS
10
2.29712
20
1.51952
11
2.2988
21
1.5148
0
LINE
8
BLACK
6
CONTINUOUS
10
2.2988
20
1.5148
11
2.30002
21
1.50995
0
LINE
8
BLACK
6
CONTINUOUS
10
2.30002
20
1.50995
11
2.30075
21
1.505
0
LINE
8
BLACK
6
CONTINUOUS
10
2.30075
20
1.505
11
2.301
21
1.5
0
LINE
8
BLACK
6
CONTINUOUS
10
2.301
20
1.5
11
2.301
21
0
0
LINE
8
BLACK
6
CONTINUOUS
10
2.301
20
0
11
2.30075
21
-0.004999
0
LINE
8
BLACK
6
CONTINUOUS
10
2.30075
20
-0.004999
11
2.30002
21
-0.00995
0
LINE
8
BLACK
6
CONTINUOUS
10
2.30002
20
-0.00995
11
2.2988
21
-0.014805
0
LINE
8
BLACK
6
CONTINUOUS
10
2.2988
20
-0.014805
11
2.29712
21
-0.019517
0
LINE
8
BLACK
6
CONTINUOUS
10
2.29712
20
-0.019517
11
2.29498
21
-0.024041
0
LINE
8
BLACK
6
CONTINUOUS
10
2.29498
20
-0.024041
11
2.29241
21
-0.028334
0
LINE
8
BLACK
6
CONTINUOUS
10
2.29241
20
-0.028334
11
2.28942
21
-0.032354
0
LINE
8
BLACK
6
CONTINUOUS
10
2.28942
20
-0.032354
11
2.28606
21
-0.036062
0
LINE
8
BLACK
6
CONTINUOUS
10
2.28606
20
-0.036062
11
2.28235
21
-0.039424
0
LINE
8
BLACK
6
CONTINUOUS
10
2.28235
20
-0.039424
11
2.27833
21
-0.042405
0
LINE
8
BLACK
6
CONTINUOUS
10
2.27833
20
-0.042405
11
2.27404
21
-0.044978
0
LINE
8
BLACK
6
CONTINUOUS
10
2.27404
20
-0.044978
11
2.26952
21
-0.047118
0
LINE
8
BLACK
6
CONTINUOUS
10
2.26952
20
-0.047118
11
2.2648
21
-0.048804
0
LINE
8
BLACK
6
CONTINUOUS
10
2.2648
20
-0.048804
11
2.25995
21
-0.05002
0
LINE
8
BLACK
6
CONTINUOUS
10
2.25995
20
-0.05002
11
2.255
21
-0.050754
0
LINE
8
BLACK
6
CONTINUOUS
10
2.255
20
-0.050754
11
2.25
21
-0.051
0
LINE
8
BLACK
6
CONTINUOUS
10
2.25
20
-0.051
11
1.75
21
-0.051
0
LINE
8
BLACK
6
CONTINUOUS
10
1.75
20
-0.051
11
1.745
21
-0.050754
0
LINE
8
BLACK
6
CONTINUOUS
10
1.745
20
-0.050754
11
1.74005
21
-0.05002
0
LINE
8
BLACK
6
CONTINUOUS
10
1.74005
20
-0.05002
11
1.73519
21
-0.048804
0
LINE
8
BLACK
6
CONTINUOUS
10
1.73519
20
-0.048804
11
1.73048
21
-0.047118
0
LINE
8
BLACK
6
CONTINUOUS
10
1.73048
20
-0.047118
11
1.72596
21
-0.044978
0
LINE
8
BLACK
6
CONTINUOUS
10
1.72596
20
-0.044978
11
1.72167
21
-0.042405
0
LINE
8
BLACK
6
CONTINUOUS
10
1.72167
20
-0.042405
11
1.71765
21
-0.039424
0
LINE
8
BLACK
6
CONTINUOUS
10
1.71765
20
-0.039424
11
1.71394
21
-0.036062
0
LINE
8
BLACK
6
CONTINUOUS
10
1.71394
20
-0.036062
11
1.71058
21
-0.032354
0
LINE
8
BLACK
6
CONTINUOUS
10
1.71058
20
-0.032354
11
1.70759
21
-0.028334
0
LINE
8
BLACK
6
CONTINUOUS
10
1.70759
20
-0.028334
11
1.70502
21
-0.024041
0
LINE
8
BLACK
6
CONTINUOUS
10
1.70502
20
-0.024041
11
1.70288
21
-0.019517
0
LINE
8
BLACK
6
CONTINUOUS
10
1.70288
20
-0.019517
11
1.7012
21
-0.014805
0
LINE
8
BLACK
6
CONTINUOUS
10
1.7012
20
-0.014805
11
1.69998
21
-0.00995
0
LINE
8
BLACK
6
CONTINUOUS
10
1.69998
20
-0.00995
11
1.69925
21
-0.004999
0
LINE
8
BLACK
6
CONTINUOUS
10
1.69925
20
-0.004999
11
1.699
21
0
0
LINE
8
BLACK
6
CONTINUOUS
10
1.699
20
0
11
1.699
21
1.5
0
LINE
8
BLACK
6
CONTINUOUS
10
1.699
20
1.5
11
1.69925
21
1.505
0
LINE
8
BLACK
6
CONTINUOUS
10
1.69925
20
1.505
11
1.69998
21
1.50995
0
LINE
8
BLACK
6
CONTINUOUS
10
1.69998
20
1.50995
11
1.7012
21
1.5148
0
LINE
8
BLACK
6
CONTINUOUS
10
1.7012
20
1.5148
11
1.70288
21
1.51952
0
LINE
8
BLACK
6
CONTINUOUS
10
1.70288
20
1.51952
11
1.70502
21
1.52404
0
LINE
8
BLACK
6
CONTINUOUS
10
1.70502
20
1.52404
11
1.70759
21
1.52833
0
LINE
8
BLACK
6
CONTINUOUS
10
1.70759
20
1.52833
11
1.71058
21
1.53235
0
LINE
8
BLACK
6
CONTINUOUS
10
1.71058
20
1.53235
11
1.71394
21
1.53606
0
LINE
8
BLACK
6
CONTINUOUS
10
1.71394
20
1.53606
11
1.71765
21
1.53942
0
LINE
8
BLACK
6
CONTINUOUS
10
1.71765
20
1.53942
11
1.72167
21
1.54241
0
LINE
8
BLACK
6
CONTINUOUS
10
1.72167
20
1.54241
11
1.72596
21
1.54498
0
LINE
8
BLACK
6
CONTINUOUS
10
1.72596
20
1.54498
11
1.73048
21
1.54712
0
LINE
8
BLACK
6
CONTINUOUS
10
1.73048
20
1.54712
11
1.73519
21
1.5488
0
LINE
8
BLACK
6
CONTINUOUS
10
1.73519
20
1.5488
11
1.74005
21
1.55002
0
LINE
8
BLACK
6
CONTINUOUS
10
1.74005
20
1.55002
11
1.745
21
1.55075
0
LINE
8
BLACK
6
CONTINUOUS
10
1.745
20
1.55075
11
1.75
21
1.551
0
LINE
8
BLACK
6
CONTINUOUS
10
1.75
20
1.551
11
2.25
21
1.551
0
LINE
8
BLACK
6
CONTINUOUS
10
2.25
20
1.551
11
2.255
21
1.55075
0
LINE
8
BLACK
6
CONTINUOUS
10
1.255
20
1.55075
11
1.25995
21
1.55002
0
LINE
8
BLACK
6
CONTINUOUS
10
1.25995
20
1.55002
11
1.2648
21
1.5488
0
LINE
8
BLACK
6
CONTINUOUS
10
1.2648
20
1.5488
11
1.26952
21
1.54712
0
LINE
8
BLACK
6
CONTINUOUS
10
1.26952
20
1.54712
11
1.27404
21
1.54498
0
LINE
8
BLACK
6
CONTINUOUS
10
1.27404
20
1.54498
11
1.27833
21
1.54241
0
LINE
8
BLACK
6
CONTINUOUS
10
1.27833
20
1.54241
11
1.28235
21
1.53942
0
LINE
8
BLACK
6
CONTINUOUS
10
1.28235
20
1.53942
11
1.28606
21
1.53606
0
LINE
8
BLACK
6
CONTINUOUS
10
1.28606
20
1.53606
11
1.28942
21
1.53235
0
LINE
8
BLACK
6
CONTINUOUS
10
1.28942
20
1.53235
11
1.29241
21
1.52833
0
LINE
8
BLACK
6
CONTINUOUS
10
1.29241
20
1.52833
11
1.29498
21
1.52404
0
LINE
8
BLACK
6
CONTINUOUS
10
1.29498
20
1.52404
11
1.29712
21
1.51952
0
LINE
8
BLACK
6
CONTINUOUS
10
1.29712
20
1.51952
11
1.2988
21
1.5148
0
LINE
8
BLACK
6
CONTINUOUS
10
1.2988
20
1.5148
11
1.30002
21
1.50995
0
LINE
8
BLACK
6
CONTINUOUS
10
1.30002
20
1.50995
11
1.30075
21
1.505
0
LINE
8
BLACK
6
CONTINUOUS
10
1.30075
20
1.505
11
1.301
21
1.5
0
LINE
8
BLACK
6
CONTINUOUS
10
1.301
20
1.5
11
1.301
21
0
0
LINE
8
BLACK
6
CONTINUOUS
10
1.301
20
0
11
1.30075
21
-0.004999
0
LINE
8
BLACK
6
CONTINUOUS
10
1.30075
20
-0.004999
11
1.30002
21
-0.00995
0
LINE
8
BLACK
6
CONTINUOUS
10
1.30002
20
-0.00995
11
1.2988
21
-0.014805
0
LINE
8
BLACK
6
CONTINUOUS
10
1.2988
20
-0.014805
11
1.29712
21
-0.019517
0
LINE
8
BLACK
6
CONTINUOUS
10
1.29712
20
-0.019517
11
1.29498
21
-0.024041
0
LINE
8
BLACK
6
CONTINUOUS
10
1.29498
20
-0.024041
11
1.29241
21
-0.028334
0
LINE
8
BLACK
6
CONTINUOUS
10
1.29241
20
-0.028334
11
1.28942
21
-0.032354
0
LINE
8
BLACK
6
CONTINUOUS
10
1.28942
20
-0.032354
11
1.28606
21
-0.036062
0
LINE
8
BLACK
6
CONTINUOUS
10
1.28606
20
-0.036062
11
1.28235
21
-0.039424
0
LINE
8
BLACK
6
CONTINUOUS
10
1.28235
20
-0.039424
11
1.27833
21
-0.042405
0
LINE
8
BLACK
6
CONTINUOUS
10
1.27833
20
-0.042405
11
1.27404
21
-0.044978
0
LINE
8
BLACK
6
CONTINUOUS
10
1.27404
20
-0.044978
11
1.26952
21
-0.047118
0
LINE
8
BLACK
6
CONTINUOUS
10
1.26952
20
-0.047118
11
1.2648
21
-0.048804
0
LINE
8
BLACK
6
CONTINUOUS
10
1.2648
20
-0.048804
11
1.25995
21
-0.05002
0
LINE
8
BLACK
6
CONTINUOUS
10
1.25995
20
-0.05002
11
1.255
21
-0.050754
0
LINE
8
BLACK
6
CONTINUOUS
10
1.255
20
-0.050754
11
1.25
21
-0.051
0
LINE
8
BLACK
6
CONTINUOUS
10
1.25
20
-0.051
11
0.75
21
-0.051
0
LINE
8
BLACK
6
CONTINUOUS
10
0.75
20
-0.051
11
0.745001
21
-0.050754
0
LINE
8
BLACK
6
CONTINUOUS
10
0.745001
20
-0.050754
11
0.74005
21
-0.05002
0
LINE
8
BLACK
6
CONTINUOUS
10
0.74005
20
-0.05002
11
0.735195
21
-0.048804
0
LINE
8
BLACK
6
CONTINUOUS
10
0.735195
20
-0.048804
11
0.730483
21
-0.047118
0
LINE
8
BLACK
6
CONTINUOUS
10
0.730483
20
-0.047118
11
0.725959
21
-0.044978
0
LINE
8
BLACK
6
CONTINUOUS
10
0.725959
20
-0.044978
11
0.721666
21
-0.042405
0
LINE
8
BLACK
6
CONTINUOUS
10
0.721666
20
-0.042405
11
0.717646
21
-0.039424
0
LINE
8
BLACK
6
CONTINUOUS
10
0.717646
20
-0.039424
11
0.713938
21
-0.036062
0
LINE
8
BLACK
6
CONTINUOUS
10
0.713938
20
-0.036062
11
0.710576
21
-0.032354
0
LINE
8
BLACK
6
CONTINUOUS
10
0.710576
20
-0.032354
11
0.707595
21
-0.028334
0
LINE
8
BLACK
6
CONTINUOUS
10
0.707595
20
-0.028334
11
0.705022
21
-0.024041
0
LINE
8
BLACK
6
CONTINUOUS
10
0.705022
20
-0.024041
11
0.702882
21
-0.019517
0
LINE
8
BLACK
6
CONTINUOUS
10
0.702882
20
-0.019517
11
0.701196
21
-0.014805
0
LINE
8
BLACK
6
CONTINUOUS
10
0.701196
20
-0.014805
11
0.69998
21
-0.00995
0
LINE
8
BLACK
6
CONTINUOUS
10
0.69998
20
-0.00995
11
0.699246
21
-0.004999
0
LINE
8
BLACK
6
CONTINUOUS
10
0.699246
20
-0.004999
11
0.699
21
0
0
LINE
8
BLACK
6
CONTINUOUS
10
0.699
20
0
11
0.699
21
1.5
0
LINE
8
BLACK
6
CONTINUOUS
10
0.699
20
1.5
11
0.699246
21
1.505
0
LINE
8
BLACK
6
CONTINUOUS
10
0.699246
20
1.505
11
0.69998
21
1.50995
0
LINE
8
BLACK
6
CONTINUOUS
10
0.69998
20
1.50995
11
0.701196
21
1.5148
0
LINE
8
BLACK
6
CONTINUOUS
10
0.701196
20
1.5148
11
0.702882
21
1.51952
0
LINE
8
BLACK
6
CONTINUOUS
10
0.702882
20
1.51952
11
0.705022
21
1.52404
0
LINE
8
BLACK
6
CONTINUOUS
10
0.705022
20
1.52404
11
0.707595
21
1.52833
0
LINE
8
BLACK
6
CONTINUOUS
10
0.707595
20
1.52833
11
0.710576
21
1.53235
0
LINE
8
BLACK
6
CONTINUOUS
10
0.710576
20
1.53235
11
0.713938
21
1.53606
0
LINE
8
BLACK
6
CONTINUOUS
10
0.713938
20
1.53606
11
0.717646
21
1.53942
0
LINE
8
BLACK
6
CONTINUOUS
10
0.717646
20
1.53942
11
0.721666
21
1.54241
0
LINE
8
BLACK
6
CONTINUOUS
10
0.721666
20
1.54241
11
0.725959
21
1.54498
0
LINE
8
BLACK
6
CONTINUOUS
10
0.725959
20
1.54498
11
0.730483
21
1.54712
0
LINE
8
BLACK
6
CONTINUOUS
10
0.730483
20
1.54712
11
0.735195
21
1.5488
0
LINE
8
BLACK
6
CONTINUOUS
10
0.735195
20
1.5488
11
0.74005
21
1.55002
0
LINE
8
BLACK
6
CONTINUOUS
10
0.74005
20
1.55002
11
0.745001
21
1.55075
0
LINE
8
BLACK
6
CONTINUOUS
10
0.745001
20
1.55075
11
0.75
21
1.551
0
LINE
8
BLACK
6
CONTINUOUS
10
0.75
20
1.551
11
1.25
21
1.551
0
LINE
8
BLACK
6
CONTINUOUS
10
1.25
20
1.551
11
1.255
21
1.55075
0
LINE
8
BLACK
6
CONTINUOUS
10
0.254999
20
1.55075
11
0.25995
21
1.55002
0
LINE
8
BLACK
6
CONTINUOUS
10
0.25995
20
1.55002
11
0.264805
21
1.5488
0
LINE
8
BLACK
6
CONTINUOUS
10
0.264805
20
1.5488
11
0.269517
21
1.54712
0
LINE
8
BLACK
6
CONTINUOUS
10
0.269517
20
1.54712
11
0.274041
21
1.54498
0
LINE
8
BLACK
6
CONTINUOUS
10
0.274041
20
1.54498
11
0.278334
21
1.54241
0
LINE
8
BLACK
6
CONTINUOUS
10
0.278334
20
1.54241
11
0.282354
21
1.53942
0
LINE
8
BLACK
6
CONTINUOUS
10
0.282354
20
1.53942
11
0.286062
21
1.53606
0
LINE
8
BLACK
6
CONTINUOUS
10
0.286062
20
1.53606
11
0.289424
21
1.53235
0
LINE
8
BLACK
6
CONTINUOUS
10
0.289424
20
1.53235
11
0.292405
21
1.52833
0
LINE
8
BLACK
6
CONTINUOUS
10
0.292405
20
1.52833
11
0.294978
21
1.52404
0
LINE
8
BLACK
6
CONTINUOUS
10
0.294978
20
1.52404
11
0.297118
21
1.51952
0
LINE
8
BLACK
6
CONTINUOUS
10
0.297118
20
1.51952
11
0.298804
21
1.5148
0
LINE
8
BLACK
6
CONTINUOUS
10
0.298804
20
1.5148
11
0.30002
21
1.50995
0
LINE
8
BLACK
6
CONTINUOUS
10
0.30002
20
1.50995
11
0.300754
21
1.505
0
LINE
8
BLACK
6
CONTINUOUS
10
0.300754
20
1.505
11
0.301
21
1.5
0
LINE
8
BLACK
6
CONTINUOUS
10
0.301
20
1.5
11
0.301
21
0
0
LINE
8
BLACK
6
CONTINUOUS
10
0.301
20
0
11
0.300754
21
-0.004999
0
LINE
8
BLACK
6
CONTINUOUS
10
0.300754
20
-0.004999
11
0.30002
21
-0.00995
0
LINE
8
BLACK
6
CONTINUOUS
10
0.30002
20
-0.00995
11
0.298804
21
-0.014805
0
LINE
8
BLACK
6
CONTINUOUS
10
0.298804
20
-0.014805
11
0.297118
21
-0.019517
0
LINE
8
BLACK
6
CONTINUOUS
10
0.297118
20
-0.019517
11
0.294978
21
-0.024041
0
LINE
8
BLACK
6
CONTINUOUS
10
0.294978
20
-0.024041
11
0.292405
21
-0.028334
0
LINE
8
BLACK
6
CONTINUOUS
10
0.292405
20
-0.028334
11
0.289424
21
-0.032354
0
LINE
8
BLACK
6
CONTINUOUS
10
0.289424
20
-0.032354
11
0.286062
21
-0.036062
0
LINE
8
BLACK
6
CONTINUOUS
10
0.286062
20
-0.036062
11
0.282354
21
-0.039424
0
LINE
8
BLACK
6
CONTINUOUS
10
0.282354
20
-0.039424
11
0.278334
21
-0.042405
0
LINE
8
BLACK
6
CONTINUOUS
10
0.278334
20
-0.042405
11
0.274041
21
-0.044978
0
LINE
8
BLACK
6
CONTINUOUS
10
0.274041
20
-0.044978
11
0.269517
21
-0.047118
0
LINE
8
BLACK
6
CONTINUOUS
10
0.269517
20
-0.047118
11
0.264805
21
-0.048804
0
LINE
8
BLACK
6
CONTINUOUS
10
0.264805
20
-0.048804
11
0.25995
21
-0.05002
0
LINE
8
BLACK
6
CONTINUOUS
10
0.25995
20
-0.05002
11
0.254999
21
-0.050754
0
LINE
8
BLACK
6
CONTINUOUS
10
0.254999
20
-0.050754
11
0.25
21
-0.051
0
LINE
8
BLACK
6
CONTINUOUS
10
0.25
20
-0.051
11
-0.25
21
-0.051
0
LINE
8
BLACK
6
CONTINUOUS
10
-0.25
20
-0.051
11
-0.254999
21
-0.050754
0
LINE
8
BLACK
6
CONTINUOUS
10
-0.254999
20
-0.050754
11
-0.25995
21
-0.05002
0
LINE
8
BLACK
6
CONTINUOUS
10
-0.25995
20
-0.05002
11
-0.264805
21
-0.048804
0
LINE
8
BLACK
6
CONTINUOUS
10
-0.264805
20
-0.048804
11
-0.269517
21
-0.047118
0
LINE
8
BLACK
6
CONTINUOUS
10
-0.269517
20
-0.047118
11
-0.274041
21
-0.044978
0
LINE
8
BLACK
6
CONTINUOUS
10
-0.274041
20
-0.044978
11
-0.278334
21
-0.042405
0
LINE
8
BLACK
6
CONTINUOUS
10
-0.278334
20
-0.042405
11
-0.282354
21
-0.039424
0
LINE
8
BLACK
6
CONTINUOUS
10
-0.282354
20
-0.039424
11
-0.286062
21
-0.036062
0
LINE
8
BLACK
6
CONTINUOUS
10
-0.286062
20
-0.036062
11
-0.289424
21
-0.032354
0
LINE
8
BLACK
6
CONTINUOUS
10
-0.289424
20
-0.032354
11
-0.292405
21
-0.028334
0
LINE
8
BLACK
6
CONTINUOUS
10
-0.292405
20
-0.028334
11
-0.294978
21
-0.024041
0
LINE
8
BLACK
6
CONTINUOUS
10
-0.294978
20
-0.024041
11
-0.297118
21
-0.019517
0
LINE
8
BLACK
6
CONTINUOUS
10
-0.297118
20
-0.019517
11
-0.298804
21
-0.014805
0
LINE
8
BLACK
6
CONTINUOUS
10
-0.298804
20
-0.014805
11
-0.30002
21
-0.00995
0
LINE
8
BLACK
6
CONTINUOUS
10
-0.30002
20
-0.00995
11
-0.300754
21
-0.004999
0
LINE
8
BLACK
6
CONTINUOUS
10
-0.300754
20
-0.004999
11
-0.301
21
0
0
LINE
8
BLACK
6
CONTINUOUS
10
-0.301
20
0
11
-0.301
21
1.5
0
LINE
8
BLACK
6
CONTINUOUS
10
-0.301
20
1.5
11
-0.300754
21
1.505
0
LINE
8
BLACK
6
CONTINUOUS
10
-0.300754
20
1.505
11
-0.30002
21
1.50995
0
LINE
8
BLACK
6
CONTINUOUS
10
-0.30002
20
1.50995
11
-0.298804
21
1.5148
0
LINE
8
BLACK
6
CONTINUOUS
10
-0.298804
20
1.5148
11
-0.297118
21
1.51952
0
LINE
8
BLACK
6
CONTINUOUS
10
-0.297118
20
1.51952
11
-0.294978
21
1.52404
0
LINE
8
BLACK
6
CONTINUOUS
10
-0.294978
20
1.52404
11
-0.292405
21
1.52833
0
LINE
8
BLACK
6
CONTINUOUS
10
-0.292405
20
1.52833
11
-0.289424
21
1.53235
0
LINE
8
BLACK
6
CONTINUOUS
10
-0.289424
20
1.53235
11
-0.286062
21
1.53606
0
LINE
8
BLACK
6
CONTINUOUS
10
-0.286062
20
1.53606
11
-0.282354
21
1.53942
0
LINE
8
BLACK
6
CONTINUOUS
10
-0.282354
20
1.53942
11
-0.278334
21
1.54241
0
LINE
8
BLACK
6
CONTINUOUS
10
-0.278334
20
1.54241
11
-0.274041
21
1.54498
0
LINE
8
BLACK
6
CONTINUOUS
10
-0.274041
20
1.54498
11
-0.269517
21
1.54712
0
LINE
8
BLACK
6
CONTINUOUS
10
-0.269517
20
1.54712
11
-0.264805
21
1.5488
0
LINE
8
BLACK
6
CONTINUOUS
10
-0.264805
20
1.5488
11
-0.25995
21
1.55002
0
LINE
8
BLACK
6
CONTINUOUS
10
-0.25995
20
1.55002
11
-0.254999
21
1.55075
0
LINE
8
BLACK
6
CONTINUOUS
10
-0.254999
20
1.55075
11
-0.25
21
1.551
0
LINE
8
BLACK
6
CONTINUOUS
10
-0.25
20
1.551
11
0.25
21
1.551
0
LINE
8
BLACK
6
CONTINUOUS
10
0.25
20
1.551
11
0.254999
21
1.55075
0
LINE
8
BLACK
6
CONTINUOUS
10
-0.745001
20
1.55075
11
-0.74005
21
1.55002
0
LINE
8
BLACK
6
CONTINUOUS
10
-0.74005
20
1.55002
11
-0.735195
21
1.5488
0
LINE
8
BLACK
6
CONTINUOUS
10
-0.735195
20
1.5488
11
-0.730483
21
1.54712
0
LINE
8
BLACK
6
CONTINUOUS
10
-0.730483
20
1.54712
11
-0.725959
21
1.54498
0
LINE
8
BLACK
6
CONTINUOUS
10
-0.725959
20
1.54498
11
-0.721666
21
1.54241
0
LINE
8
BLACK
6
CONTINUOUS
10
-0.721666
20
1.54241
11
-0.717646
21
1.53942
0
LINE
8
BLACK
6
CONTINUOUS
10
-0.717646
20
1.53942
11
-0.713938
21
1.53606
0
LINE
8
BLACK
6
CONTINUOUS
10
-0.713938
20
1.53606
11
-0.710576
21
1.53235
0
LINE
8
BLACK
6
CONTINUOUS
10
-0.710576
20
1.53235
11
-0.707595
21
1.52833
0
LINE
8
BLACK
6
CONTINUOUS
10
-0.707595
20
1.52833
11
-0.705022
21
1.52404
0
LINE
8
BLACK
6
CONTINUOUS
10
-0.705022
20
1.52404
11
-0.702882
21
1.51952
0
LINE
8
BLACK
6
CONTINUOUS
10
-0.702882
20
1.51952
11
-0.701196
21
1.5148
0
LINE
8
BLACK
6
CONTINUOUS
10
-0.701196
20
1.5148
11
-0.69998
21
1.50995
0
LINE
8
BLACK
6
CONTINUOUS
10
-0.69998
20
1.50995
11
-0.699246
21
1.505
0
LINE
8
BLACK
6
CONTINUOUS
10
-0.699246
20
1.505
11
-0.699
21
1.5
0
LINE
8
BLACK
6
CONTINUOUS
10
-0.699
20
1.5
11
-0.699
21
0
0
LINE
8
BLACK
6
CONTINUOUS
10
-0.699
20
0
11
-0.699246
21
-0.004999
0
LINE
8
BLACK
6
CONTINUOUS
10
-0.699246
20
-0.004999
11
-0.69998
21
-0.00995
0
LINE
8
BLACK
6
CONTINUOUS
10
-0.69998
20
-0.00995
11
-0.701196
21
-0.014805
0
LINE
8
BLACK
6
CONTINUOUS
10
-0.701196
20
-0.014805
11
-0.702882
21
-0.019517
0
LINE
8
BLACK
6
CONTINUOUS
10
-0.702882
20
-0.019517
11
-0.705022
21
-0.024041
0
LINE
8
BLACK
6
CONTINUOUS
10
-0.705022
20
-0.024041
11
-0.707595
21
-0.028334
0
LINE
8
BLACK
6
CONTINUOUS
10
-0.707595
20
-0.028334
11
-0.710576
21
-0.032354
0
LINE
8
BLACK
6
CONTINUOUS
10
-0.710576
20
-0.032354
11
-0.713938
21
-0.036062
0
LINE
8
BLACK
6
CONTINUOUS
10
-0.713938
20
-0.036062
11
-0.717646
21
-0.039424
0
LINE
8
BLACK
6
CONTINUOUS
10
-0.717646
20
-0.039424
11
-0.721666
21
-0.042405
0
LINE
8
BLACK
6
CONTINUOUS
10
-0.721666
20
-0.042405
11
-0.725959
21
-0.044978
0
LINE
8
BLACK
6
CONTINUOUS
10
-0.725959
20
-0.044978
11
-0.730483
21
-0.047118
0
LINE
8
BLACK
6
CONTINUOUS
10
-0.730483
20
-0.047118
11
-0.735195
21
-0.048804
0
LINE
8
BLACK
6
CONTINUOUS
10
-0.735195
20
-0.048804
11
-0.74005
21
-0.05002
0
LINE
8
BLACK
6
CONTINUOUS
10
-0.74005
20
-0.05002
11
-0.745001
21
-0.050754
0
LINE
8
BLACK
6
CONTINUOUS
10
-0.745001
20
-0.050754
11
-0.75
21
-0.051
0
LINE
8
BLACK
6
CONTINUOUS
10
-0.75
20
-0.051
11
-1.25
21
-0.051
0
LINE
8
BLACK
6
CONTINUOUS
10
-1.25
20
-0.051
11
-1.255
21
-0.050754
0
LINE
8
BLACK
6
CONTINUOUS
10
-1.255
20
-0.050754
11
-1.25995
21
-0.05002
0
LINE
8
BLACK
6
CONTINUOUS
10
-1.25995
20
-0.05002
11
-1.2648
21
-0.048804
0
LINE
8
BLACK
6
CONTINUOUS
10
-1.2648
20
-0.048804
11
-1.26952
21
-0.047118
0
LINE
8
BLACK
6
CONTINUOUS
10
-1.26952
20
-0.047118
11
-1.27404
21
-0.044978
0
LINE
8
BLACK
6
CONTINUOUS
10
-1.27404
20
-0.044978
11
-1.27833
21
-0.042405
0
LINE
8
BLACK
6
CONTINUOUS
10
-1.27833
20
-0.042405
11
-1.28235
21
-0.039424
0
LINE
8
BLACK
6
CONTINUOUS
10
-1.28235
20
-0.039424
11
-1.28606
21
-0.036062
0
LINE
8
BLACK
6
CONTINUOUS
10
-1.28606
20
-0.036062
11
-1.28942
21
-0.032354
0
LINE
8
BLACK
6
CONTINUOUS
10
-1.28942
20
-0.032354
11
-1.29241
21
-0.028334
0
LINE
8
BLACK
6
CONTINUOUS
10
-1.29241
20
-0.028334
11
-1.29498
21
-0.024041
0
LINE
8
BLACK
6
CONTINUOUS
10
-1.29498
20
-0.024041
11
-1.29712
21
-0.019517
0
LINE
8
BLACK
6
CONTINUOUS
10
-1.29712
20
-0.019517
11
-1.2988
21
-0.014805
0
LINE
8
BLACK
6
CONTINUOUS
10
-1.2988
20
-0.014805
11
-1.30002
21
-0.00995
0
LINE
8
BLACK
6
CONTINUOUS
10
-1.30002
20
-0.00995
11
-1.30075
21
-0.004999
0
LINE
8
BLACK
6
CONTINUOUS
10
-1.30075
20
-0.004999
11
-1.301
21
0
0
LINE
8
BLACK
6
CONTINUOUS
10
-1.301
20
0
11
-1.301
21
1.5
0
LINE
8
BLACK
6
CONTINUOUS
10
-1.301
20
1.5
11
-1.30075
21
1.505
0
LINE
8
BLACK
6
CONTINUOUS
10
-1.30075
20
1.505
11
-1.30002
21
1.50995
0
LINE
8
BLACK
6
CONTINUOUS
10
-1.30002
20
1.50995
11
-1.2988
21
1.5148
0
LINE
8
BLACK
6
CONTINUOUS
10
-1.2988
20
1.5148
11
-1.29712
21
1.51952
0
LINE
8
BLACK
6
CONTINUOUS
10
-1.29712
20
1.51952
11
-1.29498
21
1.52404
0
LINE
8
BLACK
6
CONTINUOUS
10
-1.29498
20
1.52404
11
-1.29241
21
1.52833
0
LINE
8
BLACK
6
CONTINUOUS
10
-1.29241
20
1.52833
11
-1.28942
21
1.53235
0
LINE
8
BLACK
6
CONTINUOUS
10
-1.28942
20
1.53235
11
-1.28606
21
1.53606
0
LINE
8
BLACK
6
CONTINUOUS
10
-1.28606
20
1.53606
11
-1.28235
21
1.53942
0
LINE
8
BLACK
6
CONTINUOUS
10
-1.28235
20
1.53942
11
-1.27833
21
1.54241
0
LINE
8
BLACK
6
CONTINUOUS
10
-1.27833
20
1.54241
11
-1.27404
21
1.54498
0
LINE
8
BLACK
6
CONTINUOUS
10
-1.27404
20
1.54498
11
-1.26952
21
1.54712
0
LINE
8
BLACK
6
CONTINUOUS
10
-1.26952
20
1.54712
11
-1.2648
21
1.5488
0
LINE
8
BLACK
6
CONTINUOUS
10
-1.2648
20
1.5488
11
-1.25995
21
1.55002
0
LINE
8
BLACK
6
CONTINUOUS
10
-1.25995
20
1.55002
11
-1.255
21
1.55075
0
LINE
8
BLACK
6
CONTINUOUS
10
-1.255
20
1.55075
11
-1.25
21
1.551
0
LINE
8
BLACK
6
CONTINUOUS
10
-1.25
20
1.551
11
-0.75
21
1.551
0
LINE
8
BLACK
6
CONTINUOUS
10
-0.75
20
1.551
11
-0.745001
21
1.55075
0
LINE
8
BLACK
6
CONTINUOUS
10
-1.745
20
1.55075
11
-1.74005
21
1.55002
0
LINE
8
BLACK
6
CONTINUOUS
10
-1.74005
20
1.55002
11
-1.73519
21
1.5488
0
LINE
8
BLACK
6
CONTINUOUS
10
-1.73519
20
1.5488
11
-1.73048
21
1.54712
0
LINE
8
BLACK
6
CONTINUOUS
10
-1.73048
20
1.54712
11
-1.72596
21
1.54498
0
LINE
8
BLACK
6
CONTINUOUS
10
-1.72596
20
1.54498
11
-1.72167
21
1.54241
0
LINE
8
BLACK
6
CONTINUOUS
10
-1.72167
20
1.54241
11
-1.71765
21
1.53942
0
LINE
8
BLACK
6
CONTINUOUS
10
-1.71765
20
1.53942
11
-1.71394
21
1.53606
0
LINE
8
BLACK
6
CONTINUOUS
10
-1.71394
20
1.53606
11
-1.71058
21
1.53235
0
LINE
8
BLACK
6
CONTINUOUS
10
-1.71058
20
1.53235
11
-1.70759
21
1.52833
0
LINE
8
BLACK
6
CONTINUOUS
10
-1.70759
20
1.52833
11
-1.70502
21
1.52404
0
LINE
8
BLACK
6
CONTINUOUS
10
-1.70502
20
1.52404
11
-1.70288
21
1.51952
0
LINE
8
BLACK
6
CONTINUOUS
10
-1.70288
20
1.51952
11
-1.7012
21
1.5148
0
LINE
8
BLACK
6
CONTINUOUS
10
-1.7012
20
1.5148
11
-1.69998
21
1.50995
0
LINE
8
BLACK
6
CONTINUOUS
10
-1.69998
20
1.50995
11
-1.69925
21
1.505
0
LINE
8
BLACK
6
CONTINUOUS
10
-1.69925
20
1.505
11
-1.699
21
1.5
0
LINE
8
BLACK
6
CONTINUOUS
10
-1.699
20
1.5
11
-1.699
21
0
0
LINE
8
BLACK
6
CONTINUOUS
10
-1.699
20
0
11
-1.69925
21
-0.004999
0
LINE
8
BLACK
6
CONTINUOUS
10
-1.69925
20
-0.004999
11
-1.69998
21
-0.00995
0
LINE
8
BLACK
6
CONTINUOUS
10
-1.69998
20
-0.00995
11
-1.7012
21
-0.014805
0
LINE
8
BLACK
6
CONTINUOUS
10
-1.7012
20
-0.014805
11
-1.70288
21
-0.019517
0
LINE
8
BLACK
6
CONTINUOUS
10
-1.70288
20
-0.019517
11
-1.70502
21
-0.024041
0
LINE
8
BLACK
6
CONTINUOUS
10
-1.70502
20
-0.024041
11
-1.70759
21
-0.028334
0
LINE
8
BLACK
6
CONTINUOUS
10
-1.70759
20
-0.028334
11
-1.71058
21
-0.032354
0
LINE
8
BLACK
6
CONTINUOUS
10
-1.71058
20
-0.032354
11
-1.71394
21
-0.036062
0
LINE
8
BLACK
6
CONTINUOUS
10
-1.71394
20
-0.036062
11
-1.71765
21
-0.039424
0
LINE
8
BLACK
6
CONTINUOUS
10
-1.71765
20
-0.039424
11
-1.72167
21
-0.042405
0
LINE
8
BLACK
6
CONTINUOUS
10
-1.72167
20
-0.042405
11
-1.72596
21
-0.044978
0
LINE
8
BLACK
6
CONTINUOUS
10
-1.72596
20
-0.044978
11
-1.73048
21
-0.047118
0
LINE
8
BLACK
6
CONTINUOUS
10
-1.73048
20
-0.047118
11
-1.73519
21
-0.048804
0
LINE
8
BLACK
6
CONTINUOUS
10
-1.73519
20
-0.048804
11
-1.74005
21
-0.05002
0
LINE
8
BLACK
6
CONTINUOUS
10
-1.74005
20
-0.05002
11
-1.745
21
-0.050754
0
LINE
8
BLACK
6
CONTINUOUS
10
-1.745
20
-0.050754
11
-1.75
21
-0.051
0
LINE
8
BLACK
6
CONTINUOUS
10
-1.75
20
-0.051
11
-2.25
21
-0.051
0
LINE
8
BLACK
6
CONTINUOUS
10
-2.25
20
-0.051
11
-2.255
21
-0.050754
0
LINE
8
BLACK
6
CONTINUOUS
10
-2.255
20
-0.050754
11
-2.25995
21
-0.05002
0
LINE
8
BLACK
6
CONTINUOUS
10
-2.25995
20
-0.05002
11
-2.2648
21
-0.048804
0
LINE
8
BLACK
6
CONTINUOUS
10
-2.2648
20
-0.048804
11
-2.26952
21
-0.047118
0
LINE
8
BLACK
6
CONTINUOUS
10
-2.26952
20
-0.047118
11
-2.27404
21
-0.044978
0
LINE
8
BLACK
6
CONTINUOUS
10
-2.27404
20
-0.044978
11
-2.27833
21
-0.042405
0
LINE
8
BLACK
6
CONTINUOUS
10
-2.27833
20
-0.042405
11
-2.28235
21
-0.039424
0
LINE
8
BLACK
6
CONTINUOUS
10
-2.28235
20
-0.039424
11
-2.28606
21
-0.036062
0
LINE
8
BLACK
6
CONTINUOUS
10
-2.28606
20
-0.036062
11
-2.28942
21
-0.032354
0
LINE
8
BLACK
6
CONTINUOUS
10
-2.28942
20
-0.032354
11
-2.29241
21
-0.028334
0
LINE
8
BLACK
6
CONTINUOUS
10
-2.29241
20
-0.028334
11
-2.29498
21
-0.024041
0
LINE
8
BLACK
6
CONTINUOUS
10
-2.29498
20
-0.024041
11
-2.29712
21
-0.019517
0
LINE
8
BLACK
6
CONTINUOUS
10
-2.29712
20
-0.019517
11
-2.2988
21
-0.014805
0
LINE
8
BLACK
6
CONTINUOUS
10
-2.2988
20
-0.014805
11
-2.30002
21
-0.00995
0
LINE
8
BLACK
6
CONTINUOUS
10
-2.30002
20
-0.00995
11
-2.30075
21
-0.004999
0
LINE
8
BLACK
6
CONTINUOUS
10
-2.30075
20
-0.004999
11
-2.301
21
0
0
LINE
8
BLACK
6
CONTINUOUS
10
-2.301
20
0
11
-2.301
21
1.5
0
LINE
8
BLACK
6
CONTINUOUS
10
-2.301
20
1.5
11
-2.30075
21
1.505
0
LINE
8
BLACK
6
CONTINUOUS
10
-2.30075
20
1.505
11
-2.30002
21
1.50995
0
LINE
8
BLACK
6
CONTINUOUS
10
-2.30002
20
1.50995
11
-2.2988
21
1.5148
0
LINE
8
BLACK
6
CONTINUOUS
10
-2.2988
20
1.5148
11
-2.29712
21
1.51952
0
LINE
8
BLACK
6
CONTINUOUS
10
-2.29712
20
1.51952
11
-2.29498
21
1.52404
0
LINE
8
BLACK
6
CONTINUOUS
10
-2.29498
20
1.52404
11
-2.29241
21
1.52833
0
LINE
8
BLACK
6
CONTINUOUS
10
-2.29241
20
1.52833
11
-2.28942
21
1.53235
0
LINE
8
BLACK
6
CONTINUOUS
10
-2.28942
20
1.53235
11
-2.28606
21
1.53606
0
LINE
8
BLACK
6
CONTINUOUS
10
-2.28606
20
1.53606
11
-2.28235
21
1.53942
0
LINE
8
BLACK
6
CONTINUOUS
10
-2.28235
20
1.53942
11
-2.27833
21
1.54241
0
LINE
8
BLACK
6
CONTINUOUS
10
-2.27833
20
1.54241
11
-2.27404
21
1.54498
0
LINE
8
BLACK
6
CONTINUOUS
10
-2.27404
20
1.54498
11
-2.26952
21
1.54712
0
LINE
8
BLACK
6
CONTINUOUS
10
-2.26952
20
1.54712
11
-2.2648
21
1.5488
0
LINE
8
BLACK
6
CONTINUOUS
10
-2.2648
20
1.5488
11
-2.25995
21
1.55002
0
LINE
8
BLACK
6
CONTINUOUS
10
-2.25995
20
1.55002
11
-2.255
21
1.55075
0
LINE
8
BLACK
6
CONTINUOUS
10
-2.255
20
1.55075
11
-2.25
21
1.551
0
LINE
8
BLACK
6
CONTINUOUS
10
-2.25
20
1.551
11
-1.75
21
1.551
0
LINE
8
BLACK
6
CONTINUOUS
10
-1.75
20
1.551
11
-1.745
21
1.55075
0
LINE
8
BLACK
6
CONTINUOUS
10
-0.575043
20
2.57017
11
-0.558249
21
2.56768
0
LINE
8
BLACK
6
CONTINUOUS
10
-0.558249
20
2.56768
11
-0.541781
21
2.56355
0
LINE
8
BLACK
6
CONTINUOUS
10
-0.541781
20
2.56355
11
-0.525796
21
2.55783
0
LINE
8
BLACK
6
CONTINUOUS
10
-0.525796
20
2.55783
11
-0.510448
21
2.55057
0
LINE
8
BLACK
6
CONTINUOUS
10
-0.510448
20
2.55057
11
-0.495886
21
2.54184
0
LINE
8
BLACK
6
CONTINUOUS
10
-0.495886
20
2.54184
11
-0.48225
21
2.53173
0
LINE
8
BLACK
6
CONTINUOUS
10
-0.48225
20
2.53173
11
-0.469671
21
2.52033
0
LINE
8
BLACK
6
CONTINUOUS
10
-0.469671
20
2.52033
11
-0.458269
21
2.50775
0
LINE
8
BLACK
6
CONTINUOUS
10
-0.458269
20
2.50775
11
-0.448156
21
2.49411
0
LINE
8
BLACK
6
CONTINUOUS
10
-0.448156
20
2.49411
11
-0.439428
21
2.47955
0
LINE
8
BLACK
6
CONTINUOUS
10
-0.439428
20
2.47955
11
-0.432169
21
2.4642
0
LINE
8
BLACK
6
CONTINUOUS
10
-0.432169
20
2.4642
11
-0.426449
21
2.44822
0
LINE
8
BLACK
6
CONTINUOUS
10
-0.426449
20
2.44822
11
-0.422324
21
2.43175
0
LINE
8
BLACK
6
CONTINUOUS
10
-0.422324
20
2.43175
11
-0.419833
21
2.41496
0
LINE
8
BLACK
6
CONTINUOUS
10
-0.419833
20
2.41496
11
-0.419
21
2.398
0
LINE
8
BLACK
6
CONTINUOUS
10
-0.419
20
2.398
11
-0.419
21
2.002
0
LINE
8
BLACK
6
CONTINUOUS
10
-0.419
20
2.002
11
-0.419833
21
1.98504
0
LINE
8
BLACK
6
CONTINUOUS
10
-0.419833
20
1.98504
11
-0.422324
21
1.96825
0
LINE
8
BLACK
6
CONTINUOUS
10
-0.422324
20
1.96825
11
-0.426449
21
1.95178
0
LINE
8
BLACK
6
CONTINUOUS
10
-0.426449
20
1.95178
11
-0.432169
21
1.9358
0
LINE
8
BLACK
6
CONTINUOUS
10
-0.432169
20
1.9358
11
-0.439428
21
1.92045
0
LINE
8
BLACK
6
CONTINUOUS
10
-0.439428
20
1.92045
11
-0.448156
21
1.90589
0
LINE
8
BLACK
6
CONTINUOUS
10
-0.448156
20
1.90589
11
-0.458269
21
1.89225
0
LINE
8
BLACK
6
CONTINUOUS
10
-0.458269
20
1.89225
11
-0.469671
21
1.87967
0
LINE
8
BLACK
6
CONTINUOUS
10
-0.469671
20
1.87967
11
-0.48225
21
1.86827
0
LINE
8
BLACK
6
CONTINUOUS
10
-0.48225
20
1.86827
11
-0.495886
21
1.85816
0
LINE
8
BLACK
6
CONTINUOUS
10
-0.495886
20
1.85816
11
-0.510448
21
1.84943
0
LINE
8
BLACK
6
CONTINUOUS
10
-0.510448
20
1.84943
11
-0.525796
21
1.84217
0
LINE
8
BLACK
6
CONTINUOUS
10
-0.525796
20
1.84217
11
-0.541781
21
1.83645
0
LINE
8
BLACK
6
CONTINUOUS
10
-0.541781
20
1.83645
11
-0.558249
21
1.83232
0
LINE
8
BLACK
6
CONTINUOUS
10
-0.558249
20
1.83232
11
-0.575043
21
1.82983
0
LINE
8
BLACK
6
CONTINUOUS
10
-0.575043
20
1.82983
11
-0.592
21
1.829
0
LINE
8
BLACK
6
CONTINUOUS
10
-0.592
20
1.829
11
-0.938
21
1.829
0
LINE
8
BLACK
6
CONTINUOUS
10
-0.938
20
1.829
11
-0.954957
21
1.82983
0
LINE
8
BLACK
6
CONTINUOUS
10
-0.954957
20
1.82983
11
-0.971751
21
1.83232
0
LINE
8
BLACK
6
CONTINUOUS
10
-0.971751
20
1.83232
11
-0.988219
21
1.83645
0
LINE
8
BLACK
6
CONTINUOUS
10
-0.988219
20
1.83645
11
-1.0042
21
1.84217
0
LINE
8
BLACK
6
CONTINUOUS
10
-1.0042
20
1.84217
11
-1.01955
21
1.84943
0
LINE
8
BLACK
6
CONTINUOUS
10
-1.01955
20
1.84943
11
-1.03411
21
1.85816
0
LINE
8
BLACK
6
CONTINUOUS
10
-1.03411
20
1.85816
11
-1.04775
21
1.86827
0
LINE
8
BLACK
6
CONTINUOUS
10
-1.04775
20
1.86827
11
-1.06033
21
1.87967
0
LINE
8
BLACK
6
CONTINUOUS
10
-1.06033
20
1.87967
11
-1.07173
21
1.89225
0
LINE
8
BLACK
6
CONTINUOUS
10
-1.07173
20
1.89225
11
-1.08184
21
1.90589
0
LINE
8
BLACK
6
CONTINUOUS
10
-1.08184
20
1.90589
11
-1.09057
21
1.92045
0
LINE
8
BLACK
6
CONTINUOUS
10
-1.09057
20
1.92045
11
-1.09783
21
1.9358
0
LINE
8
BLACK
6
CONTINUOUS
10
-1.09783
20
1.9358
11
-1.10355
21
1.95178
0
LINE
8
BLACK
6
CONTINUOUS
10
-1.10355
20
1.95178
11
-1.10768
21
1.96825
0
LINE
8
BLACK
6
CONTINUOUS
10
-1.10768
20
1.96825
11
-1.11017
21
1.98504
0
LINE
8
BLACK
6
CONTINUOUS
10
-1.11017
20
1.98504
11
-1.111
21
2.002
0
LINE
8
BLACK
6
CONTINUOUS
10
-1.111
20
2.002
11
-1.111
21
2.398
0
LINE
8
BLACK
6
CONTINUOUS
10
-1.111
20
2.398
11
-1.11017
21
2.41496
0
LINE
8
BLACK
6
CONTINUOUS
10
-1.11017
20
2.41496
11
-1.10768
21
2.43175
0
LINE
8
BLACK
6
CONTINUOUS
10
-1.10768
20
2.43175
11
-1.10355
21
2.44822
0
LINE
8
BLACK
6
CONTINUOUS
10
-1.10355
20
2.44822
11
-1.09783
21
2.4642
0
LINE
8
BLACK
6
CONTINUOUS
10
-1.09783
20
2.4642
11
-1.09057
21
2.47955
0
LINE
8
BLACK
6
CONTINUOUS
10
-1.09057
20
2.47955
11
-1.08184
21
2.49411
0
LINE
8
BLACK
6
CONTINUOUS
10
-1.08184
20
2.49411
11
-1.07173
21
2.50775
0
LINE
8
BLACK
6
CONTINUOUS
10
-1.07173
20
2.50775
11
-1.06033
21
2.52033
0
LINE
8
BLACK
6
CONTINUOUS
10
-1.06033
20
2.52033
11
-1.04775
21
2.53173
0
LINE
8
BLACK
6
CONTINUOUS
10
-1.04775
20
2.53173
11
-1.03411
21
2.54184
0
LINE
8
BLACK
6
CONTINUOUS
10
-1.03411
20
2.54184
11
-1.01955
21
2.55057
0
LINE
8
BLACK
6
CONTINUOUS
10
-1.01955
20
2.55057
11
-1.0042
21
2.55783
0
LINE
8
BLACK
6
CONTINUOUS
10
-1.0042
20
2.55783
11
-0.988219
21
2.56355
0
LINE
8
BLACK
6
CONTINUOUS
10
-0.988219
20
2.56355
11
-0.971751
21
2.56768
0
LINE
8
BLACK
6
CONTINUOUS
10
-0.971751
20
2.56768
11
-0.954957
21
2.57017
0
LINE
8
BLACK
6
CONTINUOUS
10
-0.954957
20
2.57017
11
-0.938
21
2.571
0
LINE
8
BLACK
6
CONTINUOUS
10
-0.938
20
2.571
11
-0.592
21
2.571
0
LINE
8
BLACK
6
CONTINUOUS
10
-0.592
20
2.571
11
-0.575043
21
2.57017
0
LINE
8
BLACK
6
CONTINUOUS
10
-1.54504
20
2.57017
11
-1.52825
21
2.56768
0
LINE
8
BLACK
6
CONTINUOUS
10
-1.52825
20
2.56768
11
-1.51178
21
2.56355
0
LINE
8
BLACK
6
CONTINUOUS
10
-1.51178
20
2.56355
11
-1.4958
21
2.55783
0
LINE
8
BLACK
6
CONTINUOUS
10
-1.4958
20
2.55783
11
-1.48045
21
2.55057
0
LINE
8
BLACK
6
CONTINUOUS
10
-1.48045
20
2.55057
11
-1.46589
21
2.54184
0
LINE
8
BLACK
6
CONTINUOUS
10
-1.46589
20
2.54184
11
-1.45225
21
2.53173
0
LINE
8
BLACK
6
CONTINUOUS
10
-1.45225
20
2.53173
11
-1.43967
21
2.52033
0
LINE
8
BLACK
6
CONTINUOUS
10
-1.43967
20
2.52033
11
-1.42827
21
2.50775
0
LINE
8
BLACK
6
CONTINUOUS
10
-1.42827
20
2.50775
11
-1.41816
21
2.49411
0
LINE
8
BLACK
6
CONTINUOUS
10
-1.41816
20
2.49411
11
-1.40943
21
2.47955
0
LINE
8
BLACK
6
CONTINUOUS
10
-1.40943
20
2.47955
11
-1.40217
21
2.4642
0
LINE
8
BLACK
6
CONTINUOUS
10
-1.40217
20
2.4642
11
-1.39645
21
2.44822
0
LINE
8
BLACK
6
CONTINUOUS
10
-1.39645
20
2.44822
11
-1.39232
21
2.43175
0
LINE
8
BLACK
6
CONTINUOUS
10
-1.39232
20
2.43175
11
-1.38983
21
2.41496
0
LINE
8
BLACK
6
CONTINUOUS
10
-1.38983
20
2.41496
11
-1.389
21
2.398
0
LINE
8
BLACK
6
CONTINUOUS
10
-1.389
20
2.398
11
-1.389
21
2.002
0
LINE
8
BLACK
6
CONTINUOUS
10
-1.389
20
2.002
11
-1.38983
21
1.98504
0
LINE
8
BLACK
6
CONTINUOUS
10
-1.38983
20
1.98504
11
-1.39232
21
1.96825
0
LINE
8
BLACK
6
CONTINUOUS
10
-1.39232
20
1.96825
11
-1.39645
21
1.95178
0
LINE
8
BLACK
6
CONTINUOUS
10
-1.39645
20
1.95178
11
-1.40217
21
1.9358
0
LINE
8
BLACK
6
CONTINUOUS
10
-1.40217
20
1.9358
11
-1.40943
21
1.92045
0
LINE
8
BLACK
6
CONTINUOUS
10
-1.40943
20
1.92045
11
-1.41816
21
1.90589
0
LINE
8
BLACK
6
CONTINUOUS
10
-1.41816
20
1.90589
11
-1.42827
21
1.89225
0
LINE
8
BLACK
6
CONTINUOUS
10
-1.42827
20
1.89225
11
-1.43967
21
1.87967
0
LINE
8
BLACK
6
CONTINUOUS
10
-1.43967
20
1.87967
11
-1.45225
21
1.86827
0
LINE
8
BLACK
6
CONTINUOUS
10
-1.45225
20
1.86827
11
-1.46589
21
1.85816
0
LINE
8
BLACK
6
CONTINUOUS
10
-1.46589
20
1.85816
11
-1.48045
21
1.84943
0
LINE
8
BLACK
6
CONTINUOUS
10
-1.48045
20
1.84943
11
-1.4958
21
1.84217
0
LINE
8
BLACK
6
CONTINUOUS
10
-1.4958
20
1.84217
11
-1.51178
21
1.83645
0
LINE
8
BLACK
6
CONTINUOUS
10
-1.51178
20
1.83645
11
-1.52825
21
1.83232
0
LINE
8
BLACK
6
CONTINUOUS
10
-1.52825
20
1.83232
11
-1.54504
21
1.82983
0
LINE
8
BLACK
6
CONTINUOUS
10
-1.54504
20
1.82983
11
-1.562
21
1.829
0
LINE
8
BLACK
6
CONTINUOUS
10
-1.562
20
1.829
11
-1.908
21
1.829
0
LINE
8
BLACK
6
CONTINUOUS
10
-1.908
20
1.829
11
-1.92496
21
1.82983
0
LINE
8
BLACK
6
CONTINUOUS
10
-1.92496
20
1.82983
11
-1.94175
21
1.83232
0
LINE
8
BLACK
6
CONTINUOUS
10
-1.94175
20
1.83232
11
-1.95822
21
1.83645
0
LINE
8
BLACK
6
CONTINUOUS
10
-1.95822
20
1.83645
11
-1.9742
21
1.84217
0
LINE
8
BLACK
6
CONTINUOUS
10
-1.9742
20
1.84217
11
-1.98955
21
1.84943
0
LINE
8
BLACK
6
CONTINUOUS
10
-1.98955
20
1.84943
11
-2.00411
21
1.85816
0
LINE
8
BLACK
6
CONTINUOUS
10
-2.00411
20
1.85816
11
-2.01775
21
1.86827
0
LINE
8
BLACK
6
CONTINUOUS
10
-2.01775
20
1.86827
11
-2.03033
21
1.87967
0
LINE
8
BLACK
6
CONTINUOUS
10
-2.03033
20
1.87967
11
-2.04173
21
1.89225
0
LINE
8
BLACK
6
CONTINUOUS
10
-2.04173
20
1.89225
11
-2.05184
21
1.90589
0
LINE
8
BLACK
6
CONTINUOUS
10
-2.05184
20
1.90589
11
-2.06057
21
1.92045
0
LINE
8
BLACK
6
CONTINUOUS
10
-2.06057
20
1.92045
11
-2.06783
21
1.9358
0
LINE
8
BLACK
6
CONTINUOUS
10
-2.06783
20
1.9358
11
-2.07355
21
1.95178
0
LINE
8
BLACK
6
CONTINUOUS
10
-2.07355
20
1.95178
11
-2.07768
21
1.96825
0
LINE
8
BLACK
6
CONTINUOUS
10
-2.07768
20
1.96825
11
-2.08017
21
1.98504
0
LINE
8
BLACK
6
CONTINUOUS
10
-2.08017
20
1.98504
11
-2.081
21
2.002
0
LINE
8
BLACK
6
CONTINUOUS
10
-2.081
20
2.002
11
-2.081
21
2.398
0
LINE
8
BLACK
6
CONTINUOUS
10
-2.081
20
2.398
11
-2.08017
21
2.41496
0
LINE
8
BLACK
6
CONTINUOUS
10
-2.08017
20
2.41496
11
-2.07768
21
2.43175
0
LINE
8
BLACK
6
CONTINUOUS
10
-2.07768
20
2.43175
11
-2.07355
21
2.44822
0
LINE
8
BLACK
6
CONTINUOUS
10
-2.07355
20
2.44822
11
-2.06783
21
2.4642
0
LINE
8
BLACK
6
CONTINUOUS
10
-2.06783
20
2.4642
11
-2.06057
21
2.47955
0
LINE
8
BLACK
6
CONTINUOUS
10
-2.06057
20
2.47955
11
-2.05184
21
2.49411
0
LINE
8
BLACK
6
CONTINUOUS
10
-2.05184
20
2.49411
11
-2.04173
21
2.50775
0
LINE
8
BLACK
6
CONTINUOUS
10
-2.04173
20
2.50775
11
-2.03033
21
2.52033
0
LINE
8
BLACK
6
CONTINUOUS
10
-2.03033
20
2.52033
11
-2.01775
21
2.53173
0
LINE
8
BLACK
6
CONTINUOUS
10
-2.01775
20
2.53173
11
-2.00411
21
2.54184
0
LINE
8
BLACK
6
CONTINUOUS
10
-2.00411
20
2.54184
11
-1.98955
21
2.55057
0
LINE
8
BLACK
6
CONTINUOUS
10
-1.98955
20
2.55057
11
-1.9742
21
2.55783
0
LINE
8
BLACK
6
CONTINUOUS
10
-1.9742
20
2.55783
11
-1.95822
21
2.56355
0
LINE
8
BLACK
6
CONTINUOUS
10
-1.95822
20
2.56355
11
-1.94175
21
2.56768
0
LINE
8
BLACK
6
CONTINUOUS
10
-1.94175
20
2.56768
11
-1.92496
21
2.57017
0
LINE
8
BLACK
6
CONTINUOUS
10
-1.92496
20
2.57017
11
-1.908
21
2.571
0
LINE
8
BLACK
6
CONTINUOUS
10
-1.908
20
2.571
11
-1.562
21
2.571
0
LINE
8
BLACK
6
CONTINUOUS
10
-1.562
20
2.571
11
-1.54504
21
2.57017
  0
ENDSEC
  0
EOF
