  0
SECTION
  2
HEADER
  9
$ANGBASE
  50
0.0
  9
$ANGDIR
  70
1
  9
$MEASUREMENT
  70
1
  0
ENDSEC
  0
SECTION
  2
TABLES
  0
TABLE
  2
LTYPE
  70
4
  0
LTYPE
  5
40F
  2
CONTINUOUS
  70
0
  3
Solid line
  72
65
  73
0
  40
0.0
  0
LTYPE
  5
410
  2
DASHDOT
 70
0
  3
Dash Dot ____ _ ____ _
 72
65
 73
4
 40
2.0
 49
1.25
 49
-0.25
 49
0.25
 49
-0.25
  0
LTYPE
  5
411
  2
DASHED
 70
0
  3
Dashed __ __ __ __ __
 72
65
 73
2
 40
0.75
 49
0.5
 49
-0.25
  0
LTYPE
  5
43B
  2
DOTTED
 70
0
  3
Dotted .  .  .  .
 72
65
 73
2
 40
0.2
 49
0.0
 49
-0.2
  0
ENDTAB
  0
TABLE
  2
STYLE
  70
4
  0
STYLE
  2
KICAD
  70
0
  40
0
  41
1
  42
1
  50
0
  71
0
  3
isocp.shx
  0
STYLE
  2
KICADB
  70
0
  40
0
  41
1
  42
1
  50
0
  71
0
  3
isocp.shx
  0
STYLE
  2
KICADI
  70
0
  40
0
  41
1
  42
1
  50
15
  71
0
  3
isocp.shx
  0
STYLE
  2
KICADBI
  70
0
  40
0
  41
1
  42
1
  50
15
  71
0
  3
isocp.shx
  0
ENDTAB
  0
TABLE
  2
LAYER
  70
1
  0
LAYER
  2
BLACK
  70
0
  62
7
  6
CONTINUOUS
  0
ENDTAB
  0
ENDSEC
  0
SECTION
  2
ENTITIES
0
LINE
8
BLACK
6
CONTINUOUS
10
2.50122
20
2.975
11
2.50122
21
2.975
0
LINE
8
BLACK
6
CONTINUOUS
10
2.50122
20
2.975
11
2.5049
21
2.97464
0
LINE
8
BLACK
6
CONTINUOUS
10
2.5049
20
2.97464
11
2.50961
21
2.97321
0
LINE
8
BLACK
6
CONTINUOUS
10
2.50961
20
2.97321
11
2.51396
21
2.97089
0
LINE
8
BLACK
6
CONTINUOUS
10
2.51396
20
2.97089
11
2.51776
21
2.96776
0
LINE
8
BLACK
6
CONTINUOUS
10
2.51776
20
2.96776
11
2.52089
21
2.96396
0
LINE
8
BLACK
6
CONTINUOUS
10
2.52089
20
2.96396
11
2.52321
21
2.95961
0
LINE
8
BLACK
6
CONTINUOUS
10
2.52321
20
2.95961
11
2.52464
21
2.9549
0
LINE
8
BLACK
6
CONTINUOUS
10
2.52464
20
2.9549
11
2.52512
21
2.95
0
LINE
8
BLACK
6
CONTINUOUS
10
2.52512
20
2.95
11
2.525
21
2.94878
0
LINE
8
BLACK
6
CONTINUOUS
10
2.525
20
2.94878
11
2.525
21
-0.048782
0
LINE
8
BLACK
6
CONTINUOUS
10
2.525
20
-0.048782
11
2.52512
21
-0.05
0
LINE
8
BLACK
6
CONTINUOUS
10
2.52512
20
-0.05
11
2.525
21
-0.051217
0
LINE
8
BLACK
6
CONTINUOUS
10
2.525
20
-0.051217
11
2.525
21
-0.051218
0
LINE
8
BLACK
6
CONTINUOUS
10
2.525
20
-0.051218
11
2.52464
21
-0.054901
0
LINE
8
BLACK
6
CONTINUOUS
10
2.52464
20
-0.054901
11
2.52321
21
-0.059613
0
LINE
8
BLACK
6
CONTINUOUS
10
2.52321
20
-0.059613
11
2.52089
21
-0.063956
0
LINE
8
BLACK
6
CONTINUOUS
10
2.52089
20
-0.063956
11
2.51776
21
-0.067763
0
LINE
8
BLACK
6
CONTINUOUS
10
2.51776
20
-0.067763
11
2.51396
21
-0.070887
0
LINE
8
BLACK
6
CONTINUOUS
10
2.51396
20
-0.070887
11
2.50961
21
-0.073208
0
LINE
8
BLACK
6
CONTINUOUS
10
2.50961
20
-0.073208
11
2.5049
21
-0.074637
0
LINE
8
BLACK
6
CONTINUOUS
10
2.5049
20
-0.074637
11
2.5
21
-0.07512
0
LINE
8
BLACK
6
CONTINUOUS
10
2.5
20
-0.07512
11
2.49878
21
-0.075
0
LINE
8
BLACK
6
CONTINUOUS
10
2.49878
20
-0.075
11
-2.49878
21
-0.075
0
LINE
8
BLACK
6
CONTINUOUS
10
-2.49878
20
-0.075
11
-2.5
21
-0.07512
0
LINE
8
BLACK
6
CONTINUOUS
10
-2.5
20
-0.07512
11
-2.5049
21
-0.074637
0
LINE
8
BLACK
6
CONTINUOUS
10
-2.5049
20
-0.074637
11
-2.50961
21
-0.073208
0
LINE
8
BLACK
6
CONTINUOUS
10
-2.50961
20
-0.073208
11
-2.51396
21
-0.070887
0
LINE
8
BLACK
6
CONTINUOUS
10
-2.51396
20
-0.070887
11
-2.51776
21
-0.067763
0
LINE
8
BLACK
6
CONTINUOUS
10
-2.51776
20
-0.067763
11
-2.52089
21
-0.063956
0
LINE
8
BLACK
6
CONTINUOUS
10
-2.52089
20
-0.063956
11
-2.52321
21
-0.059613
0
LINE
8
BLACK
6
CONTINUOUS
10
-2.52321
20
-0.059613
11
-2.52464
21
-0.054901
0
LINE
8
BLACK
6
CONTINUOUS
10
-2.52464
20
-0.054901
11
-2.52512
21
-0.05
0
LINE
8
BLACK
6
CONTINUOUS
10
-2.52512
20
-0.05
11
-2.525
21
-0.048782
0
LINE
8
BLACK
6
CONTINUOUS
10
-2.525
20
-0.048782
11
-2.525
21
2.94877
0
LINE
8
BLACK
6
CONTINUOUS
10
-2.525
20
2.94877
11
-2.52512
21
2.95
0
LINE
8
BLACK
6
CONTINUOUS
10
-2.52512
20
2.95
11
-2.52464
21
2.9549
0
LINE
8
BLACK
6
CONTINUOUS
10
-2.52464
20
2.9549
11
-2.52321
21
2.95961
0
LINE
8
BLACK
6
CONTINUOUS
10
-2.52321
20
2.95961
11
-2.52089
21
2.96396
0
LINE
8
BLACK
6
CONTINUOUS
10
-2.52089
20
2.96396
11
-2.51776
21
2.96776
0
LINE
8
BLACK
6
CONTINUOUS
10
-2.51776
20
2.96776
11
-2.51396
21
2.97089
0
LINE
8
BLACK
6
CONTINUOUS
10
-2.51396
20
2.97089
11
-2.50961
21
2.97321
0
LINE
8
BLACK
6
CONTINUOUS
10
-2.50961
20
2.97321
11
-2.5049
21
2.97464
0
LINE
8
BLACK
6
CONTINUOUS
10
-2.5049
20
2.97464
11
-2.50122
21
2.975
0
LINE
8
BLACK
6
CONTINUOUS
10
-2.50122
20
2.975
11
-2.50122
21
2.975
0
LINE
8
BLACK
6
CONTINUOUS
10
-2.50122
20
2.975
11
-2.5
21
2.97512
0
LINE
8
BLACK
6
CONTINUOUS
10
-2.5
20
2.97512
11
-2.49878
21
2.975
0
LINE
8
BLACK
6
CONTINUOUS
10
-2.49878
20
2.975
11
2.49878
21
2.975
0
LINE
8
BLACK
6
CONTINUOUS
10
2.49878
20
2.975
11
2.5
21
2.97512
0
LINE
8
BLACK
6
CONTINUOUS
10
2.5
20
2.97512
11
2.50122
21
2.975
0
LINE
8
BLACK
6
CONTINUOUS
10
-2.475
20
2.925
11
-2.475
21
-0.025
0
LINE
8
BLACK
6
CONTINUOUS
10
-2.475
20
-0.025
11
2.475
21
-0.025
0
LINE
8
BLACK
6
CONTINUOUS
10
2.475
20
-0.025
11
2.475
21
2.925
0
LINE
8
BLACK
6
CONTINUOUS
10
2.475
20
2.925
11
-2.475
21
2.925
  0
ENDSEC
  0
EOF
