  0
SECTION
  2
HEADER
  9
$ANGBASE
  50
0.0
  9
$ANGDIR
  70
1
  9
$MEASUREMENT
  70
1
  0
ENDSEC
  0
SECTION
  2
TABLES
  0
TABLE
  2
LTYPE
  70
4
  0
LTYPE
  5
40F
  2
CONTINUOUS
  70
0
  3
Solid line
  72
65
  73
0
  40
0.0
  0
LTYPE
  5
410
  2
DASHDOT
 70
0
  3
Dash Dot ____ _ ____ _
 72
65
 73
4
 40
2.0
 49
1.25
 49
-0.25
 49
0.25
 49
-0.25
  0
LTYPE
  5
411
  2
DASHED
 70
0
  3
Dashed __ __ __ __ __
 72
65
 73
2
 40
0.75
 49
0.5
 49
-0.25
  0
LTYPE
  5
43B
  2
DOTTED
 70
0
  3
Dotted .  .  .  .
 72
65
 73
2
 40
0.2
 49
0.0
 49
-0.2
  0
ENDTAB
  0
TABLE
  2
STYLE
  70
4
  0
STYLE
  2
KICAD
  70
0
  40
0
  41
1
  42
1
  50
0
  71
0
  3
isocp.shx
  0
STYLE
  2
KICADB
  70
0
  40
0
  41
1
  42
1
  50
0
  71
0
  3
isocp.shx
  0
STYLE
  2
KICADI
  70
0
  40
0
  41
1
  42
1
  50
15
  71
0
  3
isocp.shx
  0
STYLE
  2
KICADBI
  70
0
  40
0
  41
1
  42
1
  50
15
  71
0
  3
isocp.shx
  0
ENDTAB
  0
TABLE
  2
LAYER
  70
1
  0
LAYER
  2
BLACK
  70
0
  62
7
  6
CONTINUOUS
  0
ENDTAB
  0
ENDSEC
  0
SECTION
  2
ENTITIES
0
LINE
8
BLACK
6
CONTINUOUS
10
-0.712493
20
0.938472
11
-0.657897
21
0.915857
0
LINE
8
BLACK
6
CONTINUOUS
10
-0.657897
20
0.915857
11
-0.608761
21
0.883026
0
LINE
8
BLACK
6
CONTINUOUS
10
-0.608761
20
0.883026
11
-0.566974
21
0.841239
0
LINE
8
BLACK
6
CONTINUOUS
10
-0.566974
20
0.841239
11
-0.534143
21
0.792103
0
LINE
8
BLACK
6
CONTINUOUS
10
-0.534143
20
0.792103
11
-0.511528
21
0.737507
0
LINE
8
BLACK
6
CONTINUOUS
10
-0.511528
20
0.737507
11
-0.5
21
0.679547
0
LINE
8
BLACK
6
CONTINUOUS
10
-0.5
20
0.679547
11
-0.5
21
0.620453
0
LINE
8
BLACK
6
CONTINUOUS
10
-0.5
20
0.620453
11
-0.511528
21
0.562493
0
LINE
8
BLACK
6
CONTINUOUS
10
-0.511528
20
0.562493
11
-0.534143
21
0.507897
0
LINE
8
BLACK
6
CONTINUOUS
10
-0.534143
20
0.507897
11
-0.566974
21
0.458761
0
LINE
8
BLACK
6
CONTINUOUS
10
-0.566974
20
0.458761
11
-0.608761
21
0.416974
0
LINE
8
BLACK
6
CONTINUOUS
10
-0.608761
20
0.416974
11
-0.657897
21
0.384143
0
LINE
8
BLACK
6
CONTINUOUS
10
-0.657897
20
0.384143
11
-0.712493
21
0.361528
0
LINE
8
BLACK
6
CONTINUOUS
10
-0.712493
20
0.361528
11
-0.770453
21
0.35
0
LINE
8
BLACK
6
CONTINUOUS
10
-0.770453
20
0.35
11
-0.829547
21
0.35
0
LINE
8
BLACK
6
CONTINUOUS
10
-0.829547
20
0.35
11
-0.887507
21
0.361528
0
LINE
8
BLACK
6
CONTINUOUS
10
-0.887507
20
0.361528
11
-0.942103
21
0.384143
0
LINE
8
BLACK
6
CONTINUOUS
10
-0.942103
20
0.384143
11
-0.991239
21
0.416974
0
LINE
8
BLACK
6
CONTINUOUS
10
-0.991239
20
0.416974
11
-1.03303
21
0.458761
0
LINE
8
BLACK
6
CONTINUOUS
10
-1.03303
20
0.458761
11
-1.06586
21
0.507897
0
LINE
8
BLACK
6
CONTINUOUS
10
-1.06586
20
0.507897
11
-1.08847
21
0.562493
0
LINE
8
BLACK
6
CONTINUOUS
10
-1.08847
20
0.562493
11
-1.1
21
0.620453
0
LINE
8
BLACK
6
CONTINUOUS
10
-1.1
20
0.620453
11
-1.1
21
0.679547
0
LINE
8
BLACK
6
CONTINUOUS
10
-1.1
20
0.679547
11
-1.08847
21
0.737507
0
LINE
8
BLACK
6
CONTINUOUS
10
-1.08847
20
0.737507
11
-1.06586
21
0.792103
0
LINE
8
BLACK
6
CONTINUOUS
10
-1.06586
20
0.792103
11
-1.03303
21
0.841239
0
LINE
8
BLACK
6
CONTINUOUS
10
-1.03303
20
0.841239
11
-0.991239
21
0.883026
0
LINE
8
BLACK
6
CONTINUOUS
10
-0.991239
20
0.883026
11
-0.942103
21
0.915857
0
LINE
8
BLACK
6
CONTINUOUS
10
-0.942103
20
0.915857
11
-0.887507
21
0.938472
0
LINE
8
BLACK
6
CONTINUOUS
10
-0.887507
20
0.938472
11
-0.829547
21
0.95
0
LINE
8
BLACK
6
CONTINUOUS
10
-0.829547
20
0.95
11
-0.770453
21
0.95
0
LINE
8
BLACK
6
CONTINUOUS
10
-0.770453
20
0.95
11
-0.712493
21
0.938472
0
LINE
8
BLACK
6
CONTINUOUS
10
-1.66249
20
0.938472
11
-1.6079
21
0.915857
0
LINE
8
BLACK
6
CONTINUOUS
10
-1.6079
20
0.915857
11
-1.55876
21
0.883026
0
LINE
8
BLACK
6
CONTINUOUS
10
-1.55876
20
0.883026
11
-1.51698
21
0.841239
0
LINE
8
BLACK
6
CONTINUOUS
10
-1.51698
20
0.841239
11
-1.48414
21
0.792103
0
LINE
8
BLACK
6
CONTINUOUS
10
-1.48414
20
0.792103
11
-1.46153
21
0.737507
0
LINE
8
BLACK
6
CONTINUOUS
10
-1.46153
20
0.737507
11
-1.45
21
0.679547
0
LINE
8
BLACK
6
CONTINUOUS
10
-1.45
20
0.679547
11
-1.45
21
0.620453
0
LINE
8
BLACK
6
CONTINUOUS
10
-1.45
20
0.620453
11
-1.46153
21
0.562493
0
LINE
8
BLACK
6
CONTINUOUS
10
-1.46153
20
0.562493
11
-1.48414
21
0.507897
0
LINE
8
BLACK
6
CONTINUOUS
10
-1.48414
20
0.507897
11
-1.51698
21
0.458761
0
LINE
8
BLACK
6
CONTINUOUS
10
-1.51698
20
0.458761
11
-1.55876
21
0.416974
0
LINE
8
BLACK
6
CONTINUOUS
10
-1.55876
20
0.416974
11
-1.6079
21
0.384143
0
LINE
8
BLACK
6
CONTINUOUS
10
-1.6079
20
0.384143
11
-1.66249
21
0.361528
0
LINE
8
BLACK
6
CONTINUOUS
10
-1.66249
20
0.361528
11
-1.72045
21
0.35
0
LINE
8
BLACK
6
CONTINUOUS
10
-1.72045
20
0.35
11
-1.77955
21
0.35
0
LINE
8
BLACK
6
CONTINUOUS
10
-1.77955
20
0.35
11
-1.83751
21
0.361528
0
LINE
8
BLACK
6
CONTINUOUS
10
-1.83751
20
0.361528
11
-1.8921
21
0.384143
0
LINE
8
BLACK
6
CONTINUOUS
10
-1.8921
20
0.384143
11
-1.94124
21
0.416974
0
LINE
8
BLACK
6
CONTINUOUS
10
-1.94124
20
0.416974
11
-1.98303
21
0.458761
0
LINE
8
BLACK
6
CONTINUOUS
10
-1.98303
20
0.458761
11
-2.01586
21
0.507897
0
LINE
8
BLACK
6
CONTINUOUS
10
-2.01586
20
0.507897
11
-2.03847
21
0.562493
0
LINE
8
BLACK
6
CONTINUOUS
10
-2.03847
20
0.562493
11
-2.05
21
0.620453
0
LINE
8
BLACK
6
CONTINUOUS
10
-2.05
20
0.620453
11
-2.05
21
0.679547
0
LINE
8
BLACK
6
CONTINUOUS
10
-2.05
20
0.679547
11
-2.03847
21
0.737507
0
LINE
8
BLACK
6
CONTINUOUS
10
-2.03847
20
0.737507
11
-2.01586
21
0.792103
0
LINE
8
BLACK
6
CONTINUOUS
10
-2.01586
20
0.792103
11
-1.98303
21
0.841239
0
LINE
8
BLACK
6
CONTINUOUS
10
-1.98303
20
0.841239
11
-1.94124
21
0.883026
0
LINE
8
BLACK
6
CONTINUOUS
10
-1.94124
20
0.883026
11
-1.8921
21
0.915857
0
LINE
8
BLACK
6
CONTINUOUS
10
-1.8921
20
0.915857
11
-1.83751
21
0.938472
0
LINE
8
BLACK
6
CONTINUOUS
10
-1.83751
20
0.938472
11
-1.77955
21
0.95
0
LINE
8
BLACK
6
CONTINUOUS
10
-1.77955
20
0.95
11
-1.72045
21
0.95
0
LINE
8
BLACK
6
CONTINUOUS
10
-1.72045
20
0.95
11
-1.66249
21
0.938472
0
LINE
8
BLACK
6
CONTINUOUS
10
0.887507
20
2.43847
11
0.942103
21
2.41586
0
LINE
8
BLACK
6
CONTINUOUS
10
0.942103
20
2.41586
11
0.991239
21
2.38303
0
LINE
8
BLACK
6
CONTINUOUS
10
0.991239
20
2.38303
11
1.03303
21
2.34124
0
LINE
8
BLACK
6
CONTINUOUS
10
1.03303
20
2.34124
11
1.06586
21
2.2921
0
LINE
8
BLACK
6
CONTINUOUS
10
1.06586
20
2.2921
11
1.08847
21
2.23751
0
LINE
8
BLACK
6
CONTINUOUS
10
1.08847
20
2.23751
11
1.1
21
2.17955
0
LINE
8
BLACK
6
CONTINUOUS
10
1.1
20
2.17955
11
1.1
21
2.12045
0
LINE
8
BLACK
6
CONTINUOUS
10
1.1
20
2.12045
11
1.08847
21
2.06249
0
LINE
8
BLACK
6
CONTINUOUS
10
1.08847
20
2.06249
11
1.06586
21
2.0079
0
LINE
8
BLACK
6
CONTINUOUS
10
1.06586
20
2.0079
11
1.03303
21
1.95876
0
LINE
8
BLACK
6
CONTINUOUS
10
1.03303
20
1.95876
11
0.991239
21
1.91697
0
LINE
8
BLACK
6
CONTINUOUS
10
0.991239
20
1.91697
11
0.942103
21
1.88414
0
LINE
8
BLACK
6
CONTINUOUS
10
0.942103
20
1.88414
11
0.887507
21
1.86153
0
LINE
8
BLACK
6
CONTINUOUS
10
0.887507
20
1.86153
11
0.829547
21
1.85
0
LINE
8
BLACK
6
CONTINUOUS
10
0.829547
20
1.85
11
0.770453
21
1.85
0
LINE
8
BLACK
6
CONTINUOUS
10
0.770453
20
1.85
11
0.712493
21
1.86153
0
LINE
8
BLACK
6
CONTINUOUS
10
0.712493
20
1.86153
11
0.657897
21
1.88414
0
LINE
8
BLACK
6
CONTINUOUS
10
0.657897
20
1.88414
11
0.608761
21
1.91697
0
LINE
8
BLACK
6
CONTINUOUS
10
0.608761
20
1.91697
11
0.566974
21
1.95876
0
LINE
8
BLACK
6
CONTINUOUS
10
0.566974
20
1.95876
11
0.534143
21
2.0079
0
LINE
8
BLACK
6
CONTINUOUS
10
0.534143
20
2.0079
11
0.511528
21
2.06249
0
LINE
8
BLACK
6
CONTINUOUS
10
0.511528
20
2.06249
11
0.5
21
2.12045
0
LINE
8
BLACK
6
CONTINUOUS
10
0.5
20
2.12045
11
0.5
21
2.17955
0
LINE
8
BLACK
6
CONTINUOUS
10
0.5
20
2.17955
11
0.511528
21
2.23751
0
LINE
8
BLACK
6
CONTINUOUS
10
0.511528
20
2.23751
11
0.534143
21
2.2921
0
LINE
8
BLACK
6
CONTINUOUS
10
0.534143
20
2.2921
11
0.566974
21
2.34124
0
LINE
8
BLACK
6
CONTINUOUS
10
0.566974
20
2.34124
11
0.608761
21
2.38303
0
LINE
8
BLACK
6
CONTINUOUS
10
0.608761
20
2.38303
11
0.657897
21
2.41586
0
LINE
8
BLACK
6
CONTINUOUS
10
0.657897
20
2.41586
11
0.712493
21
2.43847
0
LINE
8
BLACK
6
CONTINUOUS
10
0.712493
20
2.43847
11
0.770453
21
2.45
0
LINE
8
BLACK
6
CONTINUOUS
10
0.770453
20
2.45
11
0.829547
21
2.45
0
LINE
8
BLACK
6
CONTINUOUS
10
0.829547
20
2.45
11
0.887507
21
2.43847
0
LINE
8
BLACK
6
CONTINUOUS
10
0.107423
20
2.43847
11
0.162019
21
2.41586
0
LINE
8
BLACK
6
CONTINUOUS
10
0.162019
20
2.41586
11
0.211155
21
2.38303
0
LINE
8
BLACK
6
CONTINUOUS
10
0.211155
20
2.38303
11
0.252942
21
2.34124
0
LINE
8
BLACK
6
CONTINUOUS
10
0.252942
20
2.34124
11
0.285773
21
2.2921
0
LINE
8
BLACK
6
CONTINUOUS
10
0.285773
20
2.2921
11
0.308388
21
2.23751
0
LINE
8
BLACK
6
CONTINUOUS
10
0.308388
20
2.23751
11
0.319916
21
2.17955
0
LINE
8
BLACK
6
CONTINUOUS
10
0.319916
20
2.17955
11
0.319916
21
2.12045
0
LINE
8
BLACK
6
CONTINUOUS
10
0.319916
20
2.12045
11
0.308388
21
2.06249
0
LINE
8
BLACK
6
CONTINUOUS
10
0.308388
20
2.06249
11
0.285773
21
2.0079
0
LINE
8
BLACK
6
CONTINUOUS
10
0.285773
20
2.0079
11
0.252942
21
1.95876
0
LINE
8
BLACK
6
CONTINUOUS
10
0.252942
20
1.95876
11
0.211155
21
1.91697
0
LINE
8
BLACK
6
CONTINUOUS
10
0.211155
20
1.91697
11
0.162019
21
1.88414
0
LINE
8
BLACK
6
CONTINUOUS
10
0.162019
20
1.88414
11
0.107423
21
1.86153
0
LINE
8
BLACK
6
CONTINUOUS
10
0.107423
20
1.86153
11
0.049463
21
1.85
0
LINE
8
BLACK
6
CONTINUOUS
10
0.049463
20
1.85
11
-0.009631
21
1.85
0
LINE
8
BLACK
6
CONTINUOUS
10
-0.009631
20
1.85
11
-0.067591
21
1.86153
0
LINE
8
BLACK
6
CONTINUOUS
10
-0.067591
20
1.86153
11
-0.122187
21
1.88414
0
LINE
8
BLACK
6
CONTINUOUS
10
-0.122187
20
1.88414
11
-0.171323
21
1.91697
0
LINE
8
BLACK
6
CONTINUOUS
10
-0.171323
20
1.91697
11
-0.21311
21
1.95876
0
LINE
8
BLACK
6
CONTINUOUS
10
-0.21311
20
1.95876
11
-0.245941
21
2.0079
0
LINE
8
BLACK
6
CONTINUOUS
10
-0.245941
20
2.0079
11
-0.268556
21
2.06249
0
LINE
8
BLACK
6
CONTINUOUS
10
-0.268556
20
2.06249
11
-0.280084
21
2.12045
0
LINE
8
BLACK
6
CONTINUOUS
10
-0.280084
20
2.12045
11
-0.280084
21
2.17955
0
LINE
8
BLACK
6
CONTINUOUS
10
-0.280084
20
2.17955
11
-0.268556
21
2.23751
0
LINE
8
BLACK
6
CONTINUOUS
10
-0.268556
20
2.23751
11
-0.245941
21
2.2921
0
LINE
8
BLACK
6
CONTINUOUS
10
-0.245941
20
2.2921
11
-0.21311
21
2.34124
0
LINE
8
BLACK
6
CONTINUOUS
10
-0.21311
20
2.34124
11
-0.171323
21
2.38303
0
LINE
8
BLACK
6
CONTINUOUS
10
-0.171323
20
2.38303
11
-0.122187
21
2.41586
0
LINE
8
BLACK
6
CONTINUOUS
10
-0.122187
20
2.41586
11
-0.067591
21
2.43847
0
LINE
8
BLACK
6
CONTINUOUS
10
-0.067591
20
2.43847
11
-0.009631
21
2.45
0
LINE
8
BLACK
6
CONTINUOUS
10
-0.009631
20
2.45
11
0.049463
21
2.45
0
LINE
8
BLACK
6
CONTINUOUS
10
0.049463
20
2.45
11
0.107423
21
2.43847
0
LINE
8
BLACK
6
CONTINUOUS
10
-1.46249
20
2.48847
11
-1.4079
21
2.46586
0
LINE
8
BLACK
6
CONTINUOUS
10
-1.4079
20
2.46586
11
-1.35876
21
2.43303
0
LINE
8
BLACK
6
CONTINUOUS
10
-1.35876
20
2.43303
11
-1.31698
21
2.39124
0
LINE
8
BLACK
6
CONTINUOUS
10
-1.31698
20
2.39124
11
-1.28414
21
2.3421
0
LINE
8
BLACK
6
CONTINUOUS
10
-1.28414
20
2.3421
11
-1.26153
21
2.28751
0
LINE
8
BLACK
6
CONTINUOUS
10
-1.26153
20
2.28751
11
-1.25
21
2.22955
0
LINE
8
BLACK
6
CONTINUOUS
10
-1.25
20
2.22955
11
-1.25
21
2.17045
0
LINE
8
BLACK
6
CONTINUOUS
10
-1.25
20
2.17045
11
-1.26153
21
2.11249
0
LINE
8
BLACK
6
CONTINUOUS
10
-1.26153
20
2.11249
11
-1.28414
21
2.0579
0
LINE
8
BLACK
6
CONTINUOUS
10
-1.28414
20
2.0579
11
-1.31698
21
2.00876
0
LINE
8
BLACK
6
CONTINUOUS
10
-1.31698
20
2.00876
11
-1.35876
21
1.96697
0
LINE
8
BLACK
6
CONTINUOUS
10
-1.35876
20
1.96697
11
-1.4079
21
1.93414
0
LINE
8
BLACK
6
CONTINUOUS
10
-1.4079
20
1.93414
11
-1.46249
21
1.91153
0
LINE
8
BLACK
6
CONTINUOUS
10
-1.46249
20
1.91153
11
-1.52045
21
1.9
0
LINE
8
BLACK
6
CONTINUOUS
10
-1.52045
20
1.9
11
-1.57955
21
1.9
0
LINE
8
BLACK
6
CONTINUOUS
10
-1.57955
20
1.9
11
-1.63751
21
1.91153
0
LINE
8
BLACK
6
CONTINUOUS
10
-1.63751
20
1.91153
11
-1.6921
21
1.93414
0
LINE
8
BLACK
6
CONTINUOUS
10
-1.6921
20
1.93414
11
-1.74124
21
1.96697
0
LINE
8
BLACK
6
CONTINUOUS
10
-1.74124
20
1.96697
11
-1.78303
21
2.00876
0
LINE
8
BLACK
6
CONTINUOUS
10
-1.78303
20
2.00876
11
-1.81586
21
2.0579
0
LINE
8
BLACK
6
CONTINUOUS
10
-1.81586
20
2.0579
11
-1.83847
21
2.11249
0
LINE
8
BLACK
6
CONTINUOUS
10
-1.83847
20
2.11249
11
-1.85
21
2.17045
0
LINE
8
BLACK
6
CONTINUOUS
10
-1.85
20
2.17045
11
-1.85
21
2.22955
0
LINE
8
BLACK
6
CONTINUOUS
10
-1.85
20
2.22955
11
-1.83847
21
2.28751
0
LINE
8
BLACK
6
CONTINUOUS
10
-1.83847
20
2.28751
11
-1.81586
21
2.3421
0
LINE
8
BLACK
6
CONTINUOUS
10
-1.81586
20
2.3421
11
-1.78303
21
2.39124
0
LINE
8
BLACK
6
CONTINUOUS
10
-1.78303
20
2.39124
11
-1.74124
21
2.43303
0
LINE
8
BLACK
6
CONTINUOUS
10
-1.74124
20
2.43303
11
-1.6921
21
2.46586
0
LINE
8
BLACK
6
CONTINUOUS
10
-1.6921
20
2.46586
11
-1.63751
21
2.48847
0
LINE
8
BLACK
6
CONTINUOUS
10
-1.63751
20
2.48847
11
-1.57955
21
2.5
0
LINE
8
BLACK
6
CONTINUOUS
10
-1.57955
20
2.5
11
-1.52045
21
2.5
0
LINE
8
BLACK
6
CONTINUOUS
10
-1.52045
20
2.5
11
-1.46249
21
2.48847
0
LINE
8
BLACK
6
CONTINUOUS
10
1.68751
20
2.53847
11
1.7421
21
2.51586
0
LINE
8
BLACK
6
CONTINUOUS
10
1.7421
20
2.51586
11
1.79124
21
2.48303
0
LINE
8
BLACK
6
CONTINUOUS
10
1.79124
20
2.48303
11
1.83303
21
2.44124
0
LINE
8
BLACK
6
CONTINUOUS
10
1.83303
20
2.44124
11
1.86586
21
2.3921
0
LINE
8
BLACK
6
CONTINUOUS
10
1.86586
20
2.3921
11
1.88847
21
2.33751
0
LINE
8
BLACK
6
CONTINUOUS
10
1.88847
20
2.33751
11
1.9
21
2.27955
0
LINE
8
BLACK
6
CONTINUOUS
10
1.9
20
2.27955
11
1.9
21
2.22045
0
LINE
8
BLACK
6
CONTINUOUS
10
1.9
20
2.22045
11
1.88847
21
2.16249
0
LINE
8
BLACK
6
CONTINUOUS
10
1.88847
20
2.16249
11
1.86586
21
2.1079
0
LINE
8
BLACK
6
CONTINUOUS
10
1.86586
20
2.1079
11
1.83303
21
2.05876
0
LINE
8
BLACK
6
CONTINUOUS
10
1.83303
20
2.05876
11
1.79124
21
2.01697
0
LINE
8
BLACK
6
CONTINUOUS
10
1.79124
20
2.01697
11
1.7421
21
1.98414
0
LINE
8
BLACK
6
CONTINUOUS
10
1.7421
20
1.98414
11
1.68751
21
1.96153
0
LINE
8
BLACK
6
CONTINUOUS
10
1.68751
20
1.96153
11
1.62955
21
1.95
0
LINE
8
BLACK
6
CONTINUOUS
10
1.62955
20
1.95
11
1.57045
21
1.95
0
LINE
8
BLACK
6
CONTINUOUS
10
1.57045
20
1.95
11
1.51249
21
1.96153
0
LINE
8
BLACK
6
CONTINUOUS
10
1.51249
20
1.96153
11
1.4579
21
1.98414
0
LINE
8
BLACK
6
CONTINUOUS
10
1.4579
20
1.98414
11
1.40876
21
2.01697
0
LINE
8
BLACK
6
CONTINUOUS
10
1.40876
20
2.01697
11
1.36697
21
2.05876
0
LINE
8
BLACK
6
CONTINUOUS
10
1.36697
20
2.05876
11
1.33414
21
2.1079
0
LINE
8
BLACK
6
CONTINUOUS
10
1.33414
20
2.1079
11
1.31153
21
2.16249
0
LINE
8
BLACK
6
CONTINUOUS
10
1.31153
20
2.16249
11
1.3
21
2.22045
0
LINE
8
BLACK
6
CONTINUOUS
10
1.3
20
2.22045
11
1.3
21
2.27955
0
LINE
8
BLACK
6
CONTINUOUS
10
1.3
20
2.27955
11
1.31153
21
2.33751
0
LINE
8
BLACK
6
CONTINUOUS
10
1.31153
20
2.33751
11
1.33414
21
2.3921
0
LINE
8
BLACK
6
CONTINUOUS
10
1.33414
20
2.3921
11
1.36697
21
2.44124
0
LINE
8
BLACK
6
CONTINUOUS
10
1.36697
20
2.44124
11
1.40876
21
2.48303
0
LINE
8
BLACK
6
CONTINUOUS
10
1.40876
20
2.48303
11
1.4579
21
2.51586
0
LINE
8
BLACK
6
CONTINUOUS
10
1.4579
20
2.51586
11
1.51249
21
2.53847
0
LINE
8
BLACK
6
CONTINUOUS
10
1.51249
20
2.53847
11
1.57045
21
2.55
0
LINE
8
BLACK
6
CONTINUOUS
10
1.57045
20
2.55
11
1.62955
21
2.55
0
LINE
8
BLACK
6
CONTINUOUS
10
1.62955
20
2.55
11
1.68751
21
2.53847
0
CIRCLE
8
BLACK
10
-0.8
20
0.65
40
0.15
0
CIRCLE
8
BLACK
10
1.6
20
2.25
40
0.15
0
CIRCLE
8
BLACK
10
-1.55
20
2.2
40
0.15
0
CIRCLE
8
BLACK
10
0.8
20
2.15
40
0.15
0
CIRCLE
8
BLACK
10
0.019916
20
2.15
40
0.15
0
CIRCLE
8
BLACK
10
-1.75
20
0.65
40
0.15
  0
ENDSEC
  0
EOF
