  0
SECTION
  2
HEADER
  9
$ANGBASE
  50
0.0
  9
$ANGDIR
  70
1
  9
$MEASUREMENT
  70
1
  0
ENDSEC
  0
SECTION
  2
TABLES
  0
TABLE
  2
LTYPE
  70
4
  0
LTYPE
  5
40F
  2
CONTINUOUS
  70
0
  3
Solid line
  72
65
  73
0
  40
0.0
  0
LTYPE
  5
410
  2
DASHDOT
 70
0
  3
Dash Dot ____ _ ____ _
 72
65
 73
4
 40
2.0
 49
1.25
 49
-0.25
 49
0.25
 49
-0.25
  0
LTYPE
  5
411
  2
DASHED
 70
0
  3
Dashed __ __ __ __ __
 72
65
 73
2
 40
0.75
 49
0.5
 49
-0.25
  0
LTYPE
  5
43B
  2
DOTTED
 70
0
  3
Dotted .  .  .  .
 72
65
 73
2
 40
0.2
 49
0.0
 49
-0.2
  0
ENDTAB
  0
TABLE
  2
STYLE
  70
4
  0
STYLE
  2
KICAD
  70
0
  40
0
  41
1
  42
1
  50
0
  71
0
  3
isocp.shx
  0
STYLE
  2
KICADB
  70
0
  40
0
  41
1
  42
1
  50
0
  71
0
  3
isocp.shx
  0
STYLE
  2
KICADI
  70
0
  40
0
  41
1
  42
1
  50
15
  71
0
  3
isocp.shx
  0
STYLE
  2
KICADBI
  70
0
  40
0
  41
1
  42
1
  50
15
  71
0
  3
isocp.shx
  0
ENDTAB
  0
TABLE
  2
LAYER
  70
1
  0
LAYER
  2
BLACK
  70
0
  62
7
  6
CONTINUOUS
  0
ENDTAB
  0
ENDSEC
  0
SECTION
  2
ENTITIES
0
LINE
8
BLACK
6
CONTINUOUS
10
1.67235
20
0.11668
11
1.70314
21
0.103927
0
LINE
8
BLACK
6
CONTINUOUS
10
1.70314
20
0.103927
11
1.73085
21
0.085412
0
LINE
8
BLACK
6
CONTINUOUS
10
1.73085
20
0.085412
11
1.75441
21
0.061847
0
LINE
8
BLACK
6
CONTINUOUS
10
1.75441
20
0.061847
11
1.77293
21
0.034137
0
LINE
8
BLACK
6
CONTINUOUS
10
1.77293
20
0.034137
11
1.78568
21
0.003348
0
LINE
8
BLACK
6
CONTINUOUS
10
1.78568
20
0.003348
11
1.79218
21
-0.029337
0
LINE
8
BLACK
6
CONTINUOUS
10
1.79218
20
-0.029337
11
1.79218
21
-0.062663
0
LINE
8
BLACK
6
CONTINUOUS
10
1.79218
20
-0.062663
11
1.78568
21
-0.095348
0
LINE
8
BLACK
6
CONTINUOUS
10
1.78568
20
-0.095348
11
1.77293
21
-0.126137
0
LINE
8
BLACK
6
CONTINUOUS
10
1.77293
20
-0.126137
11
1.75441
21
-0.153847
0
LINE
8
BLACK
6
CONTINUOUS
10
1.75441
20
-0.153847
11
1.73085
21
-0.177412
0
LINE
8
BLACK
6
CONTINUOUS
10
1.73085
20
-0.177412
11
1.70314
21
-0.195927
0
LINE
8
BLACK
6
CONTINUOUS
10
1.70314
20
-0.195927
11
1.67235
21
-0.20868
0
LINE
8
BLACK
6
CONTINUOUS
10
1.67235
20
-0.20868
11
1.63966
21
-0.215181
0
LINE
8
BLACK
6
CONTINUOUS
10
1.63966
20
-0.215181
11
1.60634
21
-0.215181
0
LINE
8
BLACK
6
CONTINUOUS
10
1.60634
20
-0.215181
11
1.57365
21
-0.20868
0
LINE
8
BLACK
6
CONTINUOUS
10
1.57365
20
-0.20868
11
1.54286
21
-0.195927
0
LINE
8
BLACK
6
CONTINUOUS
10
1.54286
20
-0.195927
11
1.51515
21
-0.177412
0
LINE
8
BLACK
6
CONTINUOUS
10
1.51515
20
-0.177412
11
1.49159
21
-0.153847
0
LINE
8
BLACK
6
CONTINUOUS
10
1.49159
20
-0.153847
11
1.47307
21
-0.126137
0
LINE
8
BLACK
6
CONTINUOUS
10
1.47307
20
-0.126137
11
1.46032
21
-0.095348
0
LINE
8
BLACK
6
CONTINUOUS
10
1.46032
20
-0.095348
11
1.45382
21
-0.062663
0
LINE
8
BLACK
6
CONTINUOUS
10
1.45382
20
-0.062663
11
1.45382
21
-0.029337
0
LINE
8
BLACK
6
CONTINUOUS
10
1.45382
20
-0.029337
11
1.46032
21
0.003348
0
LINE
8
BLACK
6
CONTINUOUS
10
1.46032
20
0.003348
11
1.47307
21
0.034137
0
LINE
8
BLACK
6
CONTINUOUS
10
1.47307
20
0.034137
11
1.49159
21
0.061847
0
LINE
8
BLACK
6
CONTINUOUS
10
1.49159
20
0.061847
11
1.51515
21
0.085412
0
LINE
8
BLACK
6
CONTINUOUS
10
1.51515
20
0.085412
11
1.54286
21
0.103927
0
LINE
8
BLACK
6
CONTINUOUS
10
1.54286
20
0.103927
11
1.57365
21
0.11668
0
LINE
8
BLACK
6
CONTINUOUS
10
1.57365
20
0.11668
11
1.60634
21
0.123181
0
LINE
8
BLACK
6
CONTINUOUS
10
1.60634
20
0.123181
11
1.63966
21
0.123181
0
LINE
8
BLACK
6
CONTINUOUS
10
1.63966
20
0.123181
11
1.67235
21
0.11668
0
LINE
8
BLACK
6
CONTINUOUS
10
2.20312
20
2.7135
11
2.21245
21
2.71258
0
LINE
8
BLACK
6
CONTINUOUS
10
2.21245
20
2.71258
11
2.22442
21
2.70895
0
LINE
8
BLACK
6
CONTINUOUS
10
2.22442
20
2.70895
11
2.23545
21
2.70305
0
LINE
8
BLACK
6
CONTINUOUS
10
2.23545
20
2.70305
11
2.24512
21
2.69512
0
LINE
8
BLACK
6
CONTINUOUS
10
2.24512
20
2.69512
11
2.25305
21
2.68545
0
LINE
8
BLACK
6
CONTINUOUS
10
2.25305
20
2.68545
11
2.25895
21
2.67442
0
LINE
8
BLACK
6
CONTINUOUS
10
2.25895
20
2.67442
11
2.26258
21
2.66245
0
LINE
8
BLACK
6
CONTINUOUS
10
2.26258
20
2.66245
11
2.26381
21
2.65
0
LINE
8
BLACK
6
CONTINUOUS
10
2.26381
20
2.65
11
2.2635
21
2.64688
0
LINE
8
BLACK
6
CONTINUOUS
10
2.2635
20
2.64688
11
2.2635
21
0.253117
0
LINE
8
BLACK
6
CONTINUOUS
10
2.2635
20
0.253117
11
2.26381
21
0.25
0
LINE
8
BLACK
6
CONTINUOUS
10
2.26381
20
0.25
11
2.26258
21
0.237552
0
LINE
8
BLACK
6
CONTINUOUS
10
2.26258
20
0.237552
11
2.25895
21
0.225582
0
LINE
8
BLACK
6
CONTINUOUS
10
2.25895
20
0.225582
11
2.25305
21
0.214551
0
LINE
8
BLACK
6
CONTINUOUS
10
2.25305
20
0.214551
11
2.24512
21
0.204882
0
LINE
8
BLACK
6
CONTINUOUS
10
2.24512
20
0.204882
11
2.23545
21
0.196946
0
LINE
8
BLACK
6
CONTINUOUS
10
2.23545
20
0.196946
11
2.22442
21
0.19105
0
LINE
8
BLACK
6
CONTINUOUS
10
2.22442
20
0.19105
11
2.21245
21
0.187419
0
LINE
8
BLACK
6
CONTINUOUS
10
2.21245
20
0.187419
11
2.20312
21
0.1865
0
LINE
8
BLACK
6
CONTINUOUS
10
2.20312
20
0.1865
11
2.2
21
0.186193
0
LINE
8
BLACK
6
CONTINUOUS
10
2.2
20
0.186193
11
2.19688
21
0.1865
0
LINE
8
BLACK
6
CONTINUOUS
10
2.19688
20
0.1865
11
-2.19688
21
0.1865
0
LINE
8
BLACK
6
CONTINUOUS
10
-2.19688
20
0.1865
11
-2.2
21
0.186193
0
LINE
8
BLACK
6
CONTINUOUS
10
-2.2
20
0.186193
11
-2.20312
21
0.1865
0
LINE
8
BLACK
6
CONTINUOUS
10
-2.20312
20
0.1865
11
-2.21245
21
0.187419
0
LINE
8
BLACK
6
CONTINUOUS
10
-2.21245
20
0.187419
11
-2.22442
21
0.19105
0
LINE
8
BLACK
6
CONTINUOUS
10
-2.22442
20
0.19105
11
-2.23545
21
0.196946
0
LINE
8
BLACK
6
CONTINUOUS
10
-2.23545
20
0.196946
11
-2.24512
21
0.204882
0
LINE
8
BLACK
6
CONTINUOUS
10
-2.24512
20
0.204882
11
-2.25305
21
0.214551
0
LINE
8
BLACK
6
CONTINUOUS
10
-2.25305
20
0.214551
11
-2.25895
21
0.225582
0
LINE
8
BLACK
6
CONTINUOUS
10
-2.25895
20
0.225582
11
-2.26258
21
0.237552
0
LINE
8
BLACK
6
CONTINUOUS
10
-2.26258
20
0.237552
11
-2.26381
21
0.25
0
LINE
8
BLACK
6
CONTINUOUS
10
-2.26381
20
0.25
11
-2.2635
21
0.253127
0
LINE
8
BLACK
6
CONTINUOUS
10
-2.2635
20
0.253127
11
-2.2635
21
2.64688
0
LINE
8
BLACK
6
CONTINUOUS
10
-2.2635
20
2.64688
11
-2.26381
21
2.65
0
LINE
8
BLACK
6
CONTINUOUS
10
-2.26381
20
2.65
11
-2.26258
21
2.66245
0
LINE
8
BLACK
6
CONTINUOUS
10
-2.26258
20
2.66245
11
-2.25895
21
2.67442
0
LINE
8
BLACK
6
CONTINUOUS
10
-2.25895
20
2.67442
11
-2.25305
21
2.68545
0
LINE
8
BLACK
6
CONTINUOUS
10
-2.25305
20
2.68545
11
-2.24512
21
2.69512
0
LINE
8
BLACK
6
CONTINUOUS
10
-2.24512
20
2.69512
11
-2.23545
21
2.70305
0
LINE
8
BLACK
6
CONTINUOUS
10
-2.23545
20
2.70305
11
-2.22442
21
2.70895
0
LINE
8
BLACK
6
CONTINUOUS
10
-2.22442
20
2.70895
11
-2.21245
21
2.71258
0
LINE
8
BLACK
6
CONTINUOUS
10
-2.21245
20
2.71258
11
-2.20312
21
2.7135
0
LINE
8
BLACK
6
CONTINUOUS
10
-2.20312
20
2.7135
11
-2.2
21
2.71381
0
LINE
8
BLACK
6
CONTINUOUS
10
-2.2
20
2.71381
11
-2.19688
21
2.7135
0
LINE
8
BLACK
6
CONTINUOUS
10
-2.19688
20
2.7135
11
2.19688
21
2.7135
0
LINE
8
BLACK
6
CONTINUOUS
10
2.19688
20
2.7135
11
2.2
21
2.71381
0
LINE
8
BLACK
6
CONTINUOUS
10
2.2
20
2.71381
11
2.20312
21
2.7135
0
LINE
8
BLACK
6
CONTINUOUS
10
-2.1365
20
2.5865
11
-2.1365
21
0.3135
0
LINE
8
BLACK
6
CONTINUOUS
10
-2.1365
20
0.3135
11
2.1365
21
0.3135
0
LINE
8
BLACK
6
CONTINUOUS
10
2.1365
20
0.3135
11
2.1365
21
2.5865
0
LINE
8
BLACK
6
CONTINUOUS
10
2.1365
20
2.5865
11
-2.1365
21
2.5865
  0
ENDSEC
  0
EOF
