  0
SECTION
  2
HEADER
  9
$ANGBASE
  50
0.0
  9
$ANGDIR
  70
1
  9
$MEASUREMENT
  70
1
  0
ENDSEC
  0
SECTION
  2
TABLES
  0
TABLE
  2
LTYPE
  70
4
  0
LTYPE
  5
40F
  2
CONTINUOUS
  70
0
  3
Solid line
  72
65
  73
0
  40
0.0
  0
LTYPE
  5
410
  2
DASHDOT
 70
0
  3
Dash Dot ____ _ ____ _
 72
65
 73
4
 40
2.0
 49
1.25
 49
-0.25
 49
0.25
 49
-0.25
  0
LTYPE
  5
411
  2
DASHED
 70
0
  3
Dashed __ __ __ __ __
 72
65
 73
2
 40
0.75
 49
0.5
 49
-0.25
  0
LTYPE
  5
43B
  2
DOTTED
 70
0
  3
Dotted .  .  .  .
 72
65
 73
2
 40
0.2
 49
0.0
 49
-0.2
  0
ENDTAB
  0
TABLE
  2
STYLE
  70
4
  0
STYLE
  2
KICAD
  70
0
  40
0
  41
1
  42
1
  50
0
  71
0
  3
isocp.shx
  0
STYLE
  2
KICADB
  70
0
  40
0
  41
1
  42
1
  50
0
  71
0
  3
isocp.shx
  0
STYLE
  2
KICADI
  70
0
  40
0
  41
1
  42
1
  50
15
  71
0
  3
isocp.shx
  0
STYLE
  2
KICADBI
  70
0
  40
0
  41
1
  42
1
  50
15
  71
0
  3
isocp.shx
  0
ENDTAB
  0
TABLE
  2
LAYER
  70
1
  0
LAYER
  2
BLACK
  70
0
  62
7
  6
CONTINUOUS
  0
ENDTAB
  0
ENDSEC
  0
SECTION
  2
ENTITIES
0
LINE
8
BLACK
6
CONTINUOUS
10
-1.75
20
0.95
11
-1.72045
21
0.95
0
LINE
8
BLACK
6
CONTINUOUS
10
-1.72045
20
0.95
11
-1.66249
21
0.938472
0
LINE
8
BLACK
6
CONTINUOUS
10
-1.66249
20
0.938472
11
-1.6079
21
0.915857
0
LINE
8
BLACK
6
CONTINUOUS
10
-1.6079
20
0.915857
11
-1.55876
21
0.883026
0
LINE
8
BLACK
6
CONTINUOUS
10
-1.55876
20
0.883026
11
-1.51698
21
0.841239
0
LINE
8
BLACK
6
CONTINUOUS
10
-1.51698
20
0.841239
11
-1.48414
21
0.792103
0
LINE
8
BLACK
6
CONTINUOUS
10
-1.48414
20
0.792103
11
-1.46153
21
0.737507
0
LINE
8
BLACK
6
CONTINUOUS
10
-1.46153
20
0.737507
11
-1.45
21
0.679547
0
LINE
8
BLACK
6
CONTINUOUS
10
-1.45
20
0.679547
11
-1.45
21
0.620453
0
LINE
8
BLACK
6
CONTINUOUS
10
-1.45
20
0.620453
11
-1.46153
21
0.562493
0
LINE
8
BLACK
6
CONTINUOUS
10
-1.46153
20
0.562493
11
-1.48414
21
0.507897
0
LINE
8
BLACK
6
CONTINUOUS
10
-1.48414
20
0.507897
11
-1.51698
21
0.458761
0
LINE
8
BLACK
6
CONTINUOUS
10
-1.51698
20
0.458761
11
-1.55876
21
0.416974
0
LINE
8
BLACK
6
CONTINUOUS
10
-1.55876
20
0.416974
11
-1.6079
21
0.384143
0
LINE
8
BLACK
6
CONTINUOUS
10
-1.6079
20
0.384143
11
-1.66249
21
0.361528
0
LINE
8
BLACK
6
CONTINUOUS
10
-1.66249
20
0.361528
11
-1.72045
21
0.35
0
LINE
8
BLACK
6
CONTINUOUS
10
-1.72045
20
0.35
11
-1.75
21
0.35
0
LINE
8
BLACK
6
CONTINUOUS
10
-1.75
20
0.35
11
-1.75
21
0
0
LINE
8
BLACK
6
CONTINUOUS
10
-1.75
20
0
11
-2.25
21
0
0
LINE
8
BLACK
6
CONTINUOUS
10
-2.25
20
0
11
-2.25
21
1.5
0
LINE
8
BLACK
6
CONTINUOUS
10
-2.25
20
1.5
11
-1.75
21
1.5
0
LINE
8
BLACK
6
CONTINUOUS
10
-1.75
20
1.5
11
-1.75
21
0.95
0
LINE
8
BLACK
6
CONTINUOUS
10
-0.75
20
0.945932
11
-0.712493
21
0.938472
0
LINE
8
BLACK
6
CONTINUOUS
10
-0.712493
20
0.938472
11
-0.657897
21
0.915857
0
LINE
8
BLACK
6
CONTINUOUS
10
-0.657897
20
0.915857
11
-0.608761
21
0.883026
0
LINE
8
BLACK
6
CONTINUOUS
10
-0.608761
20
0.883026
11
-0.566974
21
0.841239
0
LINE
8
BLACK
6
CONTINUOUS
10
-0.566974
20
0.841239
11
-0.534143
21
0.792103
0
LINE
8
BLACK
6
CONTINUOUS
10
-0.534143
20
0.792103
11
-0.511528
21
0.737507
0
LINE
8
BLACK
6
CONTINUOUS
10
-0.511528
20
0.737507
11
-0.5
21
0.679547
0
LINE
8
BLACK
6
CONTINUOUS
10
-0.5
20
0.679547
11
-0.5
21
0.620453
0
LINE
8
BLACK
6
CONTINUOUS
10
-0.5
20
0.620453
11
-0.511528
21
0.562493
0
LINE
8
BLACK
6
CONTINUOUS
10
-0.511528
20
0.562493
11
-0.534143
21
0.507897
0
LINE
8
BLACK
6
CONTINUOUS
10
-0.534143
20
0.507897
11
-0.566974
21
0.458761
0
LINE
8
BLACK
6
CONTINUOUS
10
-0.566974
20
0.458761
11
-0.608761
21
0.416974
0
LINE
8
BLACK
6
CONTINUOUS
10
-0.608761
20
0.416974
11
-0.657897
21
0.384143
0
LINE
8
BLACK
6
CONTINUOUS
10
-0.657897
20
0.384143
11
-0.712493
21
0.361528
0
LINE
8
BLACK
6
CONTINUOUS
10
-0.712493
20
0.361528
11
-0.75
21
0.354068
0
LINE
8
BLACK
6
CONTINUOUS
10
-0.75
20
0.354068
11
-0.75
21
0
0
LINE
8
BLACK
6
CONTINUOUS
10
-0.75
20
0
11
-1.25
21
0
0
LINE
8
BLACK
6
CONTINUOUS
10
-1.25
20
0
11
-1.25
21
1.5
0
LINE
8
BLACK
6
CONTINUOUS
10
-1.25
20
1.5
11
-0.75
21
1.5
0
LINE
8
BLACK
6
CONTINUOUS
10
-0.75
20
1.5
11
-0.75
21
0.945932
0
LINE
8
BLACK
6
CONTINUOUS
10
0.107423
20
2.43847
11
0.162019
21
2.41586
0
LINE
8
BLACK
6
CONTINUOUS
10
0.162019
20
2.41586
11
0.211155
21
2.38303
0
LINE
8
BLACK
6
CONTINUOUS
10
0.211155
20
2.38303
11
0.252942
21
2.34124
0
LINE
8
BLACK
6
CONTINUOUS
10
0.252942
20
2.34124
11
0.285773
21
2.2921
0
LINE
8
BLACK
6
CONTINUOUS
10
0.285773
20
2.2921
11
0.308388
21
2.23751
0
LINE
8
BLACK
6
CONTINUOUS
10
0.308388
20
2.23751
11
0.319916
21
2.17955
0
LINE
8
BLACK
6
CONTINUOUS
10
0.319916
20
2.17955
11
0.319916
21
2.12045
0
LINE
8
BLACK
6
CONTINUOUS
10
0.319916
20
2.12045
11
0.308388
21
2.06249
0
LINE
8
BLACK
6
CONTINUOUS
10
0.308388
20
2.06249
11
0.285773
21
2.0079
0
LINE
8
BLACK
6
CONTINUOUS
10
0.285773
20
2.0079
11
0.252942
21
1.95876
0
LINE
8
BLACK
6
CONTINUOUS
10
0.252942
20
1.95876
11
0.211155
21
1.91697
0
LINE
8
BLACK
6
CONTINUOUS
10
0.211155
20
1.91697
11
0.162019
21
1.88414
0
LINE
8
BLACK
6
CONTINUOUS
10
0.162019
20
1.88414
11
0.107423
21
1.86153
0
LINE
8
BLACK
6
CONTINUOUS
10
0.107423
20
1.86153
11
0.0762
21
1.85532
0
LINE
8
BLACK
6
CONTINUOUS
10
0.0762
20
1.85532
11
0.0762
21
1.5
0
LINE
8
BLACK
6
CONTINUOUS
10
0.0762
20
1.5
11
0.25
21
1.5
0
LINE
8
BLACK
6
CONTINUOUS
10
0.25
20
1.5
11
0.25
21
0
0
LINE
8
BLACK
6
CONTINUOUS
10
0.25
20
0
11
-0.25
21
0
0
LINE
8
BLACK
6
CONTINUOUS
10
-0.25
20
0
11
-0.25
21
1.5
0
LINE
8
BLACK
6
CONTINUOUS
10
-0.25
20
1.5
11
-0.076199
21
1.5
0
LINE
8
BLACK
6
CONTINUOUS
10
-0.076199
20
1.5
11
-0.076199
21
1.86509
0
LINE
8
BLACK
6
CONTINUOUS
10
-0.076199
20
1.86509
11
-0.122187
21
1.88414
0
LINE
8
BLACK
6
CONTINUOUS
10
-0.122187
20
1.88414
11
-0.171323
21
1.91697
0
LINE
8
BLACK
6
CONTINUOUS
10
-0.171323
20
1.91697
11
-0.21311
21
1.95876
0
LINE
8
BLACK
6
CONTINUOUS
10
-0.21311
20
1.95876
11
-0.245941
21
2.0079
0
LINE
8
BLACK
6
CONTINUOUS
10
-0.245941
20
2.0079
11
-0.268556
21
2.06249
0
LINE
8
BLACK
6
CONTINUOUS
10
-0.268556
20
2.06249
11
-0.280084
21
2.12045
0
LINE
8
BLACK
6
CONTINUOUS
10
-0.280084
20
2.12045
11
-0.280084
21
2.17955
0
LINE
8
BLACK
6
CONTINUOUS
10
-0.280084
20
2.17955
11
-0.268556
21
2.23751
0
LINE
8
BLACK
6
CONTINUOUS
10
-0.268556
20
2.23751
11
-0.245941
21
2.2921
0
LINE
8
BLACK
6
CONTINUOUS
10
-0.245941
20
2.2921
11
-0.21311
21
2.34124
0
LINE
8
BLACK
6
CONTINUOUS
10
-0.21311
20
2.34124
11
-0.171323
21
2.38303
0
LINE
8
BLACK
6
CONTINUOUS
10
-0.171323
20
2.38303
11
-0.122187
21
2.41586
0
LINE
8
BLACK
6
CONTINUOUS
10
-0.122187
20
2.41586
11
-0.067591
21
2.43847
0
LINE
8
BLACK
6
CONTINUOUS
10
-0.067591
20
2.43847
11
-0.009631
21
2.45
0
LINE
8
BLACK
6
CONTINUOUS
10
-0.009631
20
2.45
11
0.049463
21
2.45
0
LINE
8
BLACK
6
CONTINUOUS
10
0.049463
20
2.45
11
0.107423
21
2.43847
0
LINE
8
BLACK
6
CONTINUOUS
10
0.887507
20
2.43847
11
0.942103
21
2.41586
0
LINE
8
BLACK
6
CONTINUOUS
10
0.942103
20
2.41586
11
0.991239
21
2.38303
0
LINE
8
BLACK
6
CONTINUOUS
10
0.991239
20
2.38303
11
1.03303
21
2.34124
0
LINE
8
BLACK
6
CONTINUOUS
10
1.03303
20
2.34124
11
1.06586
21
2.2921
0
LINE
8
BLACK
6
CONTINUOUS
10
1.06586
20
2.2921
11
1.08847
21
2.23751
0
LINE
8
BLACK
6
CONTINUOUS
10
1.08847
20
2.23751
11
1.1
21
2.17955
0
LINE
8
BLACK
6
CONTINUOUS
10
1.1
20
2.17955
11
1.1
21
2.12045
0
LINE
8
BLACK
6
CONTINUOUS
10
1.1
20
2.12045
11
1.08847
21
2.06249
0
LINE
8
BLACK
6
CONTINUOUS
10
1.08847
20
2.06249
11
1.06586
21
2.0079
0
LINE
8
BLACK
6
CONTINUOUS
10
1.06586
20
2.0079
11
1.03303
21
1.95876
0
LINE
8
BLACK
6
CONTINUOUS
10
1.03303
20
1.95876
11
1.02731
21
1.95304
0
LINE
8
BLACK
6
CONTINUOUS
10
1.02731
20
1.95304
11
1.05124
21
1.92912
0
LINE
8
BLACK
6
CONTINUOUS
10
1.05124
20
1.92912
11
1.05414
21
1.92673
0
LINE
8
BLACK
6
CONTINUOUS
10
1.05414
20
1.92673
11
1.06366
21
1.91513
0
LINE
8
BLACK
6
CONTINUOUS
10
1.06366
20
1.91513
11
1.07074
21
1.90189
0
LINE
8
BLACK
6
CONTINUOUS
10
1.07074
20
1.90189
11
1.0751
21
1.88753
0
LINE
8
BLACK
6
CONTINUOUS
10
1.0751
20
1.88753
11
1.07657
21
1.87259
0
LINE
8
BLACK
6
CONTINUOUS
10
1.07657
20
1.87259
11
1.0762
21
1.86885
0
LINE
8
BLACK
6
CONTINUOUS
10
1.0762
20
1.86885
11
1.0762
21
1.5
0
LINE
8
BLACK
6
CONTINUOUS
10
1.0762
20
1.5
11
1.25
21
1.5
0
LINE
8
BLACK
6
CONTINUOUS
10
1.25
20
1.5
11
1.25
21
0
0
LINE
8
BLACK
6
CONTINUOUS
10
1.25
20
0
11
0.75
21
0
0
LINE
8
BLACK
6
CONTINUOUS
10
0.75
20
0
11
0.75
21
1.5
0
LINE
8
BLACK
6
CONTINUOUS
10
0.75
20
1.5
11
0.923801
21
1.5
0
LINE
8
BLACK
6
CONTINUOUS
10
0.923801
20
1.5
11
0.923801
21
1.84103
0
LINE
8
BLACK
6
CONTINUOUS
10
0.923801
20
1.84103
11
0.898674
21
1.86615
0
LINE
8
BLACK
6
CONTINUOUS
10
0.898674
20
1.86615
11
0.887507
21
1.86153
0
LINE
8
BLACK
6
CONTINUOUS
10
0.887507
20
1.86153
11
0.829547
21
1.85
0
LINE
8
BLACK
6
CONTINUOUS
10
0.829547
20
1.85
11
0.770453
21
1.85
0
LINE
8
BLACK
6
CONTINUOUS
10
0.770453
20
1.85
11
0.712493
21
1.86153
0
LINE
8
BLACK
6
CONTINUOUS
10
0.712493
20
1.86153
11
0.657897
21
1.88414
0
LINE
8
BLACK
6
CONTINUOUS
10
0.657897
20
1.88414
11
0.608761
21
1.91697
0
LINE
8
BLACK
6
CONTINUOUS
10
0.608761
20
1.91697
11
0.566974
21
1.95876
0
LINE
8
BLACK
6
CONTINUOUS
10
0.566974
20
1.95876
11
0.534143
21
2.0079
0
LINE
8
BLACK
6
CONTINUOUS
10
0.534143
20
2.0079
11
0.511528
21
2.06249
0
LINE
8
BLACK
6
CONTINUOUS
10
0.511528
20
2.06249
11
0.5
21
2.12045
0
LINE
8
BLACK
6
CONTINUOUS
10
0.5
20
2.12045
11
0.5
21
2.17955
0
LINE
8
BLACK
6
CONTINUOUS
10
0.5
20
2.17955
11
0.511528
21
2.23751
0
LINE
8
BLACK
6
CONTINUOUS
10
0.511528
20
2.23751
11
0.534143
21
2.2921
0
LINE
8
BLACK
6
CONTINUOUS
10
0.534143
20
2.2921
11
0.566974
21
2.34124
0
LINE
8
BLACK
6
CONTINUOUS
10
0.566974
20
2.34124
11
0.608761
21
2.38303
0
LINE
8
BLACK
6
CONTINUOUS
10
0.608761
20
2.38303
11
0.657897
21
2.41586
0
LINE
8
BLACK
6
CONTINUOUS
10
0.657897
20
2.41586
11
0.712493
21
2.43847
0
LINE
8
BLACK
6
CONTINUOUS
10
0.712493
20
2.43847
11
0.770453
21
2.45
0
LINE
8
BLACK
6
CONTINUOUS
10
0.770453
20
2.45
11
0.829547
21
2.45
0
LINE
8
BLACK
6
CONTINUOUS
10
0.829547
20
2.45
11
0.887507
21
2.43847
0
LINE
8
BLACK
6
CONTINUOUS
10
1.68751
20
2.53847
11
1.7421
21
2.51586
0
LINE
8
BLACK
6
CONTINUOUS
10
1.7421
20
2.51586
11
1.79124
21
2.48303
0
LINE
8
BLACK
6
CONTINUOUS
10
1.79124
20
2.48303
11
1.83303
21
2.44124
0
LINE
8
BLACK
6
CONTINUOUS
10
1.83303
20
2.44124
11
1.86586
21
2.3921
0
LINE
8
BLACK
6
CONTINUOUS
10
1.86586
20
2.3921
11
1.88847
21
2.33751
0
LINE
8
BLACK
6
CONTINUOUS
10
1.88847
20
2.33751
11
1.9
21
2.27955
0
LINE
8
BLACK
6
CONTINUOUS
10
1.9
20
2.27955
11
1.9
21
2.22045
0
LINE
8
BLACK
6
CONTINUOUS
10
1.9
20
2.22045
11
1.88847
21
2.16249
0
LINE
8
BLACK
6
CONTINUOUS
10
1.88847
20
2.16249
11
1.86586
21
2.1079
0
LINE
8
BLACK
6
CONTINUOUS
10
1.86586
20
2.1079
11
1.85945
21
2.09831
0
LINE
8
BLACK
6
CONTINUOUS
10
1.85945
20
2.09831
11
2.05124
21
1.90653
0
LINE
8
BLACK
6
CONTINUOUS
10
2.05124
20
1.90653
11
2.05414
21
1.90414
0
LINE
8
BLACK
6
CONTINUOUS
10
2.05414
20
1.90414
11
2.05754
21
1.9
0
LINE
8
BLACK
6
CONTINUOUS
10
2.05754
20
1.9
11
2.06366
21
1.89254
0
LINE
8
BLACK
6
CONTINUOUS
10
2.06366
20
1.89254
11
2.06815
21
1.88414
0
LINE
8
BLACK
6
CONTINUOUS
10
2.06815
20
1.88414
11
2.07074
21
1.8793
0
LINE
8
BLACK
6
CONTINUOUS
10
2.07074
20
1.8793
11
2.0751
21
1.86494
0
LINE
8
BLACK
6
CONTINUOUS
10
2.0751
20
1.86494
11
2.07581
21
1.85765
0
LINE
8
BLACK
6
CONTINUOUS
10
2.07581
20
1.85765
11
2.07657
21
1.85
0
LINE
8
BLACK
6
CONTINUOUS
10
2.07657
20
1.85
11
2.0762
21
1.84627
0
LINE
8
BLACK
6
CONTINUOUS
10
2.0762
20
1.84627
11
2.0762
21
1.5
0
LINE
8
BLACK
6
CONTINUOUS
10
2.0762
20
1.5
11
2.25
21
1.5
0
LINE
8
BLACK
6
CONTINUOUS
10
2.25
20
1.5
11
2.25
21
0
0
LINE
8
BLACK
6
CONTINUOUS
10
2.25
20
0
11
1.75
21
0
0
LINE
8
BLACK
6
CONTINUOUS
10
1.75
20
0
11
1.75
21
1.5
0
LINE
8
BLACK
6
CONTINUOUS
10
1.75
20
1.5
11
1.9238
21
1.5
0
LINE
8
BLACK
6
CONTINUOUS
10
1.9238
20
1.5
11
1.9238
21
1.81844
0
LINE
8
BLACK
6
CONTINUOUS
10
1.9238
20
1.81844
11
1.75169
21
1.99055
0
LINE
8
BLACK
6
CONTINUOUS
10
1.75169
20
1.99055
11
1.7421
21
1.98414
0
LINE
8
BLACK
6
CONTINUOUS
10
1.7421
20
1.98414
11
1.68751
21
1.96153
0
LINE
8
BLACK
6
CONTINUOUS
10
1.68751
20
1.96153
11
1.62955
21
1.95
0
LINE
8
BLACK
6
CONTINUOUS
10
1.62955
20
1.95
11
1.57045
21
1.95
0
LINE
8
BLACK
6
CONTINUOUS
10
1.57045
20
1.95
11
1.51249
21
1.96153
0
LINE
8
BLACK
6
CONTINUOUS
10
1.51249
20
1.96153
11
1.4579
21
1.98414
0
LINE
8
BLACK
6
CONTINUOUS
10
1.4579
20
1.98414
11
1.40876
21
2.01697
0
LINE
8
BLACK
6
CONTINUOUS
10
1.40876
20
2.01697
11
1.36697
21
2.05876
0
LINE
8
BLACK
6
CONTINUOUS
10
1.36697
20
2.05876
11
1.33414
21
2.1079
0
LINE
8
BLACK
6
CONTINUOUS
10
1.33414
20
2.1079
11
1.31153
21
2.16249
0
LINE
8
BLACK
6
CONTINUOUS
10
1.31153
20
2.16249
11
1.3
21
2.22045
0
LINE
8
BLACK
6
CONTINUOUS
10
1.3
20
2.22045
11
1.3
21
2.27955
0
LINE
8
BLACK
6
CONTINUOUS
10
1.3
20
2.27955
11
1.31153
21
2.33751
0
LINE
8
BLACK
6
CONTINUOUS
10
1.31153
20
2.33751
11
1.33414
21
2.3921
0
LINE
8
BLACK
6
CONTINUOUS
10
1.33414
20
2.3921
11
1.36697
21
2.44124
0
LINE
8
BLACK
6
CONTINUOUS
10
1.36697
20
2.44124
11
1.40876
21
2.48303
0
LINE
8
BLACK
6
CONTINUOUS
10
1.40876
20
2.48303
11
1.4579
21
2.51586
0
LINE
8
BLACK
6
CONTINUOUS
10
1.4579
20
2.51586
11
1.51249
21
2.53847
0
LINE
8
BLACK
6
CONTINUOUS
10
1.51249
20
2.53847
11
1.5238
21
2.54072
0
LINE
8
BLACK
6
CONTINUOUS
10
1.5238
20
2.54072
11
1.5238
21
2.56844
0
LINE
8
BLACK
6
CONTINUOUS
10
1.5238
20
2.56844
11
1.51965
21
2.57259
0
LINE
8
BLACK
6
CONTINUOUS
10
1.51965
20
2.57259
11
-0.604647
21
2.57259
0
LINE
8
BLACK
6
CONTINUOUS
10
-0.604647
20
2.57259
11
-0.657238
21
2.52
0
LINE
8
BLACK
6
CONTINUOUS
10
-0.657238
20
2.52
11
-0.6175
21
2.52
0
LINE
8
BLACK
6
CONTINUOUS
10
-0.6175
20
2.52
11
-0.588724
21
2.51717
0
LINE
8
BLACK
6
CONTINUOUS
10
-0.588724
20
2.51717
11
-0.561054
21
2.50877
0
LINE
8
BLACK
6
CONTINUOUS
10
-0.561054
20
2.50877
11
-0.535553
21
2.49514
0
LINE
8
BLACK
6
CONTINUOUS
10
-0.535553
20
2.49514
11
-0.513202
21
2.4768
0
LINE
8
BLACK
6
CONTINUOUS
10
-0.513202
20
2.4768
11
-0.494858
21
2.45445
0
LINE
8
BLACK
6
CONTINUOUS
10
-0.494858
20
2.45445
11
-0.481228
21
2.42895
0
LINE
8
BLACK
6
CONTINUOUS
10
-0.481228
20
2.42895
11
-0.472834
21
2.40128
0
LINE
8
BLACK
6
CONTINUOUS
10
-0.472834
20
2.40128
11
-0.47
21
2.3725
0
LINE
8
BLACK
6
CONTINUOUS
10
-0.47
20
2.3725
11
-0.47
21
2.0275
0
LINE
8
BLACK
6
CONTINUOUS
10
-0.47
20
2.0275
11
-0.472834
21
1.99872
0
LINE
8
BLACK
6
CONTINUOUS
10
-0.472834
20
1.99872
11
-0.481228
21
1.97105
0
LINE
8
BLACK
6
CONTINUOUS
10
-0.481228
20
1.97105
11
-0.494858
21
1.94555
0
LINE
8
BLACK
6
CONTINUOUS
10
-0.494858
20
1.94555
11
-0.513202
21
1.9232
0
LINE
8
BLACK
6
CONTINUOUS
10
-0.513202
20
1.9232
11
-0.535553
21
1.90486
0
LINE
8
BLACK
6
CONTINUOUS
10
-0.535553
20
1.90486
11
-0.561054
21
1.89123
0
LINE
8
BLACK
6
CONTINUOUS
10
-0.561054
20
1.89123
11
-0.588724
21
1.88283
0
LINE
8
BLACK
6
CONTINUOUS
10
-0.588724
20
1.88283
11
-0.6175
21
1.88
0
LINE
8
BLACK
6
CONTINUOUS
10
-0.6175
20
1.88
11
-0.9125
21
1.88
0
LINE
8
BLACK
6
CONTINUOUS
10
-0.9125
20
1.88
11
-0.941276
21
1.88283
0
LINE
8
BLACK
6
CONTINUOUS
10
-0.941276
20
1.88283
11
-0.968946
21
1.89123
0
LINE
8
BLACK
6
CONTINUOUS
10
-0.968946
20
1.89123
11
-0.994447
21
1.90486
0
LINE
8
BLACK
6
CONTINUOUS
10
-0.994447
20
1.90486
11
-1.0168
21
1.9232
0
LINE
8
BLACK
6
CONTINUOUS
10
-1.0168
20
1.9232
11
-1.03514
21
1.94555
0
LINE
8
BLACK
6
CONTINUOUS
10
-1.03514
20
1.94555
11
-1.04877
21
1.97105
0
LINE
8
BLACK
6
CONTINUOUS
10
-1.04877
20
1.97105
11
-1.05717
21
1.99872
0
LINE
8
BLACK
6
CONTINUOUS
10
-1.05717
20
1.99872
11
-1.06
21
2.0275
0
LINE
8
BLACK
6
CONTINUOUS
10
-1.06
20
2.0275
11
-1.06
21
2.3725
0
LINE
8
BLACK
6
CONTINUOUS
10
-1.06
20
2.3725
11
-1.05717
21
2.40128
0
LINE
8
BLACK
6
CONTINUOUS
10
-1.05717
20
2.40128
11
-1.04877
21
2.42895
0
LINE
8
BLACK
6
CONTINUOUS
10
-1.04877
20
2.42895
11
-1.03514
21
2.45445
0
LINE
8
BLACK
6
CONTINUOUS
10
-1.03514
20
2.45445
11
-1.0168
21
2.4768
0
LINE
8
BLACK
6
CONTINUOUS
10
-1.0168
20
2.4768
11
-0.994447
21
2.49514
0
LINE
8
BLACK
6
CONTINUOUS
10
-0.994447
20
2.49514
11
-0.968946
21
2.50877
0
LINE
8
BLACK
6
CONTINUOUS
10
-0.968946
20
2.50877
11
-0.941276
21
2.51717
0
LINE
8
BLACK
6
CONTINUOUS
10
-0.941276
20
2.51717
11
-0.9125
21
2.52
0
LINE
8
BLACK
6
CONTINUOUS
10
-0.9125
20
2.52
11
-0.841568
21
2.52
0
LINE
8
BLACK
6
CONTINUOUS
10
-0.841568
20
2.52
11
-0.841085
21
2.5249
0
LINE
8
BLACK
6
CONTINUOUS
10
-0.841085
20
2.5249
11
-0.840097
21
2.53494
0
LINE
8
BLACK
6
CONTINUOUS
10
-0.840097
20
2.53494
11
-0.83574
21
2.5493
0
LINE
8
BLACK
6
CONTINUOUS
10
-0.83574
20
2.5493
11
-0.828664
21
2.56254
0
LINE
8
BLACK
6
CONTINUOUS
10
-0.828664
20
2.56254
11
-0.819142
21
2.57414
0
LINE
8
BLACK
6
CONTINUOUS
10
-0.819142
20
2.57414
11
-0.816232
21
2.57653
0
LINE
8
BLACK
6
CONTINUOUS
10
-0.816232
20
2.57653
11
-0.692736
21
2.70003
0
LINE
8
BLACK
6
CONTINUOUS
10
-0.692736
20
2.70003
11
-0.690352
21
2.70293
0
LINE
8
BLACK
6
CONTINUOUS
10
-0.690352
20
2.70293
11
-0.678749
21
2.71245
0
LINE
8
BLACK
6
CONTINUOUS
10
-0.678749
20
2.71245
11
-0.665511
21
2.71953
0
LINE
8
BLACK
6
CONTINUOUS
10
-0.665511
20
2.71953
11
-0.651148
21
2.72389
0
LINE
8
BLACK
6
CONTINUOUS
10
-0.651148
20
2.72389
11
-0.639947
21
2.72499
0
LINE
8
BLACK
6
CONTINUOUS
10
-0.639947
20
2.72499
11
-0.63621
21
2.72536
0
LINE
8
BLACK
6
CONTINUOUS
10
-0.63621
20
2.72536
11
-0.632473
21
2.72499
0
LINE
8
BLACK
6
CONTINUOUS
10
-0.632473
20
2.72499
11
1.54748
21
2.72499
0
LINE
8
BLACK
6
CONTINUOUS
10
1.54748
20
2.72499
11
1.55121
21
2.72536
0
LINE
8
BLACK
6
CONTINUOUS
10
1.55121
20
2.72536
11
1.55494
21
2.72499
0
LINE
8
BLACK
6
CONTINUOUS
10
1.55494
20
2.72499
11
1.55495
21
2.72499
0
LINE
8
BLACK
6
CONTINUOUS
10
1.55495
20
2.72499
11
1.56615
21
2.72389
0
LINE
8
BLACK
6
CONTINUOUS
10
1.56615
20
2.72389
11
1.58051
21
2.71953
0
LINE
8
BLACK
6
CONTINUOUS
10
1.58051
20
2.71953
11
1.59375
21
2.71245
0
LINE
8
BLACK
6
CONTINUOUS
10
1.59375
20
2.71245
11
1.60535
21
2.70293
0
LINE
8
BLACK
6
CONTINUOUS
10
1.60535
20
2.70293
11
1.60774
21
2.70002
0
LINE
8
BLACK
6
CONTINUOUS
10
1.60774
20
2.70002
11
1.65123
21
2.65653
0
LINE
8
BLACK
6
CONTINUOUS
10
1.65123
20
2.65653
11
1.65414
21
2.65414
0
LINE
8
BLACK
6
CONTINUOUS
10
1.65414
20
2.65414
11
1.66096
21
2.64583
0
LINE
8
BLACK
6
CONTINUOUS
10
1.66096
20
2.64583
11
1.66366
21
2.64254
0
LINE
8
BLACK
6
CONTINUOUS
10
1.66366
20
2.64254
11
1.67074
21
2.6293
0
LINE
8
BLACK
6
CONTINUOUS
10
1.67074
20
2.6293
11
1.67074
21
2.6293
0
LINE
8
BLACK
6
CONTINUOUS
10
1.67074
20
2.6293
11
1.6751
21
2.61494
0
LINE
8
BLACK
6
CONTINUOUS
10
1.6751
20
2.61494
11
1.67522
21
2.61366
0
LINE
8
BLACK
6
CONTINUOUS
10
1.67522
20
2.61366
11
1.67657
21
2.6
0
LINE
8
BLACK
6
CONTINUOUS
10
1.67657
20
2.6
11
1.6762
21
2.59627
0
LINE
8
BLACK
6
CONTINUOUS
10
1.6762
20
2.59627
11
1.6762
21
2.54072
0
LINE
8
BLACK
6
CONTINUOUS
10
1.6762
20
2.54072
11
1.68751
21
2.53847
0
LINE
8
BLACK
6
CONTINUOUS
10
-1.55872
20
2.51717
11
-1.53105
21
2.50877
0
LINE
8
BLACK
6
CONTINUOUS
10
-1.53105
20
2.50877
11
-1.5112
21
2.49816
0
LINE
8
BLACK
6
CONTINUOUS
10
-1.5112
20
2.49816
11
-1.46249
21
2.48847
0
LINE
8
BLACK
6
CONTINUOUS
10
-1.46249
20
2.48847
11
-1.4079
21
2.46586
0
LINE
8
BLACK
6
CONTINUOUS
10
-1.4079
20
2.46586
11
-1.35876
21
2.43303
0
LINE
8
BLACK
6
CONTINUOUS
10
-1.35876
20
2.43303
11
-1.31698
21
2.39124
0
LINE
8
BLACK
6
CONTINUOUS
10
-1.31698
20
2.39124
11
-1.28414
21
2.3421
0
LINE
8
BLACK
6
CONTINUOUS
10
-1.28414
20
2.3421
11
-1.26153
21
2.28751
0
LINE
8
BLACK
6
CONTINUOUS
10
-1.26153
20
2.28751
11
-1.25
21
2.22955
0
LINE
8
BLACK
6
CONTINUOUS
10
-1.25
20
2.22955
11
-1.25
21
2.17045
0
LINE
8
BLACK
6
CONTINUOUS
10
-1.25
20
2.17045
11
-1.26153
21
2.11249
0
LINE
8
BLACK
6
CONTINUOUS
10
-1.26153
20
2.11249
11
-1.28414
21
2.0579
0
LINE
8
BLACK
6
CONTINUOUS
10
-1.28414
20
2.0579
11
-1.31698
21
2.00876
0
LINE
8
BLACK
6
CONTINUOUS
10
-1.31698
20
2.00876
11
-1.35876
21
1.96697
0
LINE
8
BLACK
6
CONTINUOUS
10
-1.35876
20
1.96697
11
-1.4079
21
1.93414
0
LINE
8
BLACK
6
CONTINUOUS
10
-1.4079
20
1.93414
11
-1.46249
21
1.91153
0
LINE
8
BLACK
6
CONTINUOUS
10
-1.46249
20
1.91153
11
-1.5112
21
1.90184
0
LINE
8
BLACK
6
CONTINUOUS
10
-1.5112
20
1.90184
11
-1.53105
21
1.89123
0
LINE
8
BLACK
6
CONTINUOUS
10
-1.53105
20
1.89123
11
-1.55872
21
1.88283
0
LINE
8
BLACK
6
CONTINUOUS
10
-1.55872
20
1.88283
11
-1.5875
21
1.88
0
LINE
8
BLACK
6
CONTINUOUS
10
-1.5875
20
1.88
11
-1.8825
21
1.88
0
LINE
8
BLACK
6
CONTINUOUS
10
-1.8825
20
1.88
11
-1.91128
21
1.88283
0
LINE
8
BLACK
6
CONTINUOUS
10
-1.91128
20
1.88283
11
-1.93895
21
1.89123
0
LINE
8
BLACK
6
CONTINUOUS
10
-1.93895
20
1.89123
11
-1.96445
21
1.90486
0
LINE
8
BLACK
6
CONTINUOUS
10
-1.96445
20
1.90486
11
-1.9868
21
1.9232
0
LINE
8
BLACK
6
CONTINUOUS
10
-1.9868
20
1.9232
11
-2.00514
21
1.94555
0
LINE
8
BLACK
6
CONTINUOUS
10
-2.00514
20
1.94555
11
-2.01877
21
1.97105
0
LINE
8
BLACK
6
CONTINUOUS
10
-2.01877
20
1.97105
11
-2.02717
21
1.99872
0
LINE
8
BLACK
6
CONTINUOUS
10
-2.02717
20
1.99872
11
-2.03
21
2.0275
0
LINE
8
BLACK
6
CONTINUOUS
10
-2.03
20
2.0275
11
-2.03
21
2.3725
0
LINE
8
BLACK
6
CONTINUOUS
10
-2.03
20
2.3725
11
-2.02717
21
2.40128
0
LINE
8
BLACK
6
CONTINUOUS
10
-2.02717
20
2.40128
11
-2.01877
21
2.42895
0
LINE
8
BLACK
6
CONTINUOUS
10
-2.01877
20
2.42895
11
-2.00514
21
2.45445
0
LINE
8
BLACK
6
CONTINUOUS
10
-2.00514
20
2.45445
11
-1.9868
21
2.4768
0
LINE
8
BLACK
6
CONTINUOUS
10
-1.9868
20
2.4768
11
-1.96445
21
2.49514
0
LINE
8
BLACK
6
CONTINUOUS
10
-1.96445
20
2.49514
11
-1.93895
21
2.50877
0
LINE
8
BLACK
6
CONTINUOUS
10
-1.93895
20
2.50877
11
-1.91128
21
2.51717
0
LINE
8
BLACK
6
CONTINUOUS
10
-1.91128
20
2.51717
11
-1.8825
21
2.52
0
LINE
8
BLACK
6
CONTINUOUS
10
-1.8825
20
2.52
11
-1.5875
21
2.52
0
LINE
8
BLACK
6
CONTINUOUS
10
-1.5875
20
2.52
11
-1.55872
21
2.51717
0
CIRCLE
8
BLACK
10
-0.8
20
0.65
40
0.15
0
CIRCLE
8
BLACK
10
1.6
20
2.25
40
0.15
0
CIRCLE
8
BLACK
10
-1.55
20
2.2
40
0.15
0
CIRCLE
8
BLACK
10
0.8
20
2.15
40
0.15
0
CIRCLE
8
BLACK
10
0.019916
20
2.15
40
0.15
0
CIRCLE
8
BLACK
10
-1.75
20
0.65
40
0.15
  0
ENDSEC
  0
EOF
