  0
SECTION
  2
HEADER
  9
$ANGBASE
  50
0.0
  9
$ANGDIR
  70
1
  9
$MEASUREMENT
  70
1
  0
ENDSEC
  0
SECTION
  2
TABLES
  0
TABLE
  2
LTYPE
  70
4
  0
LTYPE
  5
40F
  2
CONTINUOUS
  70
0
  3
Solid line
  72
65
  73
0
  40
0.0
  0
LTYPE
  5
410
  2
DASHDOT
 70
0
  3
Dash Dot ____ _ ____ _
 72
65
 73
4
 40
2.0
 49
1.25
 49
-0.25
 49
0.25
 49
-0.25
  0
LTYPE
  5
411
  2
DASHED
 70
0
  3
Dashed __ __ __ __ __
 72
65
 73
2
 40
0.75
 49
0.5
 49
-0.25
  0
LTYPE
  5
43B
  2
DOTTED
 70
0
  3
Dotted .  .  .  .
 72
65
 73
2
 40
0.2
 49
0.0
 49
-0.2
  0
ENDTAB
  0
TABLE
  2
STYLE
  70
4
  0
STYLE
  2
KICAD
  70
0
  40
0
  41
1
  42
1
  50
0
  71
0
  3
isocp.shx
  0
STYLE
  2
KICADB
  70
0
  40
0
  41
1
  42
1
  50
0
  71
0
  3
isocp.shx
  0
STYLE
  2
KICADI
  70
0
  40
0
  41
1
  42
1
  50
15
  71
0
  3
isocp.shx
  0
STYLE
  2
KICADBI
  70
0
  40
0
  41
1
  42
1
  50
15
  71
0
  3
isocp.shx
  0
ENDTAB
  0
TABLE
  2
LAYER
  70
1
  0
LAYER
  2
BLACK
  70
0
  62
7
  6
CONTINUOUS
  0
ENDTAB
  0
ENDSEC
  0
SECTION
  2
ENTITIES
0
LINE
8
BLACK
6
CONTINUOUS
10
1.855
20
0.950754
11
1.85995
21
0.95002
0
LINE
8
BLACK
6
CONTINUOUS
10
1.85995
20
0.95002
11
1.8648
21
0.948804
0
LINE
8
BLACK
6
CONTINUOUS
10
1.8648
20
0.948804
11
1.86952
21
0.947118
0
LINE
8
BLACK
6
CONTINUOUS
10
1.86952
20
0.947118
11
1.87404
21
0.944978
0
LINE
8
BLACK
6
CONTINUOUS
10
1.87404
20
0.944978
11
1.87833
21
0.942405
0
LINE
8
BLACK
6
CONTINUOUS
10
1.87833
20
0.942405
11
1.88235
21
0.939424
0
LINE
8
BLACK
6
CONTINUOUS
10
1.88235
20
0.939424
11
1.88606
21
0.936062
0
LINE
8
BLACK
6
CONTINUOUS
10
1.88606
20
0.936062
11
1.88942
21
0.932354
0
LINE
8
BLACK
6
CONTINUOUS
10
1.88942
20
0.932354
11
1.8924
21
0.928334
0
LINE
8
BLACK
6
CONTINUOUS
10
1.8924
20
0.928334
11
1.89498
21
0.924041
0
LINE
8
BLACK
6
CONTINUOUS
10
1.89498
20
0.924041
11
1.89712
21
0.919517
0
LINE
8
BLACK
6
CONTINUOUS
10
1.89712
20
0.919517
11
1.8988
21
0.914805
0
LINE
8
BLACK
6
CONTINUOUS
10
1.8988
20
0.914805
11
1.90002
21
0.90995
0
LINE
8
BLACK
6
CONTINUOUS
10
1.90002
20
0.90995
11
1.90075
21
0.904999
0
LINE
8
BLACK
6
CONTINUOUS
10
1.90075
20
0.904999
11
1.901
21
0.9
0
LINE
8
BLACK
6
CONTINUOUS
10
1.901
20
0.9
11
1.901
21
0.4
0
LINE
8
BLACK
6
CONTINUOUS
10
1.901
20
0.4
11
1.90075
21
0.395001
0
LINE
8
BLACK
6
CONTINUOUS
10
1.90075
20
0.395001
11
1.90002
21
0.39005
0
LINE
8
BLACK
6
CONTINUOUS
10
1.90002
20
0.39005
11
1.8988
21
0.385195
0
LINE
8
BLACK
6
CONTINUOUS
10
1.8988
20
0.385195
11
1.89712
21
0.380483
0
LINE
8
BLACK
6
CONTINUOUS
10
1.89712
20
0.380483
11
1.89498
21
0.375959
0
LINE
8
BLACK
6
CONTINUOUS
10
1.89498
20
0.375959
11
1.8924
21
0.371666
0
LINE
8
BLACK
6
CONTINUOUS
10
1.8924
20
0.371666
11
1.88942
21
0.367646
0
LINE
8
BLACK
6
CONTINUOUS
10
1.88942
20
0.367646
11
1.88606
21
0.363938
0
LINE
8
BLACK
6
CONTINUOUS
10
1.88606
20
0.363938
11
1.88235
21
0.360576
0
LINE
8
BLACK
6
CONTINUOUS
10
1.88235
20
0.360576
11
1.87833
21
0.357595
0
LINE
8
BLACK
6
CONTINUOUS
10
1.87833
20
0.357595
11
1.87404
21
0.355022
0
LINE
8
BLACK
6
CONTINUOUS
10
1.87404
20
0.355022
11
1.86952
21
0.352882
0
LINE
8
BLACK
6
CONTINUOUS
10
1.86952
20
0.352882
11
1.8648
21
0.351196
0
LINE
8
BLACK
6
CONTINUOUS
10
1.8648
20
0.351196
11
1.85995
21
0.34998
0
LINE
8
BLACK
6
CONTINUOUS
10
1.85995
20
0.34998
11
1.855
21
0.349246
0
LINE
8
BLACK
6
CONTINUOUS
10
1.855
20
0.349246
11
1.85
21
0.349
0
LINE
8
BLACK
6
CONTINUOUS
10
1.85
20
0.349
11
1.35
21
0.349
0
LINE
8
BLACK
6
CONTINUOUS
10
1.35
20
0.349
11
1.345
21
0.349246
0
LINE
8
BLACK
6
CONTINUOUS
10
1.345
20
0.349246
11
1.34005
21
0.34998
0
LINE
8
BLACK
6
CONTINUOUS
10
1.34005
20
0.34998
11
1.33519
21
0.351196
0
LINE
8
BLACK
6
CONTINUOUS
10
1.33519
20
0.351196
11
1.33048
21
0.352882
0
LINE
8
BLACK
6
CONTINUOUS
10
1.33048
20
0.352882
11
1.32596
21
0.355022
0
LINE
8
BLACK
6
CONTINUOUS
10
1.32596
20
0.355022
11
1.32167
21
0.357595
0
LINE
8
BLACK
6
CONTINUOUS
10
1.32167
20
0.357595
11
1.31765
21
0.360576
0
LINE
8
BLACK
6
CONTINUOUS
10
1.31765
20
0.360576
11
1.31394
21
0.363938
0
LINE
8
BLACK
6
CONTINUOUS
10
1.31394
20
0.363938
11
1.31058
21
0.367646
0
LINE
8
BLACK
6
CONTINUOUS
10
1.31058
20
0.367646
11
1.30759
21
0.371666
0
LINE
8
BLACK
6
CONTINUOUS
10
1.30759
20
0.371666
11
1.30502
21
0.375959
0
LINE
8
BLACK
6
CONTINUOUS
10
1.30502
20
0.375959
11
1.30288
21
0.380483
0
LINE
8
BLACK
6
CONTINUOUS
10
1.30288
20
0.380483
11
1.3012
21
0.385195
0
LINE
8
BLACK
6
CONTINUOUS
10
1.3012
20
0.385195
11
1.29998
21
0.39005
0
LINE
8
BLACK
6
CONTINUOUS
10
1.29998
20
0.39005
11
1.29925
21
0.395001
0
LINE
8
BLACK
6
CONTINUOUS
10
1.29925
20
0.395001
11
1.299
21
0.4
0
LINE
8
BLACK
6
CONTINUOUS
10
1.299
20
0.4
11
1.299
21
0.9
0
LINE
8
BLACK
6
CONTINUOUS
10
1.299
20
0.9
11
1.29925
21
0.904999
0
LINE
8
BLACK
6
CONTINUOUS
10
1.29925
20
0.904999
11
1.29998
21
0.90995
0
LINE
8
BLACK
6
CONTINUOUS
10
1.29998
20
0.90995
11
1.3012
21
0.914805
0
LINE
8
BLACK
6
CONTINUOUS
10
1.3012
20
0.914805
11
1.30288
21
0.919517
0
LINE
8
BLACK
6
CONTINUOUS
10
1.30288
20
0.919517
11
1.30502
21
0.924041
0
LINE
8
BLACK
6
CONTINUOUS
10
1.30502
20
0.924041
11
1.30759
21
0.928334
0
LINE
8
BLACK
6
CONTINUOUS
10
1.30759
20
0.928334
11
1.31058
21
0.932354
0
LINE
8
BLACK
6
CONTINUOUS
10
1.31058
20
0.932354
11
1.31394
21
0.936062
0
LINE
8
BLACK
6
CONTINUOUS
10
1.31394
20
0.936062
11
1.31765
21
0.939424
0
LINE
8
BLACK
6
CONTINUOUS
10
1.31765
20
0.939424
11
1.32167
21
0.942405
0
LINE
8
BLACK
6
CONTINUOUS
10
1.32167
20
0.942405
11
1.32596
21
0.944978
0
LINE
8
BLACK
6
CONTINUOUS
10
1.32596
20
0.944978
11
1.33048
21
0.947118
0
LINE
8
BLACK
6
CONTINUOUS
10
1.33048
20
0.947118
11
1.33519
21
0.948804
0
LINE
8
BLACK
6
CONTINUOUS
10
1.33519
20
0.948804
11
1.34005
21
0.95002
0
LINE
8
BLACK
6
CONTINUOUS
10
1.34005
20
0.95002
11
1.345
21
0.950754
0
LINE
8
BLACK
6
CONTINUOUS
10
1.345
20
0.950754
11
1.35
21
0.951
0
LINE
8
BLACK
6
CONTINUOUS
10
1.35
20
0.951
11
1.85
21
0.951
0
LINE
8
BLACK
6
CONTINUOUS
10
1.85
20
0.951
11
1.855
21
0.950754
0
LINE
8
BLACK
6
CONTINUOUS
10
1.055
20
0.950754
11
1.05995
21
0.95002
0
LINE
8
BLACK
6
CONTINUOUS
10
1.05995
20
0.95002
11
1.06481
21
0.948804
0
LINE
8
BLACK
6
CONTINUOUS
10
1.06481
20
0.948804
11
1.06952
21
0.947118
0
LINE
8
BLACK
6
CONTINUOUS
10
1.06952
20
0.947118
11
1.07404
21
0.944978
0
LINE
8
BLACK
6
CONTINUOUS
10
1.07404
20
0.944978
11
1.07833
21
0.942405
0
LINE
8
BLACK
6
CONTINUOUS
10
1.07833
20
0.942405
11
1.08235
21
0.939424
0
LINE
8
BLACK
6
CONTINUOUS
10
1.08235
20
0.939424
11
1.08606
21
0.936062
0
LINE
8
BLACK
6
CONTINUOUS
10
1.08606
20
0.936062
11
1.08942
21
0.932354
0
LINE
8
BLACK
6
CONTINUOUS
10
1.08942
20
0.932354
11
1.0924
21
0.928334
0
LINE
8
BLACK
6
CONTINUOUS
10
1.0924
20
0.928334
11
1.09498
21
0.924041
0
LINE
8
BLACK
6
CONTINUOUS
10
1.09498
20
0.924041
11
1.09712
21
0.919517
0
LINE
8
BLACK
6
CONTINUOUS
10
1.09712
20
0.919517
11
1.0988
21
0.914805
0
LINE
8
BLACK
6
CONTINUOUS
10
1.0988
20
0.914805
11
1.10002
21
0.90995
0
LINE
8
BLACK
6
CONTINUOUS
10
1.10002
20
0.90995
11
1.10075
21
0.904999
0
LINE
8
BLACK
6
CONTINUOUS
10
1.10075
20
0.904999
11
1.101
21
0.9
0
LINE
8
BLACK
6
CONTINUOUS
10
1.101
20
0.9
11
1.101
21
0.4
0
LINE
8
BLACK
6
CONTINUOUS
10
1.101
20
0.4
11
1.10075
21
0.395001
0
LINE
8
BLACK
6
CONTINUOUS
10
1.10075
20
0.395001
11
1.10002
21
0.39005
0
LINE
8
BLACK
6
CONTINUOUS
10
1.10002
20
0.39005
11
1.0988
21
0.385195
0
LINE
8
BLACK
6
CONTINUOUS
10
1.0988
20
0.385195
11
1.09712
21
0.380483
0
LINE
8
BLACK
6
CONTINUOUS
10
1.09712
20
0.380483
11
1.09498
21
0.375959
0
LINE
8
BLACK
6
CONTINUOUS
10
1.09498
20
0.375959
11
1.0924
21
0.371666
0
LINE
8
BLACK
6
CONTINUOUS
10
1.0924
20
0.371666
11
1.08942
21
0.367646
0
LINE
8
BLACK
6
CONTINUOUS
10
1.08942
20
0.367646
11
1.08606
21
0.363938
0
LINE
8
BLACK
6
CONTINUOUS
10
1.08606
20
0.363938
11
1.08235
21
0.360576
0
LINE
8
BLACK
6
CONTINUOUS
10
1.08235
20
0.360576
11
1.07833
21
0.357595
0
LINE
8
BLACK
6
CONTINUOUS
10
1.07833
20
0.357595
11
1.07404
21
0.355022
0
LINE
8
BLACK
6
CONTINUOUS
10
1.07404
20
0.355022
11
1.06952
21
0.352882
0
LINE
8
BLACK
6
CONTINUOUS
10
1.06952
20
0.352882
11
1.06481
21
0.351196
0
LINE
8
BLACK
6
CONTINUOUS
10
1.06481
20
0.351196
11
1.05995
21
0.34998
0
LINE
8
BLACK
6
CONTINUOUS
10
1.05995
20
0.34998
11
1.055
21
0.349246
0
LINE
8
BLACK
6
CONTINUOUS
10
1.055
20
0.349246
11
1.05
21
0.349
0
LINE
8
BLACK
6
CONTINUOUS
10
1.05
20
0.349
11
0.55
21
0.349
0
LINE
8
BLACK
6
CONTINUOUS
10
0.55
20
0.349
11
0.545001
21
0.349246
0
LINE
8
BLACK
6
CONTINUOUS
10
0.545001
20
0.349246
11
0.54005
21
0.34998
0
LINE
8
BLACK
6
CONTINUOUS
10
0.54005
20
0.34998
11
0.535195
21
0.351196
0
LINE
8
BLACK
6
CONTINUOUS
10
0.535195
20
0.351196
11
0.530483
21
0.352882
0
LINE
8
BLACK
6
CONTINUOUS
10
0.530483
20
0.352882
11
0.525959
21
0.355022
0
LINE
8
BLACK
6
CONTINUOUS
10
0.525959
20
0.355022
11
0.521666
21
0.357595
0
LINE
8
BLACK
6
CONTINUOUS
10
0.521666
20
0.357595
11
0.517646
21
0.360576
0
LINE
8
BLACK
6
CONTINUOUS
10
0.517646
20
0.360576
11
0.513938
21
0.363938
0
LINE
8
BLACK
6
CONTINUOUS
10
0.513938
20
0.363938
11
0.510576
21
0.367646
0
LINE
8
BLACK
6
CONTINUOUS
10
0.510576
20
0.367646
11
0.507595
21
0.371666
0
LINE
8
BLACK
6
CONTINUOUS
10
0.507595
20
0.371666
11
0.505022
21
0.375959
0
LINE
8
BLACK
6
CONTINUOUS
10
0.505022
20
0.375959
11
0.502882
21
0.380483
0
LINE
8
BLACK
6
CONTINUOUS
10
0.502882
20
0.380483
11
0.501196
21
0.385195
0
LINE
8
BLACK
6
CONTINUOUS
10
0.501196
20
0.385195
11
0.49998
21
0.39005
0
LINE
8
BLACK
6
CONTINUOUS
10
0.49998
20
0.39005
11
0.499246
21
0.395001
0
LINE
8
BLACK
6
CONTINUOUS
10
0.499246
20
0.395001
11
0.499
21
0.4
0
LINE
8
BLACK
6
CONTINUOUS
10
0.499
20
0.4
11
0.499
21
0.9
0
LINE
8
BLACK
6
CONTINUOUS
10
0.499
20
0.9
11
0.499246
21
0.904999
0
LINE
8
BLACK
6
CONTINUOUS
10
0.499246
20
0.904999
11
0.49998
21
0.90995
0
LINE
8
BLACK
6
CONTINUOUS
10
0.49998
20
0.90995
11
0.501196
21
0.914805
0
LINE
8
BLACK
6
CONTINUOUS
10
0.501196
20
0.914805
11
0.502882
21
0.919517
0
LINE
8
BLACK
6
CONTINUOUS
10
0.502882
20
0.919517
11
0.505022
21
0.924041
0
LINE
8
BLACK
6
CONTINUOUS
10
0.505022
20
0.924041
11
0.507595
21
0.928334
0
LINE
8
BLACK
6
CONTINUOUS
10
0.507595
20
0.928334
11
0.510576
21
0.932354
0
LINE
8
BLACK
6
CONTINUOUS
10
0.510576
20
0.932354
11
0.513938
21
0.936062
0
LINE
8
BLACK
6
CONTINUOUS
10
0.513938
20
0.936062
11
0.517646
21
0.939424
0
LINE
8
BLACK
6
CONTINUOUS
10
0.517646
20
0.939424
11
0.521666
21
0.942405
0
LINE
8
BLACK
6
CONTINUOUS
10
0.521666
20
0.942405
11
0.525959
21
0.944978
0
LINE
8
BLACK
6
CONTINUOUS
10
0.525959
20
0.944978
11
0.530483
21
0.947118
0
LINE
8
BLACK
6
CONTINUOUS
10
0.530483
20
0.947118
11
0.535195
21
0.948804
0
LINE
8
BLACK
6
CONTINUOUS
10
0.535195
20
0.948804
11
0.54005
21
0.95002
0
LINE
8
BLACK
6
CONTINUOUS
10
0.54005
20
0.95002
11
0.545001
21
0.950754
0
LINE
8
BLACK
6
CONTINUOUS
10
0.545001
20
0.950754
11
0.55
21
0.951
0
LINE
8
BLACK
6
CONTINUOUS
10
0.55
20
0.951
11
1.05
21
0.951
0
LINE
8
BLACK
6
CONTINUOUS
10
1.05
20
0.951
11
1.055
21
0.950754
0
LINE
8
BLACK
6
CONTINUOUS
10
0.254999
20
0.950754
11
0.25995
21
0.95002
0
LINE
8
BLACK
6
CONTINUOUS
10
0.25995
20
0.95002
11
0.264805
21
0.948804
0
LINE
8
BLACK
6
CONTINUOUS
10
0.264805
20
0.948804
11
0.269517
21
0.947118
0
LINE
8
BLACK
6
CONTINUOUS
10
0.269517
20
0.947118
11
0.274041
21
0.944978
0
LINE
8
BLACK
6
CONTINUOUS
10
0.274041
20
0.944978
11
0.278334
21
0.942405
0
LINE
8
BLACK
6
CONTINUOUS
10
0.278334
20
0.942405
11
0.282354
21
0.939424
0
LINE
8
BLACK
6
CONTINUOUS
10
0.282354
20
0.939424
11
0.286062
21
0.936062
0
LINE
8
BLACK
6
CONTINUOUS
10
0.286062
20
0.936062
11
0.289424
21
0.932354
0
LINE
8
BLACK
6
CONTINUOUS
10
0.289424
20
0.932354
11
0.292405
21
0.928334
0
LINE
8
BLACK
6
CONTINUOUS
10
0.292405
20
0.928334
11
0.294978
21
0.924041
0
LINE
8
BLACK
6
CONTINUOUS
10
0.294978
20
0.924041
11
0.297118
21
0.919517
0
LINE
8
BLACK
6
CONTINUOUS
10
0.297118
20
0.919517
11
0.298804
21
0.914805
0
LINE
8
BLACK
6
CONTINUOUS
10
0.298804
20
0.914805
11
0.30002
21
0.90995
0
LINE
8
BLACK
6
CONTINUOUS
10
0.30002
20
0.90995
11
0.300754
21
0.904999
0
LINE
8
BLACK
6
CONTINUOUS
10
0.300754
20
0.904999
11
0.301
21
0.9
0
LINE
8
BLACK
6
CONTINUOUS
10
0.301
20
0.9
11
0.301
21
0.4
0
LINE
8
BLACK
6
CONTINUOUS
10
0.301
20
0.4
11
0.300754
21
0.395001
0
LINE
8
BLACK
6
CONTINUOUS
10
0.300754
20
0.395001
11
0.30002
21
0.39005
0
LINE
8
BLACK
6
CONTINUOUS
10
0.30002
20
0.39005
11
0.298804
21
0.385195
0
LINE
8
BLACK
6
CONTINUOUS
10
0.298804
20
0.385195
11
0.297118
21
0.380483
0
LINE
8
BLACK
6
CONTINUOUS
10
0.297118
20
0.380483
11
0.294978
21
0.375959
0
LINE
8
BLACK
6
CONTINUOUS
10
0.294978
20
0.375959
11
0.292405
21
0.371666
0
LINE
8
BLACK
6
CONTINUOUS
10
0.292405
20
0.371666
11
0.289424
21
0.367646
0
LINE
8
BLACK
6
CONTINUOUS
10
0.289424
20
0.367646
11
0.286062
21
0.363938
0
LINE
8
BLACK
6
CONTINUOUS
10
0.286062
20
0.363938
11
0.282354
21
0.360576
0
LINE
8
BLACK
6
CONTINUOUS
10
0.282354
20
0.360576
11
0.278334
21
0.357595
0
LINE
8
BLACK
6
CONTINUOUS
10
0.278334
20
0.357595
11
0.274041
21
0.355022
0
LINE
8
BLACK
6
CONTINUOUS
10
0.274041
20
0.355022
11
0.269517
21
0.352882
0
LINE
8
BLACK
6
CONTINUOUS
10
0.269517
20
0.352882
11
0.264805
21
0.351196
0
LINE
8
BLACK
6
CONTINUOUS
10
0.264805
20
0.351196
11
0.25995
21
0.34998
0
LINE
8
BLACK
6
CONTINUOUS
10
0.25995
20
0.34998
11
0.254999
21
0.349246
0
LINE
8
BLACK
6
CONTINUOUS
10
0.254999
20
0.349246
11
0.25
21
0.349
0
LINE
8
BLACK
6
CONTINUOUS
10
0.25
20
0.349
11
-0.25
21
0.349
0
LINE
8
BLACK
6
CONTINUOUS
10
-0.25
20
0.349
11
-0.254999
21
0.349246
0
LINE
8
BLACK
6
CONTINUOUS
10
-0.254999
20
0.349246
11
-0.25995
21
0.34998
0
LINE
8
BLACK
6
CONTINUOUS
10
-0.25995
20
0.34998
11
-0.264805
21
0.351196
0
LINE
8
BLACK
6
CONTINUOUS
10
-0.264805
20
0.351196
11
-0.269517
21
0.352882
0
LINE
8
BLACK
6
CONTINUOUS
10
-0.269517
20
0.352882
11
-0.274041
21
0.355022
0
LINE
8
BLACK
6
CONTINUOUS
10
-0.274041
20
0.355022
11
-0.278334
21
0.357595
0
LINE
8
BLACK
6
CONTINUOUS
10
-0.278334
20
0.357595
11
-0.282354
21
0.360576
0
LINE
8
BLACK
6
CONTINUOUS
10
-0.282354
20
0.360576
11
-0.286062
21
0.363938
0
LINE
8
BLACK
6
CONTINUOUS
10
-0.286062
20
0.363938
11
-0.289424
21
0.367646
0
LINE
8
BLACK
6
CONTINUOUS
10
-0.289424
20
0.367646
11
-0.292405
21
0.371666
0
LINE
8
BLACK
6
CONTINUOUS
10
-0.292405
20
0.371666
11
-0.294978
21
0.375959
0
LINE
8
BLACK
6
CONTINUOUS
10
-0.294978
20
0.375959
11
-0.297118
21
0.380483
0
LINE
8
BLACK
6
CONTINUOUS
10
-0.297118
20
0.380483
11
-0.298804
21
0.385195
0
LINE
8
BLACK
6
CONTINUOUS
10
-0.298804
20
0.385195
11
-0.30002
21
0.39005
0
LINE
8
BLACK
6
CONTINUOUS
10
-0.30002
20
0.39005
11
-0.300754
21
0.395001
0
LINE
8
BLACK
6
CONTINUOUS
10
-0.300754
20
0.395001
11
-0.301
21
0.4
0
LINE
8
BLACK
6
CONTINUOUS
10
-0.301
20
0.4
11
-0.301
21
0.9
0
LINE
8
BLACK
6
CONTINUOUS
10
-0.301
20
0.9
11
-0.300754
21
0.904999
0
LINE
8
BLACK
6
CONTINUOUS
10
-0.300754
20
0.904999
11
-0.30002
21
0.90995
0
LINE
8
BLACK
6
CONTINUOUS
10
-0.30002
20
0.90995
11
-0.298804
21
0.914805
0
LINE
8
BLACK
6
CONTINUOUS
10
-0.298804
20
0.914805
11
-0.297118
21
0.919517
0
LINE
8
BLACK
6
CONTINUOUS
10
-0.297118
20
0.919517
11
-0.294978
21
0.924041
0
LINE
8
BLACK
6
CONTINUOUS
10
-0.294978
20
0.924041
11
-0.292405
21
0.928334
0
LINE
8
BLACK
6
CONTINUOUS
10
-0.292405
20
0.928334
11
-0.289424
21
0.932354
0
LINE
8
BLACK
6
CONTINUOUS
10
-0.289424
20
0.932354
11
-0.286062
21
0.936062
0
LINE
8
BLACK
6
CONTINUOUS
10
-0.286062
20
0.936062
11
-0.282354
21
0.939424
0
LINE
8
BLACK
6
CONTINUOUS
10
-0.282354
20
0.939424
11
-0.278334
21
0.942405
0
LINE
8
BLACK
6
CONTINUOUS
10
-0.278334
20
0.942405
11
-0.274041
21
0.944978
0
LINE
8
BLACK
6
CONTINUOUS
10
-0.274041
20
0.944978
11
-0.269517
21
0.947118
0
LINE
8
BLACK
6
CONTINUOUS
10
-0.269517
20
0.947118
11
-0.264805
21
0.948804
0
LINE
8
BLACK
6
CONTINUOUS
10
-0.264805
20
0.948804
11
-0.25995
21
0.95002
0
LINE
8
BLACK
6
CONTINUOUS
10
-0.25995
20
0.95002
11
-0.254999
21
0.950754
0
LINE
8
BLACK
6
CONTINUOUS
10
-0.254999
20
0.950754
11
-0.25
21
0.951
0
LINE
8
BLACK
6
CONTINUOUS
10
-0.25
20
0.951
11
0.25
21
0.951
0
LINE
8
BLACK
6
CONTINUOUS
10
0.25
20
0.951
11
0.254999
21
0.950754
0
LINE
8
BLACK
6
CONTINUOUS
10
-0.545001
20
0.950754
11
-0.54005
21
0.95002
0
LINE
8
BLACK
6
CONTINUOUS
10
-0.54005
20
0.95002
11
-0.535195
21
0.948804
0
LINE
8
BLACK
6
CONTINUOUS
10
-0.535195
20
0.948804
11
-0.530483
21
0.947118
0
LINE
8
BLACK
6
CONTINUOUS
10
-0.530483
20
0.947118
11
-0.525959
21
0.944978
0
LINE
8
BLACK
6
CONTINUOUS
10
-0.525959
20
0.944978
11
-0.521666
21
0.942405
0
LINE
8
BLACK
6
CONTINUOUS
10
-0.521666
20
0.942405
11
-0.517646
21
0.939424
0
LINE
8
BLACK
6
CONTINUOUS
10
-0.517646
20
0.939424
11
-0.513938
21
0.936062
0
LINE
8
BLACK
6
CONTINUOUS
10
-0.513938
20
0.936062
11
-0.510576
21
0.932354
0
LINE
8
BLACK
6
CONTINUOUS
10
-0.510576
20
0.932354
11
-0.507595
21
0.928334
0
LINE
8
BLACK
6
CONTINUOUS
10
-0.507595
20
0.928334
11
-0.505022
21
0.924041
0
LINE
8
BLACK
6
CONTINUOUS
10
-0.505022
20
0.924041
11
-0.502882
21
0.919517
0
LINE
8
BLACK
6
CONTINUOUS
10
-0.502882
20
0.919517
11
-0.501196
21
0.914805
0
LINE
8
BLACK
6
CONTINUOUS
10
-0.501196
20
0.914805
11
-0.49998
21
0.90995
0
LINE
8
BLACK
6
CONTINUOUS
10
-0.49998
20
0.90995
11
-0.499246
21
0.904999
0
LINE
8
BLACK
6
CONTINUOUS
10
-0.499246
20
0.904999
11
-0.499
21
0.9
0
LINE
8
BLACK
6
CONTINUOUS
10
-0.499
20
0.9
11
-0.499
21
0.4
0
LINE
8
BLACK
6
CONTINUOUS
10
-0.499
20
0.4
11
-0.499246
21
0.395001
0
LINE
8
BLACK
6
CONTINUOUS
10
-0.499246
20
0.395001
11
-0.49998
21
0.39005
0
LINE
8
BLACK
6
CONTINUOUS
10
-0.49998
20
0.39005
11
-0.501196
21
0.385195
0
LINE
8
BLACK
6
CONTINUOUS
10
-0.501196
20
0.385195
11
-0.502882
21
0.380483
0
LINE
8
BLACK
6
CONTINUOUS
10
-0.502882
20
0.380483
11
-0.505022
21
0.375959
0
LINE
8
BLACK
6
CONTINUOUS
10
-0.505022
20
0.375959
11
-0.507595
21
0.371666
0
LINE
8
BLACK
6
CONTINUOUS
10
-0.507595
20
0.371666
11
-0.510576
21
0.367646
0
LINE
8
BLACK
6
CONTINUOUS
10
-0.510576
20
0.367646
11
-0.513938
21
0.363938
0
LINE
8
BLACK
6
CONTINUOUS
10
-0.513938
20
0.363938
11
-0.517646
21
0.360576
0
LINE
8
BLACK
6
CONTINUOUS
10
-0.517646
20
0.360576
11
-0.521666
21
0.357595
0
LINE
8
BLACK
6
CONTINUOUS
10
-0.521666
20
0.357595
11
-0.525959
21
0.355022
0
LINE
8
BLACK
6
CONTINUOUS
10
-0.525959
20
0.355022
11
-0.530483
21
0.352882
0
LINE
8
BLACK
6
CONTINUOUS
10
-0.530483
20
0.352882
11
-0.535195
21
0.351196
0
LINE
8
BLACK
6
CONTINUOUS
10
-0.535195
20
0.351196
11
-0.54005
21
0.34998
0
LINE
8
BLACK
6
CONTINUOUS
10
-0.54005
20
0.34998
11
-0.545001
21
0.349246
0
LINE
8
BLACK
6
CONTINUOUS
10
-0.545001
20
0.349246
11
-0.55
21
0.349
0
LINE
8
BLACK
6
CONTINUOUS
10
-0.55
20
0.349
11
-1.05
21
0.349
0
LINE
8
BLACK
6
CONTINUOUS
10
-1.05
20
0.349
11
-1.055
21
0.349246
0
LINE
8
BLACK
6
CONTINUOUS
10
-1.055
20
0.349246
11
-1.05995
21
0.34998
0
LINE
8
BLACK
6
CONTINUOUS
10
-1.05995
20
0.34998
11
-1.06481
21
0.351196
0
LINE
8
BLACK
6
CONTINUOUS
10
-1.06481
20
0.351196
11
-1.06952
21
0.352882
0
LINE
8
BLACK
6
CONTINUOUS
10
-1.06952
20
0.352882
11
-1.07404
21
0.355022
0
LINE
8
BLACK
6
CONTINUOUS
10
-1.07404
20
0.355022
11
-1.07833
21
0.357595
0
LINE
8
BLACK
6
CONTINUOUS
10
-1.07833
20
0.357595
11
-1.08235
21
0.360576
0
LINE
8
BLACK
6
CONTINUOUS
10
-1.08235
20
0.360576
11
-1.08606
21
0.363938
0
LINE
8
BLACK
6
CONTINUOUS
10
-1.08606
20
0.363938
11
-1.08942
21
0.367646
0
LINE
8
BLACK
6
CONTINUOUS
10
-1.08942
20
0.367646
11
-1.0924
21
0.371666
0
LINE
8
BLACK
6
CONTINUOUS
10
-1.0924
20
0.371666
11
-1.09498
21
0.375959
0
LINE
8
BLACK
6
CONTINUOUS
10
-1.09498
20
0.375959
11
-1.09712
21
0.380483
0
LINE
8
BLACK
6
CONTINUOUS
10
-1.09712
20
0.380483
11
-1.0988
21
0.385195
0
LINE
8
BLACK
6
CONTINUOUS
10
-1.0988
20
0.385195
11
-1.10002
21
0.39005
0
LINE
8
BLACK
6
CONTINUOUS
10
-1.10002
20
0.39005
11
-1.10075
21
0.395001
0
LINE
8
BLACK
6
CONTINUOUS
10
-1.10075
20
0.395001
11
-1.101
21
0.4
0
LINE
8
BLACK
6
CONTINUOUS
10
-1.101
20
0.4
11
-1.101
21
0.9
0
LINE
8
BLACK
6
CONTINUOUS
10
-1.101
20
0.9
11
-1.10075
21
0.904999
0
LINE
8
BLACK
6
CONTINUOUS
10
-1.10075
20
0.904999
11
-1.10002
21
0.90995
0
LINE
8
BLACK
6
CONTINUOUS
10
-1.10002
20
0.90995
11
-1.0988
21
0.914805
0
LINE
8
BLACK
6
CONTINUOUS
10
-1.0988
20
0.914805
11
-1.09712
21
0.919517
0
LINE
8
BLACK
6
CONTINUOUS
10
-1.09712
20
0.919517
11
-1.09498
21
0.924041
0
LINE
8
BLACK
6
CONTINUOUS
10
-1.09498
20
0.924041
11
-1.0924
21
0.928334
0
LINE
8
BLACK
6
CONTINUOUS
10
-1.0924
20
0.928334
11
-1.08942
21
0.932354
0
LINE
8
BLACK
6
CONTINUOUS
10
-1.08942
20
0.932354
11
-1.08606
21
0.936062
0
LINE
8
BLACK
6
CONTINUOUS
10
-1.08606
20
0.936062
11
-1.08235
21
0.939424
0
LINE
8
BLACK
6
CONTINUOUS
10
-1.08235
20
0.939424
11
-1.07833
21
0.942405
0
LINE
8
BLACK
6
CONTINUOUS
10
-1.07833
20
0.942405
11
-1.07404
21
0.944978
0
LINE
8
BLACK
6
CONTINUOUS
10
-1.07404
20
0.944978
11
-1.06952
21
0.947118
0
LINE
8
BLACK
6
CONTINUOUS
10
-1.06952
20
0.947118
11
-1.06481
21
0.948804
0
LINE
8
BLACK
6
CONTINUOUS
10
-1.06481
20
0.948804
11
-1.05995
21
0.95002
0
LINE
8
BLACK
6
CONTINUOUS
10
-1.05995
20
0.95002
11
-1.055
21
0.950754
0
LINE
8
BLACK
6
CONTINUOUS
10
-1.055
20
0.950754
11
-1.05
21
0.951
0
LINE
8
BLACK
6
CONTINUOUS
10
-1.05
20
0.951
11
-0.55
21
0.951
0
LINE
8
BLACK
6
CONTINUOUS
10
-0.55
20
0.951
11
-0.545001
21
0.950754
0
LINE
8
BLACK
6
CONTINUOUS
10
-1.345
20
0.950754
11
-1.34005
21
0.95002
0
LINE
8
BLACK
6
CONTINUOUS
10
-1.34005
20
0.95002
11
-1.33519
21
0.948804
0
LINE
8
BLACK
6
CONTINUOUS
10
-1.33519
20
0.948804
11
-1.33048
21
0.947118
0
LINE
8
BLACK
6
CONTINUOUS
10
-1.33048
20
0.947118
11
-1.32596
21
0.944978
0
LINE
8
BLACK
6
CONTINUOUS
10
-1.32596
20
0.944978
11
-1.32167
21
0.942405
0
LINE
8
BLACK
6
CONTINUOUS
10
-1.32167
20
0.942405
11
-1.31765
21
0.939424
0
LINE
8
BLACK
6
CONTINUOUS
10
-1.31765
20
0.939424
11
-1.31394
21
0.936062
0
LINE
8
BLACK
6
CONTINUOUS
10
-1.31394
20
0.936062
11
-1.31058
21
0.932354
0
LINE
8
BLACK
6
CONTINUOUS
10
-1.31058
20
0.932354
11
-1.30759
21
0.928334
0
LINE
8
BLACK
6
CONTINUOUS
10
-1.30759
20
0.928334
11
-1.30502
21
0.924041
0
LINE
8
BLACK
6
CONTINUOUS
10
-1.30502
20
0.924041
11
-1.30288
21
0.919517
0
LINE
8
BLACK
6
CONTINUOUS
10
-1.30288
20
0.919517
11
-1.3012
21
0.914805
0
LINE
8
BLACK
6
CONTINUOUS
10
-1.3012
20
0.914805
11
-1.29998
21
0.90995
0
LINE
8
BLACK
6
CONTINUOUS
10
-1.29998
20
0.90995
11
-1.29925
21
0.904999
0
LINE
8
BLACK
6
CONTINUOUS
10
-1.29925
20
0.904999
11
-1.299
21
0.9
0
LINE
8
BLACK
6
CONTINUOUS
10
-1.299
20
0.9
11
-1.299
21
0.4
0
LINE
8
BLACK
6
CONTINUOUS
10
-1.299
20
0.4
11
-1.29925
21
0.395001
0
LINE
8
BLACK
6
CONTINUOUS
10
-1.29925
20
0.395001
11
-1.29998
21
0.39005
0
LINE
8
BLACK
6
CONTINUOUS
10
-1.29998
20
0.39005
11
-1.3012
21
0.385195
0
LINE
8
BLACK
6
CONTINUOUS
10
-1.3012
20
0.385195
11
-1.30288
21
0.380483
0
LINE
8
BLACK
6
CONTINUOUS
10
-1.30288
20
0.380483
11
-1.30502
21
0.375959
0
LINE
8
BLACK
6
CONTINUOUS
10
-1.30502
20
0.375959
11
-1.30759
21
0.371666
0
LINE
8
BLACK
6
CONTINUOUS
10
-1.30759
20
0.371666
11
-1.31058
21
0.367646
0
LINE
8
BLACK
6
CONTINUOUS
10
-1.31058
20
0.367646
11
-1.31394
21
0.363938
0
LINE
8
BLACK
6
CONTINUOUS
10
-1.31394
20
0.363938
11
-1.31765
21
0.360576
0
LINE
8
BLACK
6
CONTINUOUS
10
-1.31765
20
0.360576
11
-1.32167
21
0.357595
0
LINE
8
BLACK
6
CONTINUOUS
10
-1.32167
20
0.357595
11
-1.32596
21
0.355022
0
LINE
8
BLACK
6
CONTINUOUS
10
-1.32596
20
0.355022
11
-1.33048
21
0.352882
0
LINE
8
BLACK
6
CONTINUOUS
10
-1.33048
20
0.352882
11
-1.33519
21
0.351196
0
LINE
8
BLACK
6
CONTINUOUS
10
-1.33519
20
0.351196
11
-1.34005
21
0.34998
0
LINE
8
BLACK
6
CONTINUOUS
10
-1.34005
20
0.34998
11
-1.345
21
0.349246
0
LINE
8
BLACK
6
CONTINUOUS
10
-1.345
20
0.349246
11
-1.35
21
0.349
0
LINE
8
BLACK
6
CONTINUOUS
10
-1.35
20
0.349
11
-1.85
21
0.349
0
LINE
8
BLACK
6
CONTINUOUS
10
-1.85
20
0.349
11
-1.855
21
0.349246
0
LINE
8
BLACK
6
CONTINUOUS
10
-1.855
20
0.349246
11
-1.85995
21
0.34998
0
LINE
8
BLACK
6
CONTINUOUS
10
-1.85995
20
0.34998
11
-1.8648
21
0.351196
0
LINE
8
BLACK
6
CONTINUOUS
10
-1.8648
20
0.351196
11
-1.86952
21
0.352882
0
LINE
8
BLACK
6
CONTINUOUS
10
-1.86952
20
0.352882
11
-1.87404
21
0.355022
0
LINE
8
BLACK
6
CONTINUOUS
10
-1.87404
20
0.355022
11
-1.87833
21
0.357595
0
LINE
8
BLACK
6
CONTINUOUS
10
-1.87833
20
0.357595
11
-1.88235
21
0.360576
0
LINE
8
BLACK
6
CONTINUOUS
10
-1.88235
20
0.360576
11
-1.88606
21
0.363938
0
LINE
8
BLACK
6
CONTINUOUS
10
-1.88606
20
0.363938
11
-1.88942
21
0.367646
0
LINE
8
BLACK
6
CONTINUOUS
10
-1.88942
20
0.367646
11
-1.8924
21
0.371666
0
LINE
8
BLACK
6
CONTINUOUS
10
-1.8924
20
0.371666
11
-1.89498
21
0.375959
0
LINE
8
BLACK
6
CONTINUOUS
10
-1.89498
20
0.375959
11
-1.89712
21
0.380483
0
LINE
8
BLACK
6
CONTINUOUS
10
-1.89712
20
0.380483
11
-1.8988
21
0.385195
0
LINE
8
BLACK
6
CONTINUOUS
10
-1.8988
20
0.385195
11
-1.90002
21
0.39005
0
LINE
8
BLACK
6
CONTINUOUS
10
-1.90002
20
0.39005
11
-1.90075
21
0.395001
0
LINE
8
BLACK
6
CONTINUOUS
10
-1.90075
20
0.395001
11
-1.901
21
0.4
0
LINE
8
BLACK
6
CONTINUOUS
10
-1.901
20
0.4
11
-1.901
21
0.9
0
LINE
8
BLACK
6
CONTINUOUS
10
-1.901
20
0.9
11
-1.90075
21
0.904999
0
LINE
8
BLACK
6
CONTINUOUS
10
-1.90075
20
0.904999
11
-1.90002
21
0.90995
0
LINE
8
BLACK
6
CONTINUOUS
10
-1.90002
20
0.90995
11
-1.8988
21
0.914805
0
LINE
8
BLACK
6
CONTINUOUS
10
-1.8988
20
0.914805
11
-1.89712
21
0.919517
0
LINE
8
BLACK
6
CONTINUOUS
10
-1.89712
20
0.919517
11
-1.89498
21
0.924041
0
LINE
8
BLACK
6
CONTINUOUS
10
-1.89498
20
0.924041
11
-1.8924
21
0.928334
0
LINE
8
BLACK
6
CONTINUOUS
10
-1.8924
20
0.928334
11
-1.88942
21
0.932354
0
LINE
8
BLACK
6
CONTINUOUS
10
-1.88942
20
0.932354
11
-1.88606
21
0.936062
0
LINE
8
BLACK
6
CONTINUOUS
10
-1.88606
20
0.936062
11
-1.88235
21
0.939424
0
LINE
8
BLACK
6
CONTINUOUS
10
-1.88235
20
0.939424
11
-1.87833
21
0.942405
0
LINE
8
BLACK
6
CONTINUOUS
10
-1.87833
20
0.942405
11
-1.87404
21
0.944978
0
LINE
8
BLACK
6
CONTINUOUS
10
-1.87404
20
0.944978
11
-1.86952
21
0.947118
0
LINE
8
BLACK
6
CONTINUOUS
10
-1.86952
20
0.947118
11
-1.8648
21
0.948804
0
LINE
8
BLACK
6
CONTINUOUS
10
-1.8648
20
0.948804
11
-1.85995
21
0.95002
0
LINE
8
BLACK
6
CONTINUOUS
10
-1.85995
20
0.95002
11
-1.855
21
0.950754
0
LINE
8
BLACK
6
CONTINUOUS
10
-1.855
20
0.950754
11
-1.85
21
0.951
0
LINE
8
BLACK
6
CONTINUOUS
10
-1.85
20
0.951
11
-1.35
21
0.951
0
LINE
8
BLACK
6
CONTINUOUS
10
-1.35
20
0.951
11
-1.345
21
0.950754
0
LINE
8
BLACK
6
CONTINUOUS
10
-1.345
20
1.75075
11
-1.34005
21
1.75002
0
LINE
8
BLACK
6
CONTINUOUS
10
-1.34005
20
1.75002
11
-1.33519
21
1.7488
0
LINE
8
BLACK
6
CONTINUOUS
10
-1.33519
20
1.7488
11
-1.33048
21
1.74712
0
LINE
8
BLACK
6
CONTINUOUS
10
-1.33048
20
1.74712
11
-1.32596
21
1.74498
0
LINE
8
BLACK
6
CONTINUOUS
10
-1.32596
20
1.74498
11
-1.32167
21
1.7424
0
LINE
8
BLACK
6
CONTINUOUS
10
-1.32167
20
1.7424
11
-1.31765
21
1.73942
0
LINE
8
BLACK
6
CONTINUOUS
10
-1.31765
20
1.73942
11
-1.31394
21
1.73606
0
LINE
8
BLACK
6
CONTINUOUS
10
-1.31394
20
1.73606
11
-1.31058
21
1.73235
0
LINE
8
BLACK
6
CONTINUOUS
10
-1.31058
20
1.73235
11
-1.30759
21
1.72833
0
LINE
8
BLACK
6
CONTINUOUS
10
-1.30759
20
1.72833
11
-1.30502
21
1.72404
0
LINE
8
BLACK
6
CONTINUOUS
10
-1.30502
20
1.72404
11
-1.30288
21
1.71952
0
LINE
8
BLACK
6
CONTINUOUS
10
-1.30288
20
1.71952
11
-1.3012
21
1.7148
0
LINE
8
BLACK
6
CONTINUOUS
10
-1.3012
20
1.7148
11
-1.29998
21
1.70995
0
LINE
8
BLACK
6
CONTINUOUS
10
-1.29998
20
1.70995
11
-1.29925
21
1.705
0
LINE
8
BLACK
6
CONTINUOUS
10
-1.29925
20
1.705
11
-1.299
21
1.7
0
LINE
8
BLACK
6
CONTINUOUS
10
-1.299
20
1.7
11
-1.299
21
1.2
0
LINE
8
BLACK
6
CONTINUOUS
10
-1.299
20
1.2
11
-1.29925
21
1.195
0
LINE
8
BLACK
6
CONTINUOUS
10
-1.29925
20
1.195
11
-1.29998
21
1.19005
0
LINE
8
BLACK
6
CONTINUOUS
10
-1.29998
20
1.19005
11
-1.3012
21
1.18519
0
LINE
8
BLACK
6
CONTINUOUS
10
-1.3012
20
1.18519
11
-1.30288
21
1.18048
0
LINE
8
BLACK
6
CONTINUOUS
10
-1.30288
20
1.18048
11
-1.30502
21
1.17596
0
LINE
8
BLACK
6
CONTINUOUS
10
-1.30502
20
1.17596
11
-1.30759
21
1.17167
0
LINE
8
BLACK
6
CONTINUOUS
10
-1.30759
20
1.17167
11
-1.31058
21
1.16765
0
LINE
8
BLACK
6
CONTINUOUS
10
-1.31058
20
1.16765
11
-1.31394
21
1.16394
0
LINE
8
BLACK
6
CONTINUOUS
10
-1.31394
20
1.16394
11
-1.31765
21
1.16058
0
LINE
8
BLACK
6
CONTINUOUS
10
-1.31765
20
1.16058
11
-1.32167
21
1.15759
0
LINE
8
BLACK
6
CONTINUOUS
10
-1.32167
20
1.15759
11
-1.32596
21
1.15502
0
LINE
8
BLACK
6
CONTINUOUS
10
-1.32596
20
1.15502
11
-1.33048
21
1.15288
0
LINE
8
BLACK
6
CONTINUOUS
10
-1.33048
20
1.15288
11
-1.33519
21
1.1512
0
LINE
8
BLACK
6
CONTINUOUS
10
-1.33519
20
1.1512
11
-1.34005
21
1.14998
0
LINE
8
BLACK
6
CONTINUOUS
10
-1.34005
20
1.14998
11
-1.345
21
1.14925
0
LINE
8
BLACK
6
CONTINUOUS
10
-1.345
20
1.14925
11
-1.35
21
1.149
0
LINE
8
BLACK
6
CONTINUOUS
10
-1.35
20
1.149
11
-1.85
21
1.149
0
LINE
8
BLACK
6
CONTINUOUS
10
-1.85
20
1.149
11
-1.855
21
1.14925
0
LINE
8
BLACK
6
CONTINUOUS
10
-1.855
20
1.14925
11
-1.85995
21
1.14998
0
LINE
8
BLACK
6
CONTINUOUS
10
-1.85995
20
1.14998
11
-1.8648
21
1.1512
0
LINE
8
BLACK
6
CONTINUOUS
10
-1.8648
20
1.1512
11
-1.86952
21
1.15288
0
LINE
8
BLACK
6
CONTINUOUS
10
-1.86952
20
1.15288
11
-1.87404
21
1.15502
0
LINE
8
BLACK
6
CONTINUOUS
10
-1.87404
20
1.15502
11
-1.87833
21
1.15759
0
LINE
8
BLACK
6
CONTINUOUS
10
-1.87833
20
1.15759
11
-1.88235
21
1.16058
0
LINE
8
BLACK
6
CONTINUOUS
10
-1.88235
20
1.16058
11
-1.88606
21
1.16394
0
LINE
8
BLACK
6
CONTINUOUS
10
-1.88606
20
1.16394
11
-1.88942
21
1.16765
0
LINE
8
BLACK
6
CONTINUOUS
10
-1.88942
20
1.16765
11
-1.8924
21
1.17167
0
LINE
8
BLACK
6
CONTINUOUS
10
-1.8924
20
1.17167
11
-1.89498
21
1.17596
0
LINE
8
BLACK
6
CONTINUOUS
10
-1.89498
20
1.17596
11
-1.89712
21
1.18048
0
LINE
8
BLACK
6
CONTINUOUS
10
-1.89712
20
1.18048
11
-1.8988
21
1.18519
0
LINE
8
BLACK
6
CONTINUOUS
10
-1.8988
20
1.18519
11
-1.90002
21
1.19005
0
LINE
8
BLACK
6
CONTINUOUS
10
-1.90002
20
1.19005
11
-1.90075
21
1.195
0
LINE
8
BLACK
6
CONTINUOUS
10
-1.90075
20
1.195
11
-1.901
21
1.2
0
LINE
8
BLACK
6
CONTINUOUS
10
-1.901
20
1.2
11
-1.901
21
1.7
0
LINE
8
BLACK
6
CONTINUOUS
10
-1.901
20
1.7
11
-1.90075
21
1.705
0
LINE
8
BLACK
6
CONTINUOUS
10
-1.90075
20
1.705
11
-1.90002
21
1.70995
0
LINE
8
BLACK
6
CONTINUOUS
10
-1.90002
20
1.70995
11
-1.8988
21
1.7148
0
LINE
8
BLACK
6
CONTINUOUS
10
-1.8988
20
1.7148
11
-1.89712
21
1.71952
0
LINE
8
BLACK
6
CONTINUOUS
10
-1.89712
20
1.71952
11
-1.89498
21
1.72404
0
LINE
8
BLACK
6
CONTINUOUS
10
-1.89498
20
1.72404
11
-1.8924
21
1.72833
0
LINE
8
BLACK
6
CONTINUOUS
10
-1.8924
20
1.72833
11
-1.88942
21
1.73235
0
LINE
8
BLACK
6
CONTINUOUS
10
-1.88942
20
1.73235
11
-1.88606
21
1.73606
0
LINE
8
BLACK
6
CONTINUOUS
10
-1.88606
20
1.73606
11
-1.88235
21
1.73942
0
LINE
8
BLACK
6
CONTINUOUS
10
-1.88235
20
1.73942
11
-1.87833
21
1.7424
0
LINE
8
BLACK
6
CONTINUOUS
10
-1.87833
20
1.7424
11
-1.87404
21
1.74498
0
LINE
8
BLACK
6
CONTINUOUS
10
-1.87404
20
1.74498
11
-1.86952
21
1.74712
0
LINE
8
BLACK
6
CONTINUOUS
10
-1.86952
20
1.74712
11
-1.8648
21
1.7488
0
LINE
8
BLACK
6
CONTINUOUS
10
-1.8648
20
1.7488
11
-1.85995
21
1.75002
0
LINE
8
BLACK
6
CONTINUOUS
10
-1.85995
20
1.75002
11
-1.855
21
1.75075
0
LINE
8
BLACK
6
CONTINUOUS
10
-1.855
20
1.75075
11
-1.85
21
1.751
0
LINE
8
BLACK
6
CONTINUOUS
10
-1.85
20
1.751
11
-1.35
21
1.751
0
LINE
8
BLACK
6
CONTINUOUS
10
-1.35
20
1.751
11
-1.345
21
1.75075
0
LINE
8
BLACK
6
CONTINUOUS
10
-1.345
20
2.55075
11
-1.34005
21
2.55002
0
LINE
8
BLACK
6
CONTINUOUS
10
-1.34005
20
2.55002
11
-1.33519
21
2.5488
0
LINE
8
BLACK
6
CONTINUOUS
10
-1.33519
20
2.5488
11
-1.33048
21
2.54712
0
LINE
8
BLACK
6
CONTINUOUS
10
-1.33048
20
2.54712
11
-1.32596
21
2.54498
0
LINE
8
BLACK
6
CONTINUOUS
10
-1.32596
20
2.54498
11
-1.32167
21
2.54241
0
LINE
8
BLACK
6
CONTINUOUS
10
-1.32167
20
2.54241
11
-1.31765
21
2.53942
0
LINE
8
BLACK
6
CONTINUOUS
10
-1.31765
20
2.53942
11
-1.31394
21
2.53606
0
LINE
8
BLACK
6
CONTINUOUS
10
-1.31394
20
2.53606
11
-1.31058
21
2.53235
0
LINE
8
BLACK
6
CONTINUOUS
10
-1.31058
20
2.53235
11
-1.30759
21
2.52833
0
LINE
8
BLACK
6
CONTINUOUS
10
-1.30759
20
2.52833
11
-1.30502
21
2.52404
0
LINE
8
BLACK
6
CONTINUOUS
10
-1.30502
20
2.52404
11
-1.30288
21
2.51952
0
LINE
8
BLACK
6
CONTINUOUS
10
-1.30288
20
2.51952
11
-1.3012
21
2.5148
0
LINE
8
BLACK
6
CONTINUOUS
10
-1.3012
20
2.5148
11
-1.29998
21
2.50995
0
LINE
8
BLACK
6
CONTINUOUS
10
-1.29998
20
2.50995
11
-1.29925
21
2.505
0
LINE
8
BLACK
6
CONTINUOUS
10
-1.29925
20
2.505
11
-1.299
21
2.5
0
LINE
8
BLACK
6
CONTINUOUS
10
-1.299
20
2.5
11
-1.299
21
2
0
LINE
8
BLACK
6
CONTINUOUS
10
-1.299
20
2
11
-1.29925
21
1.995
0
LINE
8
BLACK
6
CONTINUOUS
10
-1.29925
20
1.995
11
-1.29998
21
1.99005
0
LINE
8
BLACK
6
CONTINUOUS
10
-1.29998
20
1.99005
11
-1.3012
21
1.98519
0
LINE
8
BLACK
6
CONTINUOUS
10
-1.3012
20
1.98519
11
-1.30288
21
1.98048
0
LINE
8
BLACK
6
CONTINUOUS
10
-1.30288
20
1.98048
11
-1.30502
21
1.97596
0
LINE
8
BLACK
6
CONTINUOUS
10
-1.30502
20
1.97596
11
-1.30759
21
1.97167
0
LINE
8
BLACK
6
CONTINUOUS
10
-1.30759
20
1.97167
11
-1.31058
21
1.96765
0
LINE
8
BLACK
6
CONTINUOUS
10
-1.31058
20
1.96765
11
-1.31394
21
1.96394
0
LINE
8
BLACK
6
CONTINUOUS
10
-1.31394
20
1.96394
11
-1.31765
21
1.96058
0
LINE
8
BLACK
6
CONTINUOUS
10
-1.31765
20
1.96058
11
-1.32167
21
1.95759
0
LINE
8
BLACK
6
CONTINUOUS
10
-1.32167
20
1.95759
11
-1.32596
21
1.95502
0
LINE
8
BLACK
6
CONTINUOUS
10
-1.32596
20
1.95502
11
-1.33048
21
1.95288
0
LINE
8
BLACK
6
CONTINUOUS
10
-1.33048
20
1.95288
11
-1.33519
21
1.9512
0
LINE
8
BLACK
6
CONTINUOUS
10
-1.33519
20
1.9512
11
-1.34005
21
1.94998
0
LINE
8
BLACK
6
CONTINUOUS
10
-1.34005
20
1.94998
11
-1.345
21
1.94925
0
LINE
8
BLACK
6
CONTINUOUS
10
-1.345
20
1.94925
11
-1.35
21
1.949
0
LINE
8
BLACK
6
CONTINUOUS
10
-1.35
20
1.949
11
-1.85
21
1.949
0
LINE
8
BLACK
6
CONTINUOUS
10
-1.85
20
1.949
11
-1.855
21
1.94925
0
LINE
8
BLACK
6
CONTINUOUS
10
-1.855
20
1.94925
11
-1.85995
21
1.94998
0
LINE
8
BLACK
6
CONTINUOUS
10
-1.85995
20
1.94998
11
-1.8648
21
1.9512
0
LINE
8
BLACK
6
CONTINUOUS
10
-1.8648
20
1.9512
11
-1.86952
21
1.95288
0
LINE
8
BLACK
6
CONTINUOUS
10
-1.86952
20
1.95288
11
-1.87404
21
1.95502
0
LINE
8
BLACK
6
CONTINUOUS
10
-1.87404
20
1.95502
11
-1.87833
21
1.95759
0
LINE
8
BLACK
6
CONTINUOUS
10
-1.87833
20
1.95759
11
-1.88235
21
1.96058
0
LINE
8
BLACK
6
CONTINUOUS
10
-1.88235
20
1.96058
11
-1.88606
21
1.96394
0
LINE
8
BLACK
6
CONTINUOUS
10
-1.88606
20
1.96394
11
-1.88942
21
1.96765
0
LINE
8
BLACK
6
CONTINUOUS
10
-1.88942
20
1.96765
11
-1.8924
21
1.97167
0
LINE
8
BLACK
6
CONTINUOUS
10
-1.8924
20
1.97167
11
-1.89498
21
1.97596
0
LINE
8
BLACK
6
CONTINUOUS
10
-1.89498
20
1.97596
11
-1.89712
21
1.98048
0
LINE
8
BLACK
6
CONTINUOUS
10
-1.89712
20
1.98048
11
-1.8988
21
1.98519
0
LINE
8
BLACK
6
CONTINUOUS
10
-1.8988
20
1.98519
11
-1.90002
21
1.99005
0
LINE
8
BLACK
6
CONTINUOUS
10
-1.90002
20
1.99005
11
-1.90075
21
1.995
0
LINE
8
BLACK
6
CONTINUOUS
10
-1.90075
20
1.995
11
-1.901
21
2
0
LINE
8
BLACK
6
CONTINUOUS
10
-1.901
20
2
11
-1.901
21
2.5
0
LINE
8
BLACK
6
CONTINUOUS
10
-1.901
20
2.5
11
-1.90075
21
2.505
0
LINE
8
BLACK
6
CONTINUOUS
10
-1.90075
20
2.505
11
-1.90002
21
2.50995
0
LINE
8
BLACK
6
CONTINUOUS
10
-1.90002
20
2.50995
11
-1.8988
21
2.5148
0
LINE
8
BLACK
6
CONTINUOUS
10
-1.8988
20
2.5148
11
-1.89712
21
2.51952
0
LINE
8
BLACK
6
CONTINUOUS
10
-1.89712
20
2.51952
11
-1.89498
21
2.52404
0
LINE
8
BLACK
6
CONTINUOUS
10
-1.89498
20
2.52404
11
-1.8924
21
2.52833
0
LINE
8
BLACK
6
CONTINUOUS
10
-1.8924
20
2.52833
11
-1.88942
21
2.53235
0
LINE
8
BLACK
6
CONTINUOUS
10
-1.88942
20
2.53235
11
-1.88606
21
2.53606
0
LINE
8
BLACK
6
CONTINUOUS
10
-1.88606
20
2.53606
11
-1.88235
21
2.53942
0
LINE
8
BLACK
6
CONTINUOUS
10
-1.88235
20
2.53942
11
-1.87833
21
2.54241
0
LINE
8
BLACK
6
CONTINUOUS
10
-1.87833
20
2.54241
11
-1.87404
21
2.54498
0
LINE
8
BLACK
6
CONTINUOUS
10
-1.87404
20
2.54498
11
-1.86952
21
2.54712
0
LINE
8
BLACK
6
CONTINUOUS
10
-1.86952
20
2.54712
11
-1.8648
21
2.5488
0
LINE
8
BLACK
6
CONTINUOUS
10
-1.8648
20
2.5488
11
-1.85995
21
2.55002
0
LINE
8
BLACK
6
CONTINUOUS
10
-1.85995
20
2.55002
11
-1.855
21
2.55075
0
LINE
8
BLACK
6
CONTINUOUS
10
-1.855
20
2.55075
11
-1.85
21
2.551
0
LINE
8
BLACK
6
CONTINUOUS
10
-1.85
20
2.551
11
-1.35
21
2.551
0
LINE
8
BLACK
6
CONTINUOUS
10
-1.35
20
2.551
11
-1.345
21
2.55075
0
LINE
8
BLACK
6
CONTINUOUS
10
-0.545001
20
2.55075
11
-0.54005
21
2.55002
0
LINE
8
BLACK
6
CONTINUOUS
10
-0.54005
20
2.55002
11
-0.535195
21
2.5488
0
LINE
8
BLACK
6
CONTINUOUS
10
-0.535195
20
2.5488
11
-0.530483
21
2.54712
0
LINE
8
BLACK
6
CONTINUOUS
10
-0.530483
20
2.54712
11
-0.525959
21
2.54498
0
LINE
8
BLACK
6
CONTINUOUS
10
-0.525959
20
2.54498
11
-0.521666
21
2.54241
0
LINE
8
BLACK
6
CONTINUOUS
10
-0.521666
20
2.54241
11
-0.517646
21
2.53942
0
LINE
8
BLACK
6
CONTINUOUS
10
-0.517646
20
2.53942
11
-0.513938
21
2.53606
0
LINE
8
BLACK
6
CONTINUOUS
10
-0.513938
20
2.53606
11
-0.510576
21
2.53235
0
LINE
8
BLACK
6
CONTINUOUS
10
-0.510576
20
2.53235
11
-0.507595
21
2.52833
0
LINE
8
BLACK
6
CONTINUOUS
10
-0.507595
20
2.52833
11
-0.505022
21
2.52404
0
LINE
8
BLACK
6
CONTINUOUS
10
-0.505022
20
2.52404
11
-0.502882
21
2.51952
0
LINE
8
BLACK
6
CONTINUOUS
10
-0.502882
20
2.51952
11
-0.501196
21
2.5148
0
LINE
8
BLACK
6
CONTINUOUS
10
-0.501196
20
2.5148
11
-0.49998
21
2.50995
0
LINE
8
BLACK
6
CONTINUOUS
10
-0.49998
20
2.50995
11
-0.499246
21
2.505
0
LINE
8
BLACK
6
CONTINUOUS
10
-0.499246
20
2.505
11
-0.499
21
2.5
0
LINE
8
BLACK
6
CONTINUOUS
10
-0.499
20
2.5
11
-0.499
21
2
0
LINE
8
BLACK
6
CONTINUOUS
10
-0.499
20
2
11
-0.499246
21
1.995
0
LINE
8
BLACK
6
CONTINUOUS
10
-0.499246
20
1.995
11
-0.49998
21
1.99005
0
LINE
8
BLACK
6
CONTINUOUS
10
-0.49998
20
1.99005
11
-0.501196
21
1.98519
0
LINE
8
BLACK
6
CONTINUOUS
10
-0.501196
20
1.98519
11
-0.502882
21
1.98048
0
LINE
8
BLACK
6
CONTINUOUS
10
-0.502882
20
1.98048
11
-0.505022
21
1.97596
0
LINE
8
BLACK
6
CONTINUOUS
10
-0.505022
20
1.97596
11
-0.507595
21
1.97167
0
LINE
8
BLACK
6
CONTINUOUS
10
-0.507595
20
1.97167
11
-0.510576
21
1.96765
0
LINE
8
BLACK
6
CONTINUOUS
10
-0.510576
20
1.96765
11
-0.513938
21
1.96394
0
LINE
8
BLACK
6
CONTINUOUS
10
-0.513938
20
1.96394
11
-0.517646
21
1.96058
0
LINE
8
BLACK
6
CONTINUOUS
10
-0.517646
20
1.96058
11
-0.521666
21
1.95759
0
LINE
8
BLACK
6
CONTINUOUS
10
-0.521666
20
1.95759
11
-0.525959
21
1.95502
0
LINE
8
BLACK
6
CONTINUOUS
10
-0.525959
20
1.95502
11
-0.530483
21
1.95288
0
LINE
8
BLACK
6
CONTINUOUS
10
-0.530483
20
1.95288
11
-0.535195
21
1.9512
0
LINE
8
BLACK
6
CONTINUOUS
10
-0.535195
20
1.9512
11
-0.54005
21
1.94998
0
LINE
8
BLACK
6
CONTINUOUS
10
-0.54005
20
1.94998
11
-0.545001
21
1.94925
0
LINE
8
BLACK
6
CONTINUOUS
10
-0.545001
20
1.94925
11
-0.55
21
1.949
0
LINE
8
BLACK
6
CONTINUOUS
10
-0.55
20
1.949
11
-1.05
21
1.949
0
LINE
8
BLACK
6
CONTINUOUS
10
-1.05
20
1.949
11
-1.055
21
1.94925
0
LINE
8
BLACK
6
CONTINUOUS
10
-1.055
20
1.94925
11
-1.05995
21
1.94998
0
LINE
8
BLACK
6
CONTINUOUS
10
-1.05995
20
1.94998
11
-1.06481
21
1.9512
0
LINE
8
BLACK
6
CONTINUOUS
10
-1.06481
20
1.9512
11
-1.06952
21
1.95288
0
LINE
8
BLACK
6
CONTINUOUS
10
-1.06952
20
1.95288
11
-1.07404
21
1.95502
0
LINE
8
BLACK
6
CONTINUOUS
10
-1.07404
20
1.95502
11
-1.07833
21
1.95759
0
LINE
8
BLACK
6
CONTINUOUS
10
-1.07833
20
1.95759
11
-1.08235
21
1.96058
0
LINE
8
BLACK
6
CONTINUOUS
10
-1.08235
20
1.96058
11
-1.08606
21
1.96394
0
LINE
8
BLACK
6
CONTINUOUS
10
-1.08606
20
1.96394
11
-1.08942
21
1.96765
0
LINE
8
BLACK
6
CONTINUOUS
10
-1.08942
20
1.96765
11
-1.0924
21
1.97167
0
LINE
8
BLACK
6
CONTINUOUS
10
-1.0924
20
1.97167
11
-1.09498
21
1.97596
0
LINE
8
BLACK
6
CONTINUOUS
10
-1.09498
20
1.97596
11
-1.09712
21
1.98048
0
LINE
8
BLACK
6
CONTINUOUS
10
-1.09712
20
1.98048
11
-1.0988
21
1.98519
0
LINE
8
BLACK
6
CONTINUOUS
10
-1.0988
20
1.98519
11
-1.10002
21
1.99005
0
LINE
8
BLACK
6
CONTINUOUS
10
-1.10002
20
1.99005
11
-1.10075
21
1.995
0
LINE
8
BLACK
6
CONTINUOUS
10
-1.10075
20
1.995
11
-1.101
21
2
0
LINE
8
BLACK
6
CONTINUOUS
10
-1.101
20
2
11
-1.101
21
2.5
0
LINE
8
BLACK
6
CONTINUOUS
10
-1.101
20
2.5
11
-1.10075
21
2.505
0
LINE
8
BLACK
6
CONTINUOUS
10
-1.10075
20
2.505
11
-1.10002
21
2.50995
0
LINE
8
BLACK
6
CONTINUOUS
10
-1.10002
20
2.50995
11
-1.0988
21
2.5148
0
LINE
8
BLACK
6
CONTINUOUS
10
-1.0988
20
2.5148
11
-1.09712
21
2.51952
0
LINE
8
BLACK
6
CONTINUOUS
10
-1.09712
20
2.51952
11
-1.09498
21
2.52404
0
LINE
8
BLACK
6
CONTINUOUS
10
-1.09498
20
2.52404
11
-1.0924
21
2.52833
0
LINE
8
BLACK
6
CONTINUOUS
10
-1.0924
20
2.52833
11
-1.08942
21
2.53235
0
LINE
8
BLACK
6
CONTINUOUS
10
-1.08942
20
2.53235
11
-1.08606
21
2.53606
0
LINE
8
BLACK
6
CONTINUOUS
10
-1.08606
20
2.53606
11
-1.08235
21
2.53942
0
LINE
8
BLACK
6
CONTINUOUS
10
-1.08235
20
2.53942
11
-1.07833
21
2.54241
0
LINE
8
BLACK
6
CONTINUOUS
10
-1.07833
20
2.54241
11
-1.07404
21
2.54498
0
LINE
8
BLACK
6
CONTINUOUS
10
-1.07404
20
2.54498
11
-1.06952
21
2.54712
0
LINE
8
BLACK
6
CONTINUOUS
10
-1.06952
20
2.54712
11
-1.06481
21
2.5488
0
LINE
8
BLACK
6
CONTINUOUS
10
-1.06481
20
2.5488
11
-1.05995
21
2.55002
0
LINE
8
BLACK
6
CONTINUOUS
10
-1.05995
20
2.55002
11
-1.055
21
2.55075
0
LINE
8
BLACK
6
CONTINUOUS
10
-1.055
20
2.55075
11
-1.05
21
2.551
0
LINE
8
BLACK
6
CONTINUOUS
10
-1.05
20
2.551
11
-0.55
21
2.551
0
LINE
8
BLACK
6
CONTINUOUS
10
-0.55
20
2.551
11
-0.545001
21
2.55075
0
LINE
8
BLACK
6
CONTINUOUS
10
0.254999
20
2.55075
11
0.25995
21
2.55002
0
LINE
8
BLACK
6
CONTINUOUS
10
0.25995
20
2.55002
11
0.264805
21
2.5488
0
LINE
8
BLACK
6
CONTINUOUS
10
0.264805
20
2.5488
11
0.269517
21
2.54712
0
LINE
8
BLACK
6
CONTINUOUS
10
0.269517
20
2.54712
11
0.274041
21
2.54498
0
LINE
8
BLACK
6
CONTINUOUS
10
0.274041
20
2.54498
11
0.278334
21
2.54241
0
LINE
8
BLACK
6
CONTINUOUS
10
0.278334
20
2.54241
11
0.282354
21
2.53942
0
LINE
8
BLACK
6
CONTINUOUS
10
0.282354
20
2.53942
11
0.286062
21
2.53606
0
LINE
8
BLACK
6
CONTINUOUS
10
0.286062
20
2.53606
11
0.289424
21
2.53235
0
LINE
8
BLACK
6
CONTINUOUS
10
0.289424
20
2.53235
11
0.292405
21
2.52833
0
LINE
8
BLACK
6
CONTINUOUS
10
0.292405
20
2.52833
11
0.294978
21
2.52404
0
LINE
8
BLACK
6
CONTINUOUS
10
0.294978
20
2.52404
11
0.297118
21
2.51952
0
LINE
8
BLACK
6
CONTINUOUS
10
0.297118
20
2.51952
11
0.298804
21
2.5148
0
LINE
8
BLACK
6
CONTINUOUS
10
0.298804
20
2.5148
11
0.30002
21
2.50995
0
LINE
8
BLACK
6
CONTINUOUS
10
0.30002
20
2.50995
11
0.300754
21
2.505
0
LINE
8
BLACK
6
CONTINUOUS
10
0.300754
20
2.505
11
0.301
21
2.5
0
LINE
8
BLACK
6
CONTINUOUS
10
0.301
20
2.5
11
0.301
21
2
0
LINE
8
BLACK
6
CONTINUOUS
10
0.301
20
2
11
0.300754
21
1.995
0
LINE
8
BLACK
6
CONTINUOUS
10
0.300754
20
1.995
11
0.30002
21
1.99005
0
LINE
8
BLACK
6
CONTINUOUS
10
0.30002
20
1.99005
11
0.298804
21
1.98519
0
LINE
8
BLACK
6
CONTINUOUS
10
0.298804
20
1.98519
11
0.297118
21
1.98048
0
LINE
8
BLACK
6
CONTINUOUS
10
0.297118
20
1.98048
11
0.294978
21
1.97596
0
LINE
8
BLACK
6
CONTINUOUS
10
0.294978
20
1.97596
11
0.292405
21
1.97167
0
LINE
8
BLACK
6
CONTINUOUS
10
0.292405
20
1.97167
11
0.289424
21
1.96765
0
LINE
8
BLACK
6
CONTINUOUS
10
0.289424
20
1.96765
11
0.286062
21
1.96394
0
LINE
8
BLACK
6
CONTINUOUS
10
0.286062
20
1.96394
11
0.282354
21
1.96058
0
LINE
8
BLACK
6
CONTINUOUS
10
0.282354
20
1.96058
11
0.278334
21
1.95759
0
LINE
8
BLACK
6
CONTINUOUS
10
0.278334
20
1.95759
11
0.274041
21
1.95502
0
LINE
8
BLACK
6
CONTINUOUS
10
0.274041
20
1.95502
11
0.269517
21
1.95288
0
LINE
8
BLACK
6
CONTINUOUS
10
0.269517
20
1.95288
11
0.264805
21
1.9512
0
LINE
8
BLACK
6
CONTINUOUS
10
0.264805
20
1.9512
11
0.25995
21
1.94998
0
LINE
8
BLACK
6
CONTINUOUS
10
0.25995
20
1.94998
11
0.254999
21
1.94925
0
LINE
8
BLACK
6
CONTINUOUS
10
0.254999
20
1.94925
11
0.25
21
1.949
0
LINE
8
BLACK
6
CONTINUOUS
10
0.25
20
1.949
11
-0.25
21
1.949
0
LINE
8
BLACK
6
CONTINUOUS
10
-0.25
20
1.949
11
-0.254999
21
1.94925
0
LINE
8
BLACK
6
CONTINUOUS
10
-0.254999
20
1.94925
11
-0.25995
21
1.94998
0
LINE
8
BLACK
6
CONTINUOUS
10
-0.25995
20
1.94998
11
-0.264805
21
1.9512
0
LINE
8
BLACK
6
CONTINUOUS
10
-0.264805
20
1.9512
11
-0.269517
21
1.95288
0
LINE
8
BLACK
6
CONTINUOUS
10
-0.269517
20
1.95288
11
-0.274041
21
1.95502
0
LINE
8
BLACK
6
CONTINUOUS
10
-0.274041
20
1.95502
11
-0.278334
21
1.95759
0
LINE
8
BLACK
6
CONTINUOUS
10
-0.278334
20
1.95759
11
-0.282354
21
1.96058
0
LINE
8
BLACK
6
CONTINUOUS
10
-0.282354
20
1.96058
11
-0.286062
21
1.96394
0
LINE
8
BLACK
6
CONTINUOUS
10
-0.286062
20
1.96394
11
-0.289424
21
1.96765
0
LINE
8
BLACK
6
CONTINUOUS
10
-0.289424
20
1.96765
11
-0.292405
21
1.97167
0
LINE
8
BLACK
6
CONTINUOUS
10
-0.292405
20
1.97167
11
-0.294978
21
1.97596
0
LINE
8
BLACK
6
CONTINUOUS
10
-0.294978
20
1.97596
11
-0.297118
21
1.98048
0
LINE
8
BLACK
6
CONTINUOUS
10
-0.297118
20
1.98048
11
-0.298804
21
1.98519
0
LINE
8
BLACK
6
CONTINUOUS
10
-0.298804
20
1.98519
11
-0.30002
21
1.99005
0
LINE
8
BLACK
6
CONTINUOUS
10
-0.30002
20
1.99005
11
-0.300754
21
1.995
0
LINE
8
BLACK
6
CONTINUOUS
10
-0.300754
20
1.995
11
-0.301
21
2
0
LINE
8
BLACK
6
CONTINUOUS
10
-0.301
20
2
11
-0.301
21
2.5
0
LINE
8
BLACK
6
CONTINUOUS
10
-0.301
20
2.5
11
-0.300754
21
2.505
0
LINE
8
BLACK
6
CONTINUOUS
10
-0.300754
20
2.505
11
-0.30002
21
2.50995
0
LINE
8
BLACK
6
CONTINUOUS
10
-0.30002
20
2.50995
11
-0.298804
21
2.5148
0
LINE
8
BLACK
6
CONTINUOUS
10
-0.298804
20
2.5148
11
-0.297118
21
2.51952
0
LINE
8
BLACK
6
CONTINUOUS
10
-0.297118
20
2.51952
11
-0.294978
21
2.52404
0
LINE
8
BLACK
6
CONTINUOUS
10
-0.294978
20
2.52404
11
-0.292405
21
2.52833
0
LINE
8
BLACK
6
CONTINUOUS
10
-0.292405
20
2.52833
11
-0.289424
21
2.53235
0
LINE
8
BLACK
6
CONTINUOUS
10
-0.289424
20
2.53235
11
-0.286062
21
2.53606
0
LINE
8
BLACK
6
CONTINUOUS
10
-0.286062
20
2.53606
11
-0.282354
21
2.53942
0
LINE
8
BLACK
6
CONTINUOUS
10
-0.282354
20
2.53942
11
-0.278334
21
2.54241
0
LINE
8
BLACK
6
CONTINUOUS
10
-0.278334
20
2.54241
11
-0.274041
21
2.54498
0
LINE
8
BLACK
6
CONTINUOUS
10
-0.274041
20
2.54498
11
-0.269517
21
2.54712
0
LINE
8
BLACK
6
CONTINUOUS
10
-0.269517
20
2.54712
11
-0.264805
21
2.5488
0
LINE
8
BLACK
6
CONTINUOUS
10
-0.264805
20
2.5488
11
-0.25995
21
2.55002
0
LINE
8
BLACK
6
CONTINUOUS
10
-0.25995
20
2.55002
11
-0.254999
21
2.55075
0
LINE
8
BLACK
6
CONTINUOUS
10
-0.254999
20
2.55075
11
-0.25
21
2.551
0
LINE
8
BLACK
6
CONTINUOUS
10
-0.25
20
2.551
11
0.25
21
2.551
0
LINE
8
BLACK
6
CONTINUOUS
10
0.25
20
2.551
11
0.254999
21
2.55075
0
LINE
8
BLACK
6
CONTINUOUS
10
1.055
20
2.55075
11
1.05995
21
2.55002
0
LINE
8
BLACK
6
CONTINUOUS
10
1.05995
20
2.55002
11
1.06481
21
2.5488
0
LINE
8
BLACK
6
CONTINUOUS
10
1.06481
20
2.5488
11
1.06952
21
2.54712
0
LINE
8
BLACK
6
CONTINUOUS
10
1.06952
20
2.54712
11
1.07404
21
2.54498
0
LINE
8
BLACK
6
CONTINUOUS
10
1.07404
20
2.54498
11
1.07833
21
2.54241
0
LINE
8
BLACK
6
CONTINUOUS
10
1.07833
20
2.54241
11
1.08235
21
2.53942
0
LINE
8
BLACK
6
CONTINUOUS
10
1.08235
20
2.53942
11
1.08606
21
2.53606
0
LINE
8
BLACK
6
CONTINUOUS
10
1.08606
20
2.53606
11
1.08942
21
2.53235
0
LINE
8
BLACK
6
CONTINUOUS
10
1.08942
20
2.53235
11
1.0924
21
2.52833
0
LINE
8
BLACK
6
CONTINUOUS
10
1.0924
20
2.52833
11
1.09498
21
2.52404
0
LINE
8
BLACK
6
CONTINUOUS
10
1.09498
20
2.52404
11
1.09712
21
2.51952
0
LINE
8
BLACK
6
CONTINUOUS
10
1.09712
20
2.51952
11
1.0988
21
2.5148
0
LINE
8
BLACK
6
CONTINUOUS
10
1.0988
20
2.5148
11
1.10002
21
2.50995
0
LINE
8
BLACK
6
CONTINUOUS
10
1.10002
20
2.50995
11
1.10075
21
2.505
0
LINE
8
BLACK
6
CONTINUOUS
10
1.10075
20
2.505
11
1.101
21
2.5
0
LINE
8
BLACK
6
CONTINUOUS
10
1.101
20
2.5
11
1.101
21
2
0
LINE
8
BLACK
6
CONTINUOUS
10
1.101
20
2
11
1.10075
21
1.995
0
LINE
8
BLACK
6
CONTINUOUS
10
1.10075
20
1.995
11
1.10002
21
1.99005
0
LINE
8
BLACK
6
CONTINUOUS
10
1.10002
20
1.99005
11
1.0988
21
1.98519
0
LINE
8
BLACK
6
CONTINUOUS
10
1.0988
20
1.98519
11
1.09712
21
1.98048
0
LINE
8
BLACK
6
CONTINUOUS
10
1.09712
20
1.98048
11
1.09498
21
1.97596
0
LINE
8
BLACK
6
CONTINUOUS
10
1.09498
20
1.97596
11
1.0924
21
1.97167
0
LINE
8
BLACK
6
CONTINUOUS
10
1.0924
20
1.97167
11
1.08942
21
1.96765
0
LINE
8
BLACK
6
CONTINUOUS
10
1.08942
20
1.96765
11
1.08606
21
1.96394
0
LINE
8
BLACK
6
CONTINUOUS
10
1.08606
20
1.96394
11
1.08235
21
1.96058
0
LINE
8
BLACK
6
CONTINUOUS
10
1.08235
20
1.96058
11
1.07833
21
1.95759
0
LINE
8
BLACK
6
CONTINUOUS
10
1.07833
20
1.95759
11
1.07404
21
1.95502
0
LINE
8
BLACK
6
CONTINUOUS
10
1.07404
20
1.95502
11
1.06952
21
1.95288
0
LINE
8
BLACK
6
CONTINUOUS
10
1.06952
20
1.95288
11
1.06481
21
1.9512
0
LINE
8
BLACK
6
CONTINUOUS
10
1.06481
20
1.9512
11
1.05995
21
1.94998
0
LINE
8
BLACK
6
CONTINUOUS
10
1.05995
20
1.94998
11
1.055
21
1.94925
0
LINE
8
BLACK
6
CONTINUOUS
10
1.055
20
1.94925
11
1.05
21
1.949
0
LINE
8
BLACK
6
CONTINUOUS
10
1.05
20
1.949
11
0.55
21
1.949
0
LINE
8
BLACK
6
CONTINUOUS
10
0.55
20
1.949
11
0.545001
21
1.94925
0
LINE
8
BLACK
6
CONTINUOUS
10
0.545001
20
1.94925
11
0.54005
21
1.94998
0
LINE
8
BLACK
6
CONTINUOUS
10
0.54005
20
1.94998
11
0.535195
21
1.9512
0
LINE
8
BLACK
6
CONTINUOUS
10
0.535195
20
1.9512
11
0.530483
21
1.95288
0
LINE
8
BLACK
6
CONTINUOUS
10
0.530483
20
1.95288
11
0.525959
21
1.95502
0
LINE
8
BLACK
6
CONTINUOUS
10
0.525959
20
1.95502
11
0.521666
21
1.95759
0
LINE
8
BLACK
6
CONTINUOUS
10
0.521666
20
1.95759
11
0.517646
21
1.96058
0
LINE
8
BLACK
6
CONTINUOUS
10
0.517646
20
1.96058
11
0.513938
21
1.96394
0
LINE
8
BLACK
6
CONTINUOUS
10
0.513938
20
1.96394
11
0.510576
21
1.96765
0
LINE
8
BLACK
6
CONTINUOUS
10
0.510576
20
1.96765
11
0.507595
21
1.97167
0
LINE
8
BLACK
6
CONTINUOUS
10
0.507595
20
1.97167
11
0.505022
21
1.97596
0
LINE
8
BLACK
6
CONTINUOUS
10
0.505022
20
1.97596
11
0.502882
21
1.98048
0
LINE
8
BLACK
6
CONTINUOUS
10
0.502882
20
1.98048
11
0.501196
21
1.98519
0
LINE
8
BLACK
6
CONTINUOUS
10
0.501196
20
1.98519
11
0.49998
21
1.99005
0
LINE
8
BLACK
6
CONTINUOUS
10
0.49998
20
1.99005
11
0.499246
21
1.995
0
LINE
8
BLACK
6
CONTINUOUS
10
0.499246
20
1.995
11
0.499
21
2
0
LINE
8
BLACK
6
CONTINUOUS
10
0.499
20
2
11
0.499
21
2.5
0
LINE
8
BLACK
6
CONTINUOUS
10
0.499
20
2.5
11
0.499246
21
2.505
0
LINE
8
BLACK
6
CONTINUOUS
10
0.499246
20
2.505
11
0.49998
21
2.50995
0
LINE
8
BLACK
6
CONTINUOUS
10
0.49998
20
2.50995
11
0.501196
21
2.5148
0
LINE
8
BLACK
6
CONTINUOUS
10
0.501196
20
2.5148
11
0.502882
21
2.51952
0
LINE
8
BLACK
6
CONTINUOUS
10
0.502882
20
2.51952
11
0.505022
21
2.52404
0
LINE
8
BLACK
6
CONTINUOUS
10
0.505022
20
2.52404
11
0.507595
21
2.52833
0
LINE
8
BLACK
6
CONTINUOUS
10
0.507595
20
2.52833
11
0.510576
21
2.53235
0
LINE
8
BLACK
6
CONTINUOUS
10
0.510576
20
2.53235
11
0.513938
21
2.53606
0
LINE
8
BLACK
6
CONTINUOUS
10
0.513938
20
2.53606
11
0.517646
21
2.53942
0
LINE
8
BLACK
6
CONTINUOUS
10
0.517646
20
2.53942
11
0.521666
21
2.54241
0
LINE
8
BLACK
6
CONTINUOUS
10
0.521666
20
2.54241
11
0.525959
21
2.54498
0
LINE
8
BLACK
6
CONTINUOUS
10
0.525959
20
2.54498
11
0.530483
21
2.54712
0
LINE
8
BLACK
6
CONTINUOUS
10
0.530483
20
2.54712
11
0.535195
21
2.5488
0
LINE
8
BLACK
6
CONTINUOUS
10
0.535195
20
2.5488
11
0.54005
21
2.55002
0
LINE
8
BLACK
6
CONTINUOUS
10
0.54005
20
2.55002
11
0.545001
21
2.55075
0
LINE
8
BLACK
6
CONTINUOUS
10
0.545001
20
2.55075
11
0.55
21
2.551
0
LINE
8
BLACK
6
CONTINUOUS
10
0.55
20
2.551
11
1.05
21
2.551
0
LINE
8
BLACK
6
CONTINUOUS
10
1.05
20
2.551
11
1.055
21
2.55075
0
LINE
8
BLACK
6
CONTINUOUS
10
1.855
20
2.55075
11
1.85995
21
2.55002
0
LINE
8
BLACK
6
CONTINUOUS
10
1.85995
20
2.55002
11
1.8648
21
2.5488
0
LINE
8
BLACK
6
CONTINUOUS
10
1.8648
20
2.5488
11
1.86952
21
2.54712
0
LINE
8
BLACK
6
CONTINUOUS
10
1.86952
20
2.54712
11
1.87404
21
2.54498
0
LINE
8
BLACK
6
CONTINUOUS
10
1.87404
20
2.54498
11
1.87833
21
2.54241
0
LINE
8
BLACK
6
CONTINUOUS
10
1.87833
20
2.54241
11
1.88235
21
2.53942
0
LINE
8
BLACK
6
CONTINUOUS
10
1.88235
20
2.53942
11
1.88606
21
2.53606
0
LINE
8
BLACK
6
CONTINUOUS
10
1.88606
20
2.53606
11
1.88942
21
2.53235
0
LINE
8
BLACK
6
CONTINUOUS
10
1.88942
20
2.53235
11
1.8924
21
2.52833
0
LINE
8
BLACK
6
CONTINUOUS
10
1.8924
20
2.52833
11
1.89498
21
2.52404
0
LINE
8
BLACK
6
CONTINUOUS
10
1.89498
20
2.52404
11
1.89712
21
2.51952
0
LINE
8
BLACK
6
CONTINUOUS
10
1.89712
20
2.51952
11
1.8988
21
2.5148
0
LINE
8
BLACK
6
CONTINUOUS
10
1.8988
20
2.5148
11
1.90002
21
2.50995
0
LINE
8
BLACK
6
CONTINUOUS
10
1.90002
20
2.50995
11
1.90075
21
2.505
0
LINE
8
BLACK
6
CONTINUOUS
10
1.90075
20
2.505
11
1.901
21
2.5
0
LINE
8
BLACK
6
CONTINUOUS
10
1.901
20
2.5
11
1.901
21
2
0
LINE
8
BLACK
6
CONTINUOUS
10
1.901
20
2
11
1.90075
21
1.995
0
LINE
8
BLACK
6
CONTINUOUS
10
1.90075
20
1.995
11
1.90002
21
1.99005
0
LINE
8
BLACK
6
CONTINUOUS
10
1.90002
20
1.99005
11
1.8988
21
1.98519
0
LINE
8
BLACK
6
CONTINUOUS
10
1.8988
20
1.98519
11
1.89712
21
1.98048
0
LINE
8
BLACK
6
CONTINUOUS
10
1.89712
20
1.98048
11
1.89498
21
1.97596
0
LINE
8
BLACK
6
CONTINUOUS
10
1.89498
20
1.97596
11
1.8924
21
1.97167
0
LINE
8
BLACK
6
CONTINUOUS
10
1.8924
20
1.97167
11
1.88942
21
1.96765
0
LINE
8
BLACK
6
CONTINUOUS
10
1.88942
20
1.96765
11
1.88606
21
1.96394
0
LINE
8
BLACK
6
CONTINUOUS
10
1.88606
20
1.96394
11
1.88235
21
1.96058
0
LINE
8
BLACK
6
CONTINUOUS
10
1.88235
20
1.96058
11
1.87833
21
1.95759
0
LINE
8
BLACK
6
CONTINUOUS
10
1.87833
20
1.95759
11
1.87404
21
1.95502
0
LINE
8
BLACK
6
CONTINUOUS
10
1.87404
20
1.95502
11
1.86952
21
1.95288
0
LINE
8
BLACK
6
CONTINUOUS
10
1.86952
20
1.95288
11
1.8648
21
1.9512
0
LINE
8
BLACK
6
CONTINUOUS
10
1.8648
20
1.9512
11
1.85995
21
1.94998
0
LINE
8
BLACK
6
CONTINUOUS
10
1.85995
20
1.94998
11
1.855
21
1.94925
0
LINE
8
BLACK
6
CONTINUOUS
10
1.855
20
1.94925
11
1.85
21
1.949
0
LINE
8
BLACK
6
CONTINUOUS
10
1.85
20
1.949
11
1.35
21
1.949
0
LINE
8
BLACK
6
CONTINUOUS
10
1.35
20
1.949
11
1.345
21
1.94925
0
LINE
8
BLACK
6
CONTINUOUS
10
1.345
20
1.94925
11
1.34005
21
1.94998
0
LINE
8
BLACK
6
CONTINUOUS
10
1.34005
20
1.94998
11
1.33519
21
1.9512
0
LINE
8
BLACK
6
CONTINUOUS
10
1.33519
20
1.9512
11
1.33048
21
1.95288
0
LINE
8
BLACK
6
CONTINUOUS
10
1.33048
20
1.95288
11
1.32596
21
1.95502
0
LINE
8
BLACK
6
CONTINUOUS
10
1.32596
20
1.95502
11
1.32167
21
1.95759
0
LINE
8
BLACK
6
CONTINUOUS
10
1.32167
20
1.95759
11
1.31765
21
1.96058
0
LINE
8
BLACK
6
CONTINUOUS
10
1.31765
20
1.96058
11
1.31394
21
1.96394
0
LINE
8
BLACK
6
CONTINUOUS
10
1.31394
20
1.96394
11
1.31058
21
1.96765
0
LINE
8
BLACK
6
CONTINUOUS
10
1.31058
20
1.96765
11
1.30759
21
1.97167
0
LINE
8
BLACK
6
CONTINUOUS
10
1.30759
20
1.97167
11
1.30502
21
1.97596
0
LINE
8
BLACK
6
CONTINUOUS
10
1.30502
20
1.97596
11
1.30288
21
1.98048
0
LINE
8
BLACK
6
CONTINUOUS
10
1.30288
20
1.98048
11
1.3012
21
1.98519
0
LINE
8
BLACK
6
CONTINUOUS
10
1.3012
20
1.98519
11
1.29998
21
1.99005
0
LINE
8
BLACK
6
CONTINUOUS
10
1.29998
20
1.99005
11
1.29925
21
1.995
0
LINE
8
BLACK
6
CONTINUOUS
10
1.29925
20
1.995
11
1.299
21
2
0
LINE
8
BLACK
6
CONTINUOUS
10
1.299
20
2
11
1.299
21
2.5
0
LINE
8
BLACK
6
CONTINUOUS
10
1.299
20
2.5
11
1.29925
21
2.505
0
LINE
8
BLACK
6
CONTINUOUS
10
1.29925
20
2.505
11
1.29998
21
2.50995
0
LINE
8
BLACK
6
CONTINUOUS
10
1.29998
20
2.50995
11
1.3012
21
2.5148
0
LINE
8
BLACK
6
CONTINUOUS
10
1.3012
20
2.5148
11
1.30288
21
2.51952
0
LINE
8
BLACK
6
CONTINUOUS
10
1.30288
20
2.51952
11
1.30502
21
2.52404
0
LINE
8
BLACK
6
CONTINUOUS
10
1.30502
20
2.52404
11
1.30759
21
2.52833
0
LINE
8
BLACK
6
CONTINUOUS
10
1.30759
20
2.52833
11
1.31058
21
2.53235
0
LINE
8
BLACK
6
CONTINUOUS
10
1.31058
20
2.53235
11
1.31394
21
2.53606
0
LINE
8
BLACK
6
CONTINUOUS
10
1.31394
20
2.53606
11
1.31765
21
2.53942
0
LINE
8
BLACK
6
CONTINUOUS
10
1.31765
20
2.53942
11
1.32167
21
2.54241
0
LINE
8
BLACK
6
CONTINUOUS
10
1.32167
20
2.54241
11
1.32596
21
2.54498
0
LINE
8
BLACK
6
CONTINUOUS
10
1.32596
20
2.54498
11
1.33048
21
2.54712
0
LINE
8
BLACK
6
CONTINUOUS
10
1.33048
20
2.54712
11
1.33519
21
2.5488
0
LINE
8
BLACK
6
CONTINUOUS
10
1.33519
20
2.5488
11
1.34005
21
2.55002
0
LINE
8
BLACK
6
CONTINUOUS
10
1.34005
20
2.55002
11
1.345
21
2.55075
0
LINE
8
BLACK
6
CONTINUOUS
10
1.345
20
2.55075
11
1.35
21
2.551
0
LINE
8
BLACK
6
CONTINUOUS
10
1.35
20
2.551
11
1.85
21
2.551
0
LINE
8
BLACK
6
CONTINUOUS
10
1.85
20
2.551
11
1.855
21
2.55075
0
LINE
8
BLACK
6
CONTINUOUS
10
1.855
20
1.75075
11
1.85995
21
1.75002
0
LINE
8
BLACK
6
CONTINUOUS
10
1.85995
20
1.75002
11
1.8648
21
1.7488
0
LINE
8
BLACK
6
CONTINUOUS
10
1.8648
20
1.7488
11
1.86952
21
1.74712
0
LINE
8
BLACK
6
CONTINUOUS
10
1.86952
20
1.74712
11
1.87404
21
1.74498
0
LINE
8
BLACK
6
CONTINUOUS
10
1.87404
20
1.74498
11
1.87833
21
1.7424
0
LINE
8
BLACK
6
CONTINUOUS
10
1.87833
20
1.7424
11
1.88235
21
1.73942
0
LINE
8
BLACK
6
CONTINUOUS
10
1.88235
20
1.73942
11
1.88606
21
1.73606
0
LINE
8
BLACK
6
CONTINUOUS
10
1.88606
20
1.73606
11
1.88942
21
1.73235
0
LINE
8
BLACK
6
CONTINUOUS
10
1.88942
20
1.73235
11
1.8924
21
1.72833
0
LINE
8
BLACK
6
CONTINUOUS
10
1.8924
20
1.72833
11
1.89498
21
1.72404
0
LINE
8
BLACK
6
CONTINUOUS
10
1.89498
20
1.72404
11
1.89712
21
1.71952
0
LINE
8
BLACK
6
CONTINUOUS
10
1.89712
20
1.71952
11
1.8988
21
1.7148
0
LINE
8
BLACK
6
CONTINUOUS
10
1.8988
20
1.7148
11
1.90002
21
1.70995
0
LINE
8
BLACK
6
CONTINUOUS
10
1.90002
20
1.70995
11
1.90075
21
1.705
0
LINE
8
BLACK
6
CONTINUOUS
10
1.90075
20
1.705
11
1.901
21
1.7
0
LINE
8
BLACK
6
CONTINUOUS
10
1.901
20
1.7
11
1.901
21
1.2
0
LINE
8
BLACK
6
CONTINUOUS
10
1.901
20
1.2
11
1.90075
21
1.195
0
LINE
8
BLACK
6
CONTINUOUS
10
1.90075
20
1.195
11
1.90002
21
1.19005
0
LINE
8
BLACK
6
CONTINUOUS
10
1.90002
20
1.19005
11
1.8988
21
1.18519
0
LINE
8
BLACK
6
CONTINUOUS
10
1.8988
20
1.18519
11
1.89712
21
1.18048
0
LINE
8
BLACK
6
CONTINUOUS
10
1.89712
20
1.18048
11
1.89498
21
1.17596
0
LINE
8
BLACK
6
CONTINUOUS
10
1.89498
20
1.17596
11
1.8924
21
1.17167
0
LINE
8
BLACK
6
CONTINUOUS
10
1.8924
20
1.17167
11
1.88942
21
1.16765
0
LINE
8
BLACK
6
CONTINUOUS
10
1.88942
20
1.16765
11
1.88606
21
1.16394
0
LINE
8
BLACK
6
CONTINUOUS
10
1.88606
20
1.16394
11
1.88235
21
1.16058
0
LINE
8
BLACK
6
CONTINUOUS
10
1.88235
20
1.16058
11
1.87833
21
1.15759
0
LINE
8
BLACK
6
CONTINUOUS
10
1.87833
20
1.15759
11
1.87404
21
1.15502
0
LINE
8
BLACK
6
CONTINUOUS
10
1.87404
20
1.15502
11
1.86952
21
1.15288
0
LINE
8
BLACK
6
CONTINUOUS
10
1.86952
20
1.15288
11
1.8648
21
1.1512
0
LINE
8
BLACK
6
CONTINUOUS
10
1.8648
20
1.1512
11
1.85995
21
1.14998
0
LINE
8
BLACK
6
CONTINUOUS
10
1.85995
20
1.14998
11
1.855
21
1.14925
0
LINE
8
BLACK
6
CONTINUOUS
10
1.855
20
1.14925
11
1.85
21
1.149
0
LINE
8
BLACK
6
CONTINUOUS
10
1.85
20
1.149
11
1.35
21
1.149
0
LINE
8
BLACK
6
CONTINUOUS
10
1.35
20
1.149
11
1.345
21
1.14925
0
LINE
8
BLACK
6
CONTINUOUS
10
1.345
20
1.14925
11
1.34005
21
1.14998
0
LINE
8
BLACK
6
CONTINUOUS
10
1.34005
20
1.14998
11
1.33519
21
1.1512
0
LINE
8
BLACK
6
CONTINUOUS
10
1.33519
20
1.1512
11
1.33048
21
1.15288
0
LINE
8
BLACK
6
CONTINUOUS
10
1.33048
20
1.15288
11
1.32596
21
1.15502
0
LINE
8
BLACK
6
CONTINUOUS
10
1.32596
20
1.15502
11
1.32167
21
1.15759
0
LINE
8
BLACK
6
CONTINUOUS
10
1.32167
20
1.15759
11
1.31765
21
1.16058
0
LINE
8
BLACK
6
CONTINUOUS
10
1.31765
20
1.16058
11
1.31394
21
1.16394
0
LINE
8
BLACK
6
CONTINUOUS
10
1.31394
20
1.16394
11
1.31058
21
1.16765
0
LINE
8
BLACK
6
CONTINUOUS
10
1.31058
20
1.16765
11
1.30759
21
1.17167
0
LINE
8
BLACK
6
CONTINUOUS
10
1.30759
20
1.17167
11
1.30502
21
1.17596
0
LINE
8
BLACK
6
CONTINUOUS
10
1.30502
20
1.17596
11
1.30288
21
1.18048
0
LINE
8
BLACK
6
CONTINUOUS
10
1.30288
20
1.18048
11
1.3012
21
1.18519
0
LINE
8
BLACK
6
CONTINUOUS
10
1.3012
20
1.18519
11
1.29998
21
1.19005
0
LINE
8
BLACK
6
CONTINUOUS
10
1.29998
20
1.19005
11
1.29925
21
1.195
0
LINE
8
BLACK
6
CONTINUOUS
10
1.29925
20
1.195
11
1.299
21
1.2
0
LINE
8
BLACK
6
CONTINUOUS
10
1.299
20
1.2
11
1.299
21
1.7
0
LINE
8
BLACK
6
CONTINUOUS
10
1.299
20
1.7
11
1.29925
21
1.705
0
LINE
8
BLACK
6
CONTINUOUS
10
1.29925
20
1.705
11
1.29998
21
1.70995
0
LINE
8
BLACK
6
CONTINUOUS
10
1.29998
20
1.70995
11
1.3012
21
1.7148
0
LINE
8
BLACK
6
CONTINUOUS
10
1.3012
20
1.7148
11
1.30288
21
1.71952
0
LINE
8
BLACK
6
CONTINUOUS
10
1.30288
20
1.71952
11
1.30502
21
1.72404
0
LINE
8
BLACK
6
CONTINUOUS
10
1.30502
20
1.72404
11
1.30759
21
1.72833
0
LINE
8
BLACK
6
CONTINUOUS
10
1.30759
20
1.72833
11
1.31058
21
1.73235
0
LINE
8
BLACK
6
CONTINUOUS
10
1.31058
20
1.73235
11
1.31394
21
1.73606
0
LINE
8
BLACK
6
CONTINUOUS
10
1.31394
20
1.73606
11
1.31765
21
1.73942
0
LINE
8
BLACK
6
CONTINUOUS
10
1.31765
20
1.73942
11
1.32167
21
1.7424
0
LINE
8
BLACK
6
CONTINUOUS
10
1.32167
20
1.7424
11
1.32596
21
1.74498
0
LINE
8
BLACK
6
CONTINUOUS
10
1.32596
20
1.74498
11
1.33048
21
1.74712
0
LINE
8
BLACK
6
CONTINUOUS
10
1.33048
20
1.74712
11
1.33519
21
1.7488
0
LINE
8
BLACK
6
CONTINUOUS
10
1.33519
20
1.7488
11
1.34005
21
1.75002
0
LINE
8
BLACK
6
CONTINUOUS
10
1.34005
20
1.75002
11
1.345
21
1.75075
0
LINE
8
BLACK
6
CONTINUOUS
10
1.345
20
1.75075
11
1.35
21
1.751
0
LINE
8
BLACK
6
CONTINUOUS
10
1.35
20
1.751
11
1.85
21
1.751
0
LINE
8
BLACK
6
CONTINUOUS
10
1.85
20
1.751
11
1.855
21
1.75075
0
LINE
8
BLACK
6
CONTINUOUS
10
1.90273
20
1.15
11
1.903
21
1.149
0
LINE
8
BLACK
6
CONTINUOUS
10
1.903
20
1.149
11
1.903
21
0.951
0
LINE
8
BLACK
6
CONTINUOUS
10
1.903
20
0.951
11
1.902
21
0.949268
0
LINE
8
BLACK
6
CONTINUOUS
10
1.902
20
0.949268
11
1.901
21
0.949
0
LINE
8
BLACK
6
CONTINUOUS
10
1.901
20
0.949
11
1.301
21
0.949
0
LINE
8
BLACK
6
CONTINUOUS
10
1.301
20
0.949
11
1.301
21
0.349
0
LINE
8
BLACK
6
CONTINUOUS
10
1.301
20
0.349
11
1.3
21
0.347268
0
LINE
8
BLACK
6
CONTINUOUS
10
1.3
20
0.347268
11
1.299
21
0.347
0
LINE
8
BLACK
6
CONTINUOUS
10
1.299
20
0.347
11
1.101
21
0.347
0
LINE
8
BLACK
6
CONTINUOUS
10
1.101
20
0.347
11
1.09927
21
0.348
0
LINE
8
BLACK
6
CONTINUOUS
10
1.09927
20
0.348
11
1.099
21
0.349
0
LINE
8
BLACK
6
CONTINUOUS
10
1.099
20
0.349
11
1.099
21
0.951
0
LINE
8
BLACK
6
CONTINUOUS
10
1.099
20
0.951
11
1.1
21
0.952732
0
LINE
8
BLACK
6
CONTINUOUS
10
1.1
20
0.952732
11
1.101
21
0.953
0
LINE
8
BLACK
6
CONTINUOUS
10
1.101
20
0.953
11
1.17391
21
0.953
0
LINE
8
BLACK
6
CONTINUOUS
10
1.17391
20
0.953
11
1.19799
21
0.955372
0
LINE
8
BLACK
6
CONTINUOUS
10
1.19799
20
0.955372
11
1.22107
21
0.962372
0
LINE
8
BLACK
6
CONTINUOUS
10
1.22107
20
0.962372
11
1.24233
21
0.973737
0
LINE
8
BLACK
6
CONTINUOUS
10
1.24233
20
0.973737
11
1.26097
21
0.989032
0
LINE
8
BLACK
6
CONTINUOUS
10
1.26097
20
0.989032
11
1.27626
21
1.00767
0
LINE
8
BLACK
6
CONTINUOUS
10
1.27626
20
1.00767
11
1.28763
21
1.02893
0
LINE
8
BLACK
6
CONTINUOUS
10
1.28763
20
1.02893
11
1.29463
21
1.05201
0
LINE
8
BLACK
6
CONTINUOUS
10
1.29463
20
1.05201
11
1.297
21
1.07609
0
LINE
8
BLACK
6
CONTINUOUS
10
1.297
20
1.07609
11
1.297
21
1.149
0
LINE
8
BLACK
6
CONTINUOUS
10
1.297
20
1.149
11
1.298
21
1.15073
0
LINE
8
BLACK
6
CONTINUOUS
10
1.298
20
1.15073
11
1.299
21
1.151
0
LINE
8
BLACK
6
CONTINUOUS
10
1.299
20
1.151
11
1.901
21
1.151
0
LINE
8
BLACK
6
CONTINUOUS
10
1.901
20
1.151
11
1.90273
21
1.15
0
LINE
8
BLACK
6
CONTINUOUS
10
-0.299268
20
0.952
11
-0.299
21
0.951
0
LINE
8
BLACK
6
CONTINUOUS
10
-0.299
20
0.951
11
-0.299
21
0.349
0
LINE
8
BLACK
6
CONTINUOUS
10
-0.299
20
0.349
11
-0.3
21
0.347268
0
LINE
8
BLACK
6
CONTINUOUS
10
-0.3
20
0.347268
11
-0.301
21
0.347
0
LINE
8
BLACK
6
CONTINUOUS
10
-0.301
20
0.347
11
-0.499
21
0.347
0
LINE
8
BLACK
6
CONTINUOUS
10
-0.499
20
0.347
11
-0.500732
21
0.348
0
LINE
8
BLACK
6
CONTINUOUS
10
-0.500732
20
0.348
11
-0.501
21
0.349
0
LINE
8
BLACK
6
CONTINUOUS
10
-0.501
20
0.349
11
-0.501
21
0.951
0
LINE
8
BLACK
6
CONTINUOUS
10
-0.501
20
0.951
11
-0.5
21
0.952732
0
LINE
8
BLACK
6
CONTINUOUS
10
-0.5
20
0.952732
11
-0.499
21
0.953
0
LINE
8
BLACK
6
CONTINUOUS
10
-0.499
20
0.953
11
-0.301
21
0.953
0
LINE
8
BLACK
6
CONTINUOUS
10
-0.301
20
0.953
11
-0.299268
21
0.952
0
LINE
8
BLACK
6
CONTINUOUS
10
0.500732
20
0.952
11
0.501
21
0.951
0
LINE
8
BLACK
6
CONTINUOUS
10
0.501
20
0.951
11
0.501
21
0.349
0
LINE
8
BLACK
6
CONTINUOUS
10
0.501
20
0.349
11
0.5
21
0.347268
0
LINE
8
BLACK
6
CONTINUOUS
10
0.5
20
0.347268
11
0.499
21
0.347
0
LINE
8
BLACK
6
CONTINUOUS
10
0.499
20
0.347
11
0.301
21
0.347
0
LINE
8
BLACK
6
CONTINUOUS
10
0.301
20
0.347
11
0.299268
21
0.348
0
LINE
8
BLACK
6
CONTINUOUS
10
0.299268
20
0.348
11
0.299
21
0.349
0
LINE
8
BLACK
6
CONTINUOUS
10
0.299
20
0.349
11
0.299
21
0.951
0
LINE
8
BLACK
6
CONTINUOUS
10
0.299
20
0.951
11
0.3
21
0.952732
0
LINE
8
BLACK
6
CONTINUOUS
10
0.3
20
0.952732
11
0.301
21
0.953
0
LINE
8
BLACK
6
CONTINUOUS
10
0.301
20
0.953
11
0.499
21
0.953
0
LINE
8
BLACK
6
CONTINUOUS
10
0.499
20
0.953
11
0.500732
21
0.952
0
LINE
8
BLACK
6
CONTINUOUS
10
-1.29727
20
1.15
11
-1.297
21
1.149
0
LINE
8
BLACK
6
CONTINUOUS
10
-1.297
20
1.149
11
-1.297
21
1.07609
0
LINE
8
BLACK
6
CONTINUOUS
10
-1.297
20
1.07609
11
-1.29463
21
1.05201
0
LINE
8
BLACK
6
CONTINUOUS
10
-1.29463
20
1.05201
11
-1.28763
21
1.02893
0
LINE
8
BLACK
6
CONTINUOUS
10
-1.28763
20
1.02893
11
-1.27626
21
1.00767
0
LINE
8
BLACK
6
CONTINUOUS
10
-1.27626
20
1.00767
11
-1.26097
21
0.989032
0
LINE
8
BLACK
6
CONTINUOUS
10
-1.26097
20
0.989032
11
-1.24233
21
0.973737
0
LINE
8
BLACK
6
CONTINUOUS
10
-1.24233
20
0.973737
11
-1.22107
21
0.962372
0
LINE
8
BLACK
6
CONTINUOUS
10
-1.22107
20
0.962372
11
-1.19799
21
0.955372
0
LINE
8
BLACK
6
CONTINUOUS
10
-1.19799
20
0.955372
11
-1.17391
21
0.953
0
LINE
8
BLACK
6
CONTINUOUS
10
-1.17391
20
0.953
11
-1.101
21
0.953
0
LINE
8
BLACK
6
CONTINUOUS
10
-1.101
20
0.953
11
-1.09927
21
0.952
0
LINE
8
BLACK
6
CONTINUOUS
10
-1.09927
20
0.952
11
-1.099
21
0.951
0
LINE
8
BLACK
6
CONTINUOUS
10
-1.099
20
0.951
11
-1.099
21
0.349
0
LINE
8
BLACK
6
CONTINUOUS
10
-1.099
20
0.349
11
-1.1
21
0.347268
0
LINE
8
BLACK
6
CONTINUOUS
10
-1.1
20
0.347268
11
-1.101
21
0.347
0
LINE
8
BLACK
6
CONTINUOUS
10
-1.101
20
0.347
11
-1.299
21
0.347
0
LINE
8
BLACK
6
CONTINUOUS
10
-1.299
20
0.347
11
-1.30073
21
0.348
0
LINE
8
BLACK
6
CONTINUOUS
10
-1.30073
20
0.348
11
-1.301
21
0.349
0
LINE
8
BLACK
6
CONTINUOUS
10
-1.301
20
0.349
11
-1.301
21
0.949
0
LINE
8
BLACK
6
CONTINUOUS
10
-1.301
20
0.949
11
-1.901
21
0.949
0
LINE
8
BLACK
6
CONTINUOUS
10
-1.901
20
0.949
11
-1.90273
21
0.95
0
LINE
8
BLACK
6
CONTINUOUS
10
-1.90273
20
0.95
11
-1.903
21
0.951
0
LINE
8
BLACK
6
CONTINUOUS
10
-1.903
20
0.951
11
-1.903
21
1.149
0
LINE
8
BLACK
6
CONTINUOUS
10
-1.903
20
1.149
11
-1.902
21
1.15073
0
LINE
8
BLACK
6
CONTINUOUS
10
-1.902
20
1.15073
11
-1.901
21
1.151
0
LINE
8
BLACK
6
CONTINUOUS
10
-1.901
20
1.151
11
-1.299
21
1.151
0
LINE
8
BLACK
6
CONTINUOUS
10
-1.299
20
1.151
11
-1.29727
21
1.15
0
LINE
8
BLACK
6
CONTINUOUS
10
1.30073
20
2.552
11
1.301
21
2.551
0
LINE
8
BLACK
6
CONTINUOUS
10
1.301
20
2.551
11
1.301
21
1.951
0
LINE
8
BLACK
6
CONTINUOUS
10
1.301
20
1.951
11
1.901
21
1.951
0
LINE
8
BLACK
6
CONTINUOUS
10
1.901
20
1.951
11
1.90273
21
1.95
0
LINE
8
BLACK
6
CONTINUOUS
10
1.90273
20
1.95
11
1.903
21
1.949
0
LINE
8
BLACK
6
CONTINUOUS
10
1.903
20
1.949
11
1.903
21
1.751
0
LINE
8
BLACK
6
CONTINUOUS
10
1.903
20
1.751
11
1.902
21
1.74927
0
LINE
8
BLACK
6
CONTINUOUS
10
1.902
20
1.74927
11
1.901
21
1.749
0
LINE
8
BLACK
6
CONTINUOUS
10
1.901
20
1.749
11
1.299
21
1.749
0
LINE
8
BLACK
6
CONTINUOUS
10
1.299
20
1.749
11
1.29727
21
1.75
0
LINE
8
BLACK
6
CONTINUOUS
10
1.29727
20
1.75
11
1.297
21
1.751
0
LINE
8
BLACK
6
CONTINUOUS
10
1.297
20
1.751
11
1.297
21
1.82391
0
LINE
8
BLACK
6
CONTINUOUS
10
1.297
20
1.82391
11
1.29463
21
1.84799
0
LINE
8
BLACK
6
CONTINUOUS
10
1.29463
20
1.84799
11
1.28763
21
1.87107
0
LINE
8
BLACK
6
CONTINUOUS
10
1.28763
20
1.87107
11
1.27626
21
1.89233
0
LINE
8
BLACK
6
CONTINUOUS
10
1.27626
20
1.89233
11
1.26097
21
1.91097
0
LINE
8
BLACK
6
CONTINUOUS
10
1.26097
20
1.91097
11
1.24233
21
1.92626
0
LINE
8
BLACK
6
CONTINUOUS
10
1.24233
20
1.92626
11
1.22107
21
1.93763
0
LINE
8
BLACK
6
CONTINUOUS
10
1.22107
20
1.93763
11
1.19799
21
1.94463
0
LINE
8
BLACK
6
CONTINUOUS
10
1.19799
20
1.94463
11
1.17391
21
1.947
0
LINE
8
BLACK
6
CONTINUOUS
10
1.17391
20
1.947
11
1.101
21
1.947
0
LINE
8
BLACK
6
CONTINUOUS
10
1.101
20
1.947
11
1.09927
21
1.948
0
LINE
8
BLACK
6
CONTINUOUS
10
1.09927
20
1.948
11
1.099
21
1.949
0
LINE
8
BLACK
6
CONTINUOUS
10
1.099
20
1.949
11
1.099
21
2.549
0
LINE
8
BLACK
6
CONTINUOUS
10
1.099
20
2.549
11
0.501
21
2.549
0
LINE
8
BLACK
6
CONTINUOUS
10
0.501
20
2.549
11
0.501
21
1.949
0
LINE
8
BLACK
6
CONTINUOUS
10
0.501
20
1.949
11
0.5
21
1.94727
0
LINE
8
BLACK
6
CONTINUOUS
10
0.5
20
1.94727
11
0.499
21
1.947
0
LINE
8
BLACK
6
CONTINUOUS
10
0.499
20
1.947
11
0.301
21
1.947
0
LINE
8
BLACK
6
CONTINUOUS
10
0.301
20
1.947
11
0.299268
21
1.948
0
LINE
8
BLACK
6
CONTINUOUS
10
0.299268
20
1.948
11
0.299
21
1.949
0
LINE
8
BLACK
6
CONTINUOUS
10
0.299
20
1.949
11
0.299
21
2.549
0
LINE
8
BLACK
6
CONTINUOUS
10
0.299
20
2.549
11
-0.299
21
2.549
0
LINE
8
BLACK
6
CONTINUOUS
10
-0.299
20
2.549
11
-0.299
21
1.949
0
LINE
8
BLACK
6
CONTINUOUS
10
-0.299
20
1.949
11
-0.3
21
1.94727
0
LINE
8
BLACK
6
CONTINUOUS
10
-0.3
20
1.94727
11
-0.301
21
1.947
0
LINE
8
BLACK
6
CONTINUOUS
10
-0.301
20
1.947
11
-0.499
21
1.947
0
LINE
8
BLACK
6
CONTINUOUS
10
-0.499
20
1.947
11
-0.500732
21
1.948
0
LINE
8
BLACK
6
CONTINUOUS
10
-0.500732
20
1.948
11
-0.501
21
1.949
0
LINE
8
BLACK
6
CONTINUOUS
10
-0.501
20
1.949
11
-0.501
21
2.549
0
LINE
8
BLACK
6
CONTINUOUS
10
-0.501
20
2.549
11
-1.099
21
2.549
0
LINE
8
BLACK
6
CONTINUOUS
10
-1.099
20
2.549
11
-1.099
21
1.949
0
LINE
8
BLACK
6
CONTINUOUS
10
-1.099
20
1.949
11
-1.1
21
1.94727
0
LINE
8
BLACK
6
CONTINUOUS
10
-1.1
20
1.94727
11
-1.101
21
1.947
0
LINE
8
BLACK
6
CONTINUOUS
10
-1.101
20
1.947
11
-1.17391
21
1.947
0
LINE
8
BLACK
6
CONTINUOUS
10
-1.17391
20
1.947
11
-1.19799
21
1.94463
0
LINE
8
BLACK
6
CONTINUOUS
10
-1.19799
20
1.94463
11
-1.22107
21
1.93763
0
LINE
8
BLACK
6
CONTINUOUS
10
-1.22107
20
1.93763
11
-1.24233
21
1.92626
0
LINE
8
BLACK
6
CONTINUOUS
10
-1.24233
20
1.92626
11
-1.26097
21
1.91097
0
LINE
8
BLACK
6
CONTINUOUS
10
-1.26097
20
1.91097
11
-1.27626
21
1.89233
0
LINE
8
BLACK
6
CONTINUOUS
10
-1.27626
20
1.89233
11
-1.28763
21
1.87107
0
LINE
8
BLACK
6
CONTINUOUS
10
-1.28763
20
1.87107
11
-1.29463
21
1.84799
0
LINE
8
BLACK
6
CONTINUOUS
10
-1.29463
20
1.84799
11
-1.297
21
1.82391
0
LINE
8
BLACK
6
CONTINUOUS
10
-1.297
20
1.82391
11
-1.297
21
1.751
0
LINE
8
BLACK
6
CONTINUOUS
10
-1.297
20
1.751
11
-1.298
21
1.74927
0
LINE
8
BLACK
6
CONTINUOUS
10
-1.298
20
1.74927
11
-1.299
21
1.749
0
LINE
8
BLACK
6
CONTINUOUS
10
-1.299
20
1.749
11
-1.901
21
1.749
0
LINE
8
BLACK
6
CONTINUOUS
10
-1.901
20
1.749
11
-1.90273
21
1.75
0
LINE
8
BLACK
6
CONTINUOUS
10
-1.90273
20
1.75
11
-1.903
21
1.751
0
LINE
8
BLACK
6
CONTINUOUS
10
-1.903
20
1.751
11
-1.903
21
1.949
0
LINE
8
BLACK
6
CONTINUOUS
10
-1.903
20
1.949
11
-1.902
21
1.95073
0
LINE
8
BLACK
6
CONTINUOUS
10
-1.902
20
1.95073
11
-1.901
21
1.951
0
LINE
8
BLACK
6
CONTINUOUS
10
-1.901
20
1.951
11
-1.301
21
1.951
0
LINE
8
BLACK
6
CONTINUOUS
10
-1.301
20
1.951
11
-1.301
21
2.551
0
LINE
8
BLACK
6
CONTINUOUS
10
-1.301
20
2.551
11
-1.3
21
2.55273
0
LINE
8
BLACK
6
CONTINUOUS
10
-1.3
20
2.55273
11
-1.299
21
2.553
0
LINE
8
BLACK
6
CONTINUOUS
10
-1.299
20
2.553
11
1.299
21
2.553
0
LINE
8
BLACK
6
CONTINUOUS
10
1.299
20
2.553
11
1.30073
21
2.552
  0
ENDSEC
  0
EOF
